<svg data-v-0dd9719b="" version="1.0" xmlns="http://www.w3.org/2000/svg" xmlns:xlink="http://www.w3.org/1999/xlink"
  width="100%" height="100%" viewBox="0 0 340.000000 250.000000" preserveAspectRatio="xMidYMid meet"
  color-interpolation-filters="sRGB" style="margin: auto;">
  <rect data-v-0dd9719b="" x="0" y="0" width="100%" height="100%" fill="#fff" fill-opacity="0" class="background">
  </rect>
  <g data-v-0dd9719b="" fill="#c2bb3f" class="pmspacesvg" transform="translate(76.08999633789062,101.89749908447266)">
    <!---->
    <g class="tp-name" opacity="1" transform="matrix(1,0,0,1,0,0)">
      <rect height="46.20500183105469" width="187.82000732421875" fill="none" stroke-width="3" x="0" y="0"
        stroke="#c2bb3f"></rect>
      <g transform="translate(2,0)">
        <rect data-gra="graph-name" x="0" y="0" height="46.205000000000005" width="46.205000000000005" fill="none">
        </rect>
        <g data-gra="path-name" transform="translate(3.266070404052737,3.0344000005126013)">
          <g transform="scale(1)">
            <path
              d="M25.33-35.30L25.54-35.13Q25.50-34.96 25.31-34.83Q25.11-34.70 24.92-34.57Q24.73-34.44 24.55-34.31Q24.38-34.19 24.38-34.01L24.38-34.01L24.38 0.43Q24.38 0.86 24.81 0.86L24.81 0.86L31.82 0.86Q32.29 0.86 32.77 0.32Q33.24-0.22 33.67-0.92Q34.10-1.63 34.46-2.32Q34.83-3.01 35.13-3.35L35.13-3.35Q35.30-3.44 35.39-3.44L35.39-3.44Q35.56-3.44 36.16-3.10Q36.77-2.75 37.52-2.21Q38.27-1.68 39.07-1.03Q39.86-0.39 40.40 0.15Q40.94 0.69 41.07 1.05Q41.19 1.42 40.68 1.42L40.68 1.42L1.63 1.42Q1.42 1.42 1.42 1.20L1.42 1.20Q1.42 0.99 1.63 0.99L1.63 0.99L17.63 0.99Q18.06 0.99 18.06 0.56L18.06 0.56L18.06-35.56Q18.06-35.91 18.21-35.95Q18.36-35.99 18.62-35.99L18.62-35.99Q19.18-35.99 19.72-35.91Q20.25-35.82 20.81-35.78L20.81-35.78Q21.93-35.69 23.07-35.60Q24.21-35.52 25.33-35.30L25.33-35.30ZM1.59-14.84L1.42-15.01Q1.42-15.18 1.46-15.27L1.46-15.27Q2.41-17.72 3.50-20.06Q4.60-22.40 5.46-24.85L5.46-24.85Q5.98-26.36 6.34-27.91Q6.71-29.46 7.05-31.00L7.05-31.00Q7.22-31.82 7.31-32.68Q7.40-33.54 7.70-34.31L7.70-34.31Q7.78-34.49 7.85-34.59Q7.91-34.70 8.13-34.70L8.13-34.70Q8.90-34.70 9.85-34.55Q10.79-34.40 11.76-34.10Q12.73-33.80 13.59-33.41Q14.45-33.02 15.09-32.59L15.09-32.59Q15.31-32.47 15.31-32.29L15.31-32.29Q15.31-32.21 15.14-32.06Q14.96-31.91 14.75-31.76Q14.53-31.61 14.34-31.45Q14.15-31.30 14.06-31.26L14.06-31.26Q13.89-31.09 13.70-30.75Q13.50-30.40 13.31-30.01Q13.12-29.63 12.96-29.26Q12.81-28.90 12.69-28.68L12.69-28.68Q12.26-27.82 11.55-26.47Q10.84-25.11 9.95-23.63Q9.07-22.15 8.04-20.62Q7.01-19.09 5.91-17.85Q4.82-16.60 3.72-15.78Q2.62-14.96 1.59-14.84L1.59-14.84ZM33.41-29.54L33.41-29.54Q33.63-29.46 34.38-28.94Q35.13-28.42 35.99-27.78Q36.85-27.13 37.58-26.55Q38.31-25.97 38.53-25.76L38.53-25.76Q38.66-25.63 38.74-25.43Q38.83-25.24 38.49-25.24L38.49-25.24L25.50-25.24Q25.33-25.24 25.33-25.37L25.33-25.37Q25.33-25.50 25.48-25.54Q25.63-25.59 25.71-25.63L25.71-25.63Q26.70-25.89 27.82-25.78Q28.94-25.67 29.93-25.67L29.93-25.67Q30.01-25.67 30.08-25.71Q30.14-25.76 30.23-25.80L30.23-25.80Q30.40-25.93 30.59-26.21Q30.79-26.49 30.87-26.70L30.87-26.70Q31.00-26.92 31.35-27.37Q31.69-27.82 32.08-28.27Q32.47-28.72 32.83-29.09Q33.20-29.46 33.41-29.54ZM16.90-25.50L17.11-25.28Q17.07-25.24 16.99-25.24L16.99-25.24L13.63-25.24Q13.46-25.24 13.29-25.26Q13.12-25.28 12.99-25.41L12.99-25.41Q12.99-25.54 13.44-25.56Q13.89-25.59 14.02-25.59L14.02-25.59Q14.75-25.63 15.46-25.59Q16.17-25.54 16.90-25.50L16.90-25.50ZM32.04-17.42L32.25-17.50Q32.68-17.46 33.56-16.92Q34.44-16.38 35.32-15.70Q36.21-15.01 36.87-14.28Q37.54-13.55 37.54-13.12L37.54-13.12Q37.54-12.99 37.41-12.94Q37.28-12.90 37.20-12.90L37.20-12.90L25.46-12.90Q25.24-12.90 25.24-13.12L25.24-13.12Q25.24-13.20 25.35-13.24Q25.46-13.29 25.54-13.29L25.54-13.29Q26.27-13.37 27.00-13.35Q27.74-13.33 28.47-13.33L28.47-13.33Q28.60-13.33 29.09-13.89Q29.58-14.45 30.19-15.18Q30.79-15.91 31.30-16.55Q31.82-17.20 32.04-17.42L32.04-17.42ZM6.88-13.07L7.05-13.20L17.07-13.20L17.20-13.07L17.07-12.90L7.05-12.90L6.88-13.07Z"
              transform="translate(-1.419, 36.352199998974804)"></path>
          </g>
        </g>
      </g>
      <g transform="translate(48.205000000000005,0)" mask="url(#b811c03d-db58-4813-b33c-26ce88223589)">
        <rect data-gra="graph-name" x="0" y="0" height="46.205000000000005" width="46.205000000000005"></rect>
        <g data-gra="path-name" fill="#fff" transform="translate(4.312499084472659,3.0344000005126013)">
          <g transform="scale(1)">
            <path
              d="M40.64-32.47L40.72-32.25L40.64-32.04Q40.55-31.95 40.33-31.84Q40.12-31.73 39.93-31.58Q39.73-31.43 39.58-31.28Q39.43-31.13 39.43-31.00L39.43-31.00L39.43 2.02Q39.43 2.32 38.87 2.58Q38.31 2.84 37.60 3.03Q36.89 3.23 36.21 3.35Q35.52 3.48 35.26 3.48L35.26 3.48Q34.87 3.48 34.72 3.44Q34.57 3.40 34.36 3.05L34.36 3.05Q34.27 2.88 34.23 2.52Q34.19 2.15 34.14 1.72Q34.10 1.29 34.10 0.90Q34.10 0.52 34.10 0.30L34.10 0.30L34.10-19.35Q34.10-19.78 33.67-19.78L33.67-19.78L12.34-19.78Q12.13-19.78 11.98-19.63Q11.83-19.48 11.78-19.26L11.78-19.26Q11.74-19.01 12.28-18.64Q12.81-18.28 13.50-17.95Q14.19-17.63 14.86-17.42Q15.52-17.20 15.78-17.20L15.78-17.20L26.23-17.20Q26.40-17.20 26.66-17.42Q26.92-17.63 27.20-17.91Q27.48-18.19 27.78-18.40Q28.08-18.62 28.29-18.62L28.29-18.62Q28.60-18.62 29.22-18.43Q29.84-18.23 30.44-17.89Q31.05-17.54 31.50-17.16Q31.95-16.77 31.95-16.38L31.95-16.38Q31.95-16.04 31.52-15.85Q31.09-15.65 31.09-15.27L31.09-15.27L31.09-3.44Q31.09-3.18 30.64-2.97Q30.19-2.75 29.61-2.60Q29.03-2.45 28.44-2.39Q27.86-2.32 27.65-2.32L27.65-2.32Q27.31-2.32 27.24-2.58Q27.18-2.84 27.13-3.18Q27.09-3.53 27.00-3.85Q26.92-4.17 26.57-4.30L26.57-4.30L16.17-4.30L15.95-4.21Q15.44-3.70 15.31-3.33Q15.18-2.97 15.03-2.69Q14.88-2.41 14.51-2.15Q14.15-1.89 13.12-1.59L13.12-1.59Q12.69-1.46 12.21-1.42Q11.74-1.38 11.35-1.68L11.35-1.68Q11.35-1.68 11.31-1.76L11.31-1.76L11.31-1.81L11.31-18.62Q11.31-18.79 11.12-19.01Q10.92-19.22 10.66-19.44Q10.41-19.65 10.21-19.84Q10.02-20.04 10.02-20.17L10.02-20.17Q10.02-20.25 10.15-20.30Q10.28-20.34 10.36-20.34L10.36-20.34L18.45-20.34Q18.66-20.34 18.79-20.60Q18.92-20.86 18.92-21.03L18.92-21.03Q18.92-22.45 18.73-23.09Q18.53-23.74 18.15-23.84Q17.76-23.95 17.26-23.69Q16.77-23.44 16.13-23.07Q15.48-22.70 14.77-22.38Q14.06-22.06 13.29-22.06L13.29-22.06Q12.90-22.06 12.90-22.36L12.90-22.36L12.60-30.53Q12.60-30.92 13.03-30.92L13.03-30.92Q13.63-30.92 14.19-30.66Q14.75-30.40 15.27-30.08Q15.78-29.76 16.34-29.50Q16.90-29.24 17.50-29.24L17.50-29.24L24.21-29.24Q24.38-29.24 24.68-29.52Q24.98-29.80 25.31-30.16Q25.63-30.53 25.95-30.85Q26.27-31.18 26.53-31.26L26.53-31.26Q26.70-31.30 27.22-30.94Q27.74-30.57 28.34-30.08Q28.94-29.58 29.50-29.13Q30.06-28.68 30.27-28.55L30.27-28.55L30.40-28.38Q30.49-28.17 30.25-27.97Q30.01-27.78 29.93-27.65L29.93-27.65Q29.89-27.56 29.80-27.05Q29.71-26.53 29.65-25.91Q29.58-25.28 29.54-24.73Q29.50-24.17 29.50-23.99L29.50-23.99Q29.50-23.61 29.97-22.98Q30.44-22.36 31.11-21.78Q31.78-21.20 32.44-20.77Q33.11-20.34 33.50-20.34L33.50-20.34Q33.58-20.34 33.84-20.58Q34.10-20.81 34.10-20.94L34.10-20.94Q34.10-21.33 34.10-22.30Q34.10-23.26 34.10-24.51Q34.10-25.76 34.10-27.13Q34.10-28.51 34.10-29.67Q34.10-30.83 34.06-31.65Q34.01-32.47 33.97-32.59L33.97-32.59Q33.67-32.68 32.14-32.70Q30.62-32.72 28.44-32.70Q26.27-32.68 23.74-32.64Q21.20-32.59 18.88-32.53Q16.55-32.47 14.71-32.42Q12.86-32.38 12.13-32.38L12.13-32.38Q11.31-32.38 10.56-32.53Q9.80-32.68 8.99-32.68L8.99-32.68Q8.82-32.68 8.56-32.55Q8.30-32.42 8.30-32.21L8.30-32.21L8.30-0.30Q8.30 0.13 8.73 0.13L8.73 0.13L32.90 0.13Q32.98 0.13 33.07 0.15Q33.15 0.17 33.15 0.26L33.15 0.26Q33.15 0.73 32.68 0.73L32.68 0.73Q32.04 0.73 30.06 0.73Q28.08 0.73 25.43 0.73Q22.79 0.73 19.91 0.71Q17.03 0.69 14.58 0.71Q12.13 0.73 10.49 0.75Q8.86 0.77 8.82 0.82L8.82 0.82Q8.21 1.25 7.93 1.74Q7.65 2.24 7.37 2.69Q7.10 3.14 6.58 3.44Q6.06 3.74 4.99 3.74L4.99 3.74Q4.86 3.74 4.60 3.76Q4.34 3.78 4.08 3.76Q3.83 3.74 3.63 3.63Q3.44 3.53 3.44 3.31L3.44 3.31Q3.44-6.36 3.29-15.93Q3.14-25.50 3.14-35.17L3.14-35.17Q3.14-35.26 3.20-35.41Q3.27-35.56 3.40-35.56L3.40-35.56Q3.91-35.56 4.73-35.20Q5.55-34.83 6.41-34.40Q7.27-33.97 8.02-33.60Q8.77-33.24 9.16-33.24L9.16-33.24L33.24-33.24Q33.76-33.24 34.12-33.69Q34.49-34.14 34.81-34.68Q35.13-35.22 35.45-35.67Q35.78-36.12 36.25-36.12L36.25-36.12Q36.42-36.12 37.04-35.63Q37.67-35.13 38.40-34.49Q39.13-33.84 39.78-33.24Q40.42-32.64 40.64-32.47L40.64-32.47ZM17.20-27.95L17.20-25.07Q17.20-24.64 17.63-24.64L17.63-24.64L24.51-24.64Q24.94-24.64 24.94-25.07L24.94-25.07L24.94-27.95Q24.94-28.38 24.51-28.38L24.51-28.38L17.63-28.38Q17.20-28.38 17.20-27.95L17.20-27.95ZM23.52-23.52L23.52-20.77Q23.52-20.34 23.95-20.34L23.95-20.34Q24.17-20.34 24.66-20.36Q25.16-20.38 25.69-20.45Q26.23-20.51 26.70-20.58Q27.18-20.64 27.31-20.73L27.31-20.73Q27.43-20.81 27.71-21.07Q27.99-21.33 28.27-21.63Q28.55-21.93 28.75-22.21Q28.94-22.49 28.94-22.66L28.94-22.66Q28.94-22.92 28.51-22.94Q28.08-22.96 27.52-22.90Q26.96-22.83 26.42-22.73Q25.89-22.62 25.71-22.62L25.71-22.62Q25.33-22.62 25.20-22.81Q25.07-23.01 24.98-23.22Q24.90-23.44 24.75-23.63Q24.60-23.82 24.12-23.82L24.12-23.82Q23.95-23.82 23.74-23.78Q23.52-23.74 23.52-23.52L23.52-23.52ZM15.48-15.91L15.48-5.29Q15.48-4.86 15.91-4.86L15.91-4.86L26.53-4.86Q26.96-4.86 26.96-5.29L26.96-5.29L26.96-15.91Q26.96-16.34 26.53-16.34L26.53-16.34L15.91-16.34Q15.48-16.34 15.48-15.91L15.48-15.91ZM24.90-7.65L24.90-7.65Q24.73-7.35 24.36-7.27Q23.99-7.18 23.65-7.18L23.65-7.18Q22.88-7.18 22.70-7.35Q22.53-7.53 22.49-7.76Q22.45-8.00 22.25-8.17Q22.06-8.34 21.29-8.34L21.29-8.34Q20.81-8.34 20.47-8.11Q20.12-7.87 19.80-7.61Q19.48-7.35 19.11-7.12Q18.75-6.88 18.32-6.88L18.32-6.88Q17.97-6.88 17.78-6.90Q17.59-6.92 17.46-7.27L17.46-7.27Q17.37-7.53 17.33-8.54Q17.29-9.55 17.24-10.73Q17.20-11.91 17.20-13.01Q17.20-14.10 17.20-14.53L17.20-14.53Q17.20-14.66 17.29-14.79Q17.37-14.92 17.50-14.92L17.50-14.92Q17.93-14.92 18.36-14.73Q18.79-14.53 19.24-14.32Q19.69-14.10 20.19-13.91Q20.68-13.72 21.20-13.72L21.20-13.72Q21.59-13.72 21.84-13.91Q22.10-14.10 22.32-14.32Q22.53-14.53 22.77-14.73Q23.01-14.92 23.35-14.92L23.35-14.92Q23.52-14.92 23.89-14.68Q24.25-14.45 24.62-14.13Q24.98-13.80 25.26-13.48Q25.54-13.16 25.54-12.99L25.54-12.99Q25.50-12.77 25.41-12.51Q25.33-12.26 25.24-12.04L25.24-12.04Q24.98-11.05 25.07-9.98Q25.16-8.90 24.94-7.87L24.94-7.87Q24.94-7.78 24.92-7.76Q24.90-7.74 24.90-7.65ZM20.08-12.60L20.08-9.59Q20.08-9.16 20.51-9.16L20.51-9.16L21.93-9.16Q22.36-9.16 22.36-9.59L22.36-9.59L22.36-12.51Q22.36-12.69 22.19-12.86L22.19-12.86Q21.72-12.94 21.22-12.94Q20.73-12.94 20.25-12.86L20.25-12.86Q20.17-12.77 20.08-12.60L20.08-12.60Z"
              transform="translate(-3.1390000000000002, 36.352199998974804)"></path>
          </g>
        </g>
      </g>
      <g transform="translate(94.41000000000001,0)">
        <rect data-gra="graph-name" x="0" y="0" height="46.205000000000005" width="46.205000000000005" fill="none">
        </rect>
        <g data-gra="path-name" transform="translate(3.49249938964844,3.0344000005126013)">
          <g transform="scale(1)">
            <path
              d="M17.16-14.84L17.16-14.84Q17.20-14.88 17.20-15.01L17.20-15.01Q17.20-16.86 17.42-18.66Q17.63-20.47 17.89-22.27L17.89-22.27Q18.10-23.91 18.10-25.52Q18.10-27.13 18.10-28.77L18.10-28.77Q18.10-30.49 18.08-32.19Q18.06-33.88 18.06-35.60L18.06-35.60Q18.06-36.03 18.58-36.03L18.58-36.03Q19.09-36.03 19.63-35.93Q20.17-35.82 20.68-35.73L20.68-35.73Q21.67-35.60 22.64-35.54Q23.61-35.48 24.60-35.35L24.60-35.35Q24.73-35.30 24.90-35.28Q25.07-35.26 25.07-35.05L25.07-35.05Q25.07-34.87 24.92-34.70Q24.77-34.53 24.57-34.36Q24.38-34.19 24.23-34.01Q24.08-33.84 24.08-33.67L24.08-33.67Q24.08-30.96 24.12-28.32Q24.17-25.67 23.99-22.96L23.99-22.96Q23.74-18.53 22.81-14.94Q21.89-11.35 20.08-8.45Q18.28-5.55 15.46-3.18Q12.64-0.82 8.60 1.16L8.60 1.16Q8.26 1.33 7.40 1.70Q6.54 2.06 5.59 2.43Q4.64 2.80 3.78 3.07Q2.92 3.35 2.62 3.35L2.62 3.35Q2.32 3.35 2.32 3.18L2.32 3.18Q2.32 2.92 3.14 2.37Q3.96 1.81 5.01 1.18Q6.06 0.56 7.03-0.02Q8.00-0.60 8.30-0.86L8.30-0.86Q11.35-3.61 13.76-7.20Q16.17-10.79 17.16-14.84ZM4.13-18.40L4.00-18.49Q4.00-18.62 4.04-18.71L4.04-18.71Q4.86-20.94 5.68-23.18Q6.49-25.41 7.10-27.74L7.10-27.74Q7.40-28.85 7.63-30.01Q7.87-31.18 8.08-32.34L8.08-32.34Q8.13-32.47 8.17-32.87Q8.21-33.28 8.32-33.71Q8.43-34.14 8.54-34.49Q8.64-34.83 8.82-34.83L8.82-34.83Q9.07-34.83 9.98-34.62Q10.88-34.40 11.93-34.10Q12.99-33.80 13.91-33.54Q14.84-33.28 15.18-33.15L15.18-33.15Q15.52-33.07 15.52-32.81L15.52-32.81Q15.52-32.77 15.35-32.64Q15.18-32.51 14.99-32.34Q14.79-32.16 14.58-32.01Q14.36-31.86 14.32-31.82L14.32-31.82Q14.06-31.56 13.80-31.07Q13.55-30.57 13.29-30.01Q13.03-29.46 12.79-28.92Q12.56-28.38 12.38-28.04L12.38-28.04Q11.70-26.62 10.90-25.18Q10.11-23.74 9.12-22.45Q8.13-21.16 6.90-20.10Q5.68-19.05 4.13-18.40L4.13-18.40ZM36.64-26.10L25.16-26.10Q24.94-26.10 24.94-26.32L24.94-26.32Q24.94-26.40 25.03-26.45Q25.11-26.49 25.20-26.49L25.20-26.49Q26.02-26.70 26.79-26.62Q27.56-26.53 28.38-26.53L28.38-26.53Q28.77-26.53 29.26-27.15Q29.76-27.78 30.25-28.53Q30.75-29.28 31.18-29.91Q31.61-30.53 31.82-30.53L31.82-30.53Q32.04-30.53 32.59-30.21Q33.15-29.89 33.84-29.39Q34.53-28.90 35.24-28.32Q35.95-27.74 36.42-27.24Q36.89-26.75 37.00-26.42Q37.11-26.10 36.64-26.10L36.64-26.10ZM13.12-26.23L13.12-26.23Q13.29-26.32 13.76-26.38Q14.23-26.45 14.77-26.47Q15.31-26.49 15.82-26.49Q16.34-26.49 16.60-26.49L16.60-26.49Q16.68-26.49 16.94-26.49Q17.20-26.49 17.20-26.32L17.20-26.32Q17.20-26.10 17.03-26.10L17.03-26.10L13.72-26.10Q13.29-26.10 13.12-26.23ZM40.25-15.48L25.07-15.48Q24.94-15.48 24.79-15.61Q24.64-15.74 24.55-15.82L24.55-15.82Q24.64-15.91 24.73-15.91L24.73-15.91L31.82-15.91Q32.25-15.91 32.79-16.58Q33.33-17.24 33.86-18.04Q34.40-18.83 34.85-19.50Q35.30-20.17 35.52-20.17L35.52-20.17Q35.69-20.17 35.82-20.04L35.82-20.04Q36.98-19.01 38.21-18.06Q39.43-17.11 40.64-16.13L40.64-16.13L40.72-15.91L40.64-15.70L40.55-15.61L40.25-15.48ZM2.28-15.65L2.45-15.78Q3.05-15.78 4.30-15.78Q5.55-15.78 7.05-15.80Q8.56-15.82 10.17-15.82Q11.78-15.82 13.09-15.80Q14.41-15.78 15.27-15.78Q16.13-15.78 16.17-15.74L16.17-15.74Q16.17-15.65 15.95-15.57Q15.74-15.48 15.65-15.48L15.65-15.48L2.45-15.48L2.28-15.65ZM24.12-12.77L24.25-12.90L24.47-12.77Q25.50-10.97 26.94-9.55Q28.38-8.13 30.08-7.01Q31.78-5.89 33.65-5.07Q35.52-4.26 37.45-3.66L37.45-3.66Q38.36-3.35 39.30-3.16Q40.25-2.97 41.15-2.62L41.15-2.62Q41.41-2.54 41.50-2.32L41.50-2.32L41.37-2.19Q41.15-2.02 40.89-1.91Q40.64-1.81 40.42-1.63L40.42-1.63Q39.22-0.95 38.64-0.24Q38.05 0.47 37.45 1.72L37.45 1.72Q37.37 1.85 37.26 2.19Q37.15 2.54 37.00 2.88Q36.85 3.23 36.68 3.50Q36.51 3.78 36.38 3.78L36.38 3.78Q36.29 3.78 36.12 3.70L36.12 3.70Q31.52 0.82 28.34-3.27Q25.16-7.35 24.12-12.77L24.12-12.77Z"
              transform="translate(-2.2790000000000004, 36.352199998974804)"></path>
          </g>
        </g>
      </g>
      <g transform="translate(140.615,0)" mask="url(#e661958c-b36f-4459-94d2-3dadacc89cf5)">
        <rect data-gra="graph-name" x="0" y="0" height="46.205000000000005" width="46.205000000000005"></rect>
        <g data-gra="path-name" fill="#fff" transform="translate(3.002501525878909,3.0344000005126013)">
          <g transform="scale(1)">
            <path
              d="M22.10-26.92L23.26-33.50Q23.35-34.10 23.44-34.74Q23.52-35.39 23.74-35.99L23.74-35.99Q23.82-36.25 23.93-36.31Q24.04-36.38 24.30-36.34L24.30-36.34Q24.60-36.29 24.88-36.23Q25.16-36.16 25.46-36.08L25.46-36.08Q25.80-35.99 26.68-35.82Q27.56-35.65 28.51-35.41Q29.46-35.17 30.23-34.87Q31.00-34.57 31.09-34.27L31.09-34.27Q31.09-34.23 30.85-33.71Q30.62-33.20 30.29-32.55Q29.97-31.91 29.69-31.33Q29.41-30.75 29.33-30.62L29.33-30.62Q29.03-29.97 28.40-28.72Q27.78-27.48 26.96-25.95Q26.14-24.42 25.22-22.83Q24.30-21.24 23.37-19.95Q22.45-18.66 21.56-17.82Q20.68-16.99 20.00-16.99L20.00-16.99Q19.82-16.99 19.80-17.18Q19.78-17.37 19.78-17.46L19.78-17.46Q19.78-18.10 20.12-19.07Q20.47-20.04 20.68-20.73L20.68-20.73Q21.16-22.23 21.48-23.80Q21.80-25.37 22.10-26.92L22.10-26.92ZM15.09-35.17L15.35-35.26L15.61-35.17Q15.78-35.05 16.45-34.49Q17.11-33.93 17.87-33.33Q18.62-32.72 19.22-32.25Q19.82-31.78 19.82-31.73L19.82-31.73Q19.82-31.48 19.63-31.28Q19.44-31.09 19.20-30.90Q18.96-30.70 18.79-30.51Q18.62-30.32 18.62-30.14L18.62-30.14Q18.62-28.25 18.68-26.38Q18.75-24.51 18.75-22.62L18.75-22.62Q18.75-22.23 18.73-21.07Q18.71-19.91 18.68-18.36Q18.66-16.81 18.60-15.09Q18.53-13.37 18.49-11.93Q18.45-10.49 18.40-9.52Q18.36-8.56 18.32-8.51L18.32-8.51Q18.10-8.17 17.39-8.00Q16.68-7.83 15.93-7.70Q15.18-7.57 14.60-7.35Q14.02-7.14 14.02-6.71L14.02-6.71Q14.02-6.54 14.36-6.41Q14.71-6.28 14.84-6.19L14.84-6.19Q15.48-5.93 16.25-5.50Q17.03-5.07 17.69-4.52Q18.36-3.96 18.79-3.27Q19.22-2.58 19.22-1.76L19.22-1.76Q19.22-0.52 18.55 0.17Q17.89 0.86 16.64 0.86L16.64 0.86Q16.17 0.86 15.27-0.06Q14.36-0.99 13.48-2.19Q12.60-3.40 11.93-4.56Q11.27-5.72 11.27-6.19L11.27-6.19Q11.27-6.41 11.74-6.58Q12.21-6.75 12.66-6.94Q13.12-7.14 13.27-7.42Q13.42-7.70 12.73-8.17L12.73-8.17Q12.64-8.21 12.58-8.23Q12.51-8.26 12.43-8.30L12.43-8.30L9.16-8.30Q8.90-8.30 8.58-8.11Q8.26-7.91 8.00-7.65Q7.74-7.40 7.55-7.07Q7.35-6.75 7.35-6.49L7.35-6.49Q7.35-6.41 7.87-6.08Q8.39-5.76 9.07-5.40Q9.76-5.03 10.36-4.71Q10.97-4.39 11.18-4.30L11.18-4.30L11.18-4.00Q10.92-3.91 10.66-3.85Q10.41-3.78 10.19-3.61L10.19-3.61Q9.80-3.35 9.42-2.86Q9.03-2.37 8.69-2.02L8.69-2.02Q8.26-1.55 7.33-0.65Q6.41 0.26 5.38 1.16Q4.34 2.06 3.35 2.75Q2.37 3.44 1.81 3.44L1.81 3.44Q1.55 3.44 1.48 3.38Q1.42 3.31 1.42 3.05L1.42 3.05Q1.42 2.41 2.00 1.29Q2.58 0.17 3.29-1.08Q4.00-2.32 4.60-3.50Q5.20-4.69 5.20-5.42L5.20-5.42Q5.20-6.19 4.92-6.34Q4.64-6.49 4.32-6.47Q4.00-6.45 3.72-6.45Q3.44-6.45 3.44-6.88L3.44-6.88L3.14-34.27Q3.14-34.70 3.57-34.70L3.57-34.70Q4.56-34.70 5.50-34.38Q6.45-34.06 7.42-33.65Q8.39-33.24 9.37-32.92Q10.36-32.59 11.48-32.59L11.48-32.59Q11.70-32.59 12.13-32.62Q12.56-32.64 12.69-32.77L12.69-32.77L15.09-35.17ZM8.60-31.39L8.60-9.33Q8.60-8.90 9.03-8.90L9.03-8.90L12.77-8.90Q13.20-8.90 13.20-9.33L13.20-9.33L13.20-31.39Q13.20-31.82 12.77-31.82L12.77-31.82L9.03-31.82Q8.60-31.82 8.60-31.39L8.60-31.39ZM41.28-1.29L41.15-1.12Q40.29-0.65 39.69 0.02Q39.09 0.69 38.61 1.38Q38.14 2.06 37.69 2.67Q37.24 3.27 36.68 3.57L36.68 3.57Q36.46 3.66 36.40 3.66Q36.34 3.66 36.16 3.53L36.16 3.53Q34.83 2.54 33.60 1.03Q32.38-0.47 31.48-1.85L31.48-1.85Q31.09-2.45 30.72-3.05Q30.36-3.66 29.93-4.26L29.93-4.26Q29.80-4.34 29.65-4.34Q29.50-4.34 29.37-4.34L29.37-4.34Q28.77-3.96 28.29-3.38Q27.82-2.80 27.31-2.28L27.31-2.28Q25.67-0.69 23.56 0.73Q21.46 2.15 19.26 2.80L19.26 2.80Q19.18 2.84 18.90 2.88Q18.62 2.92 18.62 2.71L18.62 2.71Q18.62 2.54 19.29 1.91Q19.95 1.29 20.94 0.37Q21.93-0.56 23.09-1.70Q24.25-2.84 25.24-4.02Q26.23-5.20 26.90-6.39Q27.56-7.57 27.56-8.56L27.56-8.56Q27.56-9.98 27.20-11.31Q26.83-12.64 26.38-13.95Q25.93-15.27 25.56-16.60Q25.20-17.93 25.20-19.35L25.20-19.35Q25.20-19.57 25.20-19.74Q25.20-19.91 25.33-20.08L25.33-20.08Q25.46-20.04 25.69-19.39Q25.93-18.75 26.23-17.80Q26.53-16.86 26.88-15.74Q27.22-14.62 27.61-13.70Q27.99-12.77 28.40-12.15Q28.81-11.52 29.24-11.52L29.24-11.52Q29.33-11.52 29.41-11.61L29.41-11.61Q29.71-12.04 30.01-13.05Q30.32-14.06 30.59-15.37Q30.87-16.68 31.09-18.15Q31.30-19.61 31.45-20.98Q31.61-22.36 31.69-23.50Q31.78-24.64 31.78-25.24L31.78-25.24Q31.78-25.63 31.30-25.69Q30.83-25.76 30.21-25.71Q29.58-25.67 28.98-25.63Q28.38-25.59 28.12-25.76L28.12-25.76Q28.47-26.06 29.43-26.17Q30.40-26.27 31.43-26.32Q32.47-26.36 33.28-26.36Q34.10-26.36 34.23-26.45L34.23-26.45Q34.62-26.79 34.89-27.22Q35.17-27.65 35.45-28.12Q35.73-28.60 36.03-29.05Q36.34-29.50 36.72-29.89L36.72-29.89L36.94-29.97Q37.11-29.89 37.73-29.43Q38.36-28.98 39.07-28.40Q39.78-27.82 40.40-27.31Q41.02-26.79 41.15-26.66L41.15-26.66Q41.28-26.49 41.45-26.27Q41.62-26.06 41.62-25.84L41.62-25.84Q41.62-25.76 41.50-25.71Q41.37-25.67 41.28-25.67L41.28-25.67Q41.02-25.67 40.59-25.71Q40.16-25.76 39.71-25.76Q39.26-25.76 38.89-25.67Q38.53-25.59 38.36-25.28L38.36-25.28Q38.10-24.77 37.97-24.12Q37.84-23.48 37.75-22.92L37.75-22.92Q37.45-21.41 37.17-19.89Q36.89-18.36 36.42-16.90L36.42-16.90Q36.12-15.95 35.50-14.81Q34.87-13.67 34.23-12.47Q33.58-11.27 33.11-10.15Q32.64-9.03 32.64-8.13L32.64-8.13Q32.64-7.48 33.76-6.51Q34.87-5.55 36.34-4.56Q37.80-3.57 39.19-2.73Q40.59-1.89 41.19-1.51L41.19-1.51L41.28-1.29ZM9.55-24.42L9.63-24.55Q9.72-24.60 10.11-24.62Q10.49-24.64 10.90-24.64Q11.31-24.64 11.70-24.62Q12.08-24.60 12.17-24.55L12.17-24.55L12.26-24.42Q12.17-24.38 11.78-24.36Q11.40-24.34 10.90-24.34Q10.41-24.34 10.00-24.36Q9.59-24.38 9.55-24.42L9.55-24.42ZM9.89-16.64L9.89-16.64Q9.89-16.77 10.17-16.88Q10.45-16.99 10.79-16.99Q11.14-16.99 11.46-16.90Q11.78-16.81 11.91-16.64L11.91-16.64Q11.91-16.51 11.63-16.43Q11.35-16.34 10.99-16.32Q10.62-16.30 10.30-16.38Q9.98-16.47 9.89-16.64Z"
              transform="translate(-1.419, 36.352199998974804)"></path>
          </g>
        </g>
      </g>
    </g>
    <!---->
  </g>
  <mask id="b811c03d-db58-4813-b33c-26ce88223589">
    <rect data-gra="graph-name" x="0" y="0" height="46.205000000000005" width="46.205000000000005" fill="white"></rect>
    <g data-gra="path-name" transform="translate(4.312499084472659,3.0344000005126013)" fill="black">
      <g transform="scale(1)">
        <path
          d="M40.64-32.47L40.72-32.25L40.64-32.04Q40.55-31.95 40.33-31.84Q40.12-31.73 39.93-31.58Q39.73-31.43 39.58-31.28Q39.43-31.13 39.43-31.00L39.43-31.00L39.43 2.02Q39.43 2.32 38.87 2.58Q38.31 2.84 37.60 3.03Q36.89 3.23 36.21 3.35Q35.52 3.48 35.26 3.48L35.26 3.48Q34.87 3.48 34.72 3.44Q34.57 3.40 34.36 3.05L34.36 3.05Q34.27 2.88 34.23 2.52Q34.19 2.15 34.14 1.72Q34.10 1.29 34.10 0.90Q34.10 0.52 34.10 0.30L34.10 0.30L34.10-19.35Q34.10-19.78 33.67-19.78L33.67-19.78L12.34-19.78Q12.13-19.78 11.98-19.63Q11.83-19.48 11.78-19.26L11.78-19.26Q11.74-19.01 12.28-18.64Q12.81-18.28 13.50-17.95Q14.19-17.63 14.86-17.42Q15.52-17.20 15.78-17.20L15.78-17.20L26.23-17.20Q26.40-17.20 26.66-17.42Q26.92-17.63 27.20-17.91Q27.48-18.19 27.78-18.40Q28.08-18.62 28.29-18.62L28.29-18.62Q28.60-18.62 29.22-18.43Q29.84-18.23 30.44-17.89Q31.05-17.54 31.50-17.16Q31.95-16.77 31.95-16.38L31.95-16.38Q31.95-16.04 31.52-15.85Q31.09-15.65 31.09-15.27L31.09-15.27L31.09-3.44Q31.09-3.18 30.64-2.97Q30.19-2.75 29.61-2.60Q29.03-2.45 28.44-2.39Q27.86-2.32 27.65-2.32L27.65-2.32Q27.31-2.32 27.24-2.58Q27.18-2.84 27.13-3.18Q27.09-3.53 27.00-3.85Q26.92-4.17 26.57-4.30L26.57-4.30L16.17-4.30L15.95-4.21Q15.44-3.70 15.31-3.33Q15.18-2.97 15.03-2.69Q14.88-2.41 14.51-2.15Q14.15-1.89 13.12-1.59L13.12-1.59Q12.69-1.46 12.21-1.42Q11.74-1.38 11.35-1.68L11.35-1.68Q11.35-1.68 11.31-1.76L11.31-1.76L11.31-1.81L11.31-18.62Q11.31-18.79 11.12-19.01Q10.92-19.22 10.66-19.44Q10.41-19.65 10.21-19.84Q10.02-20.04 10.02-20.17L10.02-20.17Q10.02-20.25 10.15-20.30Q10.28-20.34 10.36-20.34L10.36-20.34L18.45-20.34Q18.66-20.34 18.79-20.60Q18.92-20.86 18.92-21.03L18.92-21.03Q18.92-22.45 18.73-23.09Q18.53-23.74 18.15-23.84Q17.76-23.95 17.26-23.69Q16.77-23.44 16.13-23.07Q15.48-22.70 14.77-22.38Q14.06-22.06 13.29-22.06L13.29-22.06Q12.90-22.06 12.90-22.36L12.90-22.36L12.60-30.53Q12.60-30.92 13.03-30.92L13.03-30.92Q13.63-30.92 14.19-30.66Q14.75-30.40 15.27-30.08Q15.78-29.76 16.34-29.50Q16.90-29.24 17.50-29.24L17.50-29.24L24.21-29.24Q24.38-29.24 24.68-29.52Q24.98-29.80 25.31-30.16Q25.63-30.53 25.95-30.85Q26.27-31.18 26.53-31.26L26.53-31.26Q26.70-31.30 27.22-30.94Q27.74-30.57 28.34-30.08Q28.94-29.58 29.50-29.13Q30.06-28.68 30.27-28.55L30.27-28.55L30.40-28.38Q30.49-28.17 30.25-27.97Q30.01-27.78 29.93-27.65L29.93-27.65Q29.89-27.56 29.80-27.05Q29.71-26.53 29.65-25.91Q29.58-25.28 29.54-24.73Q29.50-24.17 29.50-23.99L29.50-23.99Q29.50-23.61 29.97-22.98Q30.44-22.36 31.11-21.78Q31.78-21.20 32.44-20.77Q33.11-20.34 33.50-20.34L33.50-20.34Q33.58-20.34 33.84-20.58Q34.10-20.81 34.10-20.94L34.10-20.94Q34.10-21.33 34.10-22.30Q34.10-23.26 34.10-24.51Q34.10-25.76 34.10-27.13Q34.10-28.51 34.10-29.67Q34.10-30.83 34.06-31.65Q34.01-32.47 33.97-32.59L33.97-32.59Q33.67-32.68 32.14-32.70Q30.62-32.72 28.44-32.70Q26.27-32.68 23.74-32.64Q21.20-32.59 18.88-32.53Q16.55-32.47 14.71-32.42Q12.86-32.38 12.13-32.38L12.13-32.38Q11.31-32.38 10.56-32.53Q9.80-32.68 8.99-32.68L8.99-32.68Q8.82-32.68 8.56-32.55Q8.30-32.42 8.30-32.21L8.30-32.21L8.30-0.30Q8.30 0.13 8.73 0.13L8.73 0.13L32.90 0.13Q32.98 0.13 33.07 0.15Q33.15 0.17 33.15 0.26L33.15 0.26Q33.15 0.73 32.68 0.73L32.68 0.73Q32.04 0.73 30.06 0.73Q28.08 0.73 25.43 0.73Q22.79 0.73 19.91 0.71Q17.03 0.69 14.58 0.71Q12.13 0.73 10.49 0.75Q8.86 0.77 8.82 0.82L8.82 0.82Q8.21 1.25 7.93 1.74Q7.65 2.24 7.37 2.69Q7.10 3.14 6.58 3.44Q6.06 3.74 4.99 3.74L4.99 3.74Q4.86 3.74 4.60 3.76Q4.34 3.78 4.08 3.76Q3.83 3.74 3.63 3.63Q3.44 3.53 3.44 3.31L3.44 3.31Q3.44-6.36 3.29-15.93Q3.14-25.50 3.14-35.17L3.14-35.17Q3.14-35.26 3.20-35.41Q3.27-35.56 3.40-35.56L3.40-35.56Q3.91-35.56 4.73-35.20Q5.55-34.83 6.41-34.40Q7.27-33.97 8.02-33.60Q8.77-33.24 9.16-33.24L9.16-33.24L33.24-33.24Q33.76-33.24 34.12-33.69Q34.49-34.14 34.81-34.68Q35.13-35.22 35.45-35.67Q35.78-36.12 36.25-36.12L36.25-36.12Q36.42-36.12 37.04-35.63Q37.67-35.13 38.40-34.49Q39.13-33.84 39.78-33.24Q40.42-32.64 40.64-32.47L40.64-32.47ZM17.20-27.95L17.20-25.07Q17.20-24.64 17.63-24.64L17.63-24.64L24.51-24.64Q24.94-24.64 24.94-25.07L24.94-25.07L24.94-27.95Q24.94-28.38 24.51-28.38L24.51-28.38L17.63-28.38Q17.20-28.38 17.20-27.95L17.20-27.95ZM23.52-23.52L23.52-20.77Q23.52-20.34 23.95-20.34L23.95-20.34Q24.17-20.34 24.66-20.36Q25.16-20.38 25.69-20.45Q26.23-20.51 26.70-20.58Q27.18-20.64 27.31-20.73L27.31-20.73Q27.43-20.81 27.71-21.07Q27.99-21.33 28.27-21.63Q28.55-21.93 28.75-22.21Q28.94-22.49 28.94-22.66L28.94-22.66Q28.94-22.92 28.51-22.94Q28.08-22.96 27.52-22.90Q26.96-22.83 26.42-22.73Q25.89-22.62 25.71-22.62L25.71-22.62Q25.33-22.62 25.20-22.81Q25.07-23.01 24.98-23.22Q24.90-23.44 24.75-23.63Q24.60-23.82 24.12-23.82L24.12-23.82Q23.95-23.82 23.74-23.78Q23.52-23.74 23.52-23.52L23.52-23.52ZM15.48-15.91L15.48-5.29Q15.48-4.86 15.91-4.86L15.91-4.86L26.53-4.86Q26.96-4.86 26.96-5.29L26.96-5.29L26.96-15.91Q26.96-16.34 26.53-16.34L26.53-16.34L15.91-16.34Q15.48-16.34 15.48-15.91L15.48-15.91ZM24.90-7.65L24.90-7.65Q24.73-7.35 24.36-7.27Q23.99-7.18 23.65-7.18L23.65-7.18Q22.88-7.18 22.70-7.35Q22.53-7.53 22.49-7.76Q22.45-8.00 22.25-8.17Q22.06-8.34 21.29-8.34L21.29-8.34Q20.81-8.34 20.47-8.11Q20.12-7.87 19.80-7.61Q19.48-7.35 19.11-7.12Q18.75-6.88 18.32-6.88L18.32-6.88Q17.97-6.88 17.78-6.90Q17.59-6.92 17.46-7.27L17.46-7.27Q17.37-7.53 17.33-8.54Q17.29-9.55 17.24-10.73Q17.20-11.91 17.20-13.01Q17.20-14.10 17.20-14.53L17.20-14.53Q17.20-14.66 17.29-14.79Q17.37-14.92 17.50-14.92L17.50-14.92Q17.93-14.92 18.36-14.73Q18.79-14.53 19.24-14.32Q19.69-14.10 20.19-13.91Q20.68-13.72 21.20-13.72L21.20-13.72Q21.59-13.72 21.84-13.91Q22.10-14.10 22.32-14.32Q22.53-14.53 22.77-14.73Q23.01-14.92 23.35-14.92L23.35-14.92Q23.52-14.92 23.89-14.68Q24.25-14.45 24.62-14.13Q24.98-13.80 25.26-13.48Q25.54-13.16 25.54-12.99L25.54-12.99Q25.50-12.77 25.41-12.51Q25.33-12.26 25.24-12.04L25.24-12.04Q24.98-11.05 25.07-9.98Q25.16-8.90 24.94-7.87L24.94-7.87Q24.94-7.78 24.92-7.76Q24.90-7.74 24.90-7.65ZM20.08-12.60L20.08-9.59Q20.08-9.16 20.51-9.16L20.51-9.16L21.93-9.16Q22.36-9.16 22.36-9.59L22.36-9.59L22.36-12.51Q22.36-12.69 22.19-12.86L22.19-12.86Q21.72-12.94 21.22-12.94Q20.73-12.94 20.25-12.86L20.25-12.86Q20.17-12.77 20.08-12.60L20.08-12.60Z"
          transform="translate(-3.1390000000000002, 36.352199998974804)"></path>
      </g>
    </g>
  </mask>
  <mask id="e661958c-b36f-4459-94d2-3dadacc89cf5">
    <rect data-gra="graph-name" x="0" y="0" height="46.205000000000005" width="46.205000000000005" fill="white"></rect>
    <g data-gra="path-name" transform="translate(3.002501525878909,3.0344000005126013)" fill="black">
      <g transform="scale(1)">
        <path
          d="M22.10-26.92L23.26-33.50Q23.35-34.10 23.44-34.74Q23.52-35.39 23.74-35.99L23.74-35.99Q23.82-36.25 23.93-36.31Q24.04-36.38 24.30-36.34L24.30-36.34Q24.60-36.29 24.88-36.23Q25.16-36.16 25.46-36.08L25.46-36.08Q25.80-35.99 26.68-35.82Q27.56-35.65 28.51-35.41Q29.46-35.17 30.23-34.87Q31.00-34.57 31.09-34.27L31.09-34.27Q31.09-34.23 30.85-33.71Q30.62-33.20 30.29-32.55Q29.97-31.91 29.69-31.33Q29.41-30.75 29.33-30.62L29.33-30.62Q29.03-29.97 28.40-28.72Q27.78-27.48 26.96-25.95Q26.14-24.42 25.22-22.83Q24.30-21.24 23.37-19.95Q22.45-18.66 21.56-17.82Q20.68-16.99 20.00-16.99L20.00-16.99Q19.82-16.99 19.80-17.18Q19.78-17.37 19.78-17.46L19.78-17.46Q19.78-18.10 20.12-19.07Q20.47-20.04 20.68-20.73L20.68-20.73Q21.16-22.23 21.48-23.80Q21.80-25.37 22.10-26.92L22.10-26.92ZM15.09-35.17L15.35-35.26L15.61-35.17Q15.78-35.05 16.45-34.49Q17.11-33.93 17.87-33.33Q18.62-32.72 19.22-32.25Q19.82-31.78 19.82-31.73L19.82-31.73Q19.82-31.48 19.63-31.28Q19.44-31.09 19.20-30.90Q18.96-30.70 18.79-30.51Q18.62-30.32 18.62-30.14L18.62-30.14Q18.62-28.25 18.68-26.38Q18.75-24.51 18.75-22.62L18.75-22.62Q18.75-22.23 18.73-21.07Q18.71-19.91 18.68-18.36Q18.66-16.81 18.60-15.09Q18.53-13.37 18.49-11.93Q18.45-10.49 18.40-9.52Q18.36-8.56 18.32-8.51L18.32-8.51Q18.10-8.17 17.39-8.00Q16.68-7.83 15.93-7.70Q15.18-7.57 14.60-7.35Q14.02-7.14 14.02-6.71L14.02-6.71Q14.02-6.54 14.36-6.41Q14.71-6.28 14.84-6.19L14.84-6.19Q15.48-5.93 16.25-5.50Q17.03-5.07 17.69-4.52Q18.36-3.96 18.79-3.27Q19.22-2.58 19.22-1.76L19.22-1.76Q19.22-0.52 18.55 0.17Q17.89 0.86 16.64 0.86L16.64 0.86Q16.17 0.86 15.27-0.06Q14.36-0.99 13.48-2.19Q12.60-3.40 11.93-4.56Q11.27-5.72 11.27-6.19L11.27-6.19Q11.27-6.41 11.74-6.58Q12.21-6.75 12.66-6.94Q13.12-7.14 13.27-7.42Q13.42-7.70 12.73-8.17L12.73-8.17Q12.64-8.21 12.58-8.23Q12.51-8.26 12.43-8.30L12.43-8.30L9.16-8.30Q8.90-8.30 8.58-8.11Q8.26-7.91 8.00-7.65Q7.74-7.40 7.55-7.07Q7.35-6.75 7.35-6.49L7.35-6.49Q7.35-6.41 7.87-6.08Q8.39-5.76 9.07-5.40Q9.76-5.03 10.36-4.71Q10.97-4.39 11.18-4.30L11.18-4.30L11.18-4.00Q10.92-3.91 10.66-3.85Q10.41-3.78 10.19-3.61L10.19-3.61Q9.80-3.35 9.42-2.86Q9.03-2.37 8.69-2.02L8.69-2.02Q8.26-1.55 7.33-0.65Q6.41 0.26 5.38 1.16Q4.34 2.06 3.35 2.75Q2.37 3.44 1.81 3.44L1.81 3.44Q1.55 3.44 1.48 3.38Q1.42 3.31 1.42 3.05L1.42 3.05Q1.42 2.41 2.00 1.29Q2.58 0.17 3.29-1.08Q4.00-2.32 4.60-3.50Q5.20-4.69 5.20-5.42L5.20-5.42Q5.20-6.19 4.92-6.34Q4.64-6.49 4.32-6.47Q4.00-6.45 3.72-6.45Q3.44-6.45 3.44-6.88L3.44-6.88L3.14-34.27Q3.14-34.70 3.57-34.70L3.57-34.70Q4.56-34.70 5.50-34.38Q6.45-34.06 7.42-33.65Q8.39-33.24 9.37-32.92Q10.36-32.59 11.48-32.59L11.48-32.59Q11.70-32.59 12.13-32.62Q12.56-32.64 12.69-32.77L12.69-32.77L15.09-35.17ZM8.60-31.39L8.60-9.33Q8.60-8.90 9.03-8.90L9.03-8.90L12.77-8.90Q13.20-8.90 13.20-9.33L13.20-9.33L13.20-31.39Q13.20-31.82 12.77-31.82L12.77-31.82L9.03-31.82Q8.60-31.82 8.60-31.39L8.60-31.39ZM41.28-1.29L41.15-1.12Q40.29-0.65 39.69 0.02Q39.09 0.69 38.61 1.38Q38.14 2.06 37.69 2.67Q37.24 3.27 36.68 3.57L36.68 3.57Q36.46 3.66 36.40 3.66Q36.34 3.66 36.16 3.53L36.16 3.53Q34.83 2.54 33.60 1.03Q32.38-0.47 31.48-1.85L31.48-1.85Q31.09-2.45 30.72-3.05Q30.36-3.66 29.93-4.26L29.93-4.26Q29.80-4.34 29.65-4.34Q29.50-4.34 29.37-4.34L29.37-4.34Q28.77-3.96 28.29-3.38Q27.82-2.80 27.31-2.28L27.31-2.28Q25.67-0.69 23.56 0.73Q21.46 2.15 19.26 2.80L19.26 2.80Q19.18 2.84 18.90 2.88Q18.62 2.92 18.62 2.71L18.62 2.71Q18.62 2.54 19.29 1.91Q19.95 1.29 20.94 0.37Q21.93-0.56 23.09-1.70Q24.25-2.84 25.24-4.02Q26.23-5.20 26.90-6.39Q27.56-7.57 27.56-8.56L27.56-8.56Q27.56-9.98 27.20-11.31Q26.83-12.64 26.38-13.95Q25.93-15.27 25.56-16.60Q25.20-17.93 25.20-19.35L25.20-19.35Q25.20-19.57 25.20-19.74Q25.20-19.91 25.33-20.08L25.33-20.08Q25.46-20.04 25.69-19.39Q25.93-18.75 26.23-17.80Q26.53-16.86 26.88-15.74Q27.22-14.62 27.61-13.70Q27.99-12.77 28.40-12.15Q28.81-11.52 29.24-11.52L29.24-11.52Q29.33-11.52 29.41-11.61L29.41-11.61Q29.71-12.04 30.01-13.05Q30.32-14.06 30.59-15.37Q30.87-16.68 31.09-18.15Q31.30-19.61 31.45-20.98Q31.61-22.36 31.69-23.50Q31.78-24.64 31.78-25.24L31.78-25.24Q31.78-25.63 31.30-25.69Q30.83-25.76 30.21-25.71Q29.58-25.67 28.98-25.63Q28.38-25.59 28.12-25.76L28.12-25.76Q28.47-26.06 29.43-26.17Q30.40-26.27 31.43-26.32Q32.47-26.36 33.28-26.36Q34.10-26.36 34.23-26.45L34.23-26.45Q34.62-26.79 34.89-27.22Q35.17-27.65 35.45-28.12Q35.73-28.60 36.03-29.05Q36.34-29.50 36.72-29.89L36.72-29.89L36.94-29.97Q37.11-29.89 37.73-29.43Q38.36-28.98 39.07-28.40Q39.78-27.82 40.40-27.31Q41.02-26.79 41.15-26.66L41.15-26.66Q41.28-26.49 41.45-26.27Q41.62-26.06 41.62-25.84L41.62-25.84Q41.62-25.76 41.50-25.71Q41.37-25.67 41.28-25.67L41.28-25.67Q41.02-25.67 40.59-25.71Q40.16-25.76 39.71-25.76Q39.26-25.76 38.89-25.67Q38.53-25.59 38.36-25.28L38.36-25.28Q38.10-24.77 37.97-24.12Q37.84-23.48 37.75-22.92L37.75-22.92Q37.45-21.41 37.17-19.89Q36.89-18.36 36.42-16.90L36.42-16.90Q36.12-15.95 35.50-14.81Q34.87-13.67 34.23-12.47Q33.58-11.27 33.11-10.15Q32.64-9.03 32.64-8.13L32.64-8.13Q32.64-7.48 33.76-6.51Q34.87-5.55 36.34-4.56Q37.80-3.57 39.19-2.73Q40.59-1.89 41.19-1.51L41.19-1.51L41.28-1.29ZM9.55-24.42L9.63-24.55Q9.72-24.60 10.11-24.62Q10.49-24.64 10.90-24.64Q11.31-24.64 11.70-24.62Q12.08-24.60 12.17-24.55L12.17-24.55L12.26-24.42Q12.17-24.38 11.78-24.36Q11.40-24.34 10.90-24.34Q10.41-24.34 10.00-24.36Q9.59-24.38 9.55-24.42L9.55-24.42ZM9.89-16.64L9.89-16.64Q9.89-16.77 10.17-16.88Q10.45-16.99 10.79-16.99Q11.14-16.99 11.46-16.90Q11.78-16.81 11.91-16.64L11.91-16.64Q11.91-16.51 11.63-16.43Q11.35-16.34 10.99-16.32Q10.62-16.30 10.30-16.38Q9.98-16.47 9.89-16.64Z"
          transform="translate(-1.419, 36.352199998974804)"></path>
      </g>
    </g>
  </mask>
  <defs v-gra="od"></defs>
</svg>
