<svg data-v-0dd9719b="" viewBox="0,0,200,200" version="1.0" xmlns="http://www.w3.org/2000/svg" xmlns:xlink="http://www.w3.org/1999/xlink"
 preserveAspectRatio="xMidYMid meet"
  color-interpolation-filters="sRGB" style="margin: auto;">
  <g data-v-0dd9719b="" fill="#333" class="iconlinesvg-g iconlinesvg"
>
    <g class="tp-name" transform="translate(0,0)">
      <g transform="translate(0, 0)">
        <g data-gra="path-name" fill="#333" transform="scale(1)">
          <path
            d="M36.59-4.72C37.93-3.78 39.51-2.88 41.27-2.02L43.52-6.93C40.99-7.96 38.88-9.04 37.26-10.44L41.80-10.44L41.80-14.45L36.36-14.45L36.36-16.47L40.77-16.47L40.77-20.52L36.36-20.52L36.36-22.36L40.32-22.36L40.32-35.77L16.20-35.77L16.20-26.86L14.54-28.89C14.04-28.13 13.41-27.18 12.73-26.23L12.73-36.45L6.61-36.59L6.57-19.13L6.52-18.99L5.08-29.29L0.90-28.71C1.40-24.88 2.29-18.86 2.65-14.63L6.30-15.16C5.94-8.46 4.23-4.09 0.85 1.84L7.29 5.13C8.73 2.07 9.90-0.72 10.75-3.96C11.61-2.75 12.24-1.62 12.91-0.54L15.34-3.06L15.79-2.07C17.23-2.83 18.54-3.60 19.75-4.46L21.06-2.61C18.77-1.75 16.16-0.81 14.22-0.14L16.25 4.81C18.04 4.09 20.65 2.83 22.99 1.75L24.34 5.35L26.19 5.13C30.02 4.63 30.96 4.37 30.96 1.03L30.96 0.40C33.34 1.48 37.35 3.51 39.69 4.91L41.94 0.18C40.27-0.49 37.44-1.80 35.10-2.75ZM34.47-31.81L34.47-30.33L22.05-30.33L22.05-31.81ZM22.05-25.70L22.05-27.13L34.47-27.13L34.47-25.70ZM12.20-11.61C12.42-13.54 12.51-15.66 12.64-17.95C13.59-19.21 14.98-21.24 16.20-22.90L16.20-22.36L20.52-22.36L20.52-20.52L15.75-20.52L15.75-16.47L20.52-16.47L20.52-14.45L14.89-14.45L14.89-10.44L19.62-10.44C18.45-9.31 16.96-8.32 15.21-7.51C14.17-8.96 13.09-10.48 12.20-11.61ZM30.78-20.52L26.10-20.52L26.10-22.36L30.78-22.36ZM30.78-14.45L26.10-14.45L26.10-16.47L30.78-16.47ZM30.96-0.14L30.96-9.27L25.88-9.40L25.88-1.75C25.88-0.81 25.65-0.49 25.06-0.27L23.89-3.69L22.63-3.19L25.29-5.22C24.70-5.98 24.12-6.75 23.45-7.56C24.34-8.46 25.11-9.40 25.83-10.44L30.78-10.44C31.50-9.40 32.27-8.46 33.07-7.65C32.58-6.97 31.99-6.30 31.32-5.44L33.57-3.38L32.71-3.69Z"
            transform="translate(-0.855, 36.585)"></path>
        </g>
      </g>
      <g transform="translate(46, 0)">
        <g data-gra="path-name" fill="#333" transform="scale(1)">
          <path
            d="M4.59-15.88C4.59-5.71 2.97-2.11 1.03 2.48L7.83 5.49C9.63 1.53 10.89-3.28 11.12-7.60L14.49-7.60L14.49-3.73C14.49-2.52 14.22-2.34 13.14-2.21L11.03-2.02L13.18 5.04L15.57 4.81C19.44 4.46 20.84 3.60 20.84 0.32L20.84-35.46L4.59-35.46ZM42.75-19.04L36.05-19.04L36.05-27.49L41.27-27.49L41.27-34.83L23.58-34.83L23.58-27.49L28.35-27.49L28.35-19.04L22.45-19.04L22.45-11.65L28.35-11.65L28.35 5.04L36.05 5.04L36.05-11.65L42.75-11.65ZM14.49-28.26L14.49-24.39L11.34-24.39L11.34-28.26ZM11.34-14.17L11.34-18.09L14.49-18.09L14.49-14.17Z"
            transform="translate(-1.035, 36.585)"></path>
        </g>
      </g>
      <g transform="translate(91, 2.16958430611297)">
        <g>
          <g class="imagesvg">
            <g>
              <rect fill="#333" fill-opacity="0" stroke-width="2" x="0" y="0" width="43.57167771189332"
                height="37.73583138777406" class="image-rect"></rect> <svg filter="url(#colors1512598157)" x="0" y="0"
                width="43.57167771189332" height="37.73583138777406" filtersec="colorsf8784772030"
                class="image-svg-svg primary" style="overflow: visible;"><svg xmlns="http://www.w3.org/2000/svg"
                  viewBox="0.35500001907348633 0.003000000026077032 99.3169937133789 86.01499938964844">
                  <path fill="#333333"
                    d="M50.014.003L30.466 33.868l10.557 18.285H19.91L.355 86.018h39.102l10.557-18.285L60.57 86.018h39.102L80.125 52.146H59.011L69.568 33.86 50.014.003zm-7.556 33.865l7.556-13.09 7.555 13.09-7.555 13.082-7.556-13.082zm16.553 28.67h15.111l7.556 13.089H66.567l-7.556-13.09zm-33.106 0h15.111L33.461 75.62H18.35l7.555-13.083z">
                  </path>
                </svg></svg>
              <defs>
                <filter id="colors1512598157">
                  <feColorMatrix type="matrix"
                    values="0 0 0 0 0.19921875  0 0 0 0 0.19921875  0 0 0 0 0.19921875  0 0 0 1 0"
                    class="icon-fecolormatrix"></feColorMatrix>
                </filter>
                <filter id="colorsf8784772030">
                  <feColorMatrix type="matrix"
                    values="0 0 0 0 0.99609375  0 0 0 0 0.99609375  0 0 0 0 0.99609375  0 0 0 1 0"
                    class="icon-fecolormatrix"></feColorMatrix>
                </filter>
                <filter id="colorsb8038386160">
                  <feColorMatrix type="matrix" values="0 0 0 0 0  0 0 0 0 0  0 0 0 0 0  0 0 0 1 0"
                    class="icon-fecolormatrix"></feColorMatrix>
                </filter>
              </defs>
            </g>
          </g>
        </g>
      </g>
      <g transform="translate(138, 0)">
        <g data-gra="path-name" fill="#333" transform="scale(1)">
          <path d="M2.97 0L11.92 0L11.92-31.23L2.97-31.23Z" transform="translate(-2.9699999999999998, 36.585)"></path>
        </g>
      </g>
    </g>
    <g data-gra="path-slogan" fill-rule="" class="tp-slogan" fill="#333"
      transform="translate(6.727500915527344,48.07999801635742)">
      <rect width="0"></rect>
      <rect x="136.5" width="0.4550018310546875"></rect>
      <g transform="translate(0,0)">
        <g transform="scale(1)">
          <path
            d="M6.56 0L5.72-2.48L2.25-2.48L1.36 0L0.19 0L3.42-8.58L4.73-8.58L7.83 0L6.56 0ZM3.98-7.31L2.63-3.52L5.30-3.52L4.03-7.31L3.98-7.31ZM9.05-8.58L10.22-8.58L10.22 0L9.05 0L9.05-8.58ZM23.77-8.58L23.77 0L22.64 0L22.64-5.06Q22.64-5.77 22.64-7.22L22.64-7.22L20.20 0L19.03 0L16.64-7.22L16.59-7.22Q16.59-6.70 16.64-5.67L16.64-5.67Q16.64-5.16 16.64-5.06L16.64-5.06L16.64 0L15.47 0L15.47-8.58L17.16-8.58L19.64-1.31L22.08-8.58L23.77-8.58ZM31.13 0L30.28-2.48L26.81-2.48L25.92 0L24.75 0L27.98-8.58L29.30-8.58L32.39 0L31.13 0ZM28.55-7.31L27.19-3.52L29.86-3.52L28.59-7.31L28.55-7.31ZM35.95-4.31L34.59-3.05L34.59 0L33.42 0L33.42-8.58L34.59-8.58L34.59-4.41L38.77-8.58L40.41-8.58L36.80-5.11L40.50 0L38.95 0L35.95-4.31ZM42.70-1.03L47.86-1.03L47.86 0L41.53 0L41.53-8.58L47.77-8.58L47.77-7.59L42.70-7.59L42.70-4.92L47.39-4.92L47.39-3.89L42.70-3.89L42.70-1.03ZM52.69-8.58L53.86-8.58L53.86-1.03L58.22-1.03L58.22 0L52.69 0L52.69-8.58ZM59.53-8.58L60.70-8.58L60.70 0L59.53 0L59.53-8.58ZM68.20-3.89L63.98-3.89L63.98 0L62.81 0L62.81-8.58L68.77-8.58L68.77-7.59L63.98-7.59L63.98-4.92L68.20-4.92L68.20-3.89ZM71.25-1.03L76.41-1.03L76.41 0L70.08 0L70.08-8.58L76.31-8.58L76.31-7.59L71.25-7.59L71.25-4.92L75.94-4.92L75.94-3.89L71.25-3.89L71.25-1.03ZM84.47-7.64L82.41-7.64L82.41-4.97L84.47-4.97Q86.30-4.92 86.25-6.38L86.25-6.38Q86.25-7.64 84.47-7.64L84.47-7.64ZM84.94 0L81.23 0L81.23-8.58L85.03-8.58Q87.33-8.48 87.42-6.42L87.42-6.42Q87.42-5.16 86.30-4.64L86.30-4.64Q87.89-4.08 87.89-2.53L87.89-2.53Q87.75-0.09 84.94 0L84.94 0ZM84.66-3.98L82.41-3.98L82.41-0.98L84.89-0.98Q86.67-1.03 86.72-2.53L86.72-2.53Q86.72-3.98 84.66-3.98L84.66-3.98ZM90.52-1.03L95.67-1.03L95.67 0L89.34 0L89.34-8.58L95.58-8.58L95.58-7.59L90.52-7.59L90.52-4.92L95.20-4.92L95.20-3.89L90.52-3.89L90.52-1.03ZM99.38-7.59L96.47-7.59L96.47-8.58L103.41-8.58L103.41-7.59L100.50-7.59L100.50 0L99.38 0L99.38-7.59ZM106.64-7.59L103.73-7.59L103.73-8.58L110.67-8.58L110.67-7.59L107.77-7.59L107.77 0L106.64 0L106.64-7.59ZM113.02-1.03L118.17-1.03L118.17 0L111.84 0L111.84-8.58L118.08-8.58L118.08-7.59L113.02-7.59L113.02-4.92L117.70-4.92L117.70-3.89L113.02-3.89L113.02-1.03ZM123.80-3.70L120.98-3.70L120.98 0L119.81 0L119.81-8.58L123.80-8.58Q126.66-8.58 126.66-6.28L126.66-6.28Q126.66-4.88 125.44-4.22L125.44-4.22Q126.47-3.94 126.47-2.58L126.47-2.58L126.56-1.03Q126.52-0.38 126.98-0.19L126.98-0.19L126.98 0L125.53 0Q125.39-0.61 125.34-2.16L125.34-2.16Q125.39-3.70 123.80-3.70L123.80-3.70ZM123.89-7.64L120.98-7.64L120.98-4.69L123.70-4.69Q125.44-4.69 125.44-6.19L125.44-6.19Q125.44-7.64 123.89-7.64L123.89-7.64ZM133.22-3.89L133.22-3.89L133.69-3.23Q133.03-2.20 132.19-2.20L132.19-2.20Q131.67-2.20 130.97-2.58L130.97-2.58Q130.22-3.05 129.56-3.05L129.56-3.05Q128.95-3.05 128.53-2.16L128.53-2.16L128.11-2.81Q128.67-3.84 129.61-3.84L129.61-3.84Q130.03-3.84 130.97-3.47L130.97-3.47Q131.77-3.09 132.19-3.05L132.19-3.05Q132.70-3 133.22-3.89Z"
            transform="translate(-0.1875, 8.578125)"></path>
        </g>
      </g>
    </g>
  </g>
  <defs v-gra="od"></defs>
</svg>
