<svg data-v-0dd9719b="" viewBox="0,0,200,200" version="1.0" xmlns="http://www.w3.org/2000/svg" xmlns:xlink="http://www.w3.org/1999/xlink"
 preserveAspectRatio="xMidYMid meet"
  color-interpolation-filters="sRGB" style="margin: auto;">
  <g data-v-0dd9719b="" fill="#333" class="icon-text-wrapper icon-svg-group iconsvg"
>
    <g class="iconsvg-imagesvg" transform="translate(0,0)">
      <g>
        <rect fill="#333" fill-opacity="0" stroke-width="2" x="0" y="0" width="60" height="72.00201605644958"
          class="image-rect"></rect> <svg x="0" y="0" width="60" height="72.00201605644958"
          filtersec="colorsb1363293725" class="image-svg-svg primary" style="overflow: visible;"><svg
            xmlns="http://www.w3.org/2000/svg" viewBox="42.67300033569336 0 426.65399169921875 512.0001220703125">
            <path
              d="M465.414 365.077l-234.667-192c-4.565-3.723-11.285-3.04-15.008 1.525a10.666 10.666 0 0 0-2.4 6.731v320a10.667 10.667 0 0 0 7.573 10.219c1.003.302 2.046.453 3.093.448a10.668 10.668 0 0 0 8.875-4.757L315.057 384h143.616c5.891-.007 10.661-4.788 10.654-10.679a10.669 10.669 0 0 0-3.913-8.244z"
              fill="#2196f3"></path>
            <path
              d="M224.006 106.667c-5.891 0-10.667-4.776-10.667-10.667V10.667C213.34 4.776 218.115 0 224.006 0s10.667 4.776 10.667 10.667V96c0 5.891-4.776 10.667-10.667 10.667zM138.673 192H53.34c-5.891 0-10.667-4.776-10.667-10.667s4.776-10.667 10.667-10.667h85.333c5.891 0 10.667 4.776 10.667 10.667S144.564 192 138.673 192zm256 0H309.34c-5.891 0-10.667-4.776-10.667-10.667s4.776-10.667 10.667-10.667h85.333c5.891 0 10.667 4.776 10.667 10.667S400.564 192 394.673 192zm-230.997-60.331a10.663 10.663 0 0 1-7.552-3.115L95.772 68.267c-4.189-4.189-4.189-10.979 0-15.168s10.979-4.189 15.168 0l60.267 60.352c4.171 4.16 4.179 10.914.019 15.085a10.667 10.667 0 0 1-7.571 3.134h.021zm-60.352 181.014a10.667 10.667 0 1 1-7.552-18.219l60.352-60.352c4.237-4.092 10.99-3.975 15.083.262 3.992 4.134 3.992 10.687 0 14.82l-60.267 60.373a10.665 10.665 0 0 1-7.616 3.116zm181.013-181.014a10.667 10.667 0 1 1-7.552-18.219l60.288-60.352c4.237-4.093 10.99-3.975 15.083.262 3.992 4.134 3.992 10.687 0 14.82l-60.267 60.352a10.661 10.661 0 0 1-7.552 3.137z"
              fill="#444"></path>
          </svg></svg>
        <!---->
      </g>
    </g>
    <g transform="translate(67,10.036941528320312)">
      <g data-gra="path-name" fill-rule="" class="tp-name iconsvg-namesvg" transform="translate(0,0)">
        <g transform="scale(1)">
          <g>
            <path
              d="M38.41-15.47L38.41-18.11 41.84-18.11 41.84-21.09 38.41-21.09 38.41-23.38 32.61-23.38 32.61-21.09 29.44-21.09 29.44-18.11 32.61-18.11 32.61-15.47 28.56-15.47 28.56-18.11 29.88-18.11 29.88-21.09 28.56-21.09 28.56-23.38 22.76-23.38 22.76-21.09 19.34-21.09 19.34-18.11 22.76-18.11 22.76-15.47 19.07-15.47 19.07-12.39 22.06-12.39 19.07-9.23 24.61-8.7 28.04-12.39 33.05-12.39 36.56-8.7 42.01-9.23 39.11-12.39 42.01-12.39 42.01-15.47 38.41-15.47ZM25.4-33.31L25.4-33.31 25.4-36.3 22.5-36.3 19.6-34.8 19.6-25.58 22.5-24.08 36.21-24.08 36.21-27.07 25.4-27.07 25.4-28.65 35.86-28.65 35.86-27.07 35.86-27.07 35.86-24.08 38.67-24.08 41.57-25.58 41.57-34.8 38.67-36.3 25.05-36.3 25.05-33.31 35.86-33.31 35.86-31.64 25.4-31.64 25.4-33.31ZM8-32.34L4.75-32.34 5.27-16.61 8.44-16.61 8-32.34ZM35.24-4.48L40.69-4.48 40.96-8 35.6-8 35.24-4.48ZM36.21 0.53L41.66 0.53 40.78-3.69 35.33-3.69 36.21 0.53ZM14.85-16.61L18.02-16.61 18.46-32.34 15.38-32.34 14.85-16.61ZM18.46 0.18L14.77-13.18 12.39-5.01 13.89 0.53 18.46 0.18ZM9.05-36.65L9.05-15.12 4.83 0.18 9.4 0.53 10.63-3.69 10.55-3.78 10.99-5.27 11.69-7.56 11.69-7.56 14.24-16.35 14.24-16.26 14.24-36.65 9.05-36.65ZM19.16 0.53L24.7 0.53 25.58-3.69 20.13-3.69 19.16 0.53ZM20.21-4.48L25.66-4.48 25.31-8 19.86-8 20.21-4.48ZM33.49-0.88L33.49-10.28 27.69-10.28 27.69-2.46 26.1-2.46 26.1 0.62 30.59 0.62 33.49-0.88ZM79.37-32.96L86.75-32.96 86.75-35.95 66.45-35.95 66.45-32.96 73.56-32.96 73.56-18.81 65.92-18.81 65.92-15.73 73.56-15.73 73.56 0.7 79.37 0.7 79.37-15.73 87.01-15.73 87.01-18.81 79.37-18.81 79.37-32.96ZM64.16-0.97L64.16-34.8 61.44-36.39 57.13-36.39 57.13-33.31 58.71-33.31 58.71-25.66 57.13-25.66 57.13-22.59 58.71-22.59 58.71-13.8 57.13-13.8 57.13-10.81 58.71-10.81 58.71-2.46 57.22-2.46 57.22 0.62 61.44 0.62 64.16-0.97ZM50.54-34.8L50.54 0.62 55.81 0.62 55.81-36.39 53.26-36.39 50.54-34.8ZM127.79 0.53L118.39 0.53 116.02-7.73 102.57-7.73 100.2 0.53 90.7 0.53 100.99-33.84 117.42-33.84 127.79 0.53ZM114.7-12.39L109.86-29.27 108.46-29.27 103.97-12.39 114.7-12.39ZM140.1 0.53L131.31 0.53 131.31-33.84 140.1-33.84 140.1 0.53Z"
              transform="translate(-4.75, 36.650001525878906)"></path>
          </g>
          <!---->
          <!---->
          <!---->
          <!---->
          <!---->
          <!---->
          <!---->
        </g>
      </g>
      <g data-gra="path-slogan" fill-rule="" class="tp-slogan iconsvg-slogansvg" fill="#333"
        transform="translate(0.9250030517578125,43.35000228881836)">
        <!---->
        <!---->
        <g transform="scale(1, 1)">
          <g transform="scale(1)">
            <path
              d="M6.56 0L5.72-2.48L2.25-2.48L1.36 0L0.19 0L3.42-8.58L4.73-8.58L7.83 0L6.56 0ZM3.98-7.31L2.63-3.52L5.30-3.52L4.03-7.31L3.98-7.31ZM9.05-8.58L10.22-8.58L10.22 0L9.05 0L9.05-8.58ZM23.77-8.58L23.77 0L22.64 0L22.64-5.06Q22.64-5.77 22.64-7.22L22.64-7.22L20.20 0L19.03 0L16.64-7.22L16.59-7.22Q16.59-6.70 16.64-5.67L16.64-5.67Q16.64-5.16 16.64-5.06L16.64-5.06L16.64 0L15.47 0L15.47-8.58L17.16-8.58L19.64-1.31L22.08-8.58L23.77-8.58ZM31.13 0L30.28-2.48L26.81-2.48L25.92 0L24.75 0L27.98-8.58L29.30-8.58L32.39 0L31.13 0ZM28.55-7.31L27.19-3.52L29.86-3.52L28.59-7.31L28.55-7.31ZM35.95-4.31L34.59-3.05L34.59 0L33.42 0L33.42-8.58L34.59-8.58L34.59-4.41L38.77-8.58L40.41-8.58L36.80-5.11L40.50 0L38.95 0L35.95-4.31ZM42.70-1.03L47.86-1.03L47.86 0L41.53 0L41.53-8.58L47.77-8.58L47.77-7.59L42.70-7.59L42.70-4.92L47.39-4.92L47.39-3.89L42.70-3.89L42.70-1.03ZM52.69-8.58L53.86-8.58L53.86-1.03L58.22-1.03L58.22 0L52.69 0L52.69-8.58ZM59.53-8.58L60.70-8.58L60.70 0L59.53 0L59.53-8.58ZM68.20-3.89L63.98-3.89L63.98 0L62.81 0L62.81-8.58L68.77-8.58L68.77-7.59L63.98-7.59L63.98-4.92L68.20-4.92L68.20-3.89ZM71.25-1.03L76.41-1.03L76.41 0L70.08 0L70.08-8.58L76.31-8.58L76.31-7.59L71.25-7.59L71.25-4.92L75.94-4.92L75.94-3.89L71.25-3.89L71.25-1.03ZM84.47-7.64L82.41-7.64L82.41-4.97L84.47-4.97Q86.30-4.92 86.25-6.38L86.25-6.38Q86.25-7.64 84.47-7.64L84.47-7.64ZM84.94 0L81.23 0L81.23-8.58L85.03-8.58Q87.33-8.48 87.42-6.42L87.42-6.42Q87.42-5.16 86.30-4.64L86.30-4.64Q87.89-4.08 87.89-2.53L87.89-2.53Q87.75-0.09 84.94 0L84.94 0ZM84.66-3.98L82.41-3.98L82.41-0.98L84.89-0.98Q86.67-1.03 86.72-2.53L86.72-2.53Q86.72-3.98 84.66-3.98L84.66-3.98ZM90.52-1.03L95.67-1.03L95.67 0L89.34 0L89.34-8.58L95.58-8.58L95.58-7.59L90.52-7.59L90.52-4.92L95.20-4.92L95.20-3.89L90.52-3.89L90.52-1.03ZM99.38-7.59L96.47-7.59L96.47-8.58L103.41-8.58L103.41-7.59L100.50-7.59L100.50 0L99.38 0L99.38-7.59ZM106.64-7.59L103.73-7.59L103.73-8.58L110.67-8.58L110.67-7.59L107.77-7.59L107.77 0L106.64 0L106.64-7.59ZM113.02-1.03L118.17-1.03L118.17 0L111.84 0L111.84-8.58L118.08-8.58L118.08-7.59L113.02-7.59L113.02-4.92L117.70-4.92L117.70-3.89L113.02-3.89L113.02-1.03ZM123.80-3.70L120.98-3.70L120.98 0L119.81 0L119.81-8.58L123.80-8.58Q126.66-8.58 126.66-6.28L126.66-6.28Q126.66-4.88 125.44-4.22L125.44-4.22Q126.47-3.94 126.47-2.58L126.47-2.58L126.56-1.03Q126.52-0.38 126.98-0.19L126.98-0.19L126.98 0L125.53 0Q125.39-0.61 125.34-2.16L125.34-2.16Q125.39-3.70 123.80-3.70L123.80-3.70ZM123.89-7.64L120.98-7.64L120.98-4.69L123.70-4.69Q125.44-4.69 125.44-6.19L125.44-6.19Q125.44-7.64 123.89-7.64L123.89-7.64ZM133.22-3.89L133.22-3.89L133.69-3.23Q133.03-2.20 132.19-2.20L132.19-2.20Q131.67-2.20 130.97-2.58L130.97-2.58Q130.22-3.05 129.56-3.05L129.56-3.05Q128.95-3.05 128.53-2.16L128.53-2.16L128.11-2.81Q128.67-3.84 129.61-3.84L129.61-3.84Q130.03-3.84 130.97-3.47L130.97-3.47Q131.77-3.09 132.19-3.05L132.19-3.05Q132.70-3 133.22-3.89Z"
              transform="translate(-0.1875, 8.578125)"></path>
          </g>
        </g>
      </g>
    </g>
  </g>
  <defs v-gra="od"></defs>
</svg>
