<svg data-v-0dd9719b="" viewBox="0,0,200,200" version="1.0" xmlns="http://www.w3.org/2000/svg" xmlns:xlink="http://www.w3.org/1999/xlink"
preserveAspectRatio="xMidYMid meet"
  color-interpolation-filters="sRGB" style="margin: auto;">
  <g data-v-0dd9719b="" fill="#a8c196" class="basesvg" >
    <g data-gra="path-name" fill-rule="" class="tp-name" transform="translate(0,0)">
      <g transform="scale(1)">
        <g>
          <path
            d="M41.09-30.2L41.09-19.35 17.19-19.35 17.19-30.2 41.09-30.2ZM17.19-2.43L13.32 1.3 10.3-3.55 4.18 2.29 0.67-3.51 6.75-9.4 6.75-9.67 3.92-8.96 0.99-27 4.54-27.95 6.75-14.54 6.75-28.89 12.6-28.89 12.6-22.59 15.62-22.59 15.62-15.62 12.6-15.62 12.6-9.81 17.19-2.43ZM35.05-26.41L23.36-26.41 23.36-25.02 35.05-25.02 35.05-26.41ZM23.36-22.23L35.05-22.23 35.05-23.63 23.36-23.63 23.36-22.23ZM40.81-4.63L38.02-3.1 42.3-0.4 38.79 2.52 32.8-2.11 32.8 3.24 24.7 3.24Q25.24 1.67 25.65-2.02L25.65-2.02 20.7 2.75 17.19 0.54 20.29-2.43 17.14-3.87 18.99-5.71 14.4-8.41 18-10.21 15.48-10.21 15.48-13.23 20.29-13.23 20.29-14.54 17.19-14.54 17.19-17.82 20.29-17.82 20.29-18.77 27.04-18.77 27.04-17.82 31.9-17.82 31.9-18.77 38.61-18.77 38.61-17.82 41.09-17.82 41.09-14.54 38.61-14.54 38.61-13.23 42.93-13.23 42.93-10.21 40.32-10.21 44.32-8.69 39.87-5.49 38.84-5.98 40.81-4.63ZM27.04-14.54L27.04-13.23 31.9-13.23 31.9-14.54 27.04-14.54ZM25.92-8.01L32.8-8.01 32.8-3.96 36.63-7.06 31.77-9.4 33.07-10.21 26.82-10.21 21.33-6.39 25.74-3.46Q25.92-5.67 25.92-8.01L25.92-8.01ZM64.98-30.2L64.98 3.1 57.91 3.1Q58.09-0.18 58.14-5L58.14-5 54.23-5Q54.13 1.08 54.05 3.19L54.05 3.19 46.44 3.19Q46.94 1.03 47.27-7.09 47.61-15.21 47.61-23.09L47.61-23.09Q47.61-27.31 47.48-30.2L47.48-30.2 64.98-30.2ZM88.56-17.55L88.56-11.16 81.45-11.16 81.45 3.19 73.17 3.19 73.17-11.16 66.02-11.16 66.02-17.55 73.17-17.55 73.17-22.36 66.64-22.36 66.64-30.2 87.93-30.2 87.93-22.36 81.45-22.36 81.45-17.55 88.56-17.55ZM58.23-22.63L54.36-22.63Q54.36-20.25 54.31-18.99L54.31-18.99 58.23-18.99 58.23-22.63ZM54.27-10.3L58.23-10.3 58.23-13.68 54.31-13.68 54.27-10.3ZM91.8-0.18L103.36-0.18 105.75-5.22 114.61-5.22 117.05-0.18 128.79-0.18 115.69-26.77 104.85-26.77 91.8-0.18ZM111.91-12.64L108.27-12.64Q108.81-13.99 108.94-14.4L108.94-14.4Q109.94-16.7 109.98-17.01L109.98-17.01Q110.34-15.97 111.91-12.64L111.91-12.64ZM132.39 0.09L141.39 0.09 141.39-27.04 132.39-27.04 132.39 0.09Z"
            transform="translate(-0.6700000166893005, 30.200000762939453)"></path>
        </g>
        <!---->
        <!---->
        <!---->
        <!---->
        <!---->
        <!---->
        <!---->
      </g>
    </g>
    <g data-gra="path-slogan" fill-rule="" class="tp-slogan" fill="#566e57"
      transform="translate(3.6100006103515625,39.44000244140625)">
      <rect width="0"></rect>
      <rect x="136.5" width="0"></rect>
      <g transform="translate(0,0)">
        <g transform="scale(1)">
          <path
            d="M6.56 0L5.72-2.48L2.25-2.48L1.36 0L0.19 0L3.42-8.58L4.73-8.58L7.83 0L6.56 0ZM3.98-7.31L2.63-3.52L5.30-3.52L4.03-7.31L3.98-7.31ZM9.05-8.58L10.22-8.58L10.22 0L9.05 0L9.05-8.58ZM23.77-8.58L23.77 0L22.64 0L22.64-5.06Q22.64-5.77 22.64-7.22L22.64-7.22L20.20 0L19.03 0L16.64-7.22L16.59-7.22Q16.59-6.70 16.64-5.67L16.64-5.67Q16.64-5.16 16.64-5.06L16.64-5.06L16.64 0L15.47 0L15.47-8.58L17.16-8.58L19.64-1.31L22.08-8.58L23.77-8.58ZM31.13 0L30.28-2.48L26.81-2.48L25.92 0L24.75 0L27.98-8.58L29.30-8.58L32.39 0L31.13 0ZM28.55-7.31L27.19-3.52L29.86-3.52L28.59-7.31L28.55-7.31ZM35.95-4.31L34.59-3.05L34.59 0L33.42 0L33.42-8.58L34.59-8.58L34.59-4.41L38.77-8.58L40.41-8.58L36.80-5.11L40.50 0L38.95 0L35.95-4.31ZM42.70-1.03L47.86-1.03L47.86 0L41.53 0L41.53-8.58L47.77-8.58L47.77-7.59L42.70-7.59L42.70-4.92L47.39-4.92L47.39-3.89L42.70-3.89L42.70-1.03ZM52.69-8.58L53.86-8.58L53.86-1.03L58.22-1.03L58.22 0L52.69 0L52.69-8.58ZM59.53-8.58L60.70-8.58L60.70 0L59.53 0L59.53-8.58ZM68.20-3.89L63.98-3.89L63.98 0L62.81 0L62.81-8.58L68.77-8.58L68.77-7.59L63.98-7.59L63.98-4.92L68.20-4.92L68.20-3.89ZM71.25-1.03L76.41-1.03L76.41 0L70.08 0L70.08-8.58L76.31-8.58L76.31-7.59L71.25-7.59L71.25-4.92L75.94-4.92L75.94-3.89L71.25-3.89L71.25-1.03ZM84.47-7.64L82.41-7.64L82.41-4.97L84.47-4.97Q86.30-4.92 86.25-6.38L86.25-6.38Q86.25-7.64 84.47-7.64L84.47-7.64ZM84.94 0L81.23 0L81.23-8.58L85.03-8.58Q87.33-8.48 87.42-6.42L87.42-6.42Q87.42-5.16 86.30-4.64L86.30-4.64Q87.89-4.08 87.89-2.53L87.89-2.53Q87.75-0.09 84.94 0L84.94 0ZM84.66-3.98L82.41-3.98L82.41-0.98L84.89-0.98Q86.67-1.03 86.72-2.53L86.72-2.53Q86.72-3.98 84.66-3.98L84.66-3.98ZM90.52-1.03L95.67-1.03L95.67 0L89.34 0L89.34-8.58L95.58-8.58L95.58-7.59L90.52-7.59L90.52-4.92L95.20-4.92L95.20-3.89L90.52-3.89L90.52-1.03ZM99.38-7.59L96.47-7.59L96.47-8.58L103.41-8.58L103.41-7.59L100.50-7.59L100.50 0L99.38 0L99.38-7.59ZM106.64-7.59L103.73-7.59L103.73-8.58L110.67-8.58L110.67-7.59L107.77-7.59L107.77 0L106.64 0L106.64-7.59ZM113.02-1.03L118.17-1.03L118.17 0L111.84 0L111.84-8.58L118.08-8.58L118.08-7.59L113.02-7.59L113.02-4.92L117.70-4.92L117.70-3.89L113.02-3.89L113.02-1.03ZM123.80-3.70L120.98-3.70L120.98 0L119.81 0L119.81-8.58L123.80-8.58Q126.66-8.58 126.66-6.28L126.66-6.28Q126.66-4.88 125.44-4.22L125.44-4.22Q126.47-3.94 126.47-2.58L126.47-2.58L126.56-1.03Q126.52-0.38 126.98-0.19L126.98-0.19L126.98 0L125.53 0Q125.39-0.61 125.34-2.16L125.34-2.16Q125.39-3.70 123.80-3.70L123.80-3.70ZM123.89-7.64L120.98-7.64L120.98-4.69L123.70-4.69Q125.44-4.69 125.44-6.19L125.44-6.19Q125.44-7.64 123.89-7.64L123.89-7.64ZM133.22-3.89L133.22-3.89L133.69-3.23Q133.03-2.20 132.19-2.20L132.19-2.20Q131.67-2.20 130.97-2.58L130.97-2.58Q130.22-3.05 129.56-3.05L129.56-3.05Q128.95-3.05 128.53-2.16L128.53-2.16L128.11-2.81Q128.67-3.84 129.61-3.84L129.61-3.84Q130.03-3.84 130.97-3.47L130.97-3.47Q131.77-3.09 132.19-3.05L132.19-3.05Q132.70-3 133.22-3.89Z"
            transform="translate(-0.1875, 8.578125)"></path>
        </g>
      </g>
    </g>
  </g>
  <defs v-gra="od"></defs>
</svg>
