<svg data-v-0dd9719b="" version="1.0" xmlns="http://www.w3.org/2000/svg" xmlns:xlink="http://www.w3.org/1999/xlink"
  width="100%" height="100%" viewBox="0 0 340.000000 250.000000" preserveAspectRatio="xMidYMid meet"
  color-interpolation-filters="sRGB" style="margin: auto;">
  <g data-v-0dd9719b="" fill="#c2bb3f" class="singlesvg" transform="translate(87.9423828125,98.1474609375)">
    <g class="tp-name" opacity="1" transform="matrix(1,0,0,1,0,0)">
      <rect height="53.705078125" width="164.115234375" fill="none" stroke-width="3" x="0" y="0" stroke="#c2bb3f">
      </rect>
      <g transform="translate(2,0)">
        <rect data-gra="graph-name" x="0" y="0" height="53.705078125" width="53.705078125" fill="none"></rect>
        <g data-gra="path-name" transform="translate(3.0025386810302734,3.1708984375)">
          <g transform="scale(1)">
            <path
              d="M28.27-33.54L18.80-33.54L18.46-35.01L28.27-35.01L28.27-42.48L35.89-41.85Q35.79-40.77 34.28-40.53L34.28-40.53L34.28-35.01L37.79-35.01L40.77-38.82Q44.09-36.18 46.14-34.33L46.14-34.33Q45.95-33.54 44.73-33.54L44.73-33.54L34.28-33.54L34.28-25.68L39.70-25.68L42.82-29.69Q46.29-26.95 48.39-25.05L48.39-25.05Q48.19-24.27 47.02-24.27L47.02-24.27L17.04-24.27L16.65-25.68L28.27-25.68L28.27-33.54ZM10.79-42.68L10.79-42.68L17.82-38.92Q17.38-38.04 15.92-38.23L15.92-38.23Q13.28-35.55 9.45-32.64Q5.62-29.74 1.81-27.78L1.81-27.78L1.37-28.32Q4.00-31.20 6.64-35.33Q9.28-39.45 10.79-42.68ZM12.11-32.71L12.11-32.71L19.24-29.05Q18.85-28.17 17.33-28.37L17.33-28.37Q14.84-25 13.23-23.14L13.23-23.14L15.28-22.41Q15.04-21.68 13.77-21.39L13.77-21.39L13.77 2.64Q13.72 2.88 13.09 3.30Q12.45 3.71 11.30 4.08Q10.16 4.44 9.08 4.44L9.08 4.44L8.06 4.44L8.06-17.97Q4.83-15.14 1.86-13.23L1.86-13.23L1.37-13.77Q4.59-17.58 7.57-22.95Q10.55-28.32 12.11-32.71ZM19.97-14.55L19.97-14.55L20.41-14.84Q27.00-13.43 28.52-9.91L28.52-9.91Q29.44-7.76 28.03-6.23Q26.61-4.69 24.51-5.62L24.51-5.62Q23.97-5.86 23.49-6.25L23.49-6.25Q23.10-10.16 19.97-14.55ZM40.19-17.29L40.82-17.29L43.70-21.39Q47.12-18.55 49.07-16.65L49.07-16.65Q48.88-15.87 47.66-15.87L47.66-15.87L40.19-15.87L40.19-2.73Q40.19 0.78 38.60 2.42Q37.01 4.05 31.88 4.54L31.88 4.54Q31.59 1.37 30.42 0.20L30.42 0.20Q29.00-1.27 25-2.00L25-2.00L25-2.69Q31.79-2.25 33.06-2.25L33.06-2.25Q34.18-2.25 34.18-3.22L34.18-3.22L34.18-15.87L16.60-15.87L16.21-17.29L34.18-17.29L34.18-23.78L41.94-23.10Q41.80-22.02 40.19-21.78L40.19-21.78L40.19-17.29Z"
              transform="translate(-1.3671875, 42.67578125)"></path>
          </g>
        </g>
      </g>
      <g transform="translate(55.705078125,0)" mask="url(#cbfaf3b7-3b56-4c3c-83d5-a9b2640e683b)">
        <rect data-gra="graph-name" x="0" y="0" height="53.705078125" width="53.705078125"></rect>
        <g data-gra="path-name" fill="#0077c0" transform="translate(3.1675376892089844,3.1708984375)">
          <g transform="scale(1)">
            <path
              d="M28.03 0.49L38.33 0.49L41.94-4.05Q46.00-0.93 48.49 1.17L48.49 1.17Q48.29 1.95 47.07 1.95L47.07 1.95L1.95 1.95L1.56 0.49L21.58 0.49L21.58-14.50L7.86-14.50L7.47-15.97L21.58-15.97L21.58-28.76L12.74-28.76Q8.06-20.95 1.66-16.50L1.66-16.50L1.12-16.94Q4.05-21.29 6.57-27.71Q9.08-34.13 10.40-40.77L10.40-40.77L18.80-38.23Q18.55-37.21 16.85-37.21L16.85-37.21Q15.14-32.76 13.57-30.13L13.57-30.13L21.58-30.13L21.58-42.24L29.88-41.46Q29.64-40.23 28.03-39.99L28.03-39.99L28.03-30.13L35.94-30.13L39.40-34.42Q43.26-31.59 45.70-29.54L45.70-29.54Q45.51-28.76 44.19-28.76L44.19-28.76L28.03-28.76L28.03-15.97L34.28-15.97L37.79-20.31Q41.80-17.33 44.19-15.28L44.19-15.28Q43.99-14.50 42.87-14.50L42.87-14.50L28.03-14.50L28.03 0.49Z"
              transform="translate(-1.123046875, 42.67578125)"></path>
          </g>
        </g>
      </g>
      <g transform="translate(109.41015625,0)">
        <rect data-gra="graph-name" x="0" y="0" height="53.705078125" width="53.705078125" fill="none"></rect>
        <g data-gra="path-name" transform="translate(3.1730575561523438,3.1708984375)">
          <g transform="scale(1)">
            <path
              d="M47.46-10.84L47.95-10.74L46.78-2.29Q49.27 1.76 48.00 2.93L48.00 2.93Q46.92 4.05 45.24 3.86Q43.55 3.66 42.02 2.88Q40.48 2.10 39.21 0.93L39.21 0.93Q35.94-1.86 33.40-5.71L33.40-5.71Q26.95 0.73 17.92 4.00L17.92 4.00L17.53 3.42Q25.68-1.37 31.20-9.62L31.20-9.62Q27.15-18.07 26.22-30.81L26.22-30.81L12.16-30.81L12.16-22.80L18.07-22.80L20.85-25.59L25.88-21.39Q25.34-20.75 23.93-20.56L23.93-20.56Q23.68-12.40 23.05-8.98Q22.41-5.57 20.80-4.25L20.80-4.25Q18.75-2.64 15.38-2.64L15.38-2.64Q15.38-5.42 14.70-6.35L14.70-6.35Q13.82-7.37 11.62-7.96L11.62-7.96L11.62-8.59Q13.96-8.40 15.67-8.40L15.67-8.40Q16.60-8.40 16.99-8.79L16.99-8.79Q18.21-9.86 18.51-21.39L18.51-21.39L12.16-21.39Q12.16-18.46 12.01-16.24Q11.87-14.01 11.25-10.84Q10.64-7.67 9.57-5.18Q8.50-2.69 6.45 0Q4.39 2.69 1.51 4.69L1.51 4.69L1.07 4.25Q4.30-0.88 5.30-7.13Q6.30-13.38 6.30-21.44L6.30-21.44L6.30-34.62L13.04-32.18L26.07-32.18Q25.73-38.09 25.73-42.43L25.73-42.43L33.35-41.70Q33.25-40.48 31.54-40.23L31.54-40.23Q31.45-36.13 31.69-32.18L31.69-32.18L39.21-32.18L41.02-34.47Q39.99-34.38 39.06-34.86L39.06-34.86Q38.53-36.43 37.04-38.09Q35.55-39.75 33.98-40.82L33.98-40.82L34.33-41.21Q35.99-41.31 37.38-41.19Q38.77-41.06 39.75-40.75Q40.72-40.43 41.46-39.97Q42.19-39.50 42.60-38.99Q43.02-38.48 43.21-37.92Q43.41-37.35 43.36-36.82Q43.31-36.28 43.07-35.84L43.07-35.84Q45.26-34.23 48.29-31.54L48.29-31.54Q48.14-30.81 46.92-30.81L46.92-30.81L31.74-30.81Q32.37-21.88 34.72-15.77L34.72-15.77Q37.16-20.90 38.48-26.71L38.48-26.71L46.29-24.12Q45.95-23.10 44.29-23.14L44.29-23.14Q41.55-15.82 37.40-10.25L37.40-10.25Q39.55-6.88 42.63-4.54L42.63-4.54Q43.16-4.00 43.53-4.05Q43.90-4.10 44.29-4.74L44.29-4.74Q46.09-7.67 47.46-10.84L47.46-10.84Z"
              transform="translate(-1.07421875, 42.67578125)"></path>
          </g>
        </g>
      </g>
    </g>
    <!---->
  </g>
  <mask id="cbfaf3b7-3b56-4c3c-83d5-a9b2640e683b">
    <rect data-gra="graph-name" x="0" y="0" height="53.705078125" width="53.705078125" fill="white"></rect>
    <g data-gra="path-name" transform="translate(3.1675376892089844,3.1708984375)" fill="black">
      <g transform="scale(1)">
        <path
          d="M28.03 0.49L38.33 0.49L41.94-4.05Q46.00-0.93 48.49 1.17L48.49 1.17Q48.29 1.95 47.07 1.95L47.07 1.95L1.95 1.95L1.56 0.49L21.58 0.49L21.58-14.50L7.86-14.50L7.47-15.97L21.58-15.97L21.58-28.76L12.74-28.76Q8.06-20.95 1.66-16.50L1.66-16.50L1.12-16.94Q4.05-21.29 6.57-27.71Q9.08-34.13 10.40-40.77L10.40-40.77L18.80-38.23Q18.55-37.21 16.85-37.21L16.85-37.21Q15.14-32.76 13.57-30.13L13.57-30.13L21.58-30.13L21.58-42.24L29.88-41.46Q29.64-40.23 28.03-39.99L28.03-39.99L28.03-30.13L35.94-30.13L39.40-34.42Q43.26-31.59 45.70-29.54L45.70-29.54Q45.51-28.76 44.19-28.76L44.19-28.76L28.03-28.76L28.03-15.97L34.28-15.97L37.79-20.31Q41.80-17.33 44.19-15.28L44.19-15.28Q43.99-14.50 42.87-14.50L42.87-14.50L28.03-14.50L28.03 0.49Z"
          transform="translate(-1.123046875, 42.67578125)"></path>
      </g>
    </g>
  </mask>
  <defs v-gra="od"></defs>
</svg>
