<svg data-v-0dd9719b="" version="1.0" xmlns="http://www.w3.org/2000/svg" xmlns:xlink="http://www.w3.org/1999/xlink" width="100%" height="100%" viewBox="0 0 340.000000 250.000000" preserveAspectRatio="xMidYMid meet" color-interpolation-filters="sRGB" style="margin: auto;"> <rect data-v-0dd9719b="" x="0" y="0" width="100%" height="100%" fill="#333333" fill-opacity="0" class="background" style="
    display: none;
"></rect> <rect data-v-0dd9719b="" x="0" y="0" width="100%" height="100%" fill="url(#watermark)" fill-opacity="1" class="watermarklayer" style="
    display: none;
"></rect> <g data-v-0dd9719b="" fill="#ffffff" class="icon-text-wrapper icon-svg-group iconsvg" transform="translate(120,74.99999618530273)"><g fill="#ffffff" class="iconsvg-imagesvg icon_container" transform="matrix(1,0,0,1,0,0)" opacity="1"><rect fill="#ffffff" fill-opacity="0" stroke-width="2" x="0" y="0" width="100" height="100" class="image-rect"></rect> <svg viewBox="0 0 60 60" x="0" y="0" width="100" height="100" class="image-svg-svg bn" style="overflow: visible;"><g hollow-target="iconBnOutline"><g mask="url(#99109d96-6705-4c0e-9067-000a3ffa6e97)"><svg xmlns="http://www.w3.org/2000/svg" xmlns:xlink="http://www.w3.org/1999/xlink" xml:space="preserve" style="shape-rendering: geometricprecision; text-rendering: geometricprecision; overflow: visible;" viewBox="3.7276 3.72758 92.5448 92.5448" x="0" y="0" fill-rule="evenodd" clip-rule="evenodd" width="60" height="60" filtersec="colorsf4943453351" filter="url(#xLXUs0gggGY585ax0d2Fz)"><g transform="scale(1, 1) skewX(0)"><defs><filter id="xLXUs0gggGY585ax0d2Fz"><feColorMatrix type="matrix" values="0 0 0 0 0.99609375  0 0 0 0 0.99609375  0 0 0 0 0.99609375  0 0 0 1 0"></feColorMatrix></filter></defs><g><path class="fil0" d="M50 3.72759l46.2724 46.2724 -46.2724 46.2724 -46.2724 -46.2724 46.2724 -46.2724zm0 8.35282l-37.9196 37.9196 37.9196 37.9196 37.9196 -37.9196 -37.9196 -37.9196z"></path></g></g></svg></g> <g filter="url(#colors2023352562)"><svg xmlns="http://www.w3.org/2000/svg" xmlns:xlink="http://www.w3.org/1999/xlink" viewBox="0 0 140.76000000000002 55.44000000000001" width="45" height="45" x="7.5" y="7.5" class="image-svg-letter"><path transform="translate(-0.7200000000000001 48.96000000000001)" d="M59.47-13.54Q65.45-9.86 73.80-7.85L73.80-7.85Q71.14-3.46 66.67-1.37L66.67-1.37Q62.64-3.38 58.54-6.70L58.54-6.70L55.51-5.33L66.46 0.14L62.06 6.48L51.26-1.15L51.26 2.09Q50.11 3.46 48.31 4.46Q46.51 5.47 43.78 6.48L43.78 6.48Q42.12 5.83 40.39 4.61Q38.66 3.38 37.22 1.94L37.22 1.94L30.74 6.48L26.35 0.14L37.66-5.54L34.13-7.06Q29.45-3.31 25.42-1.37L25.42-1.37Q21.02-3.46 18.29-7.85L18.29-7.85L19.73-8.21L18.58-10.44Q17.21-5.83 15.16-1.76Q13.10 2.30 10.51 5.33L10.51 5.33Q8.06 4.61 5.33 2.63Q2.59 0.65 1.22-1.22L1.22-1.22Q5.62-3.96 8.17-9.25Q10.73-14.54 11.45-20.88L11.45-20.88L7.06-19.66L0.72-35.35L9.72-38.95L11.74-26.21L11.74-36.86L10.58-48.96Q13.54-48.74 16.67-48.17Q19.80-47.59 22.03-46.66L22.03-46.66L20.88-37.37L20.88-32.69L22.03-38.95L28.22-36.29Q28.08-44.42 27.72-47.45L27.72-47.45Q32.40-47.74 46.22-47.74L46.22-47.74Q60.12-47.74 64.80-47.45L64.80-47.45L64.80-47.38Q64.15-43.13 64.15-28.15L64.15-28.15L51.91-28.37Q54.86-27.79 57.53-26.78L57.53-26.78Q62.28-26.64 66.46-26.35L66.46-26.35Q66.17-22.90 64.01-19.80L64.01-19.80Q61.27-20.30 58.03-20.66L58.03-20.66L57.89-19.51Q65.52-19.37 70.85-19.08L70.85-19.08Q70.63-17.21 70.06-15.73Q69.48-14.26 68.33-12.46L68.33-12.46Q64.58-13.18 59.47-13.54L59.47-13.54ZM54.14-41.98Q51.70-42.05 46.22-42.05L46.22-42.05Q40.82-42.05 38.30-41.98L38.30-41.98L38.30-40.61Q40.75-40.68 46.22-40.68L46.22-40.68Q51.70-40.68 54.14-40.61L54.14-40.61L54.14-41.98ZM38.38-35.50L38.38-33.98L54.07-33.98L54.07-35.50L38.38-35.50ZM20.88-25.49Q20.88-23.83 20.59-20.23L20.59-20.23L24.41-16.49Q23.90-17.78 23.83-19.08L23.83-19.08Q27.00-19.22 34.34-19.37L34.34-19.37L34.13-20.95Q31.10-20.74 28.51-20.30L28.51-20.30Q27.36-22.03 26.78-23.40Q26.21-24.77 25.99-26.35L25.99-26.35L33.48-26.71L33.26-28.30L30.74-28.22Q28.94-28.22 28.30-28.15L28.30-28.15L28.30-30.96L24.70-23.98L20.88-25.49ZM47.74-26.93L47.59-28.37L37.73-28.37Q40.82-27.72 42.98-26.93L42.98-26.93L47.74-26.93ZM48.60-19.58L48.38-21.31Q46.87-21.38 43.85-21.38L43.85-21.38L43.56-19.51Q45.22-19.58 48.60-19.58L48.60-19.58ZM41.83-13.25Q44.35-13.25 47.34-12.64Q50.33-12.02 52.49-11.09L52.49-11.09L52.20-9.65L53.78-10.94Q52.13-12.60 50.98-14.04L50.98-14.04Q49.39-14.11 46.08-14.11L46.08-14.11Q42.84-14.11 41.26-14.04L41.26-14.04L39.02-11.52L42.12-9.07L41.83-13.25ZM27.72-13.25L28.66-12.31L27.43-10.80Q31.03-12.46 32.90-13.75L32.90-13.75Q31.39-13.68 29.38-13.39L29.38-13.39L27.72-13.25ZM42.48-1.80L40.10-0.14Q41.62-0.50 42.48-0.86L42.48-0.86L42.48-1.80ZM138.82-15.70Q133.06-16.92 125.35-17.28L125.35-17.28L125.35-10.01Q125.35-1.73 125.78 2.30L125.78 2.30Q124.06 3.53 121.07 4.28Q118.08 5.04 115.42 5.04L115.42 5.04Q114.34 5.04 113.90 4.97L113.90 4.97Q115.34-0.14 115.34-7.78L115.34-7.78L115.34-17.42Q108.86-17.21 102.67-16.27L102.67-16.27L101.74-18.14L101.74-9.79Q101.74-2.45 102.24 2.02L102.24 2.02Q99.94 3.53 96.73 4.21Q93.53 4.90 90.43 4.75L90.43 4.75Q91.30 1.94 91.66-1.44Q92.02-4.82 92.02-7.70L92.02-7.70L92.02-11.95L88.13-11.95Q87.70-6.34 86.54-1.76Q85.39 2.81 83.59 5.04L83.59 5.04Q81.07 4.32 78.44 2.77Q75.82 1.22 73.94-0.50L73.94-0.50Q78.77-5.04 78.77-20.16L78.77-20.16L78.77-47.09Q82.87-47.45 90.29-47.45L90.29-47.45Q97.70-47.45 101.74-47.09L101.74-47.09L101.74-25.06Q107.50-25.56 115.34-25.70L115.34-25.70L115.34-36.65Q109.73-36.58 105.91-36.29L105.91-36.29Q104.33-39.10 103.68-44.93L103.68-44.93Q108.43-45.29 120.96-45.29L120.96-45.29Q133.56-45.29 138.24-44.93L138.24-44.93Q137.66-38.81 136.15-36.29L136.15-36.29Q133.63-36.50 125.35-36.65L125.35-36.65L125.35-25.70Q135.94-25.42 141.48-24.91L141.48-24.91Q141.12-19.80 138.82-15.70L138.82-15.70ZM92.02-39.67L88.49-39.67L88.49-33.48L92.02-33.48L92.02-39.67ZM88.49-19.51L92.02-19.51L92.02-25.92L88.49-25.92L88.49-20.09L88.49-19.51Z"></path></svg></g></g><mask id="99109d96-6705-4c0e-9067-000a3ffa6e97"><g fill="white"><svg xmlns="http://www.w3.org/2000/svg" xmlns:xlink="http://www.w3.org/1999/xlink" xml:space="preserve" style="shape-rendering: geometricprecision; text-rendering: geometricprecision; overflow: visible;" viewBox="3.7276 3.72758 92.5448 92.5448" x="0" y="0" fill-rule="evenodd" clip-rule="evenodd" width="60" height="60" filtersec="colorsf4943453351"><g transform="scale(1, 1) skewX(0)"><defs></defs><g><path d="M50 3.72759l46.2724 46.2724 -46.2724 46.2724 -46.2724 -46.2724 46.2724 -46.2724zm0 8.35282l-37.9196 37.9196 37.9196 37.9196 37.9196 -37.9196 -37.9196 -37.9196z"></path></g></g></svg></g> <g fill="black" filter="url(#894a35fc-79c2-47b2-a09a-3685df5cf17e)"><svg xmlns="http://www.w3.org/2000/svg" xmlns:xlink="http://www.w3.org/1999/xlink" viewBox="0 0 140.76000000000002 55.44000000000001" width="45" height="45" x="7.5" y="7.5" class="image-svg-letter"><path transform="translate(-0.7200000000000001 48.96000000000001)" d="M59.47-13.54Q65.45-9.86 73.80-7.85L73.80-7.85Q71.14-3.46 66.67-1.37L66.67-1.37Q62.64-3.38 58.54-6.70L58.54-6.70L55.51-5.33L66.46 0.14L62.06 6.48L51.26-1.15L51.26 2.09Q50.11 3.46 48.31 4.46Q46.51 5.47 43.78 6.48L43.78 6.48Q42.12 5.83 40.39 4.61Q38.66 3.38 37.22 1.94L37.22 1.94L30.74 6.48L26.35 0.14L37.66-5.54L34.13-7.06Q29.45-3.31 25.42-1.37L25.42-1.37Q21.02-3.46 18.29-7.85L18.29-7.85L19.73-8.21L18.58-10.44Q17.21-5.83 15.16-1.76Q13.10 2.30 10.51 5.33L10.51 5.33Q8.06 4.61 5.33 2.63Q2.59 0.65 1.22-1.22L1.22-1.22Q5.62-3.96 8.17-9.25Q10.73-14.54 11.45-20.88L11.45-20.88L7.06-19.66L0.72-35.35L9.72-38.95L11.74-26.21L11.74-36.86L10.58-48.96Q13.54-48.74 16.67-48.17Q19.80-47.59 22.03-46.66L22.03-46.66L20.88-37.37L20.88-32.69L22.03-38.95L28.22-36.29Q28.08-44.42 27.72-47.45L27.72-47.45Q32.40-47.74 46.22-47.74L46.22-47.74Q60.12-47.74 64.80-47.45L64.80-47.45L64.80-47.38Q64.15-43.13 64.15-28.15L64.15-28.15L51.91-28.37Q54.86-27.79 57.53-26.78L57.53-26.78Q62.28-26.64 66.46-26.35L66.46-26.35Q66.17-22.90 64.01-19.80L64.01-19.80Q61.27-20.30 58.03-20.66L58.03-20.66L57.89-19.51Q65.52-19.37 70.85-19.08L70.85-19.08Q70.63-17.21 70.06-15.73Q69.48-14.26 68.33-12.46L68.33-12.46Q64.58-13.18 59.47-13.54L59.47-13.54ZM54.14-41.98Q51.70-42.05 46.22-42.05L46.22-42.05Q40.82-42.05 38.30-41.98L38.30-41.98L38.30-40.61Q40.75-40.68 46.22-40.68L46.22-40.68Q51.70-40.68 54.14-40.61L54.14-40.61L54.14-41.98ZM38.38-35.50L38.38-33.98L54.07-33.98L54.07-35.50L38.38-35.50ZM20.88-25.49Q20.88-23.83 20.59-20.23L20.59-20.23L24.41-16.49Q23.90-17.78 23.83-19.08L23.83-19.08Q27.00-19.22 34.34-19.37L34.34-19.37L34.13-20.95Q31.10-20.74 28.51-20.30L28.51-20.30Q27.36-22.03 26.78-23.40Q26.21-24.77 25.99-26.35L25.99-26.35L33.48-26.71L33.26-28.30L30.74-28.22Q28.94-28.22 28.30-28.15L28.30-28.15L28.30-30.96L24.70-23.98L20.88-25.49ZM47.74-26.93L47.59-28.37L37.73-28.37Q40.82-27.72 42.98-26.93L42.98-26.93L47.74-26.93ZM48.60-19.58L48.38-21.31Q46.87-21.38 43.85-21.38L43.85-21.38L43.56-19.51Q45.22-19.58 48.60-19.58L48.60-19.58ZM41.83-13.25Q44.35-13.25 47.34-12.64Q50.33-12.02 52.49-11.09L52.49-11.09L52.20-9.65L53.78-10.94Q52.13-12.60 50.98-14.04L50.98-14.04Q49.39-14.11 46.08-14.11L46.08-14.11Q42.84-14.11 41.26-14.04L41.26-14.04L39.02-11.52L42.12-9.07L41.83-13.25ZM27.72-13.25L28.66-12.31L27.43-10.80Q31.03-12.46 32.90-13.75L32.90-13.75Q31.39-13.68 29.38-13.39L29.38-13.39L27.72-13.25ZM42.48-1.80L40.10-0.14Q41.62-0.50 42.48-0.86L42.48-0.86L42.48-1.80ZM138.82-15.70Q133.06-16.92 125.35-17.28L125.35-17.28L125.35-10.01Q125.35-1.73 125.78 2.30L125.78 2.30Q124.06 3.53 121.07 4.28Q118.08 5.04 115.42 5.04L115.42 5.04Q114.34 5.04 113.90 4.97L113.90 4.97Q115.34-0.14 115.34-7.78L115.34-7.78L115.34-17.42Q108.86-17.21 102.67-16.27L102.67-16.27L101.74-18.14L101.74-9.79Q101.74-2.45 102.24 2.02L102.24 2.02Q99.94 3.53 96.73 4.21Q93.53 4.90 90.43 4.75L90.43 4.75Q91.30 1.94 91.66-1.44Q92.02-4.82 92.02-7.70L92.02-7.70L92.02-11.95L88.13-11.95Q87.70-6.34 86.54-1.76Q85.39 2.81 83.59 5.04L83.59 5.04Q81.07 4.32 78.44 2.77Q75.82 1.22 73.94-0.50L73.94-0.50Q78.77-5.04 78.77-20.16L78.77-20.16L78.77-47.09Q82.87-47.45 90.29-47.45L90.29-47.45Q97.70-47.45 101.74-47.09L101.74-47.09L101.74-25.06Q107.50-25.56 115.34-25.70L115.34-25.70L115.34-36.65Q109.73-36.58 105.91-36.29L105.91-36.29Q104.33-39.10 103.68-44.93L103.68-44.93Q108.43-45.29 120.96-45.29L120.96-45.29Q133.56-45.29 138.24-44.93L138.24-44.93Q137.66-38.81 136.15-36.29L136.15-36.29Q133.63-36.50 125.35-36.65L125.35-36.65L125.35-25.70Q135.94-25.42 141.48-24.91L141.48-24.91Q141.12-19.80 138.82-15.70L138.82-15.70ZM92.02-39.67L88.49-39.67L88.49-33.48L92.02-33.48L92.02-39.67ZM88.49-19.51L92.02-19.51L92.02-25.92L88.49-25.92L88.49-20.09L88.49-19.51Z"></path></svg></g><defs><filter id="894a35fc-79c2-47b2-a09a-3685df5cf17e"><feGaussianBlur in="SourceGraphic" stdDeviation="1.26"></feGaussianBlur><feComponentTransfer><feFuncA type="discrete" tableValues="0 1 1 1 1 1 1 1 1 1 1 1 1 1 0"></feFuncA></feComponentTransfer></filter></defs></mask></svg> <defs><filter id="colors2023352562"><feColorMatrix type="matrix" values="0 0 0 0 0.99609375  0 0 0 0 0.99609375  0 0 0 0 0.99609375  0 0 0 1 0" class="icon-fecolormatrix"></feColorMatrix></filter> <filter id="colorsf4943453351"><feColorMatrix type="matrix" values="0 0 0 0 0.99609375  0 0 0 0 0.99609375  0 0 0 0 0.99609375  0 0 0 1 0" class="icon-fecolormatrix"></feColorMatrix></filter> <filter id="colorsb2239437643"><feColorMatrix type="matrix" values="0 0 0 0 0  0 0 0 0 0  0 0 0 0 0  0 0 0 1 0" class="icon-fecolormatrix"></feColorMatrix></filter></defs></g> <g transform="translate(71,51.00000762939453)"><g data-gra="path-name" fill-rule="" class="tp-name iconsvg-namesvg" opacity="1" transform="matrix(1,0,0,1,0,0)"><g transform="scale(1)"><g><path d="" transform="translate(0, 0)"></path></g> <!----> <!----> <!----> <!----> <!----> <!----> <!----></g></g> <!----></g></g><defs v-gra="od"></defs></svg>
