<svg data-v-0dd9719b="" viewBox="0,0,200,200" version="1.0" xmlns="http://www.w3.org/2000/svg" xmlns:xlink="http://www.w3.org/1999/xlink"
 preserveAspectRatio="xMidYMid meet"
  color-interpolation-filters="sRGB" style="margin: auto;">
  <g data-v-0dd9719b="" fill="#0a0a0a" class="iconlinesvg-g iconlinesvg"
>
    <g class="tp-name" transform="translate(0,0)">
      <g transform="translate(0, 0)">
        <g data-gra="path-name" fill="#0a0a0a" transform="scale(1)">
          <path
            d="M24.39-12.06C23.76-11.03 23.18-10.08 22.54-9.18L24.88-9.18C25.70-9.18 26.37-8.46 26.37-7.69L26.37-7.60C26.37-6.79 25.70-6.12 24.88-6.12L20.84-6.12C20.56-6.12 20.34-6.17 20.16-6.25C19.35-5.40 18.54-4.63 17.73-3.96C17.41-3.73 17.05-3.60 16.65-3.65C16.20-3.69 15.84-3.92 15.62-4.23L15.52-4.32C15.07-4.95 15.21-5.85 15.75-6.34C16.83-7.20 17.86-8.23 18.81-9.36C19.66-10.30 20.43-11.43 21.20-12.64L17.28-12.64C16.47-12.64 15.79-13.32 15.79-14.13L15.79-14.22C15.79-14.98 16.47-15.71 17.28-15.71L21.87-15.71L21.87-18.04L18.18-18.04C17.32-18.04 16.70-18.68 16.70-19.53L16.70-19.62C16.70-20.43 17.32-21.11 18.18-21.11L21.87-21.11L21.87-23.09L20.52-23.09C18.90-23.09 17.64-24.07 17.01-25.56C16.79-26.05 16.70-26.55 16.70-27.04L16.70-32.40C16.70-33.44 17.14-34.42 17.82-35.19C18.54-35.91 19.48-36.36 20.52-36.36L37.17-36.36C38.25-36.36 39.20-35.91 39.87-35.19C40.63-34.42 41.09-33.44 41.09-32.40L41.09-27.04C41.09-26.01 40.63-25.02 39.87-24.25C39.20-23.54 38.25-23.09 37.17-23.09L35.87-23.09L35.87-21.11L39.60-21.11C40.37-21.11 41.09-20.43 41.09-19.62L41.09-19.53C41.09-18.68 40.37-18.04 39.60-18.04L35.87-18.04L35.87-15.71L40.45-15.71C41.27-15.71 41.94-14.98 41.94-14.22L41.94-14.13C41.94-13.32 41.27-12.64 40.45-12.64L36.59-12.64L42.30-5.71C42.84-5.08 42.75-4.18 42.16-3.65L42.07-3.60C41.76-3.33 41.40-3.24 40.99-3.24C40.59-3.28 40.27-3.46 39.96-3.78L37.89-6.25C37.71-6.17 37.48-6.12 37.26-6.12L33.88-6.12C33.07-6.12 32.45-6.79 32.45-7.60L32.45-7.69C32.45-8.46 33.07-9.18 33.88-9.18L35.50-9.18L33.12-12.06C32.94-12.24 32.85-12.42 32.80-12.64L24.57-12.64C24.52-12.42 24.48-12.24 24.39-12.06ZM10.17-23.13C10.17-20.25 10.08-17.50 9.81-14.76C9.99-14.63 10.17-14.40 10.26-14.17L15.03-0.14C15.30 0.63 14.89 1.44 14.13 1.75L14.08 1.75C13.32 1.98 12.42 1.57 12.20 0.85L8.91-8.69C8.41-6.30 7.79-3.96 6.97-1.67C6.43-0.09 5.76 1.44 5.04 2.92C4.68 3.73 3.78 4.00 3.01 3.65L2.97 3.60C2.21 3.24 1.93 2.38 2.29 1.67C3.92-1.71 5.04-5.00 5.85-8.73C6.84-13.32 7.11-18.13 7.11-23.13L7.11-34.29C7.11-35.10 7.83-35.77 8.59-35.77L8.69-35.77C9.49-35.77 10.17-35.10 10.17-34.29ZM26.05 1.30C26.50 1.21 26.86 0.94 27.18 0.54C27.54 0.04 27.77-0.54 27.77-1.30L27.77-10.04C27.77-10.84 28.44-11.52 29.25-11.52L29.34-11.52C30.11-11.52 30.82-10.84 30.82-10.04L30.82-1.30C30.82-0.54 30.64 0.22 30.42 0.90C29.88 2.21 29.02 3.28 27.72 3.87C27.31 4.09 26.91 4.23 26.50 4.27C26.05 4.37 25.61 4.23 25.29 3.92C24.97 3.65 24.75 3.28 24.75 2.83L24.75 2.75C24.75 1.98 25.29 1.40 26.05 1.30ZM5.40-15.97C5.40-15.21 4.72-14.49 3.92-14.49L3.87-14.49C3.01-14.49 2.38-15.21 2.38-15.97L2.38-30.42C2.38-31.23 3.01-31.90 3.87-31.90L3.92-31.90C4.72-31.90 5.40-31.23 5.40-30.42ZM14.40-16.38C14.40-15.57 13.77-14.89 12.91-14.89L12.82-14.89C12.06-14.89 11.34-15.57 11.34-16.38L11.34-30.02C11.34-30.87 12.06-31.50 12.82-31.50L12.91-31.50C13.77-31.50 14.40-30.87 14.40-30.02ZM19.71-28.35L19.71-27.04C19.71-26.55 20.02-26.10 20.52-26.10L37.17-26.10C37.71-26.10 38.02-26.55 38.02-27.04L38.02-28.35ZM20.52-33.30C20.02-33.30 19.71-32.89 19.71-32.40L19.71-31.41L38.02-31.41L38.02-32.40C38.02-32.89 37.71-33.30 37.17-33.30ZM32.45-1.53C31.81-1.98 31.63-2.88 32.09-3.51L32.13-3.60C32.40-3.96 32.71-4.18 33.07-4.23C33.48-4.32 33.88-4.23 34.24-4.00L40.41 0.32C41.13 0.81 41.27 1.71 40.81 2.38L40.77 2.43C40.32 3.15 39.33 3.33 38.70 2.88ZM23.80-3.96C24.48-4.46 25.38-4.32 25.88-3.65L25.96-3.55C26.41-2.92 26.28-1.98 25.61-1.48L19.93 2.79C19.26 3.28 18.36 3.10 17.86 2.43L17.82 2.38C17.32 1.75 17.46 0.81 18.13 0.36ZM24.93-15.71L32.85-15.71L32.85-18.04L24.93-18.04ZM24.93-21.11L32.85-21.11L32.85-23.09L24.93-23.09Z"
            transform="translate(-2.137411476401118, 36.405)"></path>
        </g>
      </g>
      <g transform="translate(44, 0)">
        <g data-gra="path-name" fill="#0a0a0a" transform="scale(1)">
          <path
            d="M3.92-31.68C3.92-32.31 4.05-32.94 4.32-33.52C5.08-35.23 6.75-36.41 8.69-36.41L13.81-36.41C15.07-36.41 16.29-35.91 17.19-35.01C18.09-34.06 18.63-32.89 18.63-31.59L18.63-0.67C18.63 0.63 18.18 1.75 17.23 2.65C16.29 3.65 15.12 4.14 13.81 4.14L12.78 4.14C11.97 4.09 11.29 3.42 11.29 2.65L11.29 2.56C11.29 1.75 12.01 1.08 12.82 1.08L13.81 1.08C14.31 1.08 14.76 0.90 15.07 0.54C15.43 0.18 15.57-0.22 15.57-0.67L15.57-8.23L5.98-8.23L5.54 2.70C5.54 3.10 5.35 3.42 5.04 3.73C4.77 4.00 4.37 4.14 3.96 4.09L3.87 4.09C3.06 4.05 2.43 3.33 2.48 2.56ZM21.38-14.31C20.52-14.31 19.89-14.94 19.89-15.79L19.89-15.88C19.89-16.74 20.52-17.37 21.38-17.37L29.92-17.37L29.92-32.31L22.41-32.31C21.55-32.31 20.93-32.98 20.93-33.80L20.93-33.84C20.93-34.65 21.55-35.32 22.41-35.32L40.50-35.32C41.31-35.32 41.98-34.65 41.98-33.84L41.98-33.80C41.98-32.98 41.31-32.31 40.50-32.31L32.98-32.31L32.98-17.37L41.49-17.37C42.30-17.37 42.98-16.74 42.98-15.88L42.98-15.79C42.98-14.94 42.30-14.31 41.49-14.31L32.98-14.31L32.98 2.56C32.98 3.38 32.27 4.05 31.50 4.05L31.41 4.05C30.60 4.05 29.92 3.38 29.92 2.56L29.92-14.31ZM6.12-11.29L15.57-11.29L15.57-20.61L6.48-20.61ZM15.57-31.59C15.57-32.09 15.43-32.53 15.07-32.85C14.76-33.16 14.31-33.34 13.81-33.34L8.69-33.34C8.19-33.34 7.74-33.12 7.42-32.80C7.11-32.49 6.93-32.09 6.93-31.54L6.61-23.67L15.57-23.67Z"
            transform="translate(-2.472731322097576, 36.405)"></path>
        </g>
      </g>
      <g transform="translate(88, 1.22684906075337)">
        <g>
          <g class="imagesvg">
            <g>
              <rect fill="#0a0a0a" fill-opacity="0" stroke-width="2" x="0" y="0" width="43.722418242665654"
                height="38.25367313175059" class="image-rect"></rect> <svg x="0" y="0" width="43.722418242665654"
                height="38.25367313175059" filtersec="colorsb4986824677" class="image-svg-svg primary"
                style="overflow: visible;"><svg xmlns="http://www.w3.org/2000/svg"
                  viewBox="0.47069674730300903 -0.008253796026110649 99.05030822753906 86.6612548828125">
                  <path fill="#0A0A0A"
                    d="M99.521 83.617c0-.221-.083-.435-.248-.656-.38-.876-.656-1.338-.821-1.394L55.789 7.627C53.933 4.35 52.76 2.438 52.27 1.893c-.166-.545-.655-1.09-1.477-1.635a2.982 2.982 0 0 0-1.552-.249c-.821.166-1.477.573-1.966 1.229L32.695 27.03 3.867 76.413C1.955 79.415.865 81.733.589 83.375l-.083.656v.083c-.165 1.09.249 1.883 1.229 2.373l1.31.166 68.87-.49 26.371-.573.821-.248.166-.325c.166-.165.248-.634.248-1.4m-61.5-55.766l11.627-20.39 42.828 73.375h-23.17L50.794 48.572C44.245 37.704 40.23 31.128 38.753 28.838a4.583 4.583 0 0 0-.731-.987m-2.947 4.83l9.66 15.235 18.589 32.837H39.823L25.167 54.878c-.766-1.476-1.283-2.29-1.553-2.456L35.075 32.68M7.724 80.836l13.593-22.439 13.103 21.95-24.074.49H7.724z">
                  </path>
                </svg></svg>
              <!---->
            </g>
          </g>
        </g>
      </g>
      <g transform="translate(135, 0)">
        <g data-gra="path-name" fill="#0a0a0a" transform="scale(1)">
          <path
            d="M6.39-0.72C6.39 0.09 5.80 0.77 4.86 0.77C4.05 0.77 3.46 0.09 3.46-0.72L3.46-29.70C3.46-30.51 4.05-31.09 4.95-31.09C5.80-31.09 6.39-30.51 6.39-29.70Z"
            transform="translate(-3.465, 36.405)"></path>
        </g>
      </g>
    </g>
    <g data-gra="path-slogan" fill-rule="" class="tp-slogan" fill="#0a0a0a"
      transform="translate(7.30902099609375,46.7119140625)">
      <!---->
      <!---->
      <g transform="scale(1, 1)">
        <g transform="scale(1)">
          <path
            d="M6.56 0L5.72-2.48L2.25-2.48L1.36 0L0.19 0L3.42-8.58L4.73-8.58L7.83 0L6.56 0ZM3.98-7.31L2.63-3.52L5.30-3.52L4.03-7.31L3.98-7.31ZM8.51-8.58L9.68-8.58L9.68 0L8.51 0L8.51-8.58ZM22.16-8.58L22.16 0L21.03 0L21.03-5.06Q21.03-5.77 21.03-7.22L21.03-7.22L18.59 0L17.42 0L15.03-7.22L14.99-7.22Q14.99-6.70 15.03-5.67L15.03-5.67Q15.03-5.16 15.03-5.06L15.03-5.06L15.03 0L13.86 0L13.86-8.58L15.55-8.58L18.03-1.31L20.47-8.58L22.16-8.58ZM28.98 0L28.14-2.48L24.67-2.48L23.78 0L22.61 0L25.84-8.58L27.15-8.58L30.25 0L28.98 0ZM26.40-7.31L25.04-3.52L27.72-3.52L26.45-7.31L26.40-7.31ZM33.27-4.31L31.91-3.05L31.91 0L30.74 0L30.74-8.58L31.91-8.58L31.91-4.41L36.09-8.58L37.73-8.58L34.12-5.11L37.82 0L36.27 0L33.27-4.31ZM39.49-1.03L44.64-1.03L44.64 0L38.31 0L38.31-8.58L44.55-8.58L44.55-7.59L39.49-7.59L39.49-4.92L44.17-4.92L44.17-3.89L39.49-3.89L39.49-1.03ZM48.40-8.58L49.57-8.58L49.57-1.03L53.93-1.03L53.93 0L48.40 0L48.40-8.58ZM54.71-8.58L55.88-8.58L55.88 0L54.71 0L54.71-8.58ZM62.84-3.89L58.62-3.89L58.62 0L57.45 0L57.45-8.58L63.40-8.58L63.40-7.59L58.62-7.59L58.62-4.92L62.84-4.92L62.84-3.89ZM65.35-1.03L70.51-1.03L70.51 0L64.18 0L64.18-8.58L70.42-8.58L70.42-7.59L65.35-7.59L65.35-4.92L70.04-4.92L70.04-3.89L65.35-3.89L65.35-1.03ZM77.50-7.64L75.44-7.64L75.44-4.97L77.50-4.97Q79.33-4.92 79.28-6.38L79.28-6.38Q79.28-7.64 77.50-7.64L77.50-7.64ZM77.97 0L74.27 0L74.27-8.58L78.06-8.58Q80.36-8.48 80.45-6.42L80.45-6.42Q80.45-5.16 79.33-4.64L79.33-4.64Q80.92-4.08 80.92-2.53L80.92-2.53Q80.78-0.09 77.97 0L77.97 0ZM77.69-3.98L75.44-3.98L75.44-0.98L77.92-0.98Q79.70-1.03 79.75-2.53L79.75-2.53Q79.75-3.98 77.69-3.98L77.69-3.98ZM83.01-1.03L88.17-1.03L88.17 0L81.84 0L81.84-8.58L88.07-8.58L88.07-7.59L83.01-7.59L83.01-4.92L87.70-4.92L87.70-3.89L83.01-3.89L83.01-1.03ZM91.33-7.59L88.43-7.59L88.43-8.58L95.36-8.58L95.36-7.59L92.46-7.59L92.46 0L91.33 0L91.33-7.59ZM98.06-7.59L95.16-7.59L95.16-8.58L102.09-8.58L102.09-7.59L99.19-7.59L99.19 0L98.06 0L98.06-7.59ZM103.90-1.03L109.06-1.03L109.06 0L102.73 0L102.73-8.58L108.96-8.58L108.96-7.59L103.90-7.59L103.90-4.92L108.59-4.92L108.59-3.89L103.90-3.89L103.90-1.03ZM114.15-3.70L111.33-3.70L111.33 0L110.16 0L110.16-8.58L114.15-8.58Q117.01-8.58 117.01-6.28L117.01-6.28Q117.01-4.88 115.79-4.22L115.79-4.22Q116.82-3.94 116.82-2.58L116.82-2.58L116.91-1.03Q116.87-0.38 117.33-0.19L117.33-0.19L117.33 0L115.88 0Q115.74-0.61 115.69-2.16L115.69-2.16Q115.74-3.70 114.15-3.70L114.15-3.70ZM114.24-7.64L111.33-7.64L111.33-4.69L114.05-4.69Q115.79-4.69 115.79-6.19L115.79-6.19Q115.79-7.64 114.24-7.64L114.24-7.64ZM123.03-3.89L123.03-3.89L123.50-3.23Q122.85-2.20 122.00-2.20L122.00-2.20Q121.49-2.20 120.78-2.58L120.78-2.58Q120.03-3.05 119.38-3.05L119.38-3.05Q118.77-3.05 118.35-2.16L118.35-2.16L117.92-2.81Q118.49-3.84 119.42-3.84L119.42-3.84Q119.85-3.84 120.78-3.47L120.78-3.47Q121.58-3.09 122.00-3.05L122.00-3.05Q122.52-3 123.03-3.89Z"
            transform="translate(-0.1875, 8.578125)"></path>
        </g>
      </g>
    </g>
  </g>
  <defs v-gra="od"></defs>
</svg>
