<svg data-v-0dd9719b="" version="1.0" xmlns="http://www.w3.org/2000/svg" xmlns:xlink="http://www.w3.org/1999/xlink"
 preserveAspectRatio="xMidYMid meet"
  color-interpolation-filters="sRGB" style="margin: auto;">
  <g data-v-0dd9719b="" fill="#feffff" class="singlesvg" >
    <g class="tp-name" transform="translate(0,0)">
      <g mask="url(#0173aa5a-930c-4edb-9ec8-559b6678262b)">
        <rect data-gra="graph-name" stroke="#feffff" stroke-width="2" x="0" y="0" height="47.94" width="47.94"></rect>
        <g data-gra="path-name" fill="#fa1d42" transform="translate(2.999998779296874,3.6750000000000007)">
          <g transform="scale(1)">
            <path
              d="M43.11-6.61L41.04-2.52Q39.24-3.38 37.71-4.25Q36.18-5.13 34.88-6.17L34.88-6.17Q34.24-5.63 33.59-5.11Q32.94-4.59 32.31-4.09L32.31-4.09Q33.21-3.73 34.36-3.26Q35.50-2.79 36.67-2.29Q37.84-1.80 38.95-1.33Q40.05-0.85 40.86-0.49L40.86-0.49L39.10 3.33Q38.20 2.88 36.99 2.25Q35.77 1.62 34.52 0.99Q33.25 0.36 32.04-0.22Q30.82-0.81 29.92-1.21L29.92-1.21L29.92 0.54Q29.92 1.71 29.72 2.41Q29.52 3.10 29.02 3.53Q28.53 3.96 27.70 4.16Q26.86 4.37 25.65 4.50L25.65 4.50L23.63 4.72L22.18 0.58L24.30 0.36Q25.29 0.27 25.52 0.07Q25.74-0.14 25.74-0.90L25.74-0.90L25.74-10.04L29.92-9.86L29.92-6.93Q30.55-7.33 31.12-7.79Q31.68-8.23 32.22-8.64L32.22-8.64Q31.72-9.13 31.30-9.70Q30.87-10.26 30.46-10.84L30.46-10.84L24.93-10.84Q24.57-10.26 24.16-9.72Q23.76-9.18 23.31-8.64L23.31-8.64Q23.94-8.05 24.59-7.47Q25.24-6.88 25.74-6.48L25.74-6.48L23.80-4.27L24.43-4.54L24.84-3.51L25.65-1.40Q25.33-1.26 24.55-0.94Q23.76-0.63 22.72-0.20Q21.69 0.22 20.52 0.70Q19.35 1.17 18.34 1.57Q17.32 1.98 16.56 2.32Q15.79 2.65 15.52 2.75L15.52 2.75L14.26-0.45Q14.58-0.58 15.59-0.97Q16.61-1.35 17.91-1.87Q19.21-2.38 20.56-2.92Q21.91-3.46 22.90-3.87L22.90-3.87Q22.45-4.32 21.89-4.86Q21.33-5.40 20.75-5.94L20.75-5.94Q18.36-3.69 15.39-1.71L15.39-1.71L13.18-5.54Q15.12-6.71 16.76-8.05Q18.40-9.40 19.66-10.84L19.66-10.84L14.22-10.84L14.22-14.49L20.38-14.49L20.38-16.38L15.39-16.38L15.39-19.80L20.38-19.80L20.38-21.55L15.97-21.55L15.97-24.93Q15.66-24.12 15.32-23.20Q14.98-22.27 14.65-21.42Q14.31-20.56 13.99-19.84Q13.68-19.13 13.46-18.68L13.46-18.68L11.79-19.53Q11.74-17.82 11.65-16.29Q11.56-14.76 11.43-13.32L11.43-13.32Q12.46-11.88 13.57-10.28Q14.67-8.69 15.30-7.51L15.30-7.51L11.97-4.59Q11.29-5.98 10.48-7.42L10.48-7.42Q9.72-4.32 8.55-1.48Q7.38 1.35 5.67 4.50L5.67 4.50L1.17 1.89Q2.65-0.58 3.73-2.72Q4.81-4.86 5.54-6.97Q6.25-9.09 6.66-11.34Q7.06-13.59 7.15-16.34L7.15-16.34L3.55-15.39Q3.55-15.79 3.42-16.76Q3.28-17.73 3.08-18.97Q2.88-20.20 2.65-21.58Q2.43-22.95 2.21-24.16Q1.98-25.38 1.80-26.32Q1.62-27.27 1.53-27.68L1.53-27.68L5.40-28.35Q5.54-27.81 5.76-26.30Q5.98-24.79 6.25-23.02Q6.52-21.24 6.77-19.55Q7.02-17.86 7.15-16.92L7.15-16.92Q7.20-17.32 7.20-17.75Q7.20-18.18 7.20-18.63L7.20-18.63L7.20-35.59L11.83-35.37L11.83-24.25Q12.33-25.56 12.76-26.80Q13.18-28.04 13.41-28.66L13.41-28.66L15.97-27.68L15.97-35.05L39.42-35.05L39.42-21.55L34.83-21.55L34.83-19.80L39.91-19.80L39.91-16.38L34.83-16.38L34.83-14.49L41.09-14.49L41.09-10.84L35.91-10.84Q37.30-9.49 39.06-8.46Q40.81-7.42 43.11-6.61L43.11-6.61ZM34.60-31.27L20.75-31.27L20.75-29.88L34.60-29.88L34.60-31.27ZM20.75-25.11L34.60-25.11L34.60-26.50L20.75-26.50L20.75-25.11ZM25.15-21.55L25.15-19.80L30.06-19.80L30.06-21.55L25.15-21.55ZM25.15-16.38L25.15-14.49L30.06-14.49L30.06-16.38L25.15-16.38ZM29.92-1.57L31.27-4.50Q31.45-4.41 31.54-4.41L31.54-4.41L29.92-6.17L29.92-1.57Z"
              transform="translate(-1.17, 35.595)"></path>
          </g>
        </g>
      </g>
      <g transform="translate(50.94,0)">
        <rect fill-opacity="0" stroke="#feffff" stroke-width="2" x="0" y="0" height="47.94" width="47.94"></rect>
        <g data-gra="path-name" transform="translate(3.545000762939452,3.6750000000000007)">
          <g transform="scale(1)">
            <path
              d="M5.17-17.23L5.17-34.47L19.53-34.47L19.53-0.49Q19.53 0.81 19.30 1.62Q19.08 2.43 18.50 2.95Q17.91 3.46 16.96 3.71Q16.02 3.96 14.63 4.14L14.63 4.14L11.97 4.46L10.44-0.72L12.69-1.03Q13.72-1.17 13.99-1.53Q14.26-1.89 14.26-2.97L14.26-2.97L14.26-8.78L10.21-8.78Q10.08-6.57 9.76-4.81Q9.45-3.06 8.98-1.46Q8.50 0.14 7.81 1.69Q7.11 3.24 6.17 5.00L6.17 5.00L1.13 2.43Q2.16 0.77 2.92-0.83Q3.69-2.43 4.18-4.59Q4.68-6.75 4.93-9.74Q5.17-12.73 5.17-17.23L5.17-17.23ZM41.98-18.59L41.98-12.82L33.48-12.82L33.48 3.69L27.63 3.69L27.63-12.82L20.70-12.82L20.70-18.59L27.63-18.59L27.63-28.13L21.69-28.13L21.69-33.75L39.96-33.75L39.96-28.13L33.48-28.13L33.48-18.59L41.98-18.59ZM14.26-28.84L10.39-28.84L10.39-24.16L14.26-24.16L14.26-28.84ZM10.39-14.17L14.26-14.17L14.26-18.68L10.39-18.68L10.39-14.17Z"
              transform="translate(-1.125, 35.595)"></path>
          </g>
        </g>
      </g>
      <g transform="translate(101.88,0)" mask="url(#b4cee5b2-c6a8-4ff2-b4f1-be1c7b755e1e)">
        <rect data-gra="graph-name" stroke="#feffff" stroke-width="2" x="0" y="0" height="47.94" width="47.94"></rect>
        <g data-gra="path-name" fill="#fa1d42" transform="translate(7.77500030517578,3.6750000000000007)">
          <g transform="scale(1)">
            <path
              d="M25.29 0L22.63-7.74L9.95-7.74L7.25 0L0.14 0L11.79-31.23L20.97-31.23L32.53 0L25.29 0ZM11.92-13.41L20.65-13.41L16.61-25.24L16.06-25.24L11.92-13.41Z"
              transform="translate(-0.135, 35.595)"></path>
          </g>
        </g>
      </g>
      <g transform="translate(152.82,0)">
        <rect fill-opacity="0" stroke="#feffff" stroke-width="2" x="0" y="0" height="47.94" width="47.94"></rect>
        <g data-gra="path-name" transform="translate(20.549999923706054,3.6750000000000007)">
          <g transform="scale(1)">
            <path d="M3.46 0L3.46-31.23L10.30-31.23L10.30 0L3.46 0Z" transform="translate(-3.465, 35.595)"></path>
          </g>
        </g>
      </g>
    </g>
    <g data-gra="path-slogan" fill-rule="" class="tp-slogan" fill="#feffff"
      transform="translate(33.6300048828125,53.939998626708984)">
      <!---->
      <!---->
      <g transform="scale(1, 1)">
        <g transform="scale(1)">
          <path
            d="M6.56 0L5.72-2.48L2.25-2.48L1.36 0L0.19 0L3.42-8.58L4.73-8.58L7.83 0L6.56 0ZM3.98-7.31L2.63-3.52L5.30-3.52L4.03-7.31L3.98-7.31ZM9.05-8.58L10.22-8.58L10.22 0L9.05 0L9.05-8.58ZM23.77-8.58L23.77 0L22.64 0L22.64-5.06Q22.64-5.77 22.64-7.22L22.64-7.22L20.20 0L19.03 0L16.64-7.22L16.59-7.22Q16.59-6.70 16.64-5.67L16.64-5.67Q16.64-5.16 16.64-5.06L16.64-5.06L16.64 0L15.47 0L15.47-8.58L17.16-8.58L19.64-1.31L22.08-8.58L23.77-8.58ZM31.13 0L30.28-2.48L26.81-2.48L25.92 0L24.75 0L27.98-8.58L29.30-8.58L32.39 0L31.13 0ZM28.55-7.31L27.19-3.52L29.86-3.52L28.59-7.31L28.55-7.31ZM35.95-4.31L34.59-3.05L34.59 0L33.42 0L33.42-8.58L34.59-8.58L34.59-4.41L38.77-8.58L40.41-8.58L36.80-5.11L40.50 0L38.95 0L35.95-4.31ZM42.70-1.03L47.86-1.03L47.86 0L41.53 0L41.53-8.58L47.77-8.58L47.77-7.59L42.70-7.59L42.70-4.92L47.39-4.92L47.39-3.89L42.70-3.89L42.70-1.03ZM52.69-8.58L53.86-8.58L53.86-1.03L58.22-1.03L58.22 0L52.69 0L52.69-8.58ZM59.53-8.58L60.70-8.58L60.70 0L59.53 0L59.53-8.58ZM68.20-3.89L63.98-3.89L63.98 0L62.81 0L62.81-8.58L68.77-8.58L68.77-7.59L63.98-7.59L63.98-4.92L68.20-4.92L68.20-3.89ZM71.25-1.03L76.41-1.03L76.41 0L70.08 0L70.08-8.58L76.31-8.58L76.31-7.59L71.25-7.59L71.25-4.92L75.94-4.92L75.94-3.89L71.25-3.89L71.25-1.03ZM84.47-7.64L82.41-7.64L82.41-4.97L84.47-4.97Q86.30-4.92 86.25-6.38L86.25-6.38Q86.25-7.64 84.47-7.64L84.47-7.64ZM84.94 0L81.23 0L81.23-8.58L85.03-8.58Q87.33-8.48 87.42-6.42L87.42-6.42Q87.42-5.16 86.30-4.64L86.30-4.64Q87.89-4.08 87.89-2.53L87.89-2.53Q87.75-0.09 84.94 0L84.94 0ZM84.66-3.98L82.41-3.98L82.41-0.98L84.89-0.98Q86.67-1.03 86.72-2.53L86.72-2.53Q86.72-3.98 84.66-3.98L84.66-3.98ZM90.52-1.03L95.67-1.03L95.67 0L89.34 0L89.34-8.58L95.58-8.58L95.58-7.59L90.52-7.59L90.52-4.92L95.20-4.92L95.20-3.89L90.52-3.89L90.52-1.03ZM99.38-7.59L96.47-7.59L96.47-8.58L103.41-8.58L103.41-7.59L100.50-7.59L100.50 0L99.38 0L99.38-7.59ZM106.64-7.59L103.73-7.59L103.73-8.58L110.67-8.58L110.67-7.59L107.77-7.59L107.77 0L106.64 0L106.64-7.59ZM113.02-1.03L118.17-1.03L118.17 0L111.84 0L111.84-8.58L118.08-8.58L118.08-7.59L113.02-7.59L113.02-4.92L117.70-4.92L117.70-3.89L113.02-3.89L113.02-1.03ZM123.80-3.70L120.98-3.70L120.98 0L119.81 0L119.81-8.58L123.80-8.58Q126.66-8.58 126.66-6.28L126.66-6.28Q126.66-4.88 125.44-4.22L125.44-4.22Q126.47-3.94 126.47-2.58L126.47-2.58L126.56-1.03Q126.52-0.38 126.98-0.19L126.98-0.19L126.98 0L125.53 0Q125.39-0.61 125.34-2.16L125.34-2.16Q125.39-3.70 123.80-3.70L123.80-3.70ZM123.89-7.64L120.98-7.64L120.98-4.69L123.70-4.69Q125.44-4.69 125.44-6.19L125.44-6.19Q125.44-7.64 123.89-7.64L123.89-7.64ZM133.22-3.89L133.22-3.89L133.69-3.23Q133.03-2.20 132.19-2.20L132.19-2.20Q131.67-2.20 130.97-2.58L130.97-2.58Q130.22-3.05 129.56-3.05L129.56-3.05Q128.95-3.05 128.53-2.16L128.53-2.16L128.11-2.81Q128.67-3.84 129.61-3.84L129.61-3.84Q130.03-3.84 130.97-3.47L130.97-3.47Q131.77-3.09 132.19-3.05L132.19-3.05Q132.70-3 133.22-3.89Z"
            transform="translate(-0.1875, 8.578125)"></path>
        </g>
      </g>
    </g>
  </g>
  <mask id="0173aa5a-930c-4edb-9ec8-559b6678262b">
    <rect data-gra="graph-name" stroke="white" stroke-width="2" x="0" y="0" height="47.94" width="47.94" fill="white">
    </rect>
    <g data-gra="path-name" transform="translate(2.999998779296874,3.6750000000000007)" fill="black">
      <g transform="scale(1)">
        <path
          d="M43.11-6.61L41.04-2.52Q39.24-3.38 37.71-4.25Q36.18-5.13 34.88-6.17L34.88-6.17Q34.24-5.63 33.59-5.11Q32.94-4.59 32.31-4.09L32.31-4.09Q33.21-3.73 34.36-3.26Q35.50-2.79 36.67-2.29Q37.84-1.80 38.95-1.33Q40.05-0.85 40.86-0.49L40.86-0.49L39.10 3.33Q38.20 2.88 36.99 2.25Q35.77 1.62 34.52 0.99Q33.25 0.36 32.04-0.22Q30.82-0.81 29.92-1.21L29.92-1.21L29.92 0.54Q29.92 1.71 29.72 2.41Q29.52 3.10 29.02 3.53Q28.53 3.96 27.70 4.16Q26.86 4.37 25.65 4.50L25.65 4.50L23.63 4.72L22.18 0.58L24.30 0.36Q25.29 0.27 25.52 0.07Q25.74-0.14 25.74-0.90L25.74-0.90L25.74-10.04L29.92-9.86L29.92-6.93Q30.55-7.33 31.12-7.79Q31.68-8.23 32.22-8.64L32.22-8.64Q31.72-9.13 31.30-9.70Q30.87-10.26 30.46-10.84L30.46-10.84L24.93-10.84Q24.57-10.26 24.16-9.72Q23.76-9.18 23.31-8.64L23.31-8.64Q23.94-8.05 24.59-7.47Q25.24-6.88 25.74-6.48L25.74-6.48L23.80-4.27L24.43-4.54L24.84-3.51L25.65-1.40Q25.33-1.26 24.55-0.94Q23.76-0.63 22.72-0.20Q21.69 0.22 20.52 0.70Q19.35 1.17 18.34 1.57Q17.32 1.98 16.56 2.32Q15.79 2.65 15.52 2.75L15.52 2.75L14.26-0.45Q14.58-0.58 15.59-0.97Q16.61-1.35 17.91-1.87Q19.21-2.38 20.56-2.92Q21.91-3.46 22.90-3.87L22.90-3.87Q22.45-4.32 21.89-4.86Q21.33-5.40 20.75-5.94L20.75-5.94Q18.36-3.69 15.39-1.71L15.39-1.71L13.18-5.54Q15.12-6.71 16.76-8.05Q18.40-9.40 19.66-10.84L19.66-10.84L14.22-10.84L14.22-14.49L20.38-14.49L20.38-16.38L15.39-16.38L15.39-19.80L20.38-19.80L20.38-21.55L15.97-21.55L15.97-24.93Q15.66-24.12 15.32-23.20Q14.98-22.27 14.65-21.42Q14.31-20.56 13.99-19.84Q13.68-19.13 13.46-18.68L13.46-18.68L11.79-19.53Q11.74-17.82 11.65-16.29Q11.56-14.76 11.43-13.32L11.43-13.32Q12.46-11.88 13.57-10.28Q14.67-8.69 15.30-7.51L15.30-7.51L11.97-4.59Q11.29-5.98 10.48-7.42L10.48-7.42Q9.72-4.32 8.55-1.48Q7.38 1.35 5.67 4.50L5.67 4.50L1.17 1.89Q2.65-0.58 3.73-2.72Q4.81-4.86 5.54-6.97Q6.25-9.09 6.66-11.34Q7.06-13.59 7.15-16.34L7.15-16.34L3.55-15.39Q3.55-15.79 3.42-16.76Q3.28-17.73 3.08-18.97Q2.88-20.20 2.65-21.58Q2.43-22.95 2.21-24.16Q1.98-25.38 1.80-26.32Q1.62-27.27 1.53-27.68L1.53-27.68L5.40-28.35Q5.54-27.81 5.76-26.30Q5.98-24.79 6.25-23.02Q6.52-21.24 6.77-19.55Q7.02-17.86 7.15-16.92L7.15-16.92Q7.20-17.32 7.20-17.75Q7.20-18.18 7.20-18.63L7.20-18.63L7.20-35.59L11.83-35.37L11.83-24.25Q12.33-25.56 12.76-26.80Q13.18-28.04 13.41-28.66L13.41-28.66L15.97-27.68L15.97-35.05L39.42-35.05L39.42-21.55L34.83-21.55L34.83-19.80L39.91-19.80L39.91-16.38L34.83-16.38L34.83-14.49L41.09-14.49L41.09-10.84L35.91-10.84Q37.30-9.49 39.06-8.46Q40.81-7.42 43.11-6.61L43.11-6.61ZM34.60-31.27L20.75-31.27L20.75-29.88L34.60-29.88L34.60-31.27ZM20.75-25.11L34.60-25.11L34.60-26.50L20.75-26.50L20.75-25.11ZM25.15-21.55L25.15-19.80L30.06-19.80L30.06-21.55L25.15-21.55ZM25.15-16.38L25.15-14.49L30.06-14.49L30.06-16.38L25.15-16.38ZM29.92-1.57L31.27-4.50Q31.45-4.41 31.54-4.41L31.54-4.41L29.92-6.17L29.92-1.57Z"
          transform="translate(-1.17, 35.595)"></path>
      </g>
    </g>
  </mask>
  <mask id="b4cee5b2-c6a8-4ff2-b4f1-be1c7b755e1e">
    <rect data-gra="graph-name" stroke="white" stroke-width="2" x="0" y="0" height="47.94" width="47.94" fill="white">
    </rect>
    <g data-gra="path-name" transform="translate(7.77500030517578,3.6750000000000007)" fill="black">
      <g transform="scale(1)">
        <path
          d="M25.29 0L22.63-7.74L9.95-7.74L7.25 0L0.14 0L11.79-31.23L20.97-31.23L32.53 0L25.29 0ZM11.92-13.41L20.65-13.41L16.61-25.24L16.06-25.24L11.92-13.41Z"
          transform="translate(-0.135, 35.595)"></path>
      </g>
    </g>
  </mask>
  <defs v-gra="od"></defs>
</svg>
