<svg data-v-0dd9719b="" version="1.0" xmlns="http://www.w3.org/2000/svg" xmlns:xlink="http://www.w3.org/1999/xlink" preserveAspectRatio="xMidYMid meet"
  color-interpolation-filters="sRGB" style="margin: auto;">
  <g data-v-0dd9719b="" fill="#133359" class="icon-text-wrapper icon-svg-group iconsvg">
    <g class="iconsvg-imagesvg" transform="translate(0,0)">
      <g>
        <rect fill="#133359" fill-opacity="0" stroke-width="2" x="0" y="0" width="60" height="60" class="image-rect">
        </rect> <svg x="0" y="0" width="60" height="60" filtersec="colorsb5000359866" class="image-svg-svg primary"
          style="overflow: visible;"><svg xmlns="http://www.w3.org/2000/svg"
            viewBox="0 0 194.82000732421875 194.82000732421875">
            <g>
              <g fill-rule="evenodd">
                <path fill="#133359"
                  d="M194.82 15.46v179.36H72.15l97.94-97.94-14.51-14.52L43.12 194.82H15.46L194.82 15.46z"></path>
                <path fill="#fe7c30" d="M0 0h122.68L24.73 97.94l14.51 14.51L151.7 0h29.55L0 181.25V0z"></path>
              </g>
            </g>
          </svg></svg>
        <!---->
      </g>
    </g>
    <g transform="translate(67,2.375934600830078)">
      <g data-gra="path-name" fill-rule="" class="tp-name iconsvg-namesvg" transform="translate(0,0)">
        <g transform="scale(1)">
          <g>
            <path
              d="M25.32-18.64L25.32-15.15 28.8-15.15 28.8-18.64 25.32-18.64ZM17.27-21.87L17.27-25.15 17.02-25.19Q14.65-22.58 11.54-19.92L11.54-19.92Q11.41-16.77 11.08-13.41L11.08-13.41Q13.49-12.82 14.78-11.81 16.06-10.79 16.35-9.67L16.35-9.67Q17.93-11.75 18.93-13.95L18.93-13.95 13.2-13.95 12.87-15.15 20.3-15.15 20.3-18.64 15.11-18.64 14.73-19.8 20.3-19.8 20.3-22.25Q19.01-21.87 18.05-21.87L18.05-21.87 17.27-21.87ZM32.66-29.3L32.66-32.58 22.95-32.58 22.95-29.3 32.66-29.3ZM22.95-28.1L22.95-24.82 32.66-24.82 32.66-28.1 22.95-28.1ZM28.8-19.8L28.8-23.24 32.66-22.95 32.66-23.62 22.95-23.57Q22.95-23.41 22.54-23.12L22.54-23.12 26.89-22.79Q26.77-21.79 25.32-21.54L25.32-21.54 25.32-19.8 28.8-19.8ZM42.13-11.66L42.13-11.66 42.17-11.08Q39.59-8.55 39.35-5.06L39.35-5.06Q37.64-5.89 36.03-7.3L36.03-7.3Q35.65-7.3 35.44-7.35L35.44-7.35Q35.03-7.06 34.34-6.58 33.66-6.1 32.77-5.48 31.88-4.86 31.38-4.52L31.38-4.52Q37.06-4.57 38.93-1.78L38.93-1.78Q40.09-0.04 39.12 1.49 38.14 3.03 36.11 2.57L36.11 2.57Q35.86 2.49 35.61 2.41L35.61 2.41Q34.74 0.83 33.12-0.85 31.5-2.53 29.8-3.69L29.8-3.69 29.8-1.16Q29.8 1.49 28.76 2.64 27.72 3.78 24.24 4.03L24.24 4.03Q24.16 1.91 23.7 1.12L23.7 1.12Q23.12 0.12 21.62-0.17L21.62-0.17 21.62-0.71Q23.7-0.58 24.2-0.58 24.69-0.58 24.69-1.08L24.69-1.08 24.69-3.98Q22.29-1.41 18.22 2.24L18.22 2.24Q18.01 3.15 17.31 3.44L17.31 3.44 13.82-1.66Q17.89-2.57 24.69-4.65L24.69-4.65 24.69-12.16 31.25-11.62Q31.13-10.75 29.8-10.5L29.8-10.5 29.8-4.4 30.38-4.48Q31.21-7.55 31.71-10.38L31.71-10.38 34.12-9.21Q32.46-11.08 30.84-13.95L30.84-13.95 25.9-13.95Q24.4-11.46 21.67-9.13L21.67-9.13Q23.95-8.13 23.74-6.39L23.74-6.39Q23.57-5.1 22.29-4.65L22.29-4.65Q21-4.15 19.67-5.19L19.67-5.19Q19.67-6.31 19.3-7.43L19.3-7.43Q15.77-5.1 10.42-3.44L10.42-3.44 10.13-3.94Q11.75-4.9 13.57-6.6L13.57-6.6Q12.7-6.68 11.79-7.43L11.79-7.43Q11.75-9.3 10.83-11.7L10.83-11.7Q10-6.39 7.84-2.61 5.69 1.16 1.41 3.9L1.41 3.9 1 3.32Q3.94-0.66 5.04-5.91 6.14-11.16 6.23-19.17L6.23-19.17Q6.1-17.31 5.02-16.19L5.02-16.19Q3.61-14.78 2.12-15.56L2.12-15.56Q0.79-16.27 0.91-17.89L0.91-17.89Q1.04-19.09 2.08-20.21L2.08-20.21Q2.7-21.13 3.07-23.12 3.44-25.11 3.24-27.23L3.24-27.23 3.74-27.27Q6.1-23.24 6.27-20.09L6.27-20.09Q6.27-22.25 6.2-27.45 6.14-32.66 6.14-35.73L6.14-35.73 13.2-35.11Q12.99-34.07 11.66-33.87L11.66-33.87Q11.66-32.46 11.64-28.16 11.62-23.86 11.58-21.79L11.58-21.79Q12.82-26.11 13.32-28.89L13.32-28.89 17.27-26.48 17.27-36.07 23.24-33.78 32.29-33.78 34.82-36.44 39.97-32.62Q39.68-32.08 38.64-31.92L38.64-31.92 38.64-24.2Q38.64-24.03 37.81-23.72 36.98-23.41 35.8-23.14 34.61-22.87 33.74-22.87L33.74-22.87 35.4-22.74Q35.28-21.75 33.83-21.5L33.83-21.5 33.83-19.8 34.95-19.8 37.19-23.08Q39.72-20.83 41.17-19.3L41.17-19.3Q41.01-18.64 40.05-18.64L40.05-18.64 33.83-18.64 33.83-15.15 34.41-15.15 37.06-18.51Q40.09-16.23 41.88-14.61L41.88-14.61Q41.75-13.95 40.72-13.95L40.72-13.95 32.62-13.95Q34.45-12.82 37.04-12.22 39.64-11.62 42.13-11.66ZM51.59-13.61L51.59-13.61 54.66-13.61 54.66-22.41 51.76-22.41 51.76-19.92Q51.76-15.77 51.59-13.61ZM54.66-23.57L54.66-32.21 51.76-32.21 51.76-23.57 54.66-23.57ZM54.25-33.41L56.78-36.23 61.92-32.21Q61.51-31.71 60.43-31.46L60.43-31.46 60.43-2.41Q60.43 0.79 59.18 2.24 57.94 3.69 53.83 4.03L53.83 4.03Q53.71 0.91 53.17-0.04L53.17-0.04Q52.42-1.41 50.39-1.83L50.39-1.83 50.39-2.37Q53.21-2.2 53.87-2.2L53.87-2.2Q54.66-2.2 54.66-3.03L54.66-3.03 54.66-12.41 51.46-12.41Q50.47-1.62 43.41 4.03L43.41 4.03 42.96 3.78Q44.08 1.33 44.78-1.51 45.49-4.36 45.78-7.82 46.07-11.29 46.13-13.61 46.19-15.94 46.19-19.92L46.19-19.92 46.19-35.61 52.63-33.41 54.25-33.41ZM74.38-18.18L76.16-18.18 79.15-22.45Q82.51-19.55 84.42-17.68L84.42-17.68Q84.29-17.02 83.22-17.02L83.22-17.02 74.38-17.02 74.38 2.49Q74.38 2.7 73.84 3.07 73.3 3.44 72.09 3.8 70.89 4.15 69.44 4.15L69.44 4.15 68.36 4.15 68.36-17.02 61.3-17.02 60.93-18.18 68.36-18.18 68.36-31.34 62.26-31.34 61.92-32.5 75.37-32.5 78.23-36.52Q81.51-33.78 83.42-32L83.42-32Q83.26-31.34 82.22-31.34L82.22-31.34 74.38-31.34 74.38-18.18ZM98.45-26.11L94.17-11.58 103.05-11.58 98.45-26.11ZM103.22-31.88L113.43-1.83 116.83-1.45 116.83 0 102.35 0 102.35-1.45 106.13-1.87 103.51-10.09 93.76-10.09 91.43-1.99 95.42-1.45 95.42 0 85.66 0 85.66-1.45 89.19-1.95 98.82-31.88 103.22-31.88ZM134.06-31.75L134.06-30.3 130.28-29.97Q130.2-25.65 130.2-16.77L130.2-16.77 130.2-14.94Q130.2-6.18 130.28-1.83L130.28-1.83 134.06-1.45 134.06 0 119.07 0 119.07-1.45 122.89-1.83Q123.02-6.1 123.02-14.9L123.02-14.9 123.02-16.77Q123.02-25.61 122.89-29.97L122.89-29.97 119.07-30.3 119.07-31.75 134.06-31.75Z"
              transform="translate(-0.9000691175460815, 36.52000045776367)"></path>
          </g>
          <!---->
          <!---->
          <!---->
          <!---->
          <!---->
          <!---->
          <!---->
        </g>
      </g>
      <g data-gra="path-slogan" fill-rule="" class="tp-slogan iconsvg-slogansvg" fill="#133359"
        transform="translate(-0.17003631591796875,47.67000198364258)">
        <!---->
        <!---->
        <g transform="scale(1, 1)">
          <g transform="scale(1)">
            <path
              d="M6.56 0L5.72-2.48L2.25-2.48L1.36 0L0.19 0L3.42-8.58L4.73-8.58L7.83 0L6.56 0ZM3.98-7.31L2.63-3.52L5.30-3.52L4.03-7.31L3.98-7.31ZM9.05-8.58L10.22-8.58L10.22 0L9.05 0L9.05-8.58ZM23.77-8.58L23.77 0L22.64 0L22.64-5.06Q22.64-5.77 22.64-7.22L22.64-7.22L20.20 0L19.03 0L16.64-7.22L16.59-7.22Q16.59-6.70 16.64-5.67L16.64-5.67Q16.64-5.16 16.64-5.06L16.64-5.06L16.64 0L15.47 0L15.47-8.58L17.16-8.58L19.64-1.31L22.08-8.58L23.77-8.58ZM31.13 0L30.28-2.48L26.81-2.48L25.92 0L24.75 0L27.98-8.58L29.30-8.58L32.39 0L31.13 0ZM28.55-7.31L27.19-3.52L29.86-3.52L28.59-7.31L28.55-7.31ZM35.95-4.31L34.59-3.05L34.59 0L33.42 0L33.42-8.58L34.59-8.58L34.59-4.41L38.77-8.58L40.41-8.58L36.80-5.11L40.50 0L38.95 0L35.95-4.31ZM42.70-1.03L47.86-1.03L47.86 0L41.53 0L41.53-8.58L47.77-8.58L47.77-7.59L42.70-7.59L42.70-4.92L47.39-4.92L47.39-3.89L42.70-3.89L42.70-1.03ZM52.69-8.58L53.86-8.58L53.86-1.03L58.22-1.03L58.22 0L52.69 0L52.69-8.58ZM59.53-8.58L60.70-8.58L60.70 0L59.53 0L59.53-8.58ZM68.20-3.89L63.98-3.89L63.98 0L62.81 0L62.81-8.58L68.77-8.58L68.77-7.59L63.98-7.59L63.98-4.92L68.20-4.92L68.20-3.89ZM71.25-1.03L76.41-1.03L76.41 0L70.08 0L70.08-8.58L76.31-8.58L76.31-7.59L71.25-7.59L71.25-4.92L75.94-4.92L75.94-3.89L71.25-3.89L71.25-1.03ZM84.47-7.64L82.41-7.64L82.41-4.97L84.47-4.97Q86.30-4.92 86.25-6.38L86.25-6.38Q86.25-7.64 84.47-7.64L84.47-7.64ZM84.94 0L81.23 0L81.23-8.58L85.03-8.58Q87.33-8.48 87.42-6.42L87.42-6.42Q87.42-5.16 86.30-4.64L86.30-4.64Q87.89-4.08 87.89-2.53L87.89-2.53Q87.75-0.09 84.94 0L84.94 0ZM84.66-3.98L82.41-3.98L82.41-0.98L84.89-0.98Q86.67-1.03 86.72-2.53L86.72-2.53Q86.72-3.98 84.66-3.98L84.66-3.98ZM90.52-1.03L95.67-1.03L95.67 0L89.34 0L89.34-8.58L95.58-8.58L95.58-7.59L90.52-7.59L90.52-4.92L95.20-4.92L95.20-3.89L90.52-3.89L90.52-1.03ZM99.38-7.59L96.47-7.59L96.47-8.58L103.41-8.58L103.41-7.59L100.50-7.59L100.50 0L99.38 0L99.38-7.59ZM106.64-7.59L103.73-7.59L103.73-8.58L110.67-8.58L110.67-7.59L107.77-7.59L107.77 0L106.64 0L106.64-7.59ZM113.02-1.03L118.17-1.03L118.17 0L111.84 0L111.84-8.58L118.08-8.58L118.08-7.59L113.02-7.59L113.02-4.92L117.70-4.92L117.70-3.89L113.02-3.89L113.02-1.03ZM123.80-3.70L120.98-3.70L120.98 0L119.81 0L119.81-8.58L123.80-8.58Q126.66-8.58 126.66-6.28L126.66-6.28Q126.66-4.88 125.44-4.22L125.44-4.22Q126.47-3.94 126.47-2.58L126.47-2.58L126.56-1.03Q126.52-0.38 126.98-0.19L126.98-0.19L126.98 0L125.53 0Q125.39-0.61 125.34-2.16L125.34-2.16Q125.39-3.70 123.80-3.70L123.80-3.70ZM123.89-7.64L120.98-7.64L120.98-4.69L123.70-4.69Q125.44-4.69 125.44-6.19L125.44-6.19Q125.44-7.64 123.89-7.64L123.89-7.64ZM133.22-3.89L133.22-3.89L133.69-3.23Q133.03-2.20 132.19-2.20L132.19-2.20Q131.67-2.20 130.97-2.58L130.97-2.58Q130.22-3.05 129.56-3.05L129.56-3.05Q128.95-3.05 128.53-2.16L128.53-2.16L128.11-2.81Q128.67-3.84 129.61-3.84L129.61-3.84Q130.03-3.84 130.97-3.47L130.97-3.47Q131.77-3.09 132.19-3.05L132.19-3.05Q132.70-3 133.22-3.89Z"
              transform="translate(-0.1875, 8.578125)"></path>
          </g>
        </g>
      </g>
    </g>
  </g>
  <defs v-gra="od"></defs>
</svg>
