<svg data-v-0dd9719b="" viewBox="0,0,200,200" version="1.0" xmlns="http://www.w3.org/2000/svg" xmlns:xlink="http://www.w3.org/1999/xlink"
   preserveAspectRatio="xMidYMid meet"
  color-interpolation-filters="sRGB" style="margin: auto;">
  <g data-v-0dd9719b="" fill="#feffff" class="bordersvg b-d1">
    <path fill-opacity="0" stroke="#feffff" stroke-width="5" fill="#f2d600"
      d="M 33.50865260531781 16.862186431884766 A 41.751251220703125 41.751251220703125 0 0 1 99.99384983608843 16.862186431884766">
    </path>
    <path fill-opacity="0" stroke="#feffff" stroke-width="5" fill="#f2d600"
      d="M 33.50865260531781 76.64031600952148 A 41.751251220703125 41.751251220703125 0 0 0 99.99384983608843 76.64031600952148">
    </path>
    <g transform="translate(0,16.862186431884766)">
      <g>
        <rect data-gra="graph-name-bg" stroke-width="2" class="i-icon-bg" x="0" y="0" width="133.5"
          height="59.77812957763672" fill-opacity="0"></rect>
        <!---->
        <!---->
      </g>
      <g transform="translate(0,3)">
        <g data-gra="path-name" fill-rule="" class="tp-name" transform="translate(2.6162338256835938,0)">
          <g transform="scale(1)">
            <g>
              <path
                d="M30.41-34.45L30.41-34.45Q34.45-33.93 35.68-32.34L35.68-32.34Q35.68-32.17 34.98-31.64L34.98-31.64Q33.93-30.41 33.57-29.71L33.57-29.71Q33.4-29.18 32.87-27.95L32.87-27.95Q32.34-26.37 31.99-25.66L31.99-25.66Q31.82-24.08 29.71-24.79L29.71-24.79Q29.71-24.79 30.06-24.61L30.06-24.61Q31.29-24.08 31.29-23.55L31.29-23.55Q31.29-23.38 31.11-22.85L31.11-22.85Q30.59-22.15 30.23-21.09L30.23-21.09Q30.76-21.27 31.46-21.45L31.46-21.45Q32.34-21.8 33.22-21.8L33.22-21.8Q34.28-21.45 34.45-20.92L34.45-20.92Q34.63-20.39 33.93-20.21L33.93-20.21Q33.05-20.04 31.11-19.69L31.11-19.69Q30.23-19.51 29.71-19.34L29.71-19.34 28.65-16.17Q30.76-16.52 33.22-17.23L33.22-17.23Q34.1-17.4 34.45-17.58L34.45-17.58Q35.68-17.75 36.56-16.88L36.56-16.88Q37.09-16 35.86-15.82L35.86-15.82Q35.51-15.82 34.45-15.64L34.45-15.64Q31.29-15.29 29.53-14.94L29.53-14.94Q36.04-9.14 43.42-7.21L43.42-7.21Q44.3-7.03 44.3-6.68L44.3-6.68Q44.12-6.33 43.24-6.15L43.24-6.15Q36.39-5.1 36.21-6.68L36.21-6.68Q34.1-8.79 28.48-14.77L28.48-14.77Q28.13-14.77 27.42-14.59L27.42-14.59Q25.14-14.06 23.38-13.71L23.38-13.71Q23.91-13.18 23.55-12.83L23.55-12.83Q23.03-12.3 22.32-11.6L22.32-11.6Q21.8-10.55 19.16-7.91L19.16-7.91Q20.57-7.91 21.97-7.03L21.97-7.03Q22.5-6.5 22.15-5.8L22.15-5.8Q21.8-5.1 21.09-5.45L21.09-5.45Q19.86-5.98 18.81-7.56L18.81-7.56Q15.64-4.39 11.6-2.64L11.6-2.64Q10.55-2.46 10.37-2.64L10.37-2.64Q10.37-2.81 11.43-3.34L11.43-3.34Q18.11-7.91 20.92-13.36L20.92-13.36Q19.51-13.01 17.58-13.36L17.58-13.36Q16.7-13.54 16.52-13.89L16.52-13.89Q16.35-14.06 17.23-14.24L17.23-14.24Q17.93-14.24 20.04-14.59L20.04-14.59Q21.27-14.77 21.8-14.77L21.8-14.77 21.62-18.11Q17.75-17.75 18.63-18.81L18.63-18.81Q19.51-18.98 20.74-19.16L20.74-19.16Q20.57-19.16 21.45-19.34L21.45-19.34Q21.09-20.92 20.21-22.15L20.21-22.15Q20.04-22.68 20.04-22.85L20.04-22.85Q21.27-23.38 23.03-22.32L23.03-22.32Q23.2-21.8 23.03-20.92L23.03-20.92Q23.03-20.21 23.03-19.69L23.03-19.69Q25.49-20.21 28.48-20.74L28.48-20.74Q29.18-24.08 28.65-24.79L28.65-24.79Q27.77-24.61 26.37-24.43L26.37-24.43Q25.49-24.43 23.2-23.91L23.2-23.91Q22.85-23.2 22.32-23.55L22.32-23.55Q21.8-23.73 21.45-24.79L21.45-24.79Q20.04-29.71 19.51-30.59L19.51-30.59Q19.34-30.94 18.81-31.82L18.81-31.82Q18.28-32.34 18.46-32.52L18.46-32.52Q18.63-32.7 20.21-32.52L20.21-32.52Q20.92-32.52 21.27-32.52L21.27-32.52Q28.48-33.22 30.23-34.45L30.23-34.45Q30.41-34.45 30.41-34.45ZM8.09-33.4L8.09-33.4Q8.44-33.93 10.02-33.4L10.02-33.4Q11.95-32.7 12.3-32.17L12.3-32.17Q12.3-31.82 12.13-31.11L12.13-31.11Q11.95-30.06 11.78-28.65L11.78-28.65Q11.78-28.13 11.6-26.72L11.6-26.72Q11.43-23.91 11.43-21.45L11.43-21.45Q11.78-21.8 12.3-22.32L12.3-22.32Q14.06-23.73 14.59-24.61L14.59-24.61Q14.94-25.14 14.94-25.84L14.94-25.84Q15.12-26.54 15.29-26.54L15.29-26.54Q17.4-26.02 17.4-23.91L17.4-23.91Q17.23-23.55 16-23.03L16-23.03Q13.54-21.8 11.25-20.21L11.25-20.21Q10.9-15.82 10.37-13.54L10.37-13.54Q10.55-13.36 11.07-13.18L11.07-13.18Q13.54-12.13 14.24-11.25L14.24-11.25Q15.29-9.67 14.59-8.26L14.59-8.26Q13.89-7.56 12.48-9.32L12.48-9.32Q10.9-11.6 10.37-12.83L10.37-12.83Q8.26-4.39 2.29-0.18L2.29-0.18Q1.23 0.53 1.05 0.35L1.05 0.35Q0.88 0 1.76-0.7L1.76-0.7Q7.38-6.33 8.79-15.12L8.79-15.12Q9.49-19.16 9.49-26.89L9.49-26.89Q9.49-29.88 8.26-32.52L8.26-32.52Q7.91-33.22 8.09-33.4ZM30.76-32.52L30.76-32.52Q30.41-32.87 26.37-32.17L26.37-32.17Q23.2-31.46 21.62-31.29L21.62-31.29 22.32-28.48Q24.61-29 26.54-29.71L26.54-29.71Q27.42-30.06 27.6-30.06L27.6-30.06Q28.65-30.06 29-29.53L29-29.53Q29.36-29.18 28.65-28.83L28.65-28.83Q25.84-27.77 22.5-27.77L22.5-27.77 23.03-24.96Q25.14-25.14 27.25-25.66L27.25-25.66Q29-26.02 29.88-26.02L29.88-26.02Q31.46-29.36 30.76-32.52ZM2.99-22.32L2.99-22.32Q3.52-24.43 6.5-20.04L6.5-20.04Q7.03-17.93 5.98-16.35L5.98-16.35Q5.1-15.12 4.22-16.88L4.22-16.88Q3.52-19.51 2.99-22.32ZM27.42-15.82L28.3-19.16Q27.42-18.98 25.49-18.63L25.49-18.63Q23.91-18.46 23.03-18.28L23.03-18.28 23.2-15.12Q24.08-15.29 25.14-15.47L25.14-15.47Q26.37-15.64 27.42-15.82L27.42-15.82ZM23.73-12.13L23.73-12.13Q25.31-12.48 26.89-10.55L26.89-10.55Q26.89-10.2 26.72-9.84L26.72-9.84Q26.54-8.96 26.54-8.09L26.54-8.09Q26.54-2.64 26.72-0.88L26.72-0.88Q26.72 2.99 24.43 4.75L24.43 4.75Q24.26 4.75 23.55 3.34L23.55 3.34Q22.68 0.88 22.15 0.53L22.15 0.53Q21.09-0.35 22.32-0.18L22.32-0.18Q24.08 0.35 24.61 0L24.61 0Q24.96-1.41 24.61-8.96L24.61-8.96Q24.61-10.2 23.91-11.43L23.91-11.43Q23.73-11.95 23.73-12.13ZM29.88-10.55L29.88-10.55Q31.99-10.02 32.52-8.79L32.52-8.79Q32.52-8.61 31.82-8.09L31.82-8.09Q31.29-7.73 31.11-7.56L31.11-7.56Q28.48-5.45 27.77-5.8L27.77-5.8Q27.6-5.98 28.13-6.68L28.13-6.68Q29-7.73 29.18-8.44L29.18-8.44Q29.53-9.32 29.71-10.02L29.71-10.02Q29.71-10.37 29.88-10.55ZM23.2-4.39L23.2-4.39Q23.38-4.22 20.92-2.46L20.92-2.46Q19.51-1.41 18.98-1.05L18.98-1.05Q18.46-0.7 17.93-0.18L17.93-0.18Q17.4 0.35 17.23 0.35L17.23 0.35Q15.29-1.05 15.12-1.76L15.12-1.76Q15.29-2.29 17.05-2.29L17.05-2.29Q17.23-2.29 17.4-2.29L17.4-2.29Q18.11-2.46 20.57-3.52L20.57-3.52Q23.03-4.57 23.2-4.39ZM34.28-2.81L34.28-2.81Q35.51-1.93 35.86-0.18L35.86-0.18Q35.86 1.23 34.45 0.35L34.45 0.35Q33.05-0.53 28.48-3.87L28.48-3.87Q27.07-4.75 29.53-4.39L29.53-4.39Q32.52-3.69 34.28-2.81ZM59.24-33.4L59.24-33.4Q59.94-33.93 61.88-33.05L61.88-33.05Q63.98-31.82 63.63-31.11L63.63-31.11Q62.58-30.41 62.23-28.13L62.23-28.13Q62.05-26.54 62.05-20.04L62.05-20.04Q62.05-19.16 73.13-20.74L73.13-20.74Q73.13-26.02 72.42-27.42L72.42-27.42Q66.8-27.07 66.97-29L66.97-29Q71.02-29.18 75.76-30.59L75.76-30.59Q77.87-31.11 78.75-31.29L78.75-31.29Q82.62-31.46 82.62-29.71L82.62-29.71Q82.62-29.18 74.18-27.6L74.18-27.6Q76.46-26.89 76.64-25.49L76.64-25.49Q76.11-23.73 76.11-21.09L76.11-21.09Q81.74-21.97 84.02-22.5L84.02-22.5Q87.89-22.15 87.71-19.69L87.71-19.69Q87.36-19.34 84.02-19.51L84.02-19.51Q79.63-19.51 76.11-19.51L76.11-19.51Q75.41-4.04 75.41-3.52L75.41-3.52Q74.88 3.34 73.65 3.87L73.65 3.87Q72.77 3.52 72.77-3.52L72.77-3.52Q72.77-3.69 72.77-4.39L72.77-4.39Q73.13-11.78 72.95-19.16L72.95-19.16Q66.97-18.11 65.04-17.75L65.04-17.75Q64.16-17.93 63.46-18.28L63.46-18.28Q62.75-18.63 62.23-18.98L62.23-18.98Q62.23-16.17 62.23-8.79L62.23-8.79Q61.7-3.69 59.77-1.93L59.77-1.93Q59.24-1.76 58.36-3.16L58.36-3.16Q57.3-5.27 56.07-6.5L56.07-6.5Q55.2-7.38 55.37-7.56L55.37-7.56Q55.55-7.73 56.78-7.38L56.78-7.38Q56.95-7.38 57.3-7.21L57.3-7.21Q58.71-6.86 59.06-7.21L59.06-7.21Q60.47-7.91 59.94-30.23L59.94-30.23Q60.12-31.64 58.89-31.29L58.89-31.29Q58.18-31.29 54.84-30.59L54.84-30.59 54.84-24.61Q56.25-24.61 57.3-25.14L57.3-25.14Q59.59-25.14 58.89-23.73L58.89-23.73Q56.95-22.85 54.84-23.03L54.84-23.03 54.67-17.93Q56.07-17.93 57.3-18.28L57.3-18.28Q59.24-18.11 58.71-17.05L58.71-17.05Q58.01-16.17 54.49-16.17L54.49-16.17Q53.79-6.15 48.34-2.29L48.34-2.29Q46.93-1.05 46.41-1.23L46.41-1.23Q46.05-1.23 47.11-2.64L47.11-2.64Q53.09-9.49 52.56-25.14L52.56-25.14Q52.56-30.94 51.5-31.29L51.5-31.29Q50.27-33.05 54.49-31.64L54.49-31.64Q56.78-31.64 59.24-33.4ZM95.27-6.15L95.27-6.15Q93.69-1.93 92.64-2.11L92.64-2.11Q91.05-3.87 91.76-6.33L91.76-6.33Q98.61-18.28 102.48-30.41L102.48-30.41Q104.06-31.46 106.52-30.23L106.52-30.23Q107.05-29.88 107.05-29L107.05-29Q107.05-28.83 107.23-28.48L107.23-28.48Q107.4-27.42 107.75-26.54L107.75-26.54Q109.86-21.45 116.37-7.21L116.37-7.21Q117.95-3.34 117.07-2.46L117.07-2.46Q115.14-2.29 113.73-4.75L113.73-4.75Q113.2-7.38 111.62-11.43L111.62-11.43Q107.4-11.43 97.38-10.55L97.38-10.55Q97.03-9.84 96.33-8.44L96.33-8.44Q95.63-6.86 95.27-6.15ZM98.26-12.83L98.26-12.83Q101.07-12.66 107.23-13.18L107.23-13.18Q109.69-13.36 110.74-13.36L110.74-13.36Q108.63-18.98 104.59-27.25L104.59-27.25Q100.72-19.16 98.26-12.83ZM124.98-30.59L124.98-30.59Q127.09-30.76 129.2-28.83L129.2-28.83Q129.38-28.48 129.2-27.77L129.2-27.77Q129.2-27.25 129.2-27.07L129.2-27.07Q128.85-26.02 128.85-24.96L128.85-24.96Q129.2-15.64 129.2-6.68L129.2-6.68Q129.2-2.11 127.97-1.76L127.97-1.76Q125.86-2.99 125.68-5.27L125.68-5.27Q127.09-11.43 126.21-27.07L126.21-27.07Q126.21-27.6 125.68-28.48L125.68-28.48Q125.51-28.83 125.51-29L125.51-29Q125.33-29.18 125.16-29.53L125.16-29.53Q124.63-30.41 124.98-30.59Z"
                transform="translate(-1.0224761962890625, 34.45000076293945)"></path>
            </g>
            <!---->
            <!---->
            <!---->
            <!---->
            <!---->
            <!---->
            <!---->
          </g>
        </g>
        <g data-gra="path-slogan" fill-rule="" class="tp-slogan" transform="translate(0,45.20000076293945)">
          <!---->
          <!---->
          <g transform="scale(1, 1)">
            <g transform="scale(1)">
              <path
                d="M6.56 0L5.72-2.48L2.25-2.48L1.36 0L0.19 0L3.42-8.58L4.73-8.58L7.83 0L6.56 0ZM3.98-7.31L2.63-3.52L5.30-3.52L4.03-7.31L3.98-7.31ZM9.05-8.58L10.22-8.58L10.22 0L9.05 0L9.05-8.58ZM23.77-8.58L23.77 0L22.64 0L22.64-5.06Q22.64-5.77 22.64-7.22L22.64-7.22L20.20 0L19.03 0L16.64-7.22L16.59-7.22Q16.59-6.70 16.64-5.67L16.64-5.67Q16.64-5.16 16.64-5.06L16.64-5.06L16.64 0L15.47 0L15.47-8.58L17.16-8.58L19.64-1.31L22.08-8.58L23.77-8.58ZM31.13 0L30.28-2.48L26.81-2.48L25.92 0L24.75 0L27.98-8.58L29.30-8.58L32.39 0L31.13 0ZM28.55-7.31L27.19-3.52L29.86-3.52L28.59-7.31L28.55-7.31ZM35.95-4.31L34.59-3.05L34.59 0L33.42 0L33.42-8.58L34.59-8.58L34.59-4.41L38.77-8.58L40.41-8.58L36.80-5.11L40.50 0L38.95 0L35.95-4.31ZM42.70-1.03L47.86-1.03L47.86 0L41.53 0L41.53-8.58L47.77-8.58L47.77-7.59L42.70-7.59L42.70-4.92L47.39-4.92L47.39-3.89L42.70-3.89L42.70-1.03ZM52.69-8.58L53.86-8.58L53.86-1.03L58.22-1.03L58.22 0L52.69 0L52.69-8.58ZM59.53-8.58L60.70-8.58L60.70 0L59.53 0L59.53-8.58ZM68.20-3.89L63.98-3.89L63.98 0L62.81 0L62.81-8.58L68.77-8.58L68.77-7.59L63.98-7.59L63.98-4.92L68.20-4.92L68.20-3.89ZM71.25-1.03L76.41-1.03L76.41 0L70.08 0L70.08-8.58L76.31-8.58L76.31-7.59L71.25-7.59L71.25-4.92L75.94-4.92L75.94-3.89L71.25-3.89L71.25-1.03ZM84.47-7.64L82.41-7.64L82.41-4.97L84.47-4.97Q86.30-4.92 86.25-6.38L86.25-6.38Q86.25-7.64 84.47-7.64L84.47-7.64ZM84.94 0L81.23 0L81.23-8.58L85.03-8.58Q87.33-8.48 87.42-6.42L87.42-6.42Q87.42-5.16 86.30-4.64L86.30-4.64Q87.89-4.08 87.89-2.53L87.89-2.53Q87.75-0.09 84.94 0L84.94 0ZM84.66-3.98L82.41-3.98L82.41-0.98L84.89-0.98Q86.67-1.03 86.72-2.53L86.72-2.53Q86.72-3.98 84.66-3.98L84.66-3.98ZM90.52-1.03L95.67-1.03L95.67 0L89.34 0L89.34-8.58L95.58-8.58L95.58-7.59L90.52-7.59L90.52-4.92L95.20-4.92L95.20-3.89L90.52-3.89L90.52-1.03ZM99.38-7.59L96.47-7.59L96.47-8.58L103.41-8.58L103.41-7.59L100.50-7.59L100.50 0L99.38 0L99.38-7.59ZM106.64-7.59L103.73-7.59L103.73-8.58L110.67-8.58L110.67-7.59L107.77-7.59L107.77 0L106.64 0L106.64-7.59ZM113.02-1.03L118.17-1.03L118.17 0L111.84 0L111.84-8.58L118.08-8.58L118.08-7.59L113.02-7.59L113.02-4.92L117.70-4.92L117.70-3.89L113.02-3.89L113.02-1.03ZM123.80-3.70L120.98-3.70L120.98 0L119.81 0L119.81-8.58L123.80-8.58Q126.66-8.58 126.66-6.28L126.66-6.28Q126.66-4.88 125.44-4.22L125.44-4.22Q126.47-3.94 126.47-2.58L126.47-2.58L126.56-1.03Q126.52-0.38 126.98-0.19L126.98-0.19L126.98 0L125.53 0Q125.39-0.61 125.34-2.16L125.34-2.16Q125.39-3.70 123.80-3.70L123.80-3.70ZM123.89-7.64L120.98-7.64L120.98-4.69L123.70-4.69Q125.44-4.69 125.44-6.19L125.44-6.19Q125.44-7.64 123.89-7.64L123.89-7.64ZM133.22-3.89L133.22-3.89L133.69-3.23Q133.03-2.20 132.19-2.20L132.19-2.20Q131.67-2.20 130.97-2.58L130.97-2.58Q130.22-3.05 129.56-3.05L129.56-3.05Q128.95-3.05 128.53-2.16L128.53-2.16L128.11-2.81Q128.67-3.84 129.61-3.84L129.61-3.84Q130.03-3.84 130.97-3.47L130.97-3.47Q131.77-3.09 132.19-3.05L132.19-3.05Q132.70-3 133.22-3.89Z"
                transform="translate(-0.1875, 8.578125)"></path>
            </g>
          </g>
        </g>
      </g>
    </g>
  </g>
  <defs v-gra="od"></defs>
</svg>
