<svg data-v-0dd9719b="" version="1.0" xmlns="http://www.w3.org/2000/svg" xmlns:xlink="http://www.w3.org/1999/xlink">
  <g data-v-0dd9719b="" fill="#fbc2eb" class="icon-text-wrapper icon-svg-group iconsvg">
    <g class="iconsvg-imagesvg"
      mask="url(#3df4e5c1-43b5-48fd-b981-0485d370fac1)">
      <g>
        <rect fill="#fbc2eb" fill-opacity="0" stroke-width="2" x="0" y="0" width="60" height="51.40991697298409"
          class="image-rect"></rect> <svg filter="url(#colors5002141845)" x="0" y="0" width="60"
          height="51.40991697298409" filtersec="colorsf6904193985" class="image-svg-svg primary"
          style="overflow: visible;"><svg version="1.1" id="Capa_1" xmlns="http://www.w3.org/2000/svg"
            xmlns:xlink="http://www.w3.org/1999/xlink" x="0px" y="0px"
            viewBox="0 35.07600021362305 490 419.8480224609375" style="enable-background:new 0 0 490 490;"
            xml:space="preserve">
            <g>
              <polygon points="171.06,361.242 318.94,361.242 245,233.46 "></polygon>
              <path d="M0,454.924h490L245,35.076L0,454.924z M86.416,405.68L245,133.939L403.585,405.68H86.416z"></path>
            </g>
          </svg></svg>
        <defs>
          <filter id="colors5002141845">
            <feColorMatrix type="matrix" values="0 0 0 0 0.98046875  0 0 0 0 0.7578125  0 0 0 0 0.91796875  0 0 0 1 0"
              class="icon-fecolormatrix"></feColorMatrix>
          </filter>
          <filter id="colorsf6904193985">
            <feColorMatrix type="matrix" values="0 0 0 0 0.99609375  0 0 0 0 0.99609375  0 0 0 0 0.99609375  0 0 0 1 0"
              class="icon-fecolormatrix"></feColorMatrix>
          </filter>
          <filter id="colorsb5085550185">
            <feColorMatrix type="matrix" values="0 0 0 0 0  0 0 0 0 0  0 0 0 0 0  0 0 0 1 0" class="icon-fecolormatrix">
            </feColorMatrix>
          </filter>
        </defs>
      </g>
      <rect v-gra="id" width="72" height="63.409915924072266" transform="translate(-6, -6)" style="pointer-events:none;"
        fill="url(#g6zbjZKLMX9yr62yi6gUb)"></rect>
    </g>
    <g transform="translate(67,0)">
      <g data-gra="path-name" fill-rule="" class="tp-name iconsvg-namesvg" transform="translate(0,0)"
        fill="url(#1b1882ee-d554-4ebb-8e62-3b11beb0d94b)">
        <g transform="scale(1)">
          <g>
            <path
              d="M5.71-35.23L2.43-34.92 3.96-18.13 6.61-18.45ZM14.35-35.1L13.68-19.13 16.16-19.08 17.68-35.05ZM12.24-17.73L12.87-37.35 7.38-37.13 8.01-18 1.03 2.02 6.61 3.42 10.26-10.26 12.01 2.7 17.19 1.8 13.68-15.07 11.47-14.76ZM27.45 3.1L33.21 3.01 32.71-10.75 27.63-10.48ZM22.45 2.97L26.77-3.01 23.36-4.37 18.09 0.63ZM38.12 2.79L42.48 0.4 37.21-4.54 33.8-3.19ZM35.14-4.91L39.69-6.48 40.68-5.31 44.14-8.1 39.46-12.42 43.34-12.78 43.11-15.84 37.03-15.71 37.13-17.73 42.52-18.09 42.3-21.2 37.21-21.06 37.35-22.5 31.86-22.27 31.9-20.93 27.86-20.84 27.77-22.09 22.41-21.82 22.5-20.7 17.55-20.56 17.73-16.43 22.77-16.79 22.9-15.34 16.56-15.16 16.74-10.66 20.07-10.93 16.02-6.79 19.71-4.68 20.97-6.3 25.43-4.72 27.18-7.47 23.54-9.4 25.11-11.29 35.01-12.11 37.03-9.63 33.39-7.65ZM31.99-17.37L32.04-15.62 27.9-15.43 27.86-17.1ZM41.67-36.67L18.45-35.95 18.86-22.63 41.35-23.09ZM36.13-26.77L24.12-26.23 24.07-27.95 34.74-28.26 34.56-31.45 23.94-30.91 23.89-32.45 36-32.8ZM88.42-18.13L81.09-18.09 80.87-30.46 87.75-30.87 87.44-36.45 67.36-36.18 67.63-29.74 75.19-30.2 75.15-18.09 66.96-18.04 67.23-10.93 75.15-11.47 75.06 3.82 81.45 3.55 81.18-11.83 88.74-12.29ZM54.18 2.65L53.87-7.88 58.32-7.88 58.05-13.9 53.73-13.59 53.5-18.68 58.14-18.77 57.96-24.61 53.37-24.25 53.19-30.2 59.45-30.29 59.49 2.79 65.2 3.06 65.38-36.72 47.79-36.41 48.33 2.88ZM122.09 0.85L110.11-34.96 102.83-34.6 90.5 0.72 97.83 1.35 100.48-7.96 109.94-7.69 109.53-13.95 102.06-13.46 106.52-28.89 115.52 1.71ZM125.91 1.53L131.49 1.62 131.72-35.59 125.01-35.32Z"
              transform="translate(-1.0299999713897705, 37.349998474121094)"></path>
          </g>
        </g>
      </g>
      <g data-gra="path-slogan" fill-rule="" class="tp-slogan iconsvg-slogansvg"
        fill="url(#8a2b5521-0194-4ffa-9102-e364f72d3510)" transform="translate(0.6750030517578125,47.16999816894531)">
        <g transform="scale(1, 1)">
          <g transform="scale(1)">
            <path
              d="M6.56 0L5.72-2.48L2.25-2.48L1.36 0L0.19 0L3.42-8.58L4.73-8.58L7.83 0L6.56 0ZM3.98-7.31L2.63-3.52L5.30-3.52L4.03-7.31L3.98-7.31ZM8.83-8.58L10.00-8.58L10.00 0L8.83 0L8.83-8.58ZM23.11-8.58L23.11 0L21.98 0L21.98-5.06Q21.98-5.77 21.98-7.22L21.98-7.22L19.55 0L18.38 0L15.98-7.22L15.94-7.22Q15.94-6.70 15.98-5.67L15.98-5.67Q15.98-5.16 15.98-5.06L15.98-5.06L15.98 0L14.81 0L14.81-8.58L16.50-8.58L18.98-1.31L21.42-8.58L23.11-8.58ZM30.25 0L29.41-2.48L25.94-2.48L25.05 0L23.88 0L27.11-8.58L28.42-8.58L31.52 0L30.25 0ZM27.67-7.31L26.31-3.52L28.98-3.52L27.72-7.31L27.67-7.31ZM34.86-4.31L33.50-3.05L33.50 0L32.33 0L32.33-8.58L33.50-8.58L33.50-4.41L37.67-8.58L39.31-8.58L35.70-5.11L39.41 0L37.86 0L34.86-4.31ZM41.39-1.03L46.55-1.03L46.55 0L40.22 0L40.22-8.58L46.45-8.58L46.45-7.59L41.39-7.59L41.39-4.92L46.08-4.92L46.08-3.89L41.39-3.89L41.39-1.03ZM50.94-8.58L52.11-8.58L52.11-1.03L56.47-1.03L56.47 0L50.94 0L50.94-8.58ZM57.56-8.58L58.73-8.58L58.73 0L57.56 0L57.56-8.58ZM66.02-3.89L61.80-3.89L61.80 0L60.63 0L60.63-8.58L66.58-8.58L66.58-7.59L61.80-7.59L61.80-4.92L66.02-4.92L66.02-3.89ZM68.84-1.03L74.00-1.03L74.00 0L67.67 0L67.67-8.58L73.91-8.58L73.91-7.59L68.84-7.59L68.84-4.92L73.53-4.92L73.53-3.89L68.84-3.89L68.84-1.03ZM81.63-7.64L79.56-7.64L79.56-4.97L81.63-4.97Q83.45-4.92 83.41-6.38L83.41-6.38Q83.41-7.64 81.63-7.64L81.63-7.64ZM82.09 0L78.39 0L78.39-8.58L82.19-8.58Q84.48-8.48 84.58-6.42L84.58-6.42Q84.58-5.16 83.45-4.64L83.45-4.64Q85.05-4.08 85.05-2.53L85.05-2.53Q84.91-0.09 82.09 0L82.09 0ZM81.81-3.98L79.56-3.98L79.56-0.98L82.05-0.98Q83.83-1.03 83.88-2.53L83.88-2.53Q83.88-3.98 81.81-3.98L81.81-3.98ZM87.45-1.03L92.61-1.03L92.61 0L86.28 0L86.28-8.58L92.52-8.58L92.52-7.59L87.45-7.59L87.45-4.92L92.14-4.92L92.14-3.89L87.45-3.89L87.45-1.03ZM96.09-7.59L93.19-7.59L93.19-8.58L100.13-8.58L100.13-7.59L97.22-7.59L97.22 0L96.09 0L96.09-7.59ZM103.14-7.59L100.23-7.59L100.23-8.58L107.17-8.58L107.17-7.59L104.27-7.59L104.27 0L103.14 0L103.14-7.59ZM109.30-1.03L114.45-1.03L114.45 0L108.13 0L108.13-8.58L114.36-8.58L114.36-7.59L109.30-7.59L109.30-4.92L113.98-4.92L113.98-3.89L109.30-3.89L109.30-1.03ZM119.86-3.70L117.05-3.70L117.05 0L115.88 0L115.88-8.58L119.86-8.58Q122.72-8.58 122.72-6.28L122.72-6.28Q122.72-4.88 121.50-4.22L121.50-4.22Q122.53-3.94 122.53-2.58L122.53-2.58L122.63-1.03Q122.58-0.38 123.05-0.19L123.05-0.19L123.05 0L121.59 0Q121.45-0.61 121.41-2.16L121.41-2.16Q121.45-3.70 119.86-3.70L119.86-3.70ZM119.95-7.64L117.05-7.64L117.05-4.69L119.77-4.69Q121.50-4.69 121.50-6.19L121.50-6.19Q121.50-7.64 119.95-7.64L119.95-7.64ZM129.06-3.89L129.06-3.89L129.53-3.23Q128.88-2.20 128.03-2.20L128.03-2.20Q127.52-2.20 126.81-2.58L126.81-2.58Q126.06-3.05 125.41-3.05L125.41-3.05Q124.80-3.05 124.38-2.16L124.38-2.16L123.95-2.81Q124.52-3.84 125.45-3.84L125.45-3.84Q125.88-3.84 126.81-3.47L126.81-3.47Q127.61-3.09 128.03-3.05L128.03-3.05Q128.55-3 129.06-3.89Z"
              transform="translate(-0.1875, 8.578125)"></path>
          </g>
        </g>
      </g>
    </g>
  </g>
  <defs v-gra="od">
    <linearGradient x1="0" y1="1" x2="0" y2="0" id="8a2b5521-0194-4ffa-9102-e364f72d3510">
      <stop offset="0%" stop-color="#fbc2eb"></stop>
      <stop offset="100%" stop-color="#a6c0ee"></stop>
    </linearGradient>
    <filter id="42443b3f1de60f6b6fd3b6a9844b4764" filterUnits="objectBoundingBox">
      <feColorMatrix type="matrix" values="0 0 0 0 0.99609375  0 0 0 0 0.99609375  0 0 0 0 0.99609375  0 0 0 1 0">
      </feColorMatrix>
    </filter>
    <linearGradient x1="0" y1="1" x2="0" y2="0" id="1b1882ee-d554-4ebb-8e62-3b11beb0d94b">
      <stop offset="0%" stop-color="#fbc2eb"></stop>
      <stop offset="100%" stop-color="#a6c0ee"></stop>
    </linearGradient>
    <filter id="42443b3f1de60f6b6fd3b6a9844b4764" filterUnits="objectBoundingBox">
      <feColorMatrix type="matrix" values="0 0 0 0 0.99609375  0 0 0 0 0.99609375  0 0 0 0 0.99609375  0 0 0 1 0">
      </feColorMatrix>
    </filter>
  </defs>
  <defs v-gra="id">
    <filter id="c8166b9b-af47-4f48-9765-a15e23829dfb" filterUnits="userSpaceOnUse">
      <feColorMatrix type="matrix" values="0 0 0 0 0.99609375  0 0 0 0 0.99609375  0 0 0 0 0.99609375  0 0 0 1 0">
      </feColorMatrix>
    </filter>
    <linearGradient x1="0" y1="1" x2="0" y2="0" id="g6zbjZKLMX9yr62yi6gUb">
      <stop offset="0%" stop-color="#fbc2eb"></stop>
      <stop offset="100%" stop-color="#a6c0ee"></stop>
    </linearGradient>
    <filter id="42443b3f1de60f6b6fd3b6a9844b4764" filterUnits="objectBoundingBox">
      <feColorMatrix type="matrix" values="0 0 0 0 0.99609375  0 0 0 0 0.99609375  0 0 0 0 0.99609375  0 0 0 1 0">
      </feColorMatrix>
    </filter>
  </defs>
  <mask v-gra="im" id="3df4e5c1-43b5-48fd-b981-0485d370fac1">
    <g class="iconsvg-imagesvg" filter="url(#c8166b9b-af47-4f48-9765-a15e23829dfb)">
      <g>
        <rect fill="#fbc2eb" fill-opacity="0" stroke-width="2" x="0" y="0" width="60" height="51.40991697298409"
          class="image-rect"></rect> <svg x="0" y="0" width="60" height="51.40991697298409"
          filtersec="colorsf6904193985" class="image-svg-svg primary" style="overflow: visible;"><svg version="1.1"
            id="Capa_1" xmlns="http://www.w3.org/2000/svg" xmlns:xlink="http://www.w3.org/1999/xlink" x="0px" y="0px"
            viewBox="0 35.07600021362305 490 419.8480224609375" style="enable-background:new 0 0 490 490;"
            xml:space="preserve">
            <g>
              <polygon points="171.06,361.242 318.94,361.242 245,233.46 "></polygon>
              <path d="M0,454.924h490L245,35.076L0,454.924z M86.416,405.68L245,133.939L403.585,405.68H86.416z"></path>
            </g>
          </svg></svg>
        <defs>
          <filter id="colors5002141845">
            <feColorMatrix type="matrix" values="0 0 0 0 0.98046875  0 0 0 0 0.7578125  0 0 0 0 0.91796875  0 0 0 1 0"
              class="icon-fecolormatrix"></feColorMatrix>
          </filter>
          <filter id="colorsf6904193985">
            <feColorMatrix type="matrix" values="0 0 0 0 0.99609375  0 0 0 0 0.99609375  0 0 0 0 0.99609375  0 0 0 1 0"
              class="icon-fecolormatrix"></feColorMatrix>
          </filter>
          <filter id="colorsb5085550185">
            <feColorMatrix type="matrix" values="0 0 0 0 0  0 0 0 0 0  0 0 0 0 0  0 0 0 1 0" class="icon-fecolormatrix">
            </feColorMatrix>
          </filter>
        </defs>
      </g>
    </g>
  </mask>
</svg>
