<svg data-v-0dd9719b="" version="1.0" xmlns="http://www.w3.org/2000/svg" xmlns:xlink="http://www.w3.org/1999/xlink"
 preserveAspectRatio="xMidYMid meet"
  color-interpolation-filters="sRGB" style="margin: auto;">
  <g data-v-0dd9719b="" fill="#e69138" class="icon-text-wrapper icon-svg-group iconsvg">
    <g class="iconsvg-imagesvg" transform="translate(0,5.39613151550293)">
      <g>
        <rect fill="#e69138" fill-opacity="0" stroke-width="2" x="0" y="0" width="60" height="47.72586264496731"
          class="image-rect"></rect> <svg filter="url(#colors7793232506)" x="0" y="0" width="60"
          height="47.72586264496731" filtersec="colorsf6801585145" class="image-svg-svg primary"
          style="overflow: visible;"><svg xmlns="http://www.w3.org/2000/svg" viewBox="0 0 104.7 84.1">
            <path
              d="M102.7 42c0 4-3.2 7.2-7.2 7.2-5.7 0-11.6-7.2-11.6-7.2m18.8 0c0-4-3.2-7.2-7.2-7.2-5.7 0-11.6 7.2-11.6 7.2M2 42c0 4 3.2 7.2 7.2 7.2 5.7 0 11.6-7.2 11.6-7.2m0 0s-5.9-7.2-11.6-7.2C5.2 34.8 2 38 2 42m50.4 31.6L83.9 42 52.4 10.5 20.8 42l31.6 31.6zM83.9 42l-40-40-26.5 26.5m70 0L60.9 2l-40 40m-3.5 13.6l26.5 26.5 40-40M20.8 42l40 40 26.5-26.5"
              fill="none" stroke="#333" stroke-width="4" stroke-linejoin="round" stroke-miterlimit="10"></path>
          </svg></svg>
        <defs>
          <filter id="colors7793232506">
            <feColorMatrix type="matrix" values="0 0 0 0 0.8984375  0 0 0 0 0.56640625  0 0 0 0 0.21875  0 0 0 1 0"
              class="icon-fecolormatrix"></feColorMatrix>
          </filter>
          <filter id="colorsf6801585145">
            <feColorMatrix type="matrix" values="0 0 0 0 0.99609375  0 0 0 0 0.99609375  0 0 0 0 0.99609375  0 0 0 1 0"
              class="icon-fecolormatrix"></feColorMatrix>
          </filter>
          <filter id="colorsb1117591210">
            <feColorMatrix type="matrix" values="0 0 0 0 0  0 0 0 0 0  0 0 0 0 0  0 0 0 1 0" class="icon-fecolormatrix">
            </feColorMatrix>
          </filter>
        </defs>
      </g>
    </g>
    <g transform="translate(67,0)">
      <g data-gra="path-name" fill-rule="" class="tp-name iconsvg-namesvg" transform="translate(0,0)">
        <g transform="scale(1)">
          <g>
            <path
              d="M28.61 5.84L27.95 6.02Q25.36 3.78 24.08 0.62L24.08 0.62Q25.14 1.23 26.32 1.1L26.32 1.1 26.85 0.75 26.89-2.81Q26.85-3.34 26.94-3.89 27.03-4.44 26.98-5.27L26.98-5.27Q26.85-6.11 26.89-7.03L26.89-7.03Q26.89-8.04 26.89-8.79 26.89-9.54 26.72-10.2L26.72-10.2Q26.72-11.34 26.46-12.04L26.46-12.04 25.22-12.39 25.62-12.7 26.15-12.96Q27.07-12.88 27.95-12.48L27.95-12.48Q28.83-11.91 29.49-11.12L29.49-11.12Q30.01-10.68 30.01-10.2L30.01-10.2Q29.49-9.23 29.36-8.35L29.36-8.35Q29.44-7.51 29.53-6.64L29.53-6.64 29.44-6.06 29.93-6.11Q30.45-6.68 31.07-7.16L31.07-7.16Q31.51-7.82 31.99-8.53L31.99-8.53Q33.05-9.36 33.49-10.72L33.49-10.72 33.18-11.16Q33.66-11.47 34.37-11.43L34.37-11.43 34.98-11.25Q34.15-12.26 33.18-13.18L33.18-13.18Q32.56-13.32 32.17-13.75L32.17-13.75 31.86-14.11 31.29-14.41Q30.59-14.55 30.06-14.81L30.06-14.81 29.58-15.03Q28.39-14.81 27.14-14.66 25.88-14.5 24.65-14.33L24.65-14.33 24.96-13.93Q25.14-13.45 25.53-13.01L25.53-13.01 25-12.83Q23.2-10.33 20.96-8.22L20.96-8.22 21.27-7.73 21.75-7.95Q22.46-7.65 23.07-7.43L23.07-7.43 23.38-7.03Q23.51-6.59 23.95-6.15L23.95-6.15 24.21-5.76 24.35-4.97 23.95-4.75 23.42-4.53Q22.63-4.75 21.88-4.88L21.88-4.88 21.53-5.49 21.4-5.93Q20.57-6.68 19.56-7.08L19.56-7.08 18.98-6.9Q18.24-6.5 17.71-6.2L17.71-6.2Q17.09-5.93 16.44-5.89L16.44-5.89 15.73-5.89Q15.25-5.98 14.81-6.2L14.81-6.2 14.68-6.94 15.34-6.9Q18.33-8.26 20.08-11.03L20.08-11.03Q20.83-12.48 21.67-13.89L21.67-13.89Q20.92-13.58 20.39-13.62L20.39-13.62Q19.38-13.45 18.57-13.36 17.75-13.27 16.96-13.18L16.96-13.18 16.3-12.83Q15.82-12.79 15.38-12.66L15.38-12.66 14.41-12.57Q13.71-12.96 13.1-13.23L13.1-13.23 12.74-13.58 12.08-13.89 12.66-13.93Q14.94-14.37 17.2-14.92 19.47-15.47 21.71-15.91L21.71-15.91Q22.59-16.04 23.47-16.13L23.47-16.13Q22.98-17.01 22.9-17.67L22.9-17.67Q23.16-18.24 23.12-18.94L23.12-18.94 22.9-19.73Q22.1-19.78 21.49-20.19 20.87-20.61 20.13-20.7L20.13-20.7 20.39-21.09Q20.87-20.92 21.4-20.96L21.4-20.96Q22.15-21.23 22.98-21.4L22.98-21.4Q22.81-22.59 22.32-23.29L22.32-23.29 21.67-23.51 21.27-23.77Q21.67-23.99 22.1-24.43L22.1-24.43 21.36-24.74Q20.83-25.22 20.39-25.8L20.39-25.8Q20.74-26.67 20.83-27.25L20.83-27.25Q20.13-29.09 19.8-31 19.47-32.92 18.94-34.8L18.94-34.8 18.46-35.77 17.93-36.12 18.68-36.43 19.82-35.82 20.13-35.42Q20.92-34.8 21.58-34.72L21.58-34.72 22.37-34.85Q23.95-35.33 25.47-35.6 26.98-35.86 28.52-36.04L28.52-36.04Q29.4-36.08 30.1-36.1 30.81-36.12 31.46-36.25L31.46-36.25Q32.52-36.3 33.49-36.39L33.49-36.39 34.5-36.43Q35.55-36.56 36.3-36.87L36.3-36.87Q37.92-36.08 39.24-34.85L39.24-34.85Q39.77-34.15 39.81-33.62L39.81-33.62 39.55-33 39.24-32.61Q39.24-31.33 38.89-30.43 38.54-29.53 38.23-28.61L38.23-28.61 37.88-28.08Q37.71-27.38 37.57-26.81L37.57-26.81Q37.18-26.37 37.13-25.8L37.13-25.8 36.78-25.44 36.39-24.87 35.64-24.57 34.85-24.26Q33.88-24.7 33.66-25.75L33.66-25.75 32.7-25.8 32.12-25.62 32.48-25.09 33.05-24.83Q33.53-24.04 33.84-23.2L33.84-23.2 34.58-23.33Q35.46-23.33 36.19-23.07 36.91-22.81 37.66-22.5L37.66-22.5 38.01-22.02Q37.97-21.45 37.49-21.4L37.49-21.4Q35.64-21.58 33.84-21.31L33.84-21.31 33.44-19.69Q33.09-18.68 33.22-17.89L33.22-17.89Q35.24-18.15 37.09-18.3 38.94-18.46 40.69-18.94L40.69-18.94Q41.66-18.72 42.63-18.5L42.63-18.5 43.68-18.11 43.77-17.67 44.52-17.62 44.56-16.92 43.81-16.52 43.24-16.48Q42.8-16.61 42.28-16.57L42.28-16.57Q41.53-16.44 40.69-16.35L40.69-16.35Q40.12-16.22 39.51-16.26L39.51-16.26 38.76-16.22 37.4-16.26Q36.21-16.04 35.07-15.78 33.93-15.51 32.74-15.34L32.74-15.34Q33.66-14.68 34.67-14.15L34.67-14.15 35.07-13.89Q35.6-13.62 35.99-13.4L35.99-13.4Q39.51-11.51 43.07-9.67L43.07-9.67 43.55-9.67Q44.52-8.75 45.7-8.13L45.7-8.13 45.83-7.69 45.18-7.47 44.43-7.34Q43.81-7.51 43.18-7.6 42.54-7.69 41.97-7.87L41.97-7.87 41.57-8.09 41.18-8.35Q40.47-8.53 39.86-8.83L39.86-8.83Q39.29-9.18 38.76-9.43 38.23-9.67 37.66-9.89L37.66-9.89 36.96-10.28 37.13-9.84 37.49-9.32 37.13-8.92 36.74-8.57Q33.88-6.9 30.85-5.54L30.85-5.54Q32.92-3.74 35.51-3.03L35.51-3.03Q36.25-2.55 36.74-2.29L36.74-2.29Q37.88-1.67 38.94-0.92L38.94-0.92Q39.55-0.62 40.17-0.35L40.17-0.35Q41.88 0 43.07 1.27L43.07 1.27 43.2 1.71 42.76 2.15Q42.23 2.24 41.7 2.37L41.7 2.37Q41.22 2.68 40.61 2.64L40.61 2.64Q39.42 2.59 38.41 2.11L38.41 2.11Q37.79 1.89 37.27 1.63L37.27 1.63Q33.31-1.19 29.58-4.22L29.58-4.22Q29.58-2.5 29.53-0.79L29.53-0.79Q29.71-0.22 29.71 0.4L29.71 0.4Q29.49 1.41 29.71 2.37L29.71 2.37Q29.66 2.99 29.49 3.74L29.49 3.74Q29.05 4.88 28.61 5.84L28.61 5.84ZM3.87 4.79L2.68 5.49 2.02 5.32 1.71 4.61Q2.15 4.7 2.59 4.26L2.59 4.26 2.94 3.78 3.65 2.64Q3.87 1.98 4.13 1.45L4.13 1.45Q6.02-4.39 6.81-10.44 7.6-16.48 8.17-22.5L8.17-22.5Q8.31-23.82 8.39-24.87L8.39-24.87Q8.39-26.63 8.39-28.34L8.39-28.34Q8.57-29 8.53-29.75L8.53-29.75 8.53-30.28 8.39-32.65Q8.26-33.71 8.28-34.54 8.31-35.38 7.95-36.04L7.95-36.04Q7.38-37.05 6.68-37.92L6.68-37.92Q7.51-37.84 8.09-37.62L8.09-37.62 8.75-37.27 9.05-36.78 9.89-36.39 10.5-35.77Q10.81-34.63 11.78-33.88L11.78-33.88 11.65-33.27Q11.51-32.26 11.29-31.38L11.29-31.38 11.38-30.85Q11.12-30.1 11.03-29.31L11.03-29.31 11.25-28.74 11.12-28.08 11.25-27.42Q11.29-26.81 11.16-26.28L11.16-26.28Q11.12-25.22 10.99-24.43L10.99-24.43 10.9-23.86 10.77-23.29Q10.81-22.41 10.77-21.8 10.72-21.18 10.46-20.61L10.46-20.61Q10.24-19.12 10-17.69 9.76-16.26 9.76-14.85L9.76-14.85Q9.62-14.02 9.6-13.29 9.58-12.57 9.58-11.87L9.58-11.87 9.89-11.51 10.28-11.25Q10.85-10.77 11.16-10.42L11.16-10.42 11.82-9.14 12.26-8.17Q12.74-7.6 12.96-7.21L12.96-7.21Q14.46-4.75 15.51-2.11L15.51-2.11 15.91-1.85 16.04-1.27 15.82-0.53 15.12-0.48Q14.15-0.66 13.67-0.92L13.67-0.92Q12.44-1.93 11.65-3.25L11.65-3.25Q11.12-4.88 10.5-6.28 9.89-7.69 9.23-9.14L9.23-9.14 8.79-8.04Q8.7-7.16 8.57-6.42L8.57-6.42Q8.17-5.19 7.87-4.09L7.87-4.09Q7.65-3.3 7.45-2.5 7.25-1.71 6.94-0.97L6.94-0.97 6.59-0.44 6.59 0.13Q6.24 1.19 5.89 2.2L5.89 2.2Q5.01 3.56 3.87 4.79L3.87 4.79ZM19.16 1.45L18.72 1.71 17.4 1.01 16.83 0.53Q16.48 0.04 16.57-0.62L16.57-0.62 17.18-0.97 17.89-0.97 18.5-0.92 19.95-1.54 21.14-2.11Q22.1-2.64 23.12-3.14 24.13-3.65 25.14-4.13L25.14-4.13 25.62-4.44 26.1-4.83 25.93-4.09Q24.92-3.25 24.04-2.29L24.04-2.29 23.55-2.07Q22.32-0.97 21.18 0.22L21.18 0.22 20.7 0.4 20.21 0.79Q19.69 1.45 19.16 1.45L19.16 1.45ZM5.41-10.9L4.7-10.81Q3.52-11.65 2.86-12.96L2.86-12.96Q2.33-14.02 2.5-15.29L2.5-15.29Q2.64-16.17 2.59-17.14L2.59-17.14Q2.5-18.28 2.07-19.29L2.07-19.29 1.58-19.51 1.01-19.64 1.58-20.04Q2.07-20.43 2.64-20.43L2.64-20.43Q3.56-20.04 4.44-19.51L4.44-19.51Q4.92-19.16 5.45-18.98L5.45-18.98 5.84-18.68 6.2-17.75Q6.33-17.01 6.24-16.52L6.24-16.52 6.06-16.08Q6.15-15.38 6.2-14.59L6.2-14.59 6.02-14.15 6.15-13.54 5.98-12.96 6.02-12.48Q5.8-11.91 5.76-11.29L5.76-11.29 5.41-10.9ZM28.04-16.92L28.04-16.92 28.56-16.92 29.05-16.92Q29.71-17.05 30.45-17.14L30.45-17.14Q30.63-17.97 30.65-18.83 30.67-19.69 30.72-20.57L30.72-20.57 29.27-20.87 28.34-20.79Q27.6-20.61 27.03-20.61L27.03-20.61 26.19-20.21Q26.24-19.2 25.97-18.28L25.97-18.28 25.93-16.88 26.76-16.66Q27.38-16.88 28.04-16.92ZM12.61-18.19L11.91-17.75 11.12-17.89Q12.17-18.76 12.88-20L12.88-20Q13.49-21.31 14.02-22.37L14.02-22.37Q14.37-23.42 14.72-24.48 15.07-25.53 15.12-26.67L15.12-26.67 14.77-27.03Q14.41-27.51 13.97-27.64L13.97-27.64Q13.54-27.55 13.82-27.73 14.11-27.91 14.85-27.91L14.85-27.91 15.91-27.91Q17.71-27.2 18.81-25.62L18.81-25.62 18.85-24.92Q17.67-23.6 16.88-21.93L16.88-21.93 16.44-21.75 16.17-21.36 15.78-21.09Q15.42-20 14.41-19.56L14.41-19.56Q13.71-18.63 12.61-18.19L12.61-18.19ZM30.89-22.9L30.89-22.9 30.85-23.69Q30.76-24.52 30.63-25.14L30.63-25.14 29.84-25.31Q29.09-25.22 28.39-25L28.39-25Q27.47-24.96 26.81-24.74L26.81-24.74Q25.88-24.61 25.2-24.46 24.52-24.3 23.86-24.04L23.86-24.04 24.17-23.64 24.48-23.25 25.22-22.9 25.53-22.46 26.19-22.24Q27.33-22.46 28.54-22.57 29.75-22.68 30.89-22.9ZM25.75-26.41L25.75-26.41Q27.47-26.72 29.27-26.85 31.07-26.98 32.78-27.38L32.78-27.38Q33.35-27.25 33.93-27.16L33.93-27.16Q34.28-27.99 34.39-28.81 34.5-29.62 34.67-30.37L34.67-30.37Q33.84-30.32 33.16-30.26 32.48-30.19 31.77-30.15L31.77-30.15 31.16-30.1Q29.93-30.01 28.96-29.71L28.96-29.71 28.34-29.71 27.51-29.62Q26.81-29.44 26.13-29.2 25.44-28.96 24.74-28.87L24.74-28.87Q24.17-28.7 23.71-28.74 23.25-28.78 22.81-29L22.81-29 22.68-28.39Q23.07-27.2 23.51-26.1L23.51-26.1Q24.74-26.19 25.75-26.41ZM24.87-30.63L24.87-30.63Q27.03-31.07 29.2-31.38 31.38-31.68 33.53-32.17L33.53-32.17 34.89-31.77Q35.11-32.43 35.24-33.13 35.38-33.84 35.42-34.63L35.42-34.63Q34.54-34.67 33.75-34.8L33.75-34.8 32.56-34.89Q31.73-34.67 30.76-34.72L30.76-34.72Q29.49-34.63 28.34-34.5L28.34-34.5 27.73-34.45Q26.24-34.23 24.96-33.88 23.69-33.53 22.37-33.35L22.37-33.35Q22.5-32.74 22.37-32.08L22.37-32.08Q22.59-31.55 22.68-30.98L22.68-30.98 22.59-30.28Q23.91-30.37 24.87-30.63ZM61.13 4.79L60.64 5.23Q60.21 4.79 59.55 4.39L59.55 4.39 59.06 3.65Q58.27 2.5 57.94 1.63 57.61 0.75 57.39-0.22L57.39-0.22Q57.57-0.75 57.57-1.27L57.57-1.27Q58.32-0.66 59.19-0.31L59.19-0.31Q59.41-1.01 59.57-1.67 59.72-2.33 59.81-2.99L59.81-2.99 59.81-4.92Q59.9-5.67 59.94-6.46L59.94-6.46Q60.03-7.21 59.99-7.82 59.94-8.44 60.07-9.01L60.07-9.01 59.99-9.67Q60.07-10.33 60.12-11.07L60.12-11.07Q58.32-10.85 56.87-10.48 55.42-10.11 53.96-9.58L53.96-9.58 53.31-9.76Q53.13-8.79 53-7.73L53-7.73Q52.56-5.58 52.25-3.54 51.94-1.49 51.68 0.48L51.68 0.48 51.28 0.7Q51.15 1.32 50.89 1.85L50.89 1.85Q50.67 2.29 50.32 2.59L50.32 2.59 50.05 2.99Q49.7 3.52 49.35 4.04L49.35 4.04 48.96 4.31Q48.34 4.75 47.81 4.66L47.81 4.66 47.5 4.31 47.42 3.87 47.9 3.69Q48.87 1.45 49.26-0.73 49.66-2.9 49.88-5.1L49.88-5.1Q50.14-7.38 50.45-9.51 50.76-11.65 50.8-13.8L50.8-13.8Q50.76-15.95 50.8-18.11L50.8-18.11Q50.93-18.54 50.89-19.12L50.89-19.12 50.89-21.4Q50.93-22.1 51.11-22.81L51.11-22.81Q51.24-26.76 51.28-30.72L51.28-30.72Q51.2-31.29 50.76-31.73L50.76-31.73 50.45-32.08 49.97-32.39 50.41-32.52 51.37-32.65Q52.43-32.26 53.35-31.64L53.35-31.64 52.95-31.99 52.78-32.48 52.43-33 52.65-33.49 53.09-33.57 53.66-33.31Q54.76-33.66 55.9-33.9 57.04-34.15 58.23-34.19L58.23-34.19Q59.15-34.32 59.85-34.32L59.85-34.32Q60.86-34.32 61.35-34.06L61.35-34.06Q63.11-33.27 63.76-31.6L63.76-31.6Q64.03-31.16 64.12-30.63L64.12-30.63 63.72-30.19Q63.24-29.05 63.13-27.88 63.02-26.72 62.62-25.66L62.62-25.66Q62.97-25.27 62.97-24.7L62.97-24.7 62.8-23.69 62.93-23.25 62.93-22.68Q62.71-21.8 62.71-20.92L62.71-20.92Q62.67-20.39 63.15-20.13L63.15-20.13 64.03-19.64Q66.53-20.87 69.3-21.36 72.07-21.84 74.79-22.37L74.79-22.37 74.93-24.48Q74.84-25.22 74.75-25.88L74.75-25.88Q75.32-28.21 74.49-30.37L74.49-30.37Q73.74-30.41 73.08-30.63L73.08-30.63 72.2-30.59Q70-31.51 68.12-32.96L68.12-32.96Q70.97-33.35 73.76-33.84 76.55-34.32 79.37-34.67L79.37-34.67Q80.11-34.54 80.73-34.19L80.73-34.19Q81.43-34.06 82.05-33.79L82.05-33.79Q82.53-33.66 82.97-33.18L82.97-33.18 83.32-32.26 82.79-31.68Q82.4-31.42 81.96-31.46L81.96-31.46Q81.3-31.25 80.86-31.29L80.86-31.29Q80.11-31.11 79.5-30.98 78.88-30.85 78.27-30.85L78.27-30.85 77.08-30.72Q77.52-30.28 78.18-30.01L78.18-30.01 78.05-29.4 78.44-29.05Q78.71-28.65 78.71-28.13L78.71-28.13Q78.49-27.2 78.22-26.63L78.22-26.63 78.31-26.1 78.22-25.66Q78.35-25.14 78.31-24.52L78.31-24.52Q78.31-23.82 78.31-23.33L78.31-23.33 78.71-22.94Q79.89-23.16 81.08-23.44 82.27-23.73 83.41-23.99L83.41-23.99 83.8-24.35 84.77-24.35Q85.56-24.3 86.22-24.08 86.88-23.86 87.67-23.82L87.67-23.82 88.33-23.42 88.77-23.07 88.86-22.37 88.64-21.84 88.2-21.53 87.54-21.53Q86.26-21.4 85.34-21.29 84.42-21.18 83.45-21.18L83.45-21.18Q82.79-20.96 82.11-20.85 81.43-20.74 80.77-20.65L80.77-20.65 80.33-20.74 79.67-20.87 78.75-20.35Q78.44-19.91 78.44-19.38L78.44-19.38 78.44-18.5 78.27-18.02 78.44-17.01 78.13-16.3Q78.44-15.42 78.31-14.37L78.31-14.37 78.31-13.62 78.44-12.44 78.18-11.65 78.31-11.07 78.22-10.59 78.18-9.62Q78.13-9.05 78.13-8.22L78.13-8.22 78.05-7.73Q78.18-7.29 78.13-6.81L78.13-6.81Q78.09-6.15 77.92-5.58L77.92-5.58 78.05-4.44Q78-3.65 77.87-2.94L77.87-2.94 78.05-2.37 77.87-1.89 77.96-0.79 77.87-0.22Q77.96 0.31 78.05 0.79L78.05 0.79Q77.96 1.32 77.87 1.85L77.87 1.85Q78 2.46 77.96 3.12L77.96 3.12 77.74 3.56 77.87 4 77.87 4.48 77.26 4.75Q75.98 4.31 75.28 3.16L75.28 3.16 74.88 2.9 74.49 2.33Q73.96 1.8 73.92 1.23L73.92 1.23 73.78 0.35Q74.27-0.83 74.33-2.2 74.4-3.56 74.53-4.92L74.53-4.92 74.44-7.03 74.44-7.73Q74.53-8.48 74.66-9.23L74.66-9.23 74.66-18.46Q74.66-19.25 74.44-19.64L74.44-19.64Q73.74-19.56 73.08-19.4 72.42-19.25 71.76-18.98L71.76-18.98Q71.06-18.76 70.31-18.54L70.31-18.54Q69.57-18.33 68.82-18.33L68.82-18.33Q68.29-18.19 67.63-17.93L67.63-17.93Q67.02-17.53 66.36-17.4L66.36-17.4Q65.74-17.62 65.15-17.82 64.56-18.02 63.98-18.24L63.98-18.24 63.41-18.63 63.06-19.12Q62.62-18.94 62.75-18.19L62.75-18.19Q62.67-17.27 62.53-16.44L62.53-16.44Q62.75-15.64 62.71-14.72L62.71-14.72 62.67-14.15 62.53-13.54Q62.71-13.05 62.71-12.52L62.71-12.52 62.93-11.16 62.8-10.59Q62.89-9.71 63.02-8.92L63.02-8.92Q62.71-8.31 62.71-7.51L62.71-7.51 62.8-6.59 62.93-5.67Q62.71-5.01 62.73-4.22 62.75-3.43 62.62-2.72L62.62-2.72 62.67-1.89Q62.58-1.27 62.49-0.68 62.4-0.09 62.45 0.57L62.45 0.57 62.58 1.41Q62.27 1.89 62.18 2.42L62.18 2.42 61.83 2.77Q61.61 3.87 61.13 4.79L61.13 4.79ZM53.44-11.91L53.83-11.87Q54.49-12.17 55.15-12.46 55.81-12.74 56.6-12.83L56.6-12.83Q57.7-13.32 58.84-13.45L58.84-13.45 59.59-13.23 60.03-13.14 59.99-17.71Q60.07-18.5 60.21-19.29L60.21-19.29 60.21-20.39 59.55-20.48Q58.54-20 57.44-19.86L57.44-19.86Q56.69-19.47 55.85-19.29L55.85-19.29 55.2-19.07 54.23-19.38Q54.1-18.76 54.07-18.08 54.05-17.4 53.83-16.79L53.83-16.79 53.66-16.22 53.79-15.56Q53.53-14.94 53.53-14.24L53.53-14.24Q53.57-12.88 53.44-11.91L53.44-11.91ZM54.32-21.49L54.89-21.45Q55.99-21.8 57.06-22.26 58.14-22.72 59.37-22.72L59.37-22.72 60.12-22.59 60.29-25.53 60.38-26.19Q60.25-27.03 60.29-27.47L60.29-27.47 60.34-28.13Q60.34-29.09 60.42-30.01 60.51-30.94 60.56-31.86L60.56-31.86 59.9-32.12Q59.24-31.95 58.49-31.86L58.49-31.86 57.74-31.99Q57.17-31.86 56.58-31.73 55.99-31.6 55.42-31.42L55.42-31.42 54.76-31.07 53.92-31.33 54.23-30.98 54.62-30.72Q55.06-30.06 54.98-29.53L54.98-29.53Q54.4-28.43 54.67-27.25L54.67-27.25Q54.71-26.63 54.49-25.66L54.49-25.66 54.58-24.96 54.49-24.43Q54.36-23.6 54.4-22.87 54.45-22.15 54.32-21.49L54.32-21.49ZM92.5 0.09L92.5 0.09 91.98 0 91.63-0.35 91.36-0.92Q91.1-1.54 91.1-2.37L91.1-2.37Q91.58-3.34 91.96-4.46 92.33-5.58 92.72-6.68L92.72-6.68Q94.04-10.24 94.97-13.84 95.89-17.45 96.99-21.01L96.99-21.01Q97.34-22.24 97.56-23.33L97.56-23.33Q97.91-25.36 98.53-27.16 99.14-28.96 99.32-30.85L99.32-30.85 99.05-31.33 98.7-31.64 99.54-31.68 100.06-31.86Q101.51-31.07 102.35-29.53L102.35-29.53Q102.96-29.36 103.36-29.05L103.36-29.05 103.54-28.26 103.4-27.69Q103.45-27.2 103.62-26.76L103.62-26.76Q103.89-26.32 103.89-25.75L103.89-25.75 103.93-25.36Q104.24-24.61 104.39-23.86 104.55-23.12 104.81-22.32L104.81-22.32 104.9-21.8Q105.42-20.52 105.75-19.16 106.08-17.8 106.48-16.44L106.48-16.44Q106.57-15.51 106.92-14.55L106.92-14.55Q107.31-13.93 107.45-13.4L107.45-13.4Q107.71-12.92 107.89-12.44L107.89-12.44 108.06-11.73Q108.59-10.85 108.68-9.8L108.68-9.8 109.03-9.18Q109.42-7.65 109.8-6.26 110.17-4.88 110.35-3.43L110.35-3.43Q110.87-2.5 110.87-1.36L110.87-1.36 110.43-1.01 109.95-0.66 109.12-1.1 108.63-1.76 108.19-2.07 108.02-2.5Q107.49-4.7 107.07-6.75 106.66-8.79 105.91-10.63L105.91-10.63 105.07-10.63Q103.84-10.63 102.88-10.55L102.88-10.55Q102.04-10.63 101.23-10.83 100.42-11.03 99.4-10.94L99.4-10.94 98.57-10.72 98.13-10.94 97.69-10.81Q97.08-10.94 96.46-11.07L96.46-11.07Q96.02-9.8 95.65-8.61 95.27-7.43 94.88-6.2L94.88-6.2Q94.35-4.57 93.82-3.03 93.3-1.49 92.5 0.09ZM96.72-12.3L97.69-12.44 99.01-12.61Q99.58-12.66 100.06-12.66L100.06-12.66Q100.85-12.57 101.56-12.48L101.56-12.48 102.04-12.52Q102.79-12.57 103.54-12.66L103.54-12.66Q104.41-12.66 105.16-12.66L105.16-12.66Q104.28-16.08 103.4-19.51 102.52-22.94 101.29-26.24L101.29-26.24Q100.37-24.13 99.89-21.97 99.4-19.82 98.7-17.71L98.7-17.71Q98.09-17.05 98.04-16.39L98.04-16.39Q97.65-15.42 97.36-14.37 97.08-13.32 96.72-12.3L96.72-12.3ZM126.21 0L126.21 0 125.33-0.09 124.28-0.48Q123.97-1.01 123.49-1.49L123.49-1.49 123.18-1.76Q122.74-2.5 122.56-3.03L122.56-3.03Q122.78-3.56 122.85-4.17 122.92-4.79 123-5.41L123-5.41 123-6.37 123-6.86Q123.05-7.51 122.92-11.43L122.92-11.43Q123.05-12.74 122.96-14.02L122.96-14.02Q122.96-14.72 123.13-15.42L123.13-15.42 123-18.94 123-23.51Q122.87-24.43 122.85-25.44 122.83-26.46 122.74-27.38L122.74-27.38Q122.7-28.7 122.61-29.6 122.52-30.5 122.21-31.33L122.21-31.33Q121.51-31.64 120.89-32.12L120.89-32.12 121.51-32.12 122.17-32.34Q123.05-32.34 123.84-31.9L123.84-31.9Q125.24-31.11 126.34-29.79L126.34-29.79 126.43-29.31 126.83-28.92Q126.47-28.43 126.52-27.77L126.52-27.77Q126.78-26.72 126.39-25.66L126.39-25.66Q126.52-25.27 126.47-24.74L126.47-24.74 126.39-24.35Q126.52-23.86 126.56-23.38L126.56-23.38Q126.17-22.15 126.3-20.96L126.3-20.96Q126.47-20.48 126.47-20L126.47-20 126.34-19.25Q126.39-18.72 126.21-18.19L126.21-18.19Q126.52-17.84 126.47-17.27L126.47-17.27 126.56-16.74 126.25-16.26 126.39-15.51Q126.3-15.03 126.25-14.5L126.25-14.5 126.3-13.58Q126.47-13.05 126.39-12.48L126.39-12.48Q126.3-11.82 126.25-11.03L126.25-11.03Q126.34-9.05 126.3-7.03L126.3-7.03Q126.39-6.24 126.47-5.49L126.47-5.49 126.3-4.61Q126.43-3.74 126.39-2.81L126.39-2.81Q126.3-2.42 126.21-1.93L126.21-1.93 126.3-1.41Q126.25-0.53 126.21 0Z"
              transform="translate(-1.0099999904632568, 37.91999816894531)"></path>
          </g>
          <!---->
          <!---->
          <!---->
          <!---->
          <!---->
          <!---->
          <!---->
        </g>
      </g>
      <g data-gra="path-slogan" fill-rule="" class="tp-slogan iconsvg-slogansvg" fill="#6fa8dc"
        transform="translate(-3.8400001525878906,49.939998626708984)">
        <!---->
        <!---->
        <g transform="scale(1, 1)">
          <g transform="scale(1)">
            <path
              d="M6.56 0L5.72-2.48L2.25-2.48L1.36 0L0.19 0L3.42-8.58L4.73-8.58L7.83 0L6.56 0ZM3.98-7.31L2.63-3.52L5.30-3.52L4.03-7.31L3.98-7.31ZM9.05-8.58L10.22-8.58L10.22 0L9.05 0L9.05-8.58ZM23.77-8.58L23.77 0L22.64 0L22.64-5.06Q22.64-5.77 22.64-7.22L22.64-7.22L20.20 0L19.03 0L16.64-7.22L16.59-7.22Q16.59-6.70 16.64-5.67L16.64-5.67Q16.64-5.16 16.64-5.06L16.64-5.06L16.64 0L15.47 0L15.47-8.58L17.16-8.58L19.64-1.31L22.08-8.58L23.77-8.58ZM31.13 0L30.28-2.48L26.81-2.48L25.92 0L24.75 0L27.98-8.58L29.30-8.58L32.39 0L31.13 0ZM28.55-7.31L27.19-3.52L29.86-3.52L28.59-7.31L28.55-7.31ZM35.95-4.31L34.59-3.05L34.59 0L33.42 0L33.42-8.58L34.59-8.58L34.59-4.41L38.77-8.58L40.41-8.58L36.80-5.11L40.50 0L38.95 0L35.95-4.31ZM42.70-1.03L47.86-1.03L47.86 0L41.53 0L41.53-8.58L47.77-8.58L47.77-7.59L42.70-7.59L42.70-4.92L47.39-4.92L47.39-3.89L42.70-3.89L42.70-1.03ZM52.69-8.58L53.86-8.58L53.86-1.03L58.22-1.03L58.22 0L52.69 0L52.69-8.58ZM59.53-8.58L60.70-8.58L60.70 0L59.53 0L59.53-8.58ZM68.20-3.89L63.98-3.89L63.98 0L62.81 0L62.81-8.58L68.77-8.58L68.77-7.59L63.98-7.59L63.98-4.92L68.20-4.92L68.20-3.89ZM71.25-1.03L76.41-1.03L76.41 0L70.08 0L70.08-8.58L76.31-8.58L76.31-7.59L71.25-7.59L71.25-4.92L75.94-4.92L75.94-3.89L71.25-3.89L71.25-1.03ZM84.47-7.64L82.41-7.64L82.41-4.97L84.47-4.97Q86.30-4.92 86.25-6.38L86.25-6.38Q86.25-7.64 84.47-7.64L84.47-7.64ZM84.94 0L81.23 0L81.23-8.58L85.03-8.58Q87.33-8.48 87.42-6.42L87.42-6.42Q87.42-5.16 86.30-4.64L86.30-4.64Q87.89-4.08 87.89-2.53L87.89-2.53Q87.75-0.09 84.94 0L84.94 0ZM84.66-3.98L82.41-3.98L82.41-0.98L84.89-0.98Q86.67-1.03 86.72-2.53L86.72-2.53Q86.72-3.98 84.66-3.98L84.66-3.98ZM90.52-1.03L95.67-1.03L95.67 0L89.34 0L89.34-8.58L95.58-8.58L95.58-7.59L90.52-7.59L90.52-4.92L95.20-4.92L95.20-3.89L90.52-3.89L90.52-1.03ZM99.38-7.59L96.47-7.59L96.47-8.58L103.41-8.58L103.41-7.59L100.50-7.59L100.50 0L99.38 0L99.38-7.59ZM106.64-7.59L103.73-7.59L103.73-8.58L110.67-8.58L110.67-7.59L107.77-7.59L107.77 0L106.64 0L106.64-7.59ZM113.02-1.03L118.17-1.03L118.17 0L111.84 0L111.84-8.58L118.08-8.58L118.08-7.59L113.02-7.59L113.02-4.92L117.70-4.92L117.70-3.89L113.02-3.89L113.02-1.03ZM123.80-3.70L120.98-3.70L120.98 0L119.81 0L119.81-8.58L123.80-8.58Q126.66-8.58 126.66-6.28L126.66-6.28Q126.66-4.88 125.44-4.22L125.44-4.22Q126.47-3.94 126.47-2.58L126.47-2.58L126.56-1.03Q126.52-0.38 126.98-0.19L126.98-0.19L126.98 0L125.53 0Q125.39-0.61 125.34-2.16L125.34-2.16Q125.39-3.70 123.80-3.70L123.80-3.70ZM123.89-7.64L120.98-7.64L120.98-4.69L123.70-4.69Q125.44-4.69 125.44-6.19L125.44-6.19Q125.44-7.64 123.89-7.64L123.89-7.64ZM133.22-3.89L133.22-3.89L133.69-3.23Q133.03-2.20 132.19-2.20L132.19-2.20Q131.67-2.20 130.97-2.58L130.97-2.58Q130.22-3.05 129.56-3.05L129.56-3.05Q128.95-3.05 128.53-2.16L128.53-2.16L128.11-2.81Q128.67-3.84 129.61-3.84L129.61-3.84Q130.03-3.84 130.97-3.47L130.97-3.47Q131.77-3.09 132.19-3.05L132.19-3.05Q132.70-3 133.22-3.89Z"
              transform="translate(-0.1875, 8.578125)"></path>
          </g>
        </g>
      </g>
    </g>
  </g>
  <defs v-gra="od"></defs>
</svg>
