<svg data-v-0dd9719b="" viewBox="0,0,200,200" version="1.0" xmlns="http://www.w3.org/2000/svg" xmlns:xlink="http://www.w3.org/1999/xlink"
  preserveAspectRatio="xMidYMid meet"
  color-interpolation-filters="sRGB" style="margin: auto;">
  <g data-v-0dd9719b="" fill="#fcb51f" class="pmspacesvg" >
    <!---->
    <g>
      <g mask="url(#a9195e41-d5a3-4c75-b11c-ba4277a9fded)" transform="translate(0,0)">
        <g>
          <rect data-gra="graph-name" fill="#FFCC66" x="0" y="28.27125120162964" width="130.5399932861328"
            height="8.077500343322754"></rect>
        </g>
        <g data-gra="path-name" fill-rule="" class="tp-name" fill="#fcb51f" transform="translate(0,0)">
          <g transform="scale(1)">
            <g>
              <path
                d="M15.57-15.3L19.71-15.3 19.89-16.34 17.28-16.34 17.73-19.48 20.34-19.48 20.52-20.75 27.36-20.75 27.18-19.48 30.73-19.48 30.91-20.75 37.44-20.75 37.26-19.48 39.38-19.48 38.92-16.34 36.81-16.34 36.63-15.3 40.18-15.3 39.69-12.01 37.08-12.01 39.1-7.42 37.03-7.42 36.31-5.54 30.55-5.54 31.95-9.22 32.35-9.22 31.09-12.01 23.85-12.01 21.91-9.49 22.41-9.49 23.27-5.8 17.32-5.8 16.96-7.33 13.99-7.33 17.55-12.01 15.07-12.01 15.57-15.3ZM19.21-31.95L41.13-31.95 39.69-21.78 17.77-21.78 19.21-31.95ZM13.77-31.95L11.56-16.29 13.37 0.32 7.96 0.32 7.65-5.49 5.4 0.32 0.27 0.32 6.61-16.34 8.55-30.2 7.74-31.95 13.77-31.95ZM26.59 0.36L20.79 0.36 23.04-2.21 24.25-10.93 30.91-10.93 29.74-2.61Q29.56-1.3 28.64-0.47 27.72 0.36 26.59 0.36L26.59 0.36ZM15.12-15.07L12.06-15.07 14.4-28.75 17.5-28.75 15.12-15.07ZM2.88-15.07L4.54-28.75 7.47-28.75 5.89-15.07 2.88-15.07ZM19.44 0.14L14.08 0.14 17.14-4.72 22.45-4.72 19.44 0.14ZM37.89 0.36L32.53 0.36 30.78-4.46 36.18-4.46 37.89 0.36ZM25.7-29.34L25.52-27.99 34.16-27.99 34.34-29.34 25.7-29.34ZM25.02-24.39L33.66-24.39 33.8-25.61 25.15-25.61 25.02-24.39ZM26.73-16.34L26.55-15.3 30.11-15.3 30.29-16.34 26.73-16.34ZM55.39 0.36L49.95 0.36 52.38-2.11 53.55-10.66 49.95-10.66 47.92 0.36 41.58 0.36 46.94-29.7 45.95-31.18 62.95-31.18 58.95-2.61Q58.77-1.35 57.71-0.49 56.66 0.36 55.39 0.36L55.39 0.36ZM64.66-31.18L82.57-31.18 81.99-26.86 77.35-26.86 76.19-18.4 81.72-18.4 81.13-14.08 75.6-14.08 73.57 0.36 65.79 0.36 67.81-14.08 61.42-14.08 62.01-18.4 68.4-18.4 69.57-26.86 64.08-26.86 64.66-31.18ZM51.44-18.81L50.71-14.94 54.18-14.94 54.72-18.81 51.44-18.81ZM52.92-26.91L52.2-23.09 55.3-23.09 55.84-26.91 52.92-26.91ZM93.38-28.17L111.1-28.17 114.52-2.7 106.78-2.7 105.88-9.63 95.08-9.63 92.07-2.7 84.73-2.7 94.68-26.91 93.38-28.17ZM104.17-23.85L101.16-23.85 96.84-13.95 105.48-13.95 104.17-23.85ZM120.42-28.17L130.81-28.17 126.9-2.7 118.71-2.7 121.72-26.46 120.42-28.17Z"
                transform="translate(-0.27000001072883606, 31.950000762939453)"></path>
            </g>
            <!---->
            <!---->
            <!---->
            <!---->
            <!---->
            <!---->
            <!---->
          </g>
        </g>
      </g>
      <g data-gra="path-slogan" fill-rule="" class="tp-slogan" fill="#fcb51f"
        transform="translate(1.18499755859375,42.348751068115234)">
        <!---->
        <!---->
        <g transform="scale(1, 1)">
          <g transform="scale(1)">
            <path
              d="M6.56 0L5.72-2.48L2.25-2.48L1.36 0L0.19 0L3.42-8.58L4.73-8.58L7.83 0L6.56 0ZM3.98-7.31L2.63-3.52L5.30-3.52L4.03-7.31L3.98-7.31ZM8.77-8.58L9.94-8.58L9.94 0L8.77 0L8.77-8.58ZM22.92-8.58L22.92 0L21.80 0L21.80-5.06Q21.80-5.77 21.80-7.22L21.80-7.22L19.36 0L18.19 0L15.80-7.22L15.75-7.22Q15.75-6.70 15.80-5.67L15.80-5.67Q15.80-5.16 15.80-5.06L15.80-5.06L15.80 0L14.63 0L14.63-8.58L16.32-8.58L18.80-1.31L21.24-8.58L22.92-8.58ZM30.00 0L29.16-2.48L25.69-2.48L24.80 0L23.63 0L26.86-8.58L28.18-8.58L31.27 0L30.00 0ZM27.43-7.31L26.07-3.52L28.74-3.52L27.47-7.31L27.43-7.31ZM34.55-4.31L33.19-3.05L33.19 0L32.02 0L32.02-8.58L33.19-8.58L33.19-4.41L37.36-8.58L39.00-8.58L35.40-5.11L39.10 0L37.55 0L34.55-4.31ZM41.02-1.03L46.18-1.03L46.18 0L39.85 0L39.85-8.58L46.08-8.58L46.08-7.59L41.02-7.59L41.02-4.92L45.71-4.92L45.71-3.89L41.02-3.89L41.02-1.03ZM50.45-8.58L51.62-8.58L51.62-1.03L55.98-1.03L55.98 0L50.45 0L50.45-8.58ZM57.01-8.58L58.18-8.58L58.18 0L57.01 0L57.01-8.58ZM65.40-3.89L61.18-3.89L61.18 0L60.01 0L60.01-8.58L65.96-8.58L65.96-7.59L61.18-7.59L61.18-4.92L65.40-4.92L65.40-3.89ZM68.17-1.03L73.32-1.03L73.32 0L66.99 0L66.99-8.58L73.23-8.58L73.23-7.59L68.17-7.59L68.17-4.92L72.85-4.92L72.85-3.89L68.17-3.89L68.17-1.03ZM80.82-7.64L78.76-7.64L78.76-4.97L80.82-4.97Q82.65-4.92 82.61-6.38L82.61-6.38Q82.61-7.64 80.82-7.64L80.82-7.64ZM81.29 0L77.59 0L77.59-8.58L81.39-8.58Q83.68-8.48 83.78-6.42L83.78-6.42Q83.78-5.16 82.65-4.64L82.65-4.64Q84.25-4.08 84.25-2.53L84.25-2.53Q84.11-0.09 81.29 0L81.29 0ZM81.01-3.98L78.76-3.98L78.76-0.98L81.25-0.98Q83.03-1.03 83.07-2.53L83.07-2.53Q83.07-3.98 81.01-3.98L81.01-3.98ZM86.59-1.03L91.75-1.03L91.75 0L85.42 0L85.42-8.58L91.65-8.58L91.65-7.59L86.59-7.59L86.59-4.92L91.28-4.92L91.28-3.89L86.59-3.89L86.59-1.03ZM95.17-7.59L92.26-7.59L92.26-8.58L99.20-8.58L99.20-7.59L96.30-7.59L96.30 0L95.17 0L95.17-7.59ZM102.16-7.59L99.25-7.59L99.25-8.58L106.19-8.58L106.19-7.59L103.28-7.59L103.28 0L102.16 0L102.16-7.59ZM108.25-1.03L113.41-1.03L113.41 0L107.08 0L107.08-8.58L113.31-8.58L113.31-7.59L108.25-7.59L108.25-4.92L112.94-4.92L112.94-3.89L108.25-3.89L108.25-1.03ZM118.75-3.70L115.94-3.70L115.94 0L114.77 0L114.77-8.58L118.75-8.58Q121.61-8.58 121.61-6.28L121.61-6.28Q121.61-4.88 120.39-4.22L120.39-4.22Q121.42-3.94 121.42-2.58L121.42-2.58L121.52-1.03Q121.47-0.38 121.94-0.19L121.94-0.19L121.94 0L120.49 0Q120.35-0.61 120.30-2.16L120.30-2.16Q120.35-3.70 118.75-3.70L118.75-3.70ZM118.85-7.64L115.94-7.64L115.94-4.69L118.66-4.69Q120.39-4.69 120.39-6.19L120.39-6.19Q120.39-7.64 118.85-7.64L118.85-7.64ZM127.89-3.89L127.89-3.89L128.36-3.23Q127.71-2.20 126.86-2.20L126.86-2.20Q126.35-2.20 125.64-2.58L125.64-2.58Q124.89-3.05 124.24-3.05L124.24-3.05Q123.63-3.05 123.21-2.16L123.21-2.16L122.78-2.81Q123.35-3.84 124.28-3.84L124.28-3.84Q124.71-3.84 125.64-3.47L125.64-3.47Q126.44-3.09 126.86-3.05L126.86-3.05Q127.38-3 127.89-3.89Z"
              transform="translate(-0.1875, 8.578125)"></path>
          </g>
        </g>
      </g>
    </g>
  </g>
  <mask id="a9195e41-d5a3-4c75-b11c-ba4277a9fded">
    <g>
      <g fill="#fff">
        <rect data-gra="graph-name" x="0" y="28.27125120162964" width="130.5399932861328" height="8.077500343322754">
        </rect>
      </g>
      <g data-gra="path-name" fill-rule="" class="tp-name" transform="translate(0,0)" stroke="#000" stroke-width="3"
        fill="#000">
        <g transform="scale(1)">
          <g>
            <path
              d="M15.57-15.3L19.71-15.3 19.89-16.34 17.28-16.34 17.73-19.48 20.34-19.48 20.52-20.75 27.36-20.75 27.18-19.48 30.73-19.48 30.91-20.75 37.44-20.75 37.26-19.48 39.38-19.48 38.92-16.34 36.81-16.34 36.63-15.3 40.18-15.3 39.69-12.01 37.08-12.01 39.1-7.42 37.03-7.42 36.31-5.54 30.55-5.54 31.95-9.22 32.35-9.22 31.09-12.01 23.85-12.01 21.91-9.49 22.41-9.49 23.27-5.8 17.32-5.8 16.96-7.33 13.99-7.33 17.55-12.01 15.07-12.01 15.57-15.3ZM19.21-31.95L41.13-31.95 39.69-21.78 17.77-21.78 19.21-31.95ZM13.77-31.95L11.56-16.29 13.37 0.32 7.96 0.32 7.65-5.49 5.4 0.32 0.27 0.32 6.61-16.34 8.55-30.2 7.74-31.95 13.77-31.95ZM26.59 0.36L20.79 0.36 23.04-2.21 24.25-10.93 30.91-10.93 29.74-2.61Q29.56-1.3 28.64-0.47 27.72 0.36 26.59 0.36L26.59 0.36ZM15.12-15.07L12.06-15.07 14.4-28.75 17.5-28.75 15.12-15.07ZM2.88-15.07L4.54-28.75 7.47-28.75 5.89-15.07 2.88-15.07ZM19.44 0.14L14.08 0.14 17.14-4.72 22.45-4.72 19.44 0.14ZM37.89 0.36L32.53 0.36 30.78-4.46 36.18-4.46 37.89 0.36ZM25.7-29.34L25.52-27.99 34.16-27.99 34.34-29.34 25.7-29.34ZM25.02-24.39L33.66-24.39 33.8-25.61 25.15-25.61 25.02-24.39ZM26.73-16.34L26.55-15.3 30.11-15.3 30.29-16.34 26.73-16.34ZM55.39 0.36L49.95 0.36 52.38-2.11 53.55-10.66 49.95-10.66 47.92 0.36 41.58 0.36 46.94-29.7 45.95-31.18 62.95-31.18 58.95-2.61Q58.77-1.35 57.71-0.49 56.66 0.36 55.39 0.36L55.39 0.36ZM64.66-31.18L82.57-31.18 81.99-26.86 77.35-26.86 76.19-18.4 81.72-18.4 81.13-14.08 75.6-14.08 73.57 0.36 65.79 0.36 67.81-14.08 61.42-14.08 62.01-18.4 68.4-18.4 69.57-26.86 64.08-26.86 64.66-31.18ZM51.44-18.81L50.71-14.94 54.18-14.94 54.72-18.81 51.44-18.81ZM52.92-26.91L52.2-23.09 55.3-23.09 55.84-26.91 52.92-26.91ZM93.38-28.17L111.1-28.17 114.52-2.7 106.78-2.7 105.88-9.63 95.08-9.63 92.07-2.7 84.73-2.7 94.68-26.91 93.38-28.17ZM104.17-23.85L101.16-23.85 96.84-13.95 105.48-13.95 104.17-23.85ZM120.42-28.17L130.81-28.17 126.9-2.7 118.71-2.7 121.72-26.46 120.42-28.17Z"
              transform="translate(-0.27000001072883606, 31.950000762939453)"></path>
          </g>
          <!---->
          <!---->
          <!---->
          <!---->
          <!---->
          <!---->
          <!---->
        </g>
      </g>
      <g data-gra="path-name" fill-rule="" class="tp-name" transform="translate(0,0)" fill="#fff">
        <g transform="scale(1)">
          <g>
            <path
              d="M15.57-15.3L19.71-15.3 19.89-16.34 17.28-16.34 17.73-19.48 20.34-19.48 20.52-20.75 27.36-20.75 27.18-19.48 30.73-19.48 30.91-20.75 37.44-20.75 37.26-19.48 39.38-19.48 38.92-16.34 36.81-16.34 36.63-15.3 40.18-15.3 39.69-12.01 37.08-12.01 39.1-7.42 37.03-7.42 36.31-5.54 30.55-5.54 31.95-9.22 32.35-9.22 31.09-12.01 23.85-12.01 21.91-9.49 22.41-9.49 23.27-5.8 17.32-5.8 16.96-7.33 13.99-7.33 17.55-12.01 15.07-12.01 15.57-15.3ZM19.21-31.95L41.13-31.95 39.69-21.78 17.77-21.78 19.21-31.95ZM13.77-31.95L11.56-16.29 13.37 0.32 7.96 0.32 7.65-5.49 5.4 0.32 0.27 0.32 6.61-16.34 8.55-30.2 7.74-31.95 13.77-31.95ZM26.59 0.36L20.79 0.36 23.04-2.21 24.25-10.93 30.91-10.93 29.74-2.61Q29.56-1.3 28.64-0.47 27.72 0.36 26.59 0.36L26.59 0.36ZM15.12-15.07L12.06-15.07 14.4-28.75 17.5-28.75 15.12-15.07ZM2.88-15.07L4.54-28.75 7.47-28.75 5.89-15.07 2.88-15.07ZM19.44 0.14L14.08 0.14 17.14-4.72 22.45-4.72 19.44 0.14ZM37.89 0.36L32.53 0.36 30.78-4.46 36.18-4.46 37.89 0.36ZM25.7-29.34L25.52-27.99 34.16-27.99 34.34-29.34 25.7-29.34ZM25.02-24.39L33.66-24.39 33.8-25.61 25.15-25.61 25.02-24.39ZM26.73-16.34L26.55-15.3 30.11-15.3 30.29-16.34 26.73-16.34ZM55.39 0.36L49.95 0.36 52.38-2.11 53.55-10.66 49.95-10.66 47.92 0.36 41.58 0.36 46.94-29.7 45.95-31.18 62.95-31.18 58.95-2.61Q58.77-1.35 57.71-0.49 56.66 0.36 55.39 0.36L55.39 0.36ZM64.66-31.18L82.57-31.18 81.99-26.86 77.35-26.86 76.19-18.4 81.72-18.4 81.13-14.08 75.6-14.08 73.57 0.36 65.79 0.36 67.81-14.08 61.42-14.08 62.01-18.4 68.4-18.4 69.57-26.86 64.08-26.86 64.66-31.18ZM51.44-18.81L50.71-14.94 54.18-14.94 54.72-18.81 51.44-18.81ZM52.92-26.91L52.2-23.09 55.3-23.09 55.84-26.91 52.92-26.91ZM93.38-28.17L111.1-28.17 114.52-2.7 106.78-2.7 105.88-9.63 95.08-9.63 92.07-2.7 84.73-2.7 94.68-26.91 93.38-28.17ZM104.17-23.85L101.16-23.85 96.84-13.95 105.48-13.95 104.17-23.85ZM120.42-28.17L130.81-28.17 126.9-2.7 118.71-2.7 121.72-26.46 120.42-28.17Z"
              transform="translate(-0.27000001072883606, 31.950000762939453)"></path>
          </g>
          <!---->
          <!---->
          <!---->
          <!---->
          <!---->
          <!---->
          <!---->
        </g>
      </g>
    </g>
  </mask>
  <defs v-gra="od"></defs>
</svg>
