<svg data-v-0dd9719b="" viewBox="0,0,200,200" version="1.0" xmlns="http://www.w3.org/2000/svg" xmlns:xlink="http://www.w3.org/1999/xlink">
  <g data-v-0dd9719b="" fill="#FFFFFF" class="pmspacesvg" >
    <g>
      <g transform="translate(2.370006561279297,0)">
        <g mask="url(#9c6ef4e6-52a3-4e51-8fa9-9e06b094c1a8)">
          <rect data-gra="graph-name" x="0" y="9.655250549316406" width="123.42000579833984" height="19.310501098632812"
            fill="#C80C0C"></rect>
        </g>
        <g data-gra="path-name" fill-rule="" class="tp-name" fill="#FFFFFF">
          <g transform="scale(0.55)">
            <g>
              <path
                d="M51.5-12.83L51.5-12.83Q50.98-13.1 50.8-13.01 50.63-12.92 50.45-12.66L50.45-12.66Q49.66-10.81 48.56-9.4 47.46-8 45.35-6.33L45.35-6.33Q44.74-5.45 44.87-4.7 45-3.96 46.05-3.87L46.05-3.87Q50.71-5.19 51.28-7.08 51.86-8.96 51.5-12.83ZM55.2-35.68L55.2-35.68 54.67-35.68Q53.79-35.42 52.95-35.11 52.12-34.8 51.33-34.28L51.33-34.28Q50.36-33.13 50.58-32.39 50.8-31.64 52.03-32.17L52.03-32.17Q53.53-32.43 55.24-33.53 56.95-34.63 55.2-35.68ZM62.58-41.84L62.58-41.84Q62.31-41.92 62.23-41.57 62.14-41.22 62.4-41.13L62.4-41.13Q62.49-40.87 62.75-41.18 63.02-41.48 62.58-41.84ZM56.95-44.12L56.95-44.12 52.03-42.01Q50.19-41.57 50.01-40.39 49.83-39.2 49.92-37.97L49.92-37.97Q50.01-37.09 50.49-37 50.98-36.91 51.86-36.91L51.86-36.91Q53-37.62 54.18-37.92 55.37-38.23 56.78-38.85L56.78-38.85Q57.13-40.17 57.7-42.28 58.27-44.38 56.95-44.12ZM27.42-58.36L27.42-58.36Q29.97-59.68 31.55-58.18 33.13-56.69 32.87-53.96L32.87-53.96Q32.26-50.89 32.87-48.56 33.49-46.23 37.44-44.3L37.44-44.3Q38.5-43.86 38.45-43.15 38.41-42.45 37.62-41.48L37.62-41.48Q35.51-39.99 33.49-38.8 31.46-37.62 29.53-35.68L29.53-35.68Q27.42-30.32 25.93-25.49 24.43-20.65 21.8-15.12L21.8-15.12Q21.01-12.39 19.91-10.15 18.81-7.91 16.88-5.1L16.88-5.1Q14.85-2.55 12.74-2.24 10.63-1.93 8.96-4.75L8.96-4.75Q8.44-5.98 8.79-7.03 9.14-8.09 9.49-9.49L9.49-9.49Q9.76-10.46 10.33-11.29 10.9-12.13 12.13-13.01L12.13-13.01Q15.56-18.37 16.96-23.12 18.37-27.86 19.69-33.4L19.69-33.4Q19.78-34.19 19.47-34.23 19.16-34.28 18.81-33.75L18.81-33.75Q18.02-31.9 17.27-30.32 16.52-28.74 14.59-26.72L14.59-26.72Q13.62-25.75 12.44-25.88 11.25-26.02 10.9-27.25L10.9-27.25Q10.9-27.77 10.59-28.34 10.28-28.92 10.02-29.53L10.02-29.53Q8.61-31.55 8.17-32.83 7.73-34.1 7.56-36.21L7.56-36.21Q7.73-37.97 8.83-39.95 9.93-41.92 11.07-43.59L11.07-43.59Q12.04-44.56 13.01-45.13 13.97-45.7 14.94-46.41L14.94-46.41 16.35-46.58Q18.02-45.88 18.63-43.59 19.25-41.31 18.81-39.73L18.81-39.73Q18.19-38.32 19.34-37.92 20.48-37.53 21.27-38.85L21.27-38.85Q22.59-43.24 23.12-47.11 23.64-50.98 25.84-55.37L25.84-55.37Q25.84-56.07 26.1-56.91 26.37-57.74 27.42-58.36ZM63.81-59.41L63.28-59.41Q60.56-58.71 58.32-58.23 56.07-57.74 53.26-56.07L53.26-56.07Q51.94-55.55 50.36-54.71 48.78-53.88 47.64-52.38L47.64-52.38Q47.37-51.42 47.55-51.02 47.72-50.63 48.87-50.8L48.87-50.8Q51.15-51.33 53.22-52.47 55.28-53.61 57.66-53.79L57.66-53.79Q58.62-53.88 59.06-53.22 59.5-52.56 58.54-51.86L58.54-51.86Q56.87-51.33 55.5-50.63 54.14-49.92 52.56-49.39L52.56-49.39Q51.33-49.83 50.67-49.83 50.01-49.83 48.87-49.22L48.87-49.22Q46.85-48.87 46.54-47.42 46.23-45.97 46.76-44.47L46.76-44.47Q46.85-43.95 47.29-43.9 47.72-43.86 48.16-44.12L48.16-44.12 54.84-46.58 57.3-47.46Q58.71-48.6 59.63-48.87 60.56-49.13 61.88-49.39L61.88-49.39Q62.84-51.59 64.6-55.5 66.36-59.41 63.81-59.41L63.81-59.41ZM37.97-52.73L37.97-52.73Q38.58-56.95 41.35-57.48 44.12-58.01 47.29-57.83L47.29-57.83Q51.77-59.33 55.72-60.25 59.68-61.17 64.34-61.7L64.34-61.7Q66.8-61.88 67.94-60.21 69.08-58.54 68.73-56.07L68.73-56.07Q67.76-53.96 66.97-52.03 66.18-50.1 65.04-47.81L65.04-47.81Q64.16-46.32 64.29-45.62 64.42-44.91 64.86-43.24L64.86-43.24Q65.04-42.45 65.61-42.19 66.18-41.92 66.8-41.66L66.8-41.66Q67.76-41.4 67.72-40.65 67.68-39.9 66.8-39.38L66.8-39.38 61.88-37.44Q61.08-36.83 61.26-36.39 61.44-35.95 62.23-35.86L62.23-35.86Q63.28-36.04 64.56-36.08 65.83-36.12 66.8-35.68L66.8-35.68Q68.12-34.63 68.33-33.88 68.55-33.13 66.97-32.34L66.97-32.34Q65.83-31.64 64.69-31.33 63.54-31.03 62.23-30.23L62.23-30.23Q61.17-29.79 60.91-29.4 60.64-29 61.7-27.95L61.7-27.95Q64.69-25.14 67.59-24.08 70.49-23.03 73.83-21.97L73.83-21.97Q74.71-21.88 75.54-21.62 76.38-21.36 77.34-20.57L77.34-20.57Q78.22-20.13 79.1-20.13 79.98-20.13 80.86-19.51L80.86-19.51Q82.27-18.72 82.53-17.8 82.79-16.88 81.21-16.17L81.21-16.17Q77.61-15.64 74.22-15.86 70.84-16.08 67.32-18.28L67.32-18.28Q66.8-18.81 66.23-18.54 65.65-18.28 65.04-17.58L65.04-17.58Q64.34-16.7 63.63-16.35 62.93-16 62.05-15.64L62.05-15.64Q60.47-14.77 60.64-13.71 60.82-12.66 62.4-12.13L62.4-12.13 64.34-11.43Q68.12-11.34 69.74-9.93 71.37-8.53 73.3-4.75L73.3-4.75Q73.48-3.69 72.99-3.25 72.51-2.81 71.54-2.81L71.54-2.81Q69.26-2.72 67.37-3.87 65.48-5.01 63.28-7.21L63.28-7.21Q59.24-9.93 58.75-12.17 58.27-14.41 59.94-17.93L59.94-17.93Q60.38-19.07 61.04-20.17 61.7-21.27 61.52-22.32L61.52-22.32Q59.94-24.26 58.23-25.49 56.51-26.72 54.67-27.42L54.67-27.42Q51.68-27.33 49.97-25.31 48.25-23.29 46.05-20.39L46.05-20.39Q45.79-19.78 46.01-19.56 46.23-19.34 46.93-18.98L46.93-18.98Q47.99-18.63 48.38-17.89 48.78-17.14 47.64-16.17L47.64-16.17Q46.93-15.82 46.14-15.12 45.35-14.41 44.65-13.54L44.65-13.54Q44.03-13.27 43.86-13.36 43.68-13.45 43.77-13.89L43.77-13.89Q44.03-15.03 43.37-15.16 42.71-15.29 42.19-14.94L42.19-14.94Q40.78-13.71 39.86-12.39 38.94-11.07 37.62-9.67L37.62-9.67Q36.12-8.17 37.35-7.6 38.58-7.03 39.73-7.38L39.73-7.38 48.34-13.01Q49.31-13.54 50.27-14.11 51.24-14.68 51.68-15.64L51.68-15.64Q51.94-17.58 51.94-19.38 51.94-21.18 52.91-23.03L52.91-23.03Q54.14-25.31 55.68-24.96 57.22-24.61 57.13-22.5L57.13-22.5 56.6-20.04Q56.25-13.71 56.25-7.82 56.25-1.93 56.6 4.75L56.6 4.75Q56.6 5.54 56.34 6.28 56.07 7.03 55.2 7.38L55.2 7.38Q53.17 6.86 52.43 5.89 51.68 4.92 50.45 3.34L50.45 3.34Q48.43 2.29 46.76 1.19 45.09 0.09 43.24-1.58L43.24-1.58Q42.63-2.46 42.1-2.46 41.57-2.46 40.78-1.76L40.78-1.76Q39.81-1.23 38.41-0.62 37 0 36.04-0.35L36.04-0.35Q34.89-1.67 35.11-3.16 35.33-4.66 34.98-5.98L34.98-5.98 34.28-5.8Q32.87-3.96 31.11-3.16 29.36-2.37 28.83-4.39L28.83-4.39Q28.56-5.45 28.61-6.28 28.65-7.12 29-8.09L29-8.09Q29.18-8.79 29.49-9.45 29.79-10.11 29.88-10.72L29.88-10.72 25.66-19.34Q25.31-20.39 25.71-20.74 26.1-21.09 27.07-21.45L27.07-21.45Q28.92-21.97 31.38-20.74 33.84-19.51 34.98-17.4L34.98-17.4Q35.16-16.52 35.64-16.74 36.12-16.96 36.56-17.58L36.56-17.58 40.08-22.15Q40.25-22.68 40.34-22.98 40.43-23.29 39.73-23.2L39.73-23.2 35.68-21.97Q34.1-21.53 33.84-22.76 33.57-23.99 34.8-25.14L34.8-25.14Q37.62-26.89 40.21-27.73 42.8-28.56 45.7-29.71L45.7-29.71Q46.49-30.41 46.54-30.81 46.58-31.2 46.05-31.29L46.05-31.29Q44.91-31.2 43.68-30.85 42.45-30.5 41.13-30.06L41.13-30.06Q40.34-29.79 39.46-30.15 38.58-30.5 38.32-31.46L38.32-31.46Q38.32-33.13 40.03-34.15 41.75-35.16 43.07-34.45L43.07-34.45Q43.68-34.45 44.21-34.63 44.74-34.8 45-35.68L45-35.68Q45-37 44.87-38.06 44.74-39.11 43.24-39.9L43.24-39.9 39.73-44.12Q38.58-46.32 38.28-48.43 37.97-50.54 37.97-52.73ZM109.93-37.09L109.75-37.97Q109.49-38.23 109.27-38.19 109.05-38.14 108.87-37.97L108.87-37.97Q105.97-35.07 104.39-32.21 102.81-29.36 101.66-26.37L101.66-26.37Q101.4-25.58 101.66-25.27 101.93-24.96 102.72-25.14L102.72-25.14Q104.56-26.46 106.37-27.69 108.17-28.92 109.93-30.59L109.93-30.59Q110.01-32.26 109.97-33.88 109.93-35.51 109.93-37.09L109.93-37.09ZM105.88-37.97L105.53-38.85 105.18-39.2Q104.3-38.94 103.55-38.41 102.81-37.88 102.54-36.74L102.54-36.74 101.66-31.29Q102.19-29.53 103.91-33.13 105.62-36.74 105.88-37.97L105.88-37.97ZM132.43-41.31L132.07-42.01Q131.63-42.28 131.33-42.1 131.02-41.92 130.84-41.66L130.84-41.66Q128.65-40.08 126.67-38.19 124.69-36.3 122.58-33.93L122.58-33.93Q121.79-33.49 121.88-33.09 121.97-32.7 122.76-32.52L122.76-32.52 127.5-34.1Q131.63-35.24 132.12-36.39 132.6-37.53 132.43-41.31L132.43-41.31ZM109.75-53.79L109.75-53.79Q106.15-52.73 104.52-51.28 102.89-49.83 103.77-45.88L103.77-45.88Q103.86-45.18 104.39-45.18 104.92-45.18 105.53-45.18L105.53-45.18Q106.23-45.44 107.03-45.44 107.82-45.44 108.7-45.35L108.7-45.35Q109.75-45.26 110.06-45.83 110.37-46.41 110.63-47.46L110.63-47.46Q110.45-48.78 110.76-50.98 111.07-53.17 109.75-53.79ZM129.79-49.04L123.46-51.15 122.93-51.15Q121.62-54.23 128.03-56.43 134.45-58.62 137.35-59.59L137.35-59.59Q138.75-59.94 139.98-59.81 141.21-59.68 142.8-59.06L142.8-59.06Q143.94-58.54 144.69-57.7 145.43-56.87 146.66-56.07L146.66-56.07Q147.19-55.81 147.06-55.24 146.93-54.67 146.49-54.14L146.49-54.14Q144.82-52.38 143.19-51.46 141.57-50.54 140.16-48.87L140.16-48.87Q139.81-46.76 139.81-44.78 139.81-42.8 139.81-40.61L139.81-40.61Q139.98-39.11 140.69-38.94 141.39-38.76 142.62-38.85L142.62-38.85Q145.43-39.11 148.11-39.24 150.79-39.38 153.7-38.67L153.7-38.67Q155.45-38.06 155.8-37 156.16-35.95 154.4-34.8L154.4-34.8Q151.06-33.31 148.33-32.61 145.61-31.9 142.27-31.46L142.27-31.46Q140.6-31.2 139.98-30.59 139.37-29.97 139.46-28.13L139.46-28.13Q138.93-23.29 138.97-18.76 139.02-14.24 138.58-8.96L138.58-8.96Q138.67-5.89 138.75-2.99 138.84-0.09 138.4 3.34L138.4 3.34Q137.96 5.1 136.6 5.54 135.24 5.98 134.01 4.22L134.01 4.22Q133.39 2.64 132.91 1.27 132.43-0.09 132.43-1.58L132.43-1.58Q132.34-8.26 132.34-14.11 132.34-19.95 132.25-26.54L132.25-26.54Q132.25-27.69 131.68-28.08 131.11-28.48 130.14-27.95L130.14-27.95Q127.59-27.33 125.39-26.54 123.2-25.75 120.65-24.43L120.65-24.43Q118.98-23.64 118.1-24.61 117.22-25.58 115.9-26.37L115.9-26.37 115.55-25.49Q115.2-19.42 115.51-13.93 115.81-8.44 115.73-2.11L115.73-2.11Q115.46-1.41 114.98-1.27 114.5-1.14 113.79-1.58L113.79-1.58Q111.77-5.01 110.01-8.26 108.26-11.51 106.41-15.12L106.41-15.12Q106.15-15.47 106.1-16.08 106.06-16.7 106.59-16.35L106.59-16.35 108.17-15.12Q108.87-14.59 109.4-14.63 109.93-14.68 110.1-15.64L110.1-15.64 110.1-24.61Q109.93-25.31 109.57-25.58 109.22-25.84 108.7-25.14L108.7-25.14Q106.59-22.41 104.39-20.17 102.19-17.93 99.38-18.28L99.38-18.28Q98.59-18.46 98.19-17.97 97.8-17.49 97.8-16.88L97.8-16.88Q96.48-13.54 95.07-10.46 93.67-7.38 91.29-3.87L91.29-3.87Q90.24-2.99 89.27-2.86 88.3-2.72 87.78-4.22L87.78-4.22Q86.63-7.29 86.28-10.33 85.93-13.36 88.13-16.35L88.13-16.35Q91.56-23.47 92.88-29.84 94.19-36.21 94.63-43.59L94.63-43.59Q94.63-47.29 95.03-50.05 95.42-52.82 97.27-56.6L97.27-56.6Q97.62-58.27 98.54-58.89 99.47-59.5 100.79-59.06L100.79-59.06Q103.51-57.83 105.88-58.27 108.26-58.71 111.33-59.06L111.33-59.06Q113.71-59.59 115.77-57.52 117.84-55.46 117.13-52.91L117.13-52.91 116.78-52.38Q116.08-47.72 115.68-43.59 115.29-39.46 115.73-34.63L115.73-34.63Q115.73-33.75 116.17-33.79 116.61-33.84 117.31-34.1L117.31-34.1Q121.09-35.16 124.56-38.54 128.03-41.92 131.55-45.7L131.55-45.7Q132.34-47.11 131.77-47.9 131.2-48.69 129.79-49.04L129.79-49.04ZM190.32-21.45L167.91-21.45Q161.76-3.52 161.76-2.9L161.76-2.9Q161.84-0.18 166.68-0.18L166.68-0.18 169.58-0.18Q171.07-0.09 171.07 1.23L171.07 1.23Q170.98 2.55 169.58 2.55L169.58 2.55 150.59 2.55Q149.28 2.55 149.28 1.23L149.28 1.23Q149.28-0.18 150.59-0.18L150.59-0.18 153.14-0.18Q157.01-0.26 158.68-4.75L158.68-4.75 178.19-60.82Q178.98-62.84 180.56-62.84L180.56-62.84Q181.79-62.75 182.59-61.08L182.59-61.08 203.94-4.83Q204.73-2.72 206.32-1.32L206.32-1.32Q207.72-0.18 210.89-0.18L210.89-0.18Q212.29-0.09 212.29 1.23L212.29 1.23Q212.21 2.55 210.89 2.55L210.89 2.55 190.32 2.55Q189.18 2.55 189.18 1.23L189.18 1.23Q189.27-0.18 190.32-0.18L190.32-0.18Q194.63-0.26 195.77-0.79L195.77-0.79Q196.82-1.49 196.82-3.16L196.82-3.16Q196.74-4.31 190.32-21.45L190.32-21.45ZM168.79-23.91L189.35-23.91 178.46-52.73 168.79-23.91ZM216.22-4.92L216.22-53.79Q216.13-55.55 215.08-57.22L215.08-57.22Q213.94-58.62 208.31-58.62L208.31-58.62Q207.17-58.62 207.17-59.94L207.17-59.94Q207.26-61.35 208.31-61.35L208.31-61.35 230.11-61.35Q231.87-61.26 231.87-59.94L231.87-59.94Q231.78-58.62 230.11-58.62L230.11-58.62Q224.48-58.54 223.69-57.13L223.69-57.13Q222.9-55.99 222.9-54.4L222.9-54.4 222.9-5.36Q222.99-2.37 224.31-1.05L224.31-1.05Q225.63 0.26 230.64 0.26L230.64 0.26Q231.96 0.35 231.96 1.49L231.96 1.49Q231.96 2.72 230.64 2.72L230.64 2.72 209.02 2.72Q207.61 2.64 207.61 1.49L207.61 1.49Q207.7 0.26 209.02 0.26L209.02 0.26Q214.11 0.18 215.43-1.41L215.43-1.41Q216.22-2.72 216.22-4.92L216.22-4.92Z"
                transform="translate(-7.559999942779541, 62.84000015258789)"></path>
            </g>
          </g>
        </g>
      </g>
      <g data-gra="path-slogan" fill-rule="" class="tp-slogan" fill="#FFFFFF"
        transform="translate(0,46.621002197265625)">
        <rect width="0"></rect>
        <rect x="131.16001892089844" width="0"></rect>
        <g transform="translate(0,0)">
          <g transform="scale(0.96)">
            <path
              d="M6.56 0L5.72-2.48L2.25-2.48L1.36 0L0.19 0L3.42-8.58L4.73-8.58L7.83 0L6.56 0ZM3.98-7.31L2.63-3.52L5.30-3.52L4.03-7.31L3.98-7.31ZM9.05-8.58L10.22-8.58L10.22 0L9.05 0L9.05-8.58ZM23.77-8.58L23.77 0L22.64 0L22.64-5.06Q22.64-5.77 22.64-7.22L22.64-7.22L20.20 0L19.03 0L16.64-7.22L16.59-7.22Q16.59-6.70 16.64-5.67L16.64-5.67Q16.64-5.16 16.64-5.06L16.64-5.06L16.64 0L15.47 0L15.47-8.58L17.16-8.58L19.64-1.31L22.08-8.58L23.77-8.58ZM31.13 0L30.28-2.48L26.81-2.48L25.92 0L24.75 0L27.98-8.58L29.30-8.58L32.39 0L31.13 0ZM28.55-7.31L27.19-3.52L29.86-3.52L28.59-7.31L28.55-7.31ZM35.95-4.31L34.59-3.05L34.59 0L33.42 0L33.42-8.58L34.59-8.58L34.59-4.41L38.77-8.58L40.41-8.58L36.80-5.11L40.50 0L38.95 0L35.95-4.31ZM42.70-1.03L47.86-1.03L47.86 0L41.53 0L41.53-8.58L47.77-8.58L47.77-7.59L42.70-7.59L42.70-4.92L47.39-4.92L47.39-3.89L42.70-3.89L42.70-1.03ZM52.69-8.58L53.86-8.58L53.86-1.03L58.22-1.03L58.22 0L52.69 0L52.69-8.58ZM59.53-8.58L60.70-8.58L60.70 0L59.53 0L59.53-8.58ZM68.20-3.89L63.98-3.89L63.98 0L62.81 0L62.81-8.58L68.77-8.58L68.77-7.59L63.98-7.59L63.98-4.92L68.20-4.92L68.20-3.89ZM71.25-1.03L76.41-1.03L76.41 0L70.08 0L70.08-8.58L76.31-8.58L76.31-7.59L71.25-7.59L71.25-4.92L75.94-4.92L75.94-3.89L71.25-3.89L71.25-1.03ZM84.47-7.64L82.41-7.64L82.41-4.97L84.47-4.97Q86.30-4.92 86.25-6.38L86.25-6.38Q86.25-7.64 84.47-7.64L84.47-7.64ZM84.94 0L81.23 0L81.23-8.58L85.03-8.58Q87.33-8.48 87.42-6.42L87.42-6.42Q87.42-5.16 86.30-4.64L86.30-4.64Q87.89-4.08 87.89-2.53L87.89-2.53Q87.75-0.09 84.94 0L84.94 0ZM84.66-3.98L82.41-3.98L82.41-0.98L84.89-0.98Q86.67-1.03 86.72-2.53L86.72-2.53Q86.72-3.98 84.66-3.98L84.66-3.98ZM90.52-1.03L95.67-1.03L95.67 0L89.34 0L89.34-8.58L95.58-8.58L95.58-7.59L90.52-7.59L90.52-4.92L95.20-4.92L95.20-3.89L90.52-3.89L90.52-1.03ZM99.38-7.59L96.47-7.59L96.47-8.58L103.41-8.58L103.41-7.59L100.50-7.59L100.50 0L99.38 0L99.38-7.59ZM106.64-7.59L103.73-7.59L103.73-8.58L110.67-8.58L110.67-7.59L107.77-7.59L107.77 0L106.64 0L106.64-7.59ZM113.02-1.03L118.17-1.03L118.17 0L111.84 0L111.84-8.58L118.08-8.58L118.08-7.59L113.02-7.59L113.02-4.92L117.70-4.92L117.70-3.89L113.02-3.89L113.02-1.03ZM123.80-3.70L120.98-3.70L120.98 0L119.81 0L119.81-8.58L123.80-8.58Q126.66-8.58 126.66-6.28L126.66-6.28Q126.66-4.88 125.44-4.22L125.44-4.22Q126.47-3.94 126.47-2.58L126.47-2.58L126.56-1.03Q126.52-0.38 126.98-0.19L126.98-0.19L126.98 0L125.53 0Q125.39-0.61 125.34-2.16L125.34-2.16Q125.39-3.70 123.80-3.70L123.80-3.70ZM123.89-7.64L120.98-7.64L120.98-4.69L123.70-4.69Q125.44-4.69 125.44-6.19L125.44-6.19Q125.44-7.64 123.89-7.64L123.89-7.64ZM133.22-3.89L133.22-3.89L133.69-3.23Q133.03-2.20 132.19-2.20L132.19-2.20Q131.67-2.20 130.97-2.58L130.97-2.58Q130.22-3.05 129.56-3.05L129.56-3.05Q128.95-3.05 128.53-2.16L128.53-2.16L128.11-2.81Q128.67-3.84 129.61-3.84L129.61-3.84Q130.03-3.84 130.97-3.47L130.97-3.47Q131.77-3.09 132.19-3.05L132.19-3.05Q132.70-3 133.22-3.89Z"
              transform="translate(-0.1875, 8.578125)"></path>
          </g>
        </g>
      </g>
    </g>
    <!---->
  </g>
  <mask id="9c6ef4e6-52a3-4e51-8fa9-9e06b094c1a8">
    <g fill="#fff">
      <rect data-gra="graph-name" x="0" y="9.655250549316406" width="123.42000579833984" height="19.310501098632812">
      </rect>
    </g>
    <g data-gra="path-name" fill-rule="" class="tp-name" stroke="#000" stroke-width="3">
      <g transform="scale(0.55)">
        <g>
          <path
            d="M51.5-12.83L51.5-12.83Q50.98-13.1 50.8-13.01 50.63-12.92 50.45-12.66L50.45-12.66Q49.66-10.81 48.56-9.4 47.46-8 45.35-6.33L45.35-6.33Q44.74-5.45 44.87-4.7 45-3.96 46.05-3.87L46.05-3.87Q50.71-5.19 51.28-7.08 51.86-8.96 51.5-12.83ZM55.2-35.68L55.2-35.68 54.67-35.68Q53.79-35.42 52.95-35.11 52.12-34.8 51.33-34.28L51.33-34.28Q50.36-33.13 50.58-32.39 50.8-31.64 52.03-32.17L52.03-32.17Q53.53-32.43 55.24-33.53 56.95-34.63 55.2-35.68ZM62.58-41.84L62.58-41.84Q62.31-41.92 62.23-41.57 62.14-41.22 62.4-41.13L62.4-41.13Q62.49-40.87 62.75-41.18 63.02-41.48 62.58-41.84ZM56.95-44.12L56.95-44.12 52.03-42.01Q50.19-41.57 50.01-40.39 49.83-39.2 49.92-37.97L49.92-37.97Q50.01-37.09 50.49-37 50.98-36.91 51.86-36.91L51.86-36.91Q53-37.62 54.18-37.92 55.37-38.23 56.78-38.85L56.78-38.85Q57.13-40.17 57.7-42.28 58.27-44.38 56.95-44.12ZM27.42-58.36L27.42-58.36Q29.97-59.68 31.55-58.18 33.13-56.69 32.87-53.96L32.87-53.96Q32.26-50.89 32.87-48.56 33.49-46.23 37.44-44.3L37.44-44.3Q38.5-43.86 38.45-43.15 38.41-42.45 37.62-41.48L37.62-41.48Q35.51-39.99 33.49-38.8 31.46-37.62 29.53-35.68L29.53-35.68Q27.42-30.32 25.93-25.49 24.43-20.65 21.8-15.12L21.8-15.12Q21.01-12.39 19.91-10.15 18.81-7.91 16.88-5.1L16.88-5.1Q14.85-2.55 12.74-2.24 10.63-1.93 8.96-4.75L8.96-4.75Q8.44-5.98 8.79-7.03 9.14-8.09 9.49-9.49L9.49-9.49Q9.76-10.46 10.33-11.29 10.9-12.13 12.13-13.01L12.13-13.01Q15.56-18.37 16.96-23.12 18.37-27.86 19.69-33.4L19.69-33.4Q19.78-34.19 19.47-34.23 19.16-34.28 18.81-33.75L18.81-33.75Q18.02-31.9 17.27-30.32 16.52-28.74 14.59-26.72L14.59-26.72Q13.62-25.75 12.44-25.88 11.25-26.02 10.9-27.25L10.9-27.25Q10.9-27.77 10.59-28.34 10.28-28.92 10.02-29.53L10.02-29.53Q8.61-31.55 8.17-32.83 7.73-34.1 7.56-36.21L7.56-36.21Q7.73-37.97 8.83-39.95 9.93-41.92 11.07-43.59L11.07-43.59Q12.04-44.56 13.01-45.13 13.97-45.7 14.94-46.41L14.94-46.41 16.35-46.58Q18.02-45.88 18.63-43.59 19.25-41.31 18.81-39.73L18.81-39.73Q18.19-38.32 19.34-37.92 20.48-37.53 21.27-38.85L21.27-38.85Q22.59-43.24 23.12-47.11 23.64-50.98 25.84-55.37L25.84-55.37Q25.84-56.07 26.1-56.91 26.37-57.74 27.42-58.36ZM63.81-59.41L63.28-59.41Q60.56-58.71 58.32-58.23 56.07-57.74 53.26-56.07L53.26-56.07Q51.94-55.55 50.36-54.71 48.78-53.88 47.64-52.38L47.64-52.38Q47.37-51.42 47.55-51.02 47.72-50.63 48.87-50.8L48.87-50.8Q51.15-51.33 53.22-52.47 55.28-53.61 57.66-53.79L57.66-53.79Q58.62-53.88 59.06-53.22 59.5-52.56 58.54-51.86L58.54-51.86Q56.87-51.33 55.5-50.63 54.14-49.92 52.56-49.39L52.56-49.39Q51.33-49.83 50.67-49.83 50.01-49.83 48.87-49.22L48.87-49.22Q46.85-48.87 46.54-47.42 46.23-45.97 46.76-44.47L46.76-44.47Q46.85-43.95 47.29-43.9 47.72-43.86 48.16-44.12L48.16-44.12 54.84-46.58 57.3-47.46Q58.71-48.6 59.63-48.87 60.56-49.13 61.88-49.39L61.88-49.39Q62.84-51.59 64.6-55.5 66.36-59.41 63.81-59.41L63.81-59.41ZM37.97-52.73L37.97-52.73Q38.58-56.95 41.35-57.48 44.12-58.01 47.29-57.83L47.29-57.83Q51.77-59.33 55.72-60.25 59.68-61.17 64.34-61.7L64.34-61.7Q66.8-61.88 67.94-60.21 69.08-58.54 68.73-56.07L68.73-56.07Q67.76-53.96 66.97-52.03 66.18-50.1 65.04-47.81L65.04-47.81Q64.16-46.32 64.29-45.62 64.42-44.91 64.86-43.24L64.86-43.24Q65.04-42.45 65.61-42.19 66.18-41.92 66.8-41.66L66.8-41.66Q67.76-41.4 67.72-40.65 67.68-39.9 66.8-39.38L66.8-39.38 61.88-37.44Q61.08-36.83 61.26-36.39 61.44-35.95 62.23-35.86L62.23-35.86Q63.28-36.04 64.56-36.08 65.83-36.12 66.8-35.68L66.8-35.68Q68.12-34.63 68.33-33.88 68.55-33.13 66.97-32.34L66.97-32.34Q65.83-31.64 64.69-31.33 63.54-31.03 62.23-30.23L62.23-30.23Q61.17-29.79 60.91-29.4 60.64-29 61.7-27.95L61.7-27.95Q64.69-25.14 67.59-24.08 70.49-23.03 73.83-21.97L73.83-21.97Q74.71-21.88 75.54-21.62 76.38-21.36 77.34-20.57L77.34-20.57Q78.22-20.13 79.1-20.13 79.98-20.13 80.86-19.51L80.86-19.51Q82.27-18.72 82.53-17.8 82.79-16.88 81.21-16.17L81.21-16.17Q77.61-15.64 74.22-15.86 70.84-16.08 67.32-18.28L67.32-18.28Q66.8-18.81 66.23-18.54 65.65-18.28 65.04-17.58L65.04-17.58Q64.34-16.7 63.63-16.35 62.93-16 62.05-15.64L62.05-15.64Q60.47-14.77 60.64-13.71 60.82-12.66 62.4-12.13L62.4-12.13 64.34-11.43Q68.12-11.34 69.74-9.93 71.37-8.53 73.3-4.75L73.3-4.75Q73.48-3.69 72.99-3.25 72.51-2.81 71.54-2.81L71.54-2.81Q69.26-2.72 67.37-3.87 65.48-5.01 63.28-7.21L63.28-7.21Q59.24-9.93 58.75-12.17 58.27-14.41 59.94-17.93L59.94-17.93Q60.38-19.07 61.04-20.17 61.7-21.27 61.52-22.32L61.52-22.32Q59.94-24.26 58.23-25.49 56.51-26.72 54.67-27.42L54.67-27.42Q51.68-27.33 49.97-25.31 48.25-23.29 46.05-20.39L46.05-20.39Q45.79-19.78 46.01-19.56 46.23-19.34 46.93-18.98L46.93-18.98Q47.99-18.63 48.38-17.89 48.78-17.14 47.64-16.17L47.64-16.17Q46.93-15.82 46.14-15.12 45.35-14.41 44.65-13.54L44.65-13.54Q44.03-13.27 43.86-13.36 43.68-13.45 43.77-13.89L43.77-13.89Q44.03-15.03 43.37-15.16 42.71-15.29 42.19-14.94L42.19-14.94Q40.78-13.71 39.86-12.39 38.94-11.07 37.62-9.67L37.62-9.67Q36.12-8.17 37.35-7.6 38.58-7.03 39.73-7.38L39.73-7.38 48.34-13.01Q49.31-13.54 50.27-14.11 51.24-14.68 51.68-15.64L51.68-15.64Q51.94-17.58 51.94-19.38 51.94-21.18 52.91-23.03L52.91-23.03Q54.14-25.31 55.68-24.96 57.22-24.61 57.13-22.5L57.13-22.5 56.6-20.04Q56.25-13.71 56.25-7.82 56.25-1.93 56.6 4.75L56.6 4.75Q56.6 5.54 56.34 6.28 56.07 7.03 55.2 7.38L55.2 7.38Q53.17 6.86 52.43 5.89 51.68 4.92 50.45 3.34L50.45 3.34Q48.43 2.29 46.76 1.19 45.09 0.09 43.24-1.58L43.24-1.58Q42.63-2.46 42.1-2.46 41.57-2.46 40.78-1.76L40.78-1.76Q39.81-1.23 38.41-0.62 37 0 36.04-0.35L36.04-0.35Q34.89-1.67 35.11-3.16 35.33-4.66 34.98-5.98L34.98-5.98 34.28-5.8Q32.87-3.96 31.11-3.16 29.36-2.37 28.83-4.39L28.83-4.39Q28.56-5.45 28.61-6.28 28.65-7.12 29-8.09L29-8.09Q29.18-8.79 29.49-9.45 29.79-10.11 29.88-10.72L29.88-10.72 25.66-19.34Q25.31-20.39 25.71-20.74 26.1-21.09 27.07-21.45L27.07-21.45Q28.92-21.97 31.38-20.74 33.84-19.51 34.98-17.4L34.98-17.4Q35.16-16.52 35.64-16.74 36.12-16.96 36.56-17.58L36.56-17.58 40.08-22.15Q40.25-22.68 40.34-22.98 40.43-23.29 39.73-23.2L39.73-23.2 35.68-21.97Q34.1-21.53 33.84-22.76 33.57-23.99 34.8-25.14L34.8-25.14Q37.62-26.89 40.21-27.73 42.8-28.56 45.7-29.71L45.7-29.71Q46.49-30.41 46.54-30.81 46.58-31.2 46.05-31.29L46.05-31.29Q44.91-31.2 43.68-30.85 42.45-30.5 41.13-30.06L41.13-30.06Q40.34-29.79 39.46-30.15 38.58-30.5 38.32-31.46L38.32-31.46Q38.32-33.13 40.03-34.15 41.75-35.16 43.07-34.45L43.07-34.45Q43.68-34.45 44.21-34.63 44.74-34.8 45-35.68L45-35.68Q45-37 44.87-38.06 44.74-39.11 43.24-39.9L43.24-39.9 39.73-44.12Q38.58-46.32 38.28-48.43 37.97-50.54 37.97-52.73ZM109.93-37.09L109.75-37.97Q109.49-38.23 109.27-38.19 109.05-38.14 108.87-37.97L108.87-37.97Q105.97-35.07 104.39-32.21 102.81-29.36 101.66-26.37L101.66-26.37Q101.4-25.58 101.66-25.27 101.93-24.96 102.72-25.14L102.72-25.14Q104.56-26.46 106.37-27.69 108.17-28.92 109.93-30.59L109.93-30.59Q110.01-32.26 109.97-33.88 109.93-35.51 109.93-37.09L109.93-37.09ZM105.88-37.97L105.53-38.85 105.18-39.2Q104.3-38.94 103.55-38.41 102.81-37.88 102.54-36.74L102.54-36.74 101.66-31.29Q102.19-29.53 103.91-33.13 105.62-36.74 105.88-37.97L105.88-37.97ZM132.43-41.31L132.07-42.01Q131.63-42.28 131.33-42.1 131.02-41.92 130.84-41.66L130.84-41.66Q128.65-40.08 126.67-38.19 124.69-36.3 122.58-33.93L122.58-33.93Q121.79-33.49 121.88-33.09 121.97-32.7 122.76-32.52L122.76-32.52 127.5-34.1Q131.63-35.24 132.12-36.39 132.6-37.53 132.43-41.31L132.43-41.31ZM109.75-53.79L109.75-53.79Q106.15-52.73 104.52-51.28 102.89-49.83 103.77-45.88L103.77-45.88Q103.86-45.18 104.39-45.18 104.92-45.18 105.53-45.18L105.53-45.18Q106.23-45.44 107.03-45.44 107.82-45.44 108.7-45.35L108.7-45.35Q109.75-45.26 110.06-45.83 110.37-46.41 110.63-47.46L110.63-47.46Q110.45-48.78 110.76-50.98 111.07-53.17 109.75-53.79ZM129.79-49.04L123.46-51.15 122.93-51.15Q121.62-54.23 128.03-56.43 134.45-58.62 137.35-59.59L137.35-59.59Q138.75-59.94 139.98-59.81 141.21-59.68 142.8-59.06L142.8-59.06Q143.94-58.54 144.69-57.7 145.43-56.87 146.66-56.07L146.66-56.07Q147.19-55.81 147.06-55.24 146.93-54.67 146.49-54.14L146.49-54.14Q144.82-52.38 143.19-51.46 141.57-50.54 140.16-48.87L140.16-48.87Q139.81-46.76 139.81-44.78 139.81-42.8 139.81-40.61L139.81-40.61Q139.98-39.11 140.69-38.94 141.39-38.76 142.62-38.85L142.62-38.85Q145.43-39.11 148.11-39.24 150.79-39.38 153.7-38.67L153.7-38.67Q155.45-38.06 155.8-37 156.16-35.95 154.4-34.8L154.4-34.8Q151.06-33.31 148.33-32.61 145.61-31.9 142.27-31.46L142.27-31.46Q140.6-31.2 139.98-30.59 139.37-29.97 139.46-28.13L139.46-28.13Q138.93-23.29 138.97-18.76 139.02-14.24 138.58-8.96L138.58-8.96Q138.67-5.89 138.75-2.99 138.84-0.09 138.4 3.34L138.4 3.34Q137.96 5.1 136.6 5.54 135.24 5.98 134.01 4.22L134.01 4.22Q133.39 2.64 132.91 1.27 132.43-0.09 132.43-1.58L132.43-1.58Q132.34-8.26 132.34-14.11 132.34-19.95 132.25-26.54L132.25-26.54Q132.25-27.69 131.68-28.08 131.11-28.48 130.14-27.95L130.14-27.95Q127.59-27.33 125.39-26.54 123.2-25.75 120.65-24.43L120.65-24.43Q118.98-23.64 118.1-24.61 117.22-25.58 115.9-26.37L115.9-26.37 115.55-25.49Q115.2-19.42 115.51-13.93 115.81-8.44 115.73-2.11L115.73-2.11Q115.46-1.41 114.98-1.27 114.5-1.14 113.79-1.58L113.79-1.58Q111.77-5.01 110.01-8.26 108.26-11.51 106.41-15.12L106.41-15.12Q106.15-15.47 106.1-16.08 106.06-16.7 106.59-16.35L106.59-16.35 108.17-15.12Q108.87-14.59 109.4-14.63 109.93-14.68 110.1-15.64L110.1-15.64 110.1-24.61Q109.93-25.31 109.57-25.58 109.22-25.84 108.7-25.14L108.7-25.14Q106.59-22.41 104.39-20.17 102.19-17.93 99.38-18.28L99.38-18.28Q98.59-18.46 98.19-17.97 97.8-17.49 97.8-16.88L97.8-16.88Q96.48-13.54 95.07-10.46 93.67-7.38 91.29-3.87L91.29-3.87Q90.24-2.99 89.27-2.86 88.3-2.72 87.78-4.22L87.78-4.22Q86.63-7.29 86.28-10.33 85.93-13.36 88.13-16.35L88.13-16.35Q91.56-23.47 92.88-29.84 94.19-36.21 94.63-43.59L94.63-43.59Q94.63-47.29 95.03-50.05 95.42-52.82 97.27-56.6L97.27-56.6Q97.62-58.27 98.54-58.89 99.47-59.5 100.79-59.06L100.79-59.06Q103.51-57.83 105.88-58.27 108.26-58.71 111.33-59.06L111.33-59.06Q113.71-59.59 115.77-57.52 117.84-55.46 117.13-52.91L117.13-52.91 116.78-52.38Q116.08-47.72 115.68-43.59 115.29-39.46 115.73-34.63L115.73-34.63Q115.73-33.75 116.17-33.79 116.61-33.84 117.31-34.1L117.31-34.1Q121.09-35.16 124.56-38.54 128.03-41.92 131.55-45.7L131.55-45.7Q132.34-47.11 131.77-47.9 131.2-48.69 129.79-49.04L129.79-49.04ZM190.32-21.45L167.91-21.45Q161.76-3.52 161.76-2.9L161.76-2.9Q161.84-0.18 166.68-0.18L166.68-0.18 169.58-0.18Q171.07-0.09 171.07 1.23L171.07 1.23Q170.98 2.55 169.58 2.55L169.58 2.55 150.59 2.55Q149.28 2.55 149.28 1.23L149.28 1.23Q149.28-0.18 150.59-0.18L150.59-0.18 153.14-0.18Q157.01-0.26 158.68-4.75L158.68-4.75 178.19-60.82Q178.98-62.84 180.56-62.84L180.56-62.84Q181.79-62.75 182.59-61.08L182.59-61.08 203.94-4.83Q204.73-2.72 206.32-1.32L206.32-1.32Q207.72-0.18 210.89-0.18L210.89-0.18Q212.29-0.09 212.29 1.23L212.29 1.23Q212.21 2.55 210.89 2.55L210.89 2.55 190.32 2.55Q189.18 2.55 189.18 1.23L189.18 1.23Q189.27-0.18 190.32-0.18L190.32-0.18Q194.63-0.26 195.77-0.79L195.77-0.79Q196.82-1.49 196.82-3.16L196.82-3.16Q196.74-4.31 190.32-21.45L190.32-21.45ZM168.79-23.91L189.35-23.91 178.46-52.73 168.79-23.91ZM216.22-4.92L216.22-53.79Q216.13-55.55 215.08-57.22L215.08-57.22Q213.94-58.62 208.31-58.62L208.31-58.62Q207.17-58.62 207.17-59.94L207.17-59.94Q207.26-61.35 208.31-61.35L208.31-61.35 230.11-61.35Q231.87-61.26 231.87-59.94L231.87-59.94Q231.78-58.62 230.11-58.62L230.11-58.62Q224.48-58.54 223.69-57.13L223.69-57.13Q222.9-55.99 222.9-54.4L222.9-54.4 222.9-5.36Q222.99-2.37 224.31-1.05L224.31-1.05Q225.63 0.26 230.64 0.26L230.64 0.26Q231.96 0.35 231.96 1.49L231.96 1.49Q231.96 2.72 230.64 2.72L230.64 2.72 209.02 2.72Q207.61 2.64 207.61 1.49L207.61 1.49Q207.7 0.26 209.02 0.26L209.02 0.26Q214.11 0.18 215.43-1.41L215.43-1.41Q216.22-2.72 216.22-4.92L216.22-4.92Z"
            transform="translate(-7.559999942779541, 62.84000015258789)"></path>
        </g>
        <!---->
        <!---->
        <!---->
        <!---->
        <!---->
        <!---->
        <!---->
      </g>
    </g>
  </mask>
</svg>
