<svg data-v-0dd9719b="" version="1.0" xmlns="http://www.w3.org/2000/svg" xmlns:xlink="http://www.w3.org/1999/xlink"
 preserveAspectRatio="xMidYMid meet"
  color-interpolation-filters="sRGB" style="margin: auto;">
  <g data-v-0dd9719b="" fill="#ffffff" class="icon-text-wrapper icon-svg-group iconsvg"
>
    <g class="iconsvg-imagesvg" transform="translate(35.269996643066406,0)">
      <g>
        <rect fill="#ffffff" fill-opacity="0" stroke-width="2" x="0" y="0" width="60" height="57.70728939243842"
          class="image-rect"></rect> <svg filter="url(#colors768569392)" x="0" y="0" width="60"
          height="57.70728939243842" filtersec="colorsf2293340282" class="image-svg-svg primary"
          style="overflow: visible;"><svg fill="#000000" xmlns="http://www.w3.org/2000/svg"
            xmlns:xlink="http://www.w3.org/1999/xlink" version="1.1" x="0px" y="0px"
            viewBox="6.199999809265137 8 75.9000015258789 73" enable-background="new 0 0 90 90" xml:space="preserve">
            <polygon points="49.8,57.3 46,68.2 46,68 15.7,68 32.5,81 55.6,81 65.4,50.7 54.6,42.9 "></polygon>
            <polygon points="53.7,39.6 53.7,39.6 67.7,49.8 58.2,79.1 75,66.9 82.1,44.9 56.4,26.3 45.9,33.9 "></polygon>
            <polygon points="81.4,41.9 75,22.2 56.3,8.7 30.8,27.2 34.8,39.6 56.4,23.8 "></polygon>
            <polygon points="34,42.8 28.6,26.2 53.2,8 32.5,8 13.8,21.8 23.5,52 36.7,52 34,42.8 "></polygon>
            <polygon points="39.4,54 22.1,54 12.6,24.9 6.2,44.3 13.4,66 44.9,66 49,54 "></polygon>
          </svg></svg>
        <defs>
          <filter id="colors768569392">
            <feColorMatrix type="matrix" values="0 0 0 0 0.99609375  0 0 0 0 0.99609375  0 0 0 0 0.99609375  0 0 0 1 0"
              class="icon-fecolormatrix"></feColorMatrix>
          </filter>
          <filter id="colorsf2293340282">
            <feColorMatrix type="matrix" values="0 0 0 0 0.99609375  0 0 0 0 0.99609375  0 0 0 0 0.99609375  0 0 0 1 0"
              class="icon-fecolormatrix"></feColorMatrix>
          </filter>
          <filter id="colorsb7445357551">
            <feColorMatrix type="matrix" values="0 0 0 0 0  0 0 0 0 0  0 0 0 0 0  0 0 0 1 0" class="icon-fecolormatrix">
            </feColorMatrix>
          </filter>
        </defs>
      </g>
    </g>
    <g transform="translate(0,64.70729064941406)">
      <g data-gra="path-name" fill-rule="" class="tp-name iconsvg-namesvg" transform="translate(0,0)">
        <g transform="scale(1)">
          <g>
            <path
              d="M15.57-15.3L19.71-15.3 19.89-16.34 17.28-16.34 17.73-19.48 20.34-19.48 20.52-20.75 27.36-20.75 27.18-19.48 30.73-19.48 30.91-20.75 37.44-20.75 37.26-19.48 39.38-19.48 38.92-16.34 36.81-16.34 36.63-15.3 40.18-15.3 39.69-12.01 37.08-12.01 39.1-7.42 37.03-7.42 36.31-5.54 30.55-5.54 31.95-9.22 32.35-9.22 31.09-12.01 23.85-12.01 21.91-9.49 22.41-9.49 23.27-5.8 17.32-5.8 16.96-7.33 13.99-7.33 17.55-12.01 15.07-12.01 15.57-15.3ZM19.21-31.95L41.13-31.95 39.69-21.78 17.77-21.78 19.21-31.95ZM13.77-31.95L11.56-16.29 13.37 0.32 7.96 0.32 7.65-5.49 5.4 0.32 0.27 0.32 6.61-16.34 8.55-30.2 7.74-31.95 13.77-31.95ZM26.59 0.36L20.79 0.36 23.04-2.21 24.25-10.93 30.91-10.93 29.74-2.61Q29.56-1.3 28.64-0.47 27.72 0.36 26.59 0.36L26.59 0.36ZM15.12-15.07L12.06-15.07 14.4-28.75 17.5-28.75 15.12-15.07ZM2.88-15.07L4.54-28.75 7.47-28.75 5.89-15.07 2.88-15.07ZM19.44 0.14L14.08 0.14 17.14-4.72 22.45-4.72 19.44 0.14ZM37.89 0.36L32.53 0.36 30.78-4.46 36.18-4.46 37.89 0.36ZM25.7-29.34L25.52-27.99 34.16-27.99 34.34-29.34 25.7-29.34ZM25.02-24.39L33.66-24.39 33.8-25.61 25.15-25.61 25.02-24.39ZM26.73-16.34L26.55-15.3 30.11-15.3 30.29-16.34 26.73-16.34ZM55.39 0.36L49.95 0.36 52.38-2.11 53.55-10.66 49.95-10.66 47.92 0.36 41.58 0.36 46.94-29.7 45.95-31.18 62.95-31.18 58.95-2.61Q58.77-1.35 57.71-0.49 56.66 0.36 55.39 0.36L55.39 0.36ZM64.66-31.18L82.57-31.18 81.99-26.86 77.35-26.86 76.19-18.4 81.72-18.4 81.13-14.08 75.6-14.08 73.57 0.36 65.79 0.36 67.81-14.08 61.42-14.08 62.01-18.4 68.4-18.4 69.57-26.86 64.08-26.86 64.66-31.18ZM51.44-18.81L50.71-14.94 54.18-14.94 54.72-18.81 51.44-18.81ZM52.92-26.91L52.2-23.09 55.3-23.09 55.84-26.91 52.92-26.91ZM93.38-28.17L111.1-28.17 114.52-2.7 106.78-2.7 105.88-9.63 95.08-9.63 92.07-2.7 84.73-2.7 94.68-26.91 93.38-28.17ZM104.17-23.85L101.16-23.85 96.84-13.95 105.48-13.95 104.17-23.85ZM120.42-28.17L130.81-28.17 126.9-2.7 118.71-2.7 121.72-26.46 120.42-28.17Z"
              transform="translate(-0.27000001072883606, 31.950000762939453)"></path>
          </g>
          <!---->
          <!---->
          <!---->
          <!---->
          <!---->
          <!---->
          <!---->
        </g>
      </g>
      <g data-gra="path-slogan" fill-rule="" class="tp-slogan iconsvg-slogansvg" fill="#ffffff"
        transform="translate(-1.4800033569335938,39.310001373291016)">
        <!---->
        <!---->
        <g transform="scale(1, 1)">
          <g transform="scale(1)">
            <path
              d="M6.56 0L5.72-2.48L2.25-2.48L1.36 0L0.19 0L3.42-8.58L4.73-8.58L7.83 0L6.56 0ZM3.98-7.31L2.63-3.52L5.30-3.52L4.03-7.31L3.98-7.31ZM9.05-8.58L10.22-8.58L10.22 0L9.05 0L9.05-8.58ZM23.77-8.58L23.77 0L22.64 0L22.64-5.06Q22.64-5.77 22.64-7.22L22.64-7.22L20.20 0L19.03 0L16.64-7.22L16.59-7.22Q16.59-6.70 16.64-5.67L16.64-5.67Q16.64-5.16 16.64-5.06L16.64-5.06L16.64 0L15.47 0L15.47-8.58L17.16-8.58L19.64-1.31L22.08-8.58L23.77-8.58ZM31.13 0L30.28-2.48L26.81-2.48L25.92 0L24.75 0L27.98-8.58L29.30-8.58L32.39 0L31.13 0ZM28.55-7.31L27.19-3.52L29.86-3.52L28.59-7.31L28.55-7.31ZM35.95-4.31L34.59-3.05L34.59 0L33.42 0L33.42-8.58L34.59-8.58L34.59-4.41L38.77-8.58L40.41-8.58L36.80-5.11L40.50 0L38.95 0L35.95-4.31ZM42.70-1.03L47.86-1.03L47.86 0L41.53 0L41.53-8.58L47.77-8.58L47.77-7.59L42.70-7.59L42.70-4.92L47.39-4.92L47.39-3.89L42.70-3.89L42.70-1.03ZM52.69-8.58L53.86-8.58L53.86-1.03L58.22-1.03L58.22 0L52.69 0L52.69-8.58ZM59.53-8.58L60.70-8.58L60.70 0L59.53 0L59.53-8.58ZM68.20-3.89L63.98-3.89L63.98 0L62.81 0L62.81-8.58L68.77-8.58L68.77-7.59L63.98-7.59L63.98-4.92L68.20-4.92L68.20-3.89ZM71.25-1.03L76.41-1.03L76.41 0L70.08 0L70.08-8.58L76.31-8.58L76.31-7.59L71.25-7.59L71.25-4.92L75.94-4.92L75.94-3.89L71.25-3.89L71.25-1.03ZM84.47-7.64L82.41-7.64L82.41-4.97L84.47-4.97Q86.30-4.92 86.25-6.38L86.25-6.38Q86.25-7.64 84.47-7.64L84.47-7.64ZM84.94 0L81.23 0L81.23-8.58L85.03-8.58Q87.33-8.48 87.42-6.42L87.42-6.42Q87.42-5.16 86.30-4.64L86.30-4.64Q87.89-4.08 87.89-2.53L87.89-2.53Q87.75-0.09 84.94 0L84.94 0ZM84.66-3.98L82.41-3.98L82.41-0.98L84.89-0.98Q86.67-1.03 86.72-2.53L86.72-2.53Q86.72-3.98 84.66-3.98L84.66-3.98ZM90.52-1.03L95.67-1.03L95.67 0L89.34 0L89.34-8.58L95.58-8.58L95.58-7.59L90.52-7.59L90.52-4.92L95.20-4.92L95.20-3.89L90.52-3.89L90.52-1.03ZM99.38-7.59L96.47-7.59L96.47-8.58L103.41-8.58L103.41-7.59L100.50-7.59L100.50 0L99.38 0L99.38-7.59ZM106.64-7.59L103.73-7.59L103.73-8.58L110.67-8.58L110.67-7.59L107.77-7.59L107.77 0L106.64 0L106.64-7.59ZM113.02-1.03L118.17-1.03L118.17 0L111.84 0L111.84-8.58L118.08-8.58L118.08-7.59L113.02-7.59L113.02-4.92L117.70-4.92L117.70-3.89L113.02-3.89L113.02-1.03ZM123.80-3.70L120.98-3.70L120.98 0L119.81 0L119.81-8.58L123.80-8.58Q126.66-8.58 126.66-6.28L126.66-6.28Q126.66-4.88 125.44-4.22L125.44-4.22Q126.47-3.94 126.47-2.58L126.47-2.58L126.56-1.03Q126.52-0.38 126.98-0.19L126.98-0.19L126.98 0L125.53 0Q125.39-0.61 125.34-2.16L125.34-2.16Q125.39-3.70 123.80-3.70L123.80-3.70ZM123.89-7.64L120.98-7.64L120.98-4.69L123.70-4.69Q125.44-4.69 125.44-6.19L125.44-6.19Q125.44-7.64 123.89-7.64L123.89-7.64ZM133.22-3.89L133.22-3.89L133.69-3.23Q133.03-2.20 132.19-2.20L132.19-2.20Q131.67-2.20 130.97-2.58L130.97-2.58Q130.22-3.05 129.56-3.05L129.56-3.05Q128.95-3.05 128.53-2.16L128.53-2.16L128.11-2.81Q128.67-3.84 129.61-3.84L129.61-3.84Q130.03-3.84 130.97-3.47L130.97-3.47Q131.77-3.09 132.19-3.05L132.19-3.05Q132.70-3 133.22-3.89Z"
              transform="translate(-0.1875, 8.578125)"></path>
          </g>
        </g>
      </g>
    </g>
  </g>
  <defs v-gra="od"></defs>
</svg>
