<svg data-v-0dd9719b="" version="1.0" xmlns="http://www.w3.org/2000/svg" xmlns:xlink="http://www.w3.org/1999/xlink" preserveAspectRatio="xMidYMid meet"
  color-interpolation-filters="sRGB" style="margin: auto;">
  <g data-v-0dd9719b="" fill="#feffff" class="linesvg" >
    <rect fill="#feffff" height="5" x="0" y="47.05999755859375" width="152.47000122070312"></rect>
    <g fill="#feffff">
      <g data-gra="path-name" fill-rule="" class="tp-name" transform="translate(5.743675231933594,0)">
        <g transform="scale(1)">
          <g>
            <path
              d="M26.81-19.73L26.81-16.04 30.5-16.04 30.5-19.73 26.81-19.73ZM18.28-23.16L18.28-26.63 18.02-26.67Q15.51-23.91 12.22-21.09L12.22-21.09Q12.08-17.75 11.73-14.19L11.73-14.19Q14.28-13.58 15.64-12.5 17.01-11.43 17.31-10.24L17.31-10.24Q18.98-12.44 20.04-14.77L20.04-14.77 13.97-14.77 13.62-16.04 21.49-16.04 21.49-19.73 16-19.73 15.6-20.96 21.49-20.96 21.49-23.55Q20.13-23.16 19.12-23.16L19.12-23.16 18.28-23.16ZM34.58-31.03L34.58-34.5 24.3-34.5 24.3-31.03 34.58-31.03ZM24.3-29.75L24.3-26.28 34.58-26.28 34.58-29.75 24.3-29.75ZM30.5-20.96L30.5-24.61 34.58-24.3 34.58-25 24.3-24.96Q24.3-24.79 23.86-24.48L23.86-24.48 28.48-24.13Q28.34-23.07 26.81-22.81L26.81-22.81 26.81-20.96 30.5-20.96ZM44.6-12.35L44.6-12.35 44.65-11.73Q41.92-9.05 41.66-5.36L41.66-5.36Q39.86-6.24 38.14-7.73L38.14-7.73Q37.75-7.73 37.53-7.78L37.53-7.78Q37.09-7.47 36.36-6.97 35.64-6.46 34.69-5.8 33.75-5.14 33.22-4.79L33.22-4.79Q39.24-4.83 41.22-1.89L41.22-1.89Q42.45-0.04 41.42 1.58 40.39 3.21 38.23 2.72L38.23 2.72Q37.97 2.64 37.71 2.55L37.71 2.55Q36.78 0.88 35.07-0.9 33.35-2.68 31.55-3.91L31.55-3.91 31.55-1.23Q31.55 1.58 30.45 2.79 29.36 4 25.66 4.26L25.66 4.26Q25.58 2.02 25.09 1.19L25.09 1.19Q24.48 0.13 22.9-0.18L22.9-0.18 22.9-0.75Q25.09-0.62 25.62-0.62 26.15-0.62 26.15-1.14L26.15-1.14 26.15-4.22Q23.6-1.49 19.29 2.37L19.29 2.37Q19.07 3.34 18.33 3.65L18.33 3.65 14.63-1.76Q18.94-2.72 26.15-4.92L26.15-4.92 26.15-12.88 33.09-12.3Q32.96-11.38 31.55-11.12L31.55-11.12 31.55-4.66 32.17-4.75Q33.05-8 33.57-10.99L33.57-10.99 36.12-9.76Q34.37-11.73 32.65-14.77L32.65-14.77 27.42-14.77Q25.84-12.13 22.94-9.67L22.94-9.67Q25.36-8.61 25.14-6.77L25.14-6.77Q24.96-5.41 23.6-4.92L23.6-4.92Q22.24-4.39 20.83-5.49L20.83-5.49Q20.83-6.68 20.43-7.87L20.43-7.87Q16.7-5.41 11.03-3.65L11.03-3.65 10.72-4.17Q12.44-5.19 14.37-6.99L14.37-6.99Q13.45-7.08 12.48-7.87L12.48-7.87Q12.44-9.84 11.47-12.39L11.47-12.39Q10.59-6.77 8.31-2.77 6.02 1.23 1.49 4.13L1.49 4.13 1.05 3.52Q4.17-0.7 5.34-6.26 6.5-11.82 6.59-20.3L6.59-20.3Q6.46-18.33 5.32-17.14L5.32-17.14Q3.82-15.64 2.24-16.48L2.24-16.48Q0.83-17.23 0.97-18.94L0.97-18.94Q1.1-20.21 2.2-21.4L2.2-21.4Q2.86-22.37 3.25-24.48 3.65-26.59 3.43-28.83L3.43-28.83 3.96-28.87Q6.46-24.61 6.64-21.27L6.64-21.27Q6.64-23.55 6.57-29.07 6.5-34.58 6.5-37.84L6.5-37.84 13.97-37.18Q13.75-36.08 12.35-35.86L12.35-35.86Q12.35-34.37 12.33-29.82 12.3-25.27 12.26-23.07L12.26-23.07Q13.58-27.64 14.11-30.59L14.11-30.59 18.28-28.04 18.28-38.19 24.61-35.77 34.19-35.77 36.87-38.58 42.32-34.54Q42.01-33.97 40.91-33.79L40.91-33.79 40.91-25.62Q40.91-25.44 40.03-25.11 39.16-24.79 37.9-24.5 36.65-24.21 35.73-24.21L35.73-24.21 37.49-24.08Q37.35-23.03 35.82-22.76L35.82-22.76 35.82-20.96 37-20.96 39.38-24.43Q42.06-22.06 43.59-20.43L43.59-20.43Q43.42-19.73 42.41-19.73L42.41-19.73 35.82-19.73 35.82-16.04 36.43-16.04 39.24-19.6Q42.45-17.18 44.34-15.47L44.34-15.47Q44.21-14.77 43.11-14.77L43.11-14.77 34.54-14.77Q36.47-13.58 39.22-12.94 41.97-12.3 44.6-12.35ZM54.62-14.41L54.62-14.41 57.88-14.41 57.88-23.73 54.8-23.73 54.8-21.09Q54.8-16.7 54.62-14.41ZM57.88-24.96L57.88-34.1 54.8-34.1 54.8-24.96 57.88-24.96ZM57.44-35.38L60.12-38.36 65.57-34.1Q65.13-33.57 63.98-33.31L63.98-33.31 63.98-2.55Q63.98 0.83 62.67 2.37 61.35 3.91 57 4.26L57 4.26Q56.87 0.97 56.29-0.04L56.29-0.04Q55.5-1.49 53.35-1.93L53.35-1.93 53.35-2.5Q56.34-2.33 57.04-2.33L57.04-2.33Q57.88-2.33 57.88-3.21L57.88-3.21 57.88-13.14 54.49-13.14Q53.44-1.71 45.97 4.26L45.97 4.26 45.48 4Q46.67 1.41 47.42-1.6 48.16-4.61 48.47-8.28 48.78-11.95 48.85-14.41 48.91-16.88 48.91-21.09L48.91-21.09 48.91-37.71 55.72-35.38 57.44-35.38ZM78.75-19.25L80.64-19.25 83.8-23.77Q87.36-20.7 89.38-18.72L89.38-18.72Q89.25-18.02 88.11-18.02L88.11-18.02 78.75-18.02 78.75 2.64Q78.75 2.86 78.18 3.25 77.61 3.65 76.33 4.02 75.06 4.39 73.52 4.39L73.52 4.39 72.38 4.39 72.38-18.02 64.91-18.02 64.51-19.25 72.38-19.25 72.38-33.18 65.92-33.18 65.57-34.41 79.8-34.41 82.84-38.67Q86.31-35.77 88.33-33.88L88.33-33.88Q88.15-33.18 87.06-33.18L87.06-33.18 78.75-33.18 78.75-19.25ZM104.24-27.64L99.71-12.26 109.12-12.26 104.24-27.64ZM109.29-33.75L120.1-1.93 123.71-1.54 123.71 0 108.37 0 108.37-1.54 112.37-1.98 109.6-10.68 99.27-10.68 96.81-2.11 101.03-1.54 101.03 0 90.7 0 90.7-1.54 94.44-2.07 104.63-33.75 109.29-33.75ZM141.94-33.62L141.94-32.08 137.94-31.73Q137.86-27.16 137.86-17.75L137.86-17.75 137.86-15.82Q137.86-6.55 137.94-1.93L137.94-1.93 141.94-1.54 141.94 0 126.08 0 126.08-1.54 130.12-1.93Q130.25-6.46 130.25-15.78L130.25-15.78 130.25-17.75Q130.25-27.11 130.12-31.73L130.12-31.73 126.08-32.08 126.08-33.62 141.94-33.62Z"
              transform="translate(-0.9573547840118408, 38.66999816894531)"></path>
          </g>
          <!---->
          <!---->
          <!---->
          <!---->
          <!---->
          <!---->
          <!---->
        </g>
      </g>
      <g data-gra="path-slogan" fill-rule="" class="tp-slogan" fill="#feffff"
        transform="translate(0,56.05999755859375)">
        <!---->
        <!---->
        <g mask="url(#82fefd1f-766e-4ee1-b3ef-9c18eea57202)">
          <g>
            <rect data-gra="graph-name-bg" stroke-width="2" class="i-icon-bg" x="0" y="0" width="152.47000122070312"
              height="12.579999923706055" fill-opacity="1"></rect>
            <!---->
            <!---->
          </g>
          <g transform="translate(5,2)">
            <g transform="scale(1, 1)" fill="#131137">
              <g transform="scale(1)">
                <path
                  d="M6.56 0L5.72-2.48L2.25-2.48L1.36 0L0.19 0L3.42-8.58L4.73-8.58L7.83 0L6.56 0ZM3.98-7.31L2.63-3.52L5.30-3.52L4.03-7.31L3.98-7.31ZM9.52-8.58L10.69-8.58L10.69 0L9.52 0L9.52-8.58ZM25.18-8.58L25.18 0L24.06 0L24.06-5.06Q24.06-5.77 24.06-7.22L24.06-7.22L21.62 0L20.45 0L18.06-7.22L18.01-7.22Q18.01-6.70 18.06-5.67L18.06-5.67Q18.06-5.16 18.06-5.06L18.06-5.06L18.06 0L16.89 0L16.89-8.58L18.57-8.58L21.06-1.31L23.49-8.58L25.18-8.58ZM33.01 0L32.17-2.48L28.70-2.48L27.81 0L26.64 0L29.87-8.58L31.19-8.58L34.28 0L33.01 0ZM30.44-7.31L29.08-3.52L31.75-3.52L30.48-7.31L30.44-7.31ZM38.31-4.31L36.95-3.05L36.95 0L35.78 0L35.78-8.58L36.95-8.58L36.95-4.41L41.13-8.58L42.77-8.58L39.16-5.11L42.86 0L41.31 0L38.31-4.31ZM45.54-1.03L50.69-1.03L50.69 0L44.36 0L44.36-8.58L50.60-8.58L50.60-7.59L45.54-7.59L45.54-4.92L50.22-4.92L50.22-3.89L45.54-3.89L45.54-1.03ZM56.46-8.58L57.64-8.58L57.64-1.03L62.00-1.03L62.00 0L56.46 0L56.46-8.58ZM63.78-8.58L64.95-8.58L64.95 0L63.78 0L63.78-8.58ZM72.92-3.89L68.71-3.89L68.71 0L67.53 0L67.53-8.58L73.49-8.58L73.49-7.59L68.71-7.59L68.71-4.92L72.92-4.92L72.92-3.89ZM76.44-1.03L81.60-1.03L81.60 0L75.27 0L75.27-8.58L81.51-8.58L81.51-7.59L76.44-7.59L76.44-4.92L81.13-4.92L81.13-3.89L76.44-3.89L76.44-1.03ZM90.61-7.64L88.54-7.64L88.54-4.97L90.61-4.97Q92.43-4.92 92.39-6.38L92.39-6.38Q92.39-7.64 90.61-7.64L90.61-7.64ZM91.08 0L87.37 0L87.37-8.58L91.17-8.58Q93.47-8.48 93.56-6.42L93.56-6.42Q93.56-5.16 92.43-4.64L92.43-4.64Q94.03-4.08 94.03-2.53L94.03-2.53Q93.89-0.09 91.08 0L91.08 0ZM90.79-3.98L88.54-3.98L88.54-0.98L91.03-0.98Q92.81-1.03 92.86-2.53L92.86-2.53Q92.86-3.98 90.79-3.98L90.79-3.98ZM97.13-1.03L102.28-1.03L102.28 0L95.95 0L95.95-8.58L102.19-8.58L102.19-7.59L97.13-7.59L97.13-4.92L101.81-4.92L101.81-3.89L97.13-3.89L97.13-1.03ZM106.46-7.59L103.55-7.59L103.55-8.58L110.49-8.58L110.49-7.59L107.58-7.59L107.58 0L106.46 0L106.46-7.59ZM114.19-7.59L111.29-7.59L111.29-8.58L118.23-8.58L118.23-7.59L115.32-7.59L115.32 0L114.19 0L114.19-7.59ZM121.04-1.03L126.20-1.03L126.20 0L119.87 0L119.87-8.58L126.10-8.58L126.10-7.59L121.04-7.59L121.04-4.92L125.73-4.92L125.73-3.89L121.04-3.89L121.04-1.03ZM132.30-3.70L129.48-3.70L129.48 0L128.31 0L128.31-8.58L132.30-8.58Q135.15-8.58 135.15-6.28L135.15-6.28Q135.15-4.88 133.94-4.22L133.94-4.22Q134.97-3.94 134.97-2.58L134.97-2.58L135.06-1.03Q135.01-0.38 135.48-0.19L135.48-0.19L135.48 0L134.03 0Q133.89-0.61 133.84-2.16L133.84-2.16Q133.89-3.70 132.30-3.70L132.30-3.70ZM132.39-7.64L129.48-7.64L129.48-4.69L132.20-4.69Q133.94-4.69 133.94-6.19L133.94-6.19Q133.94-7.64 132.39-7.64L132.39-7.64ZM142.19-3.89L142.19-3.89L142.66-3.23Q142.00-2.20 141.16-2.20L141.16-2.20Q140.64-2.20 139.94-2.58L139.94-2.58Q139.19-3.05 138.53-3.05L138.53-3.05Q137.92-3.05 137.50-2.16L137.50-2.16L137.08-2.81Q137.64-3.84 138.58-3.84L138.58-3.84Q139.00-3.84 139.94-3.47L139.94-3.47Q140.74-3.09 141.16-3.05L141.16-3.05Q141.67-3 142.19-3.89Z"
                  transform="translate(-0.1875, 8.578125)"></path>
              </g>
            </g>
          </g>
        </g>
      </g>
    </g>
  </g>
  <mask id="82fefd1f-766e-4ee1-b3ef-9c18eea57202">
    <g fill="white">
      <rect data-gra="graph-name-bg" stroke-width="2" class="i-icon-bg" x="0" y="0" width="152.47000122070312"
        height="12.579999923706055" fill-opacity="1"></rect>
    </g>
    <g transform="translate(5,2)" fill="black">
      <g transform="scale(1, 1)">
        <g transform="scale(1)">
          <path
            d="M6.56 0L5.72-2.48L2.25-2.48L1.36 0L0.19 0L3.42-8.58L4.73-8.58L7.83 0L6.56 0ZM3.98-7.31L2.63-3.52L5.30-3.52L4.03-7.31L3.98-7.31ZM9.52-8.58L10.69-8.58L10.69 0L9.52 0L9.52-8.58ZM25.18-8.58L25.18 0L24.06 0L24.06-5.06Q24.06-5.77 24.06-7.22L24.06-7.22L21.62 0L20.45 0L18.06-7.22L18.01-7.22Q18.01-6.70 18.06-5.67L18.06-5.67Q18.06-5.16 18.06-5.06L18.06-5.06L18.06 0L16.89 0L16.89-8.58L18.57-8.58L21.06-1.31L23.49-8.58L25.18-8.58ZM33.01 0L32.17-2.48L28.70-2.48L27.81 0L26.64 0L29.87-8.58L31.19-8.58L34.28 0L33.01 0ZM30.44-7.31L29.08-3.52L31.75-3.52L30.48-7.31L30.44-7.31ZM38.31-4.31L36.95-3.05L36.95 0L35.78 0L35.78-8.58L36.95-8.58L36.95-4.41L41.13-8.58L42.77-8.58L39.16-5.11L42.86 0L41.31 0L38.31-4.31ZM45.54-1.03L50.69-1.03L50.69 0L44.36 0L44.36-8.58L50.60-8.58L50.60-7.59L45.54-7.59L45.54-4.92L50.22-4.92L50.22-3.89L45.54-3.89L45.54-1.03ZM56.46-8.58L57.64-8.58L57.64-1.03L62.00-1.03L62.00 0L56.46 0L56.46-8.58ZM63.78-8.58L64.95-8.58L64.95 0L63.78 0L63.78-8.58ZM72.92-3.89L68.71-3.89L68.71 0L67.53 0L67.53-8.58L73.49-8.58L73.49-7.59L68.71-7.59L68.71-4.92L72.92-4.92L72.92-3.89ZM76.44-1.03L81.60-1.03L81.60 0L75.27 0L75.27-8.58L81.51-8.58L81.51-7.59L76.44-7.59L76.44-4.92L81.13-4.92L81.13-3.89L76.44-3.89L76.44-1.03ZM90.61-7.64L88.54-7.64L88.54-4.97L90.61-4.97Q92.43-4.92 92.39-6.38L92.39-6.38Q92.39-7.64 90.61-7.64L90.61-7.64ZM91.08 0L87.37 0L87.37-8.58L91.17-8.58Q93.47-8.48 93.56-6.42L93.56-6.42Q93.56-5.16 92.43-4.64L92.43-4.64Q94.03-4.08 94.03-2.53L94.03-2.53Q93.89-0.09 91.08 0L91.08 0ZM90.79-3.98L88.54-3.98L88.54-0.98L91.03-0.98Q92.81-1.03 92.86-2.53L92.86-2.53Q92.86-3.98 90.79-3.98L90.79-3.98ZM97.13-1.03L102.28-1.03L102.28 0L95.95 0L95.95-8.58L102.19-8.58L102.19-7.59L97.13-7.59L97.13-4.92L101.81-4.92L101.81-3.89L97.13-3.89L97.13-1.03ZM106.46-7.59L103.55-7.59L103.55-8.58L110.49-8.58L110.49-7.59L107.58-7.59L107.58 0L106.46 0L106.46-7.59ZM114.19-7.59L111.29-7.59L111.29-8.58L118.23-8.58L118.23-7.59L115.32-7.59L115.32 0L114.19 0L114.19-7.59ZM121.04-1.03L126.20-1.03L126.20 0L119.87 0L119.87-8.58L126.10-8.58L126.10-7.59L121.04-7.59L121.04-4.92L125.73-4.92L125.73-3.89L121.04-3.89L121.04-1.03ZM132.30-3.70L129.48-3.70L129.48 0L128.31 0L128.31-8.58L132.30-8.58Q135.15-8.58 135.15-6.28L135.15-6.28Q135.15-4.88 133.94-4.22L133.94-4.22Q134.97-3.94 134.97-2.58L134.97-2.58L135.06-1.03Q135.01-0.38 135.48-0.19L135.48-0.19L135.48 0L134.03 0Q133.89-0.61 133.84-2.16L133.84-2.16Q133.89-3.70 132.30-3.70L132.30-3.70ZM132.39-7.64L129.48-7.64L129.48-4.69L132.20-4.69Q133.94-4.69 133.94-6.19L133.94-6.19Q133.94-7.64 132.39-7.64L132.39-7.64ZM142.19-3.89L142.19-3.89L142.66-3.23Q142.00-2.20 141.16-2.20L141.16-2.20Q140.64-2.20 139.94-2.58L139.94-2.58Q139.19-3.05 138.53-3.05L138.53-3.05Q137.92-3.05 137.50-2.16L137.50-2.16L137.08-2.81Q137.64-3.84 138.58-3.84L138.58-3.84Q139.00-3.84 139.94-3.47L139.94-3.47Q140.74-3.09 141.16-3.05L141.16-3.05Q141.67-3 142.19-3.89Z"
            transform="translate(-0.1875, 8.578125)"></path>
        </g>
      </g>
    </g>
  </mask>
  <defs v-gra="od"></defs>
</svg>
