<svg data-v-0dd9719b="" version="1.0" xmlns="http://www.w3.org/2000/svg" xmlns:xlink="http://www.w3.org/1999/xlink" preserveAspectRatio="xMidYMid meet"
  color-interpolation-filters="sRGB" style="margin: auto;">
  <g data-v-0dd9719b="" fill="#0a0a0a" class="iconlinesvg-g iconlinesvg">
    <g class="tp-name" transform="translate(0,0)">
      <g transform="translate(0, 0)">
        <g data-gra="path-name" fill="#0a0a0a" transform="scale(1)">
          <path
            d="M33.44-32.78L33.44-32.78Q35.73-34.37 37.13-32.08L37.13-32.08Q38.67-29.00 35.64-25.05L35.64-25.05Q34.32-23.20 33.22-22.90L33.22-22.90Q32.34-22.50 32.52-21.75L32.52-21.75Q32.83-20.26 34.06-20.70L34.06-20.70Q35.42-21.18 36.30-19.86L36.30-19.86Q36.74-19.16 35.99-18.59L35.99-18.59Q34.72-17.97 32.92-17.84L32.92-17.84Q31.42-17.09 31.73-15.64L31.73-15.64Q31.95-15.38 33.27-15.34L33.27-15.34Q36.91-15.73 39.68-15.60L39.68-15.60Q41.48-14.19 40.83-13.10L40.83-13.10Q40.56-12.52 39.29-12.83L39.29-12.83Q36.87-12.96 34.10-12.88L34.10-12.88Q33.13-12.30 34.63-11.21L34.63-11.21Q37.35-8.88 41.35-6.50L41.35-6.50Q43.02-4.97 41.53-5.10L41.53-5.10Q40.83-5.10 40.08-4.97L40.08-4.97Q38.19-3.65 35.77-6.15L35.77-6.15Q34.67-7.21 33.93-6.64L33.93-6.64Q31.42-5.67 30.50-5.05L30.50-5.05Q29.18-3.52 30.89-2.68L30.89-2.68Q32.56-2.46 34.41-1.85L34.41-1.85Q37.53-0.57 36.65 1.93L36.65 1.93Q36.25 2.86 35.02 2.59L35.02 2.59Q33.75 2.29 31.82 0.22L31.82 0.22Q30.63-0.75 30.32-0.75L30.32-0.75Q29.97-0.57 29.79 0.57L29.79 0.57Q29.40 4.04 25.84 5.58L25.84 5.58Q24.17 6.99 23.95 4.88L23.95 4.88Q23.77 4.00 23.25 3.08L23.25 3.08Q22.41 2.07 23.69 2.29L23.69 2.29Q25.66 2.64 26.28 0.22L26.28 0.22Q26.63-2.99 26.32-9.49L26.32-9.49Q26.46-10.24 25.40-10.46L25.40-10.46Q24.48-10.28 23.25-9.01L23.25-9.01Q22.50-8.13 23.33-7.56L23.33-7.56Q24.83-6.28 24.61-4.97L24.61-4.97Q24.57-4.26 24.39-4.17L24.39-4.17Q22.63-4.57 21.58-5.45L21.58-5.45Q20.61-7.16 19.12-5.19L19.12-5.19Q17.62-3.74 16.00-2.77L16.00-2.77Q14.55-1.89 15.16-3.16L15.16-3.16Q16.83-6.28 20.13-9.89L20.13-9.89Q20.26-10.15 20.26-10.33L20.26-10.33Q20.08-10.55 18.76-10.33L18.76-10.33Q16.92-9.45 15.78-10.63L15.78-10.63Q15.16-12.04 17.36-12.52L17.36-12.52Q19.12-13.05 20.87-13.40L20.87-13.40Q23.55-13.54 22.76-15.42L22.76-15.42Q22.10-16.22 20.79-15.73L20.79-15.73Q19.25-15.78 18.94-17.23L18.94-17.23Q18.98-18.06 20.61-18.19L20.61-18.19Q23.25-17.97 23.42-20.17L23.42-20.17Q23.25-20.39 22.76-20.52L22.76-20.52Q22.15-20.79 21.36-22.06L21.36-22.06Q18.63-25.84 19.60-30.63L19.60-30.63Q19.95-32.52 21.53-32.26L21.53-32.26Q22.41-31.73 23.29-31.64L23.29-31.64Q27.91-32.52 31.82-32.52L31.82-32.52Q32.70-32.52 33.44-32.78ZM10.46-30.15L10.46-30.15Q11.21-32.96 13.01-30.81L13.01-30.81Q14.19-29.22 13.97-27.29L13.97-27.29Q13.71-24.79 13.84-23.69L13.84-23.69Q14.33-22.94 15.21-24.26L15.21-24.26Q16.22-25.84 17.58-25.44L17.58-25.44Q18.15-25.09 18.46-23.77L18.46-23.77Q18.24-22.15 16.61-21.75L16.61-21.75Q14.02-21.09 13.18-18.33L13.18-18.33Q13.01-15.78 12.52-13.05L12.52-13.05Q11.87-11.69 13.49-10.50L13.49-10.50Q15.16-8.26 13.84-6.33L13.84-6.33Q12.88-5.67 11.91-6.90L11.91-6.90Q11.07-8.31 10.28-6.50L10.28-6.50Q7.78-2.46 4.79 0.04L4.79 0.04Q3.25 1.05 3.82-0.53L3.82-0.53Q4.70-2.29 5.76-4.04L5.76-4.04Q8.09-7.65 8.70-11.07L8.70-11.07Q10.33-19.12 10.06-28.39L10.06-28.39Q10.11-29.27 10.46-30.15ZM33.35-30.98L33.35-30.98Q32.87-31.60 31.68-30.81L31.68-30.81Q29.14-29.97 24.65-28.92L24.65-28.92Q22.50-28.56 22.98-26.10L22.98-26.10Q23.03-25.27 23.38-24.43L23.38-24.43Q23.99-23.33 25.31-23.51L25.31-23.51Q27.69-23.95 30.06-24.26L30.06-24.26Q31.51-24.43 32.26-26.19L32.26-26.19Q33.75-28.87 33.35-30.98ZM29.84-28.56L29.84-28.56Q31.29-28.56 31.16-27.47L31.16-27.47Q31.07-27.20 29.75-26.54L29.75-26.54Q27.42-25.31 25.14-25.31L25.14-25.31Q23.73-25.62 24.30-26.81L24.30-26.81Q26.37-27.86 29.84-28.56ZM4.35-23.51L4.35-23.51Q5.32-24.79 6.33-24.48L6.33-24.48Q7.08-24.08 7.34-22.98L7.34-22.98Q7.95-20.65 7.38-15.34L7.38-15.34Q6.94-13.84 6.59-13.89L6.59-13.89Q5.36-14.37 4.66-16.61L4.66-16.61Q4.26-18.19 4.09-20.13L4.09-20.13Q3.78-22.19 4.35-23.51ZM28.08-21.67L28.08-21.67Q26.10-21.23 26.63-19.34L26.63-19.34Q26.85-19.16 28.13-19.25L28.13-19.25Q28.78-19.25 29.09-19.91L29.09-19.91Q29.62-21.58 28.08-21.67ZM26.98-16.96L26.98-16.96Q25.71-16.83 25.66-15.78L25.66-15.78Q25.27-13.80 27.16-14.46L27.16-14.46Q28.83-14.81 28.78-16.22L28.78-16.22Q28.56-17.23 26.98-16.96ZM27.03-12.30L27.03-12.30Q26.28-12.13 26.10-11.60L26.10-11.60Q25.97-10.99 27.25-10.33L27.25-10.33Q29.05-9.58 29.49-8.31L29.49-8.31Q29.62-7.43 29.75-7.21L29.75-7.21Q30.32-6.77 31.25-7.73L31.25-7.73Q33.22-8.70 31.86-10.15L31.86-10.15Q29.53-12.57 27.03-12.30ZM22.76-1.71L22.76-1.71Q24.26-2.29 23.07-1.10L23.07-1.10Q20.83 1.14 20.52 2.15L20.52 2.15Q19.73 4.00 18.11 2.72L18.11 2.72Q16.57 1.10 18.37 0.35L18.37 0.35Q20.83-0.97 22.76-1.71Z"
            transform="translate(-3.66851806640625, 33.43039772727273)"></path>
        </g>
      </g>
      <g transform="translate(42, 0)">
        <g data-gra="path-name" fill="#0a0a0a" transform="scale(1)">
          <path
            d="M32.12-30.32L32.12-30.32Q33.66-31.11 35.38-29.93L35.38-29.93Q37.00-28.39 35.68-26.85L35.68-26.85Q34.06-25.80 32.65-25.40L32.65-25.40Q31.64-25.18 31.20-24.08L31.20-24.08Q31.07-20.43 31.16-18.85L31.16-18.85Q31.42-18.59 32.74-18.59L32.74-18.59Q36.65-19.25 38.98-19.34L38.98-19.34Q41.35-18.68 41.79-16.44L41.79-16.44Q41.92-15.34 41.70-15.07L41.70-15.07Q41.44-14.85 40.12-14.81L40.12-14.81Q36.65-14.68 33.13-14.37L33.13-14.37Q31.99-14.24 31.73-13.97L31.73-13.97Q31.11-13.14 31.38-11.21L31.38-11.21Q31.38-4.92 31.03 1.76L31.03 1.76Q30.94 2.94 29.27 4.35L29.27 4.35Q28.13 5.93 27.77 4.39L27.77 4.39Q26.94-0.22 27.03-5.14L27.03-5.14Q27.03-8.48 26.85-11.87L26.85-11.87Q26.72-12.35 26.10-12.30L26.10-12.30Q25.36-12.13 24.57-11.78L24.57-11.78Q22.72-11.07 21.05-12.13L21.05-12.13Q18.90-13.49 19.42-15.16L19.42-15.16Q20.04-16.04 21.36-16.35L21.36-16.35Q23.55-16.92 25.75-17.31L25.75-17.31Q26.81-17.53 27.03-18.41L27.03-18.41L27.07-21.23Q27.64-23.47 25.58-23.42L25.58-23.42Q23.29-23.20 21.75-25.93L21.75-25.93Q21.14-27.47 23.33-27.91L23.33-27.91Q27.38-28.70 32.12-30.32ZM14.99-29.97L14.99-29.97Q16.66-30.45 17.45-28.26L17.45-28.26Q17.93-19.16 18.06-1.76L18.06-1.76Q17.97 0.13 16.48 1.71L16.48 1.71Q15.91 1.98 14.85 3.30L14.85 3.30Q13.75 5.01 12.70 4.26L12.70 4.26Q12.08 3.60 11.82 2.24L11.82 2.24Q11.65 1.63 10.77 0.88L10.77 0.88Q9.40-0.09 10.72 0.13L10.72 0.13Q12.26 0.40 13.32-0.53L13.32-0.53Q13.97-1.49 13.75-4.00L13.75-4.00L13.89-8.88Q13.80-9.93 13.54-10.15L13.54-10.15Q13.23-10.15 12.17-9.10L12.17-9.10Q10.99-8.17 9.84-8.31L9.84-8.31Q8.83-8.39 8.57-8.09L8.57-8.09Q8.22-7.51 8.04-6.42L8.04-6.42Q7.12-1.49 5.32 2.37L5.32 2.37Q4.39 4.17 4.26 2.81L4.26 2.81Q6.20-12.17 7.29-28.34L7.29-28.34Q8.00-30.23 9.45-29.27L9.45-29.27Q10.02-29.05 11.07-29.09L11.07-29.09Q13.45-28.65 14.99-29.97ZM12.35-26.76L12.35-26.76Q11.69-26.24 11.03-25.93L11.03-25.93Q10.02-25.31 9.89-23.91L9.89-23.91L9.80-22.19Q9.84-21.14 10.02-20.92L10.02-20.92Q11.16-20.74 12.00-20.21L12.00-20.21Q13.23-19.42 13.54-19.42L13.54-19.42Q13.89-19.64 13.97-21.05L13.97-21.05L13.97-25.62Q13.84-27.51 12.35-26.76ZM11.69-17.14L11.69-17.14Q11.34-17.14 10.99-17.27L10.99-17.27Q9.71-17.75 9.49-16.44L9.49-16.44L9.27-13.27Q9.14-12.13 9.36-11.95L9.36-11.95Q9.93-11.69 11.03-12.13L11.03-12.13Q11.91-12.44 12.79-12.61L12.79-12.61Q14.33-13.18 13.93-15.12L13.93-15.12Q13.93-16.61 13.58-16.92L13.58-16.92Q13.05-17.23 11.69-17.14Z"
            transform="translate(-4.2626953125, 33.43039772727273)"></path>
        </g>
      </g>
      <g transform="translate(83, 0.03303592538926026)">
        <g>
          <g class="imagesvg">
            <g>
              <rect fill="#0a0a0a" fill-opacity="0" stroke-width="2" x="0" y="0" width="45.15592716942282"
                height="39.507880563994206" class="image-rect"></rect> <svg x="0" y="0" width="45.15592716942282"
                height="39.507880563994206" filtersec="colorsb1579656228" class="image-svg-svg primary"
                style="overflow: visible;"><svg xmlns="http://www.w3.org/2000/svg"
                  viewBox="0.47069674730300903 -0.008253796026110649 99.05030822753906 86.6612548828125">
                  <path fill="#0A0A0A"
                    d="M99.521 83.617c0-.221-.083-.435-.248-.656-.38-.876-.656-1.338-.821-1.394L55.789 7.627C53.933 4.35 52.76 2.438 52.27 1.893c-.166-.545-.655-1.09-1.477-1.635a2.982 2.982 0 0 0-1.552-.249c-.821.166-1.477.573-1.966 1.229L32.695 27.03 3.867 76.413C1.955 79.415.865 81.733.589 83.375l-.083.656v.083c-.165 1.09.249 1.883 1.229 2.373l1.31.166 68.87-.49 26.371-.573.821-.248.166-.325c.166-.165.248-.634.248-1.4m-61.5-55.766l11.627-20.39 42.828 73.375h-23.17L50.794 48.572C44.245 37.704 40.23 31.128 38.753 28.838a4.583 4.583 0 0 0-.731-.987m-2.947 4.83l9.66 15.235 18.589 32.837H39.823L25.167 54.878c-.766-1.476-1.283-2.29-1.553-2.456L35.075 32.68M7.724 80.836l13.593-22.439 13.103 21.95-24.074.49H7.724z">
                  </path>
                </svg></svg>
              <!---->
            </g>
          </g>
        </g>
      </g>
      <g transform="translate(132, 0)">
        <g data-gra="path-name" fill="#0a0a0a" transform="scale(1)">
          <path
            d="M3.65-29.44L3.65-29.44Q3.74-29.71 4.48-29.93Q5.23-30.15 5.93-30.19L5.93-30.19Q6.81-30.19 7.54-29.90Q8.26-29.62 8.79-29.25Q9.32-28.87 9.60-28.48Q9.89-28.08 9.89-27.86L9.89-27.86Q9.89-27.69 9.84-27.38Q9.80-27.07 9.73-26.74Q9.67-26.41 9.60-26.10Q9.54-25.80 9.54-25.62L9.54-25.62Q9.49-24.35 9.45-22.70Q9.40-21.05 9.38-19.27Q9.36-17.49 9.34-15.69Q9.32-13.89 9.32-12.30L9.32-12.30Q9.32-11.12 9.34-9.47Q9.36-7.82 9.40-6.11Q9.45-4.39 9.47-2.83Q9.49-1.27 9.49-0.35L9.49-0.35Q9.49 0.53 9.36 1.08Q9.23 1.63 8.99 1.93Q8.75 2.24 8.44 2.33Q8.13 2.42 7.73 2.42L7.73 2.42Q7.16 2.42 6.50 2.20Q5.84 1.98 5.27 1.58Q4.70 1.19 4.31 0.62Q3.91 0.04 3.91-0.62L3.91-0.62Q4.09-2.07 4.22-6.92Q4.35-11.78 4.35-19.47L4.35-19.47Q4.35-23.03 4.11-25.53Q3.87-28.04 3.65-29.44Z"
            transform="translate(-3.6474609375, 33.43039772727273)"></path>
        </g>
      </g>
    </g>
    <g data-gra="path-slogan" fill-rule="" class="tp-slogan" fill="#0a0a0a"
      transform="translate(2.3725204467773438,45.57637405395508)">
      <!---->
      <!---->
      <g transform="scale(1, 1)">
        <g transform="scale(1)">
          <path
            d="M6.56 0L5.72-2.48L2.25-2.48L1.36 0L0.19 0L3.42-8.58L4.73-8.58L7.83 0L6.56 0ZM3.98-7.31L2.63-3.52L5.30-3.52L4.03-7.31L3.98-7.31ZM9.05-8.58L10.22-8.58L10.22 0L9.05 0L9.05-8.58ZM23.77-8.58L23.77 0L22.64 0L22.64-5.06Q22.64-5.77 22.64-7.22L22.64-7.22L20.20 0L19.03 0L16.64-7.22L16.59-7.22Q16.59-6.70 16.64-5.67L16.64-5.67Q16.64-5.16 16.64-5.06L16.64-5.06L16.64 0L15.47 0L15.47-8.58L17.16-8.58L19.64-1.31L22.08-8.58L23.77-8.58ZM31.13 0L30.28-2.48L26.81-2.48L25.92 0L24.75 0L27.98-8.58L29.30-8.58L32.39 0L31.13 0ZM28.55-7.31L27.19-3.52L29.86-3.52L28.59-7.31L28.55-7.31ZM35.95-4.31L34.59-3.05L34.59 0L33.42 0L33.42-8.58L34.59-8.58L34.59-4.41L38.77-8.58L40.41-8.58L36.80-5.11L40.50 0L38.95 0L35.95-4.31ZM42.70-1.03L47.86-1.03L47.86 0L41.53 0L41.53-8.58L47.77-8.58L47.77-7.59L42.70-7.59L42.70-4.92L47.39-4.92L47.39-3.89L42.70-3.89L42.70-1.03ZM52.69-8.58L53.86-8.58L53.86-1.03L58.22-1.03L58.22 0L52.69 0L52.69-8.58ZM59.53-8.58L60.70-8.58L60.70 0L59.53 0L59.53-8.58ZM68.20-3.89L63.98-3.89L63.98 0L62.81 0L62.81-8.58L68.77-8.58L68.77-7.59L63.98-7.59L63.98-4.92L68.20-4.92L68.20-3.89ZM71.25-1.03L76.41-1.03L76.41 0L70.08 0L70.08-8.58L76.31-8.58L76.31-7.59L71.25-7.59L71.25-4.92L75.94-4.92L75.94-3.89L71.25-3.89L71.25-1.03ZM84.47-7.64L82.41-7.64L82.41-4.97L84.47-4.97Q86.30-4.92 86.25-6.38L86.25-6.38Q86.25-7.64 84.47-7.64L84.47-7.64ZM84.94 0L81.23 0L81.23-8.58L85.03-8.58Q87.33-8.48 87.42-6.42L87.42-6.42Q87.42-5.16 86.30-4.64L86.30-4.64Q87.89-4.08 87.89-2.53L87.89-2.53Q87.75-0.09 84.94 0L84.94 0ZM84.66-3.98L82.41-3.98L82.41-0.98L84.89-0.98Q86.67-1.03 86.72-2.53L86.72-2.53Q86.72-3.98 84.66-3.98L84.66-3.98ZM90.52-1.03L95.67-1.03L95.67 0L89.34 0L89.34-8.58L95.58-8.58L95.58-7.59L90.52-7.59L90.52-4.92L95.20-4.92L95.20-3.89L90.52-3.89L90.52-1.03ZM99.38-7.59L96.47-7.59L96.47-8.58L103.41-8.58L103.41-7.59L100.50-7.59L100.50 0L99.38 0L99.38-7.59ZM106.64-7.59L103.73-7.59L103.73-8.58L110.67-8.58L110.67-7.59L107.77-7.59L107.77 0L106.64 0L106.64-7.59ZM113.02-1.03L118.17-1.03L118.17 0L111.84 0L111.84-8.58L118.08-8.58L118.08-7.59L113.02-7.59L113.02-4.92L117.70-4.92L117.70-3.89L113.02-3.89L113.02-1.03ZM123.80-3.70L120.98-3.70L120.98 0L119.81 0L119.81-8.58L123.80-8.58Q126.66-8.58 126.66-6.28L126.66-6.28Q126.66-4.88 125.44-4.22L125.44-4.22Q126.47-3.94 126.47-2.58L126.47-2.58L126.56-1.03Q126.52-0.38 126.98-0.19L126.98-0.19L126.98 0L125.53 0Q125.39-0.61 125.34-2.16L125.34-2.16Q125.39-3.70 123.80-3.70L123.80-3.70ZM123.89-7.64L120.98-7.64L120.98-4.69L123.70-4.69Q125.44-4.69 125.44-6.19L125.44-6.19Q125.44-7.64 123.89-7.64L123.89-7.64ZM133.22-3.89L133.22-3.89L133.69-3.23Q133.03-2.20 132.19-2.20L132.19-2.20Q131.67-2.20 130.97-2.58L130.97-2.58Q130.22-3.05 129.56-3.05L129.56-3.05Q128.95-3.05 128.53-2.16L128.53-2.16L128.11-2.81Q128.67-3.84 129.61-3.84L129.61-3.84Q130.03-3.84 130.97-3.47L130.97-3.47Q131.77-3.09 132.19-3.05L132.19-3.05Q132.70-3 133.22-3.89Z"
            transform="translate(-0.1875, 8.578125)"></path>
        </g>
      </g>
    </g>
  </g>
  <defs v-gra="od"></defs>
</svg>
