<svg data-v-0dd9719b="" viewBox="0,0,200,200" version="1.0" xmlns="http://www.w3.org/2000/svg" xmlns:xlink="http://www.w3.org/1999/xlink"
preserveAspectRatio="xMidYMid meet"
  color-interpolation-filters="sRGB" style="margin: auto;">
  <g data-v-0dd9719b="" fill="#feffff" class="linesvg" >
    <rect fill="#feffff" x="0" y="0" width="155.11000061035156" height="5"></rect>
    <g fill="#feffff" transform="translate(0,10)">
      <g data-gra="path-name" fill-rule="" class="tp-name" transform="translate(5.709999084472656,0)">
        <g transform="scale(1)">
          <g>
            <path
              d="M34.52-8.96L37.57-6.34Q36.67-5.08 35.1-3.6L35.1-3.6 40.81-0.22 38.7 3.24 30.82-1.48 30.82 4.41 23.85 2.02 25.65 1.57 25.65-1.4 18.59 3.19 17.91 0.81 16.74-0.49 22.36-3.92 20.16-6.21 22.95-8.91 25.61-6.21 25.61-11.56 30.82-11.56 30.82-6.12 31.59-5.67Q33.57-7.74 34.52-8.96L34.52-8.96ZM26.5-16.25L30.6-16.25 30.6-18.04 26.5-18.04 26.5-16.25ZM11.97-13.95L15.07-7.92Q17.59-10.44 19.26-12.29L19.26-12.29 15.39-12.24 15.62-14.94 15.16-16.25 21.78-16.25 21.78-18 16.47-17.91 16.7-20.47 16.25-21.69 21.78-21.69 21.78-22.77Q21.78-23.27 21.73-23.45L21.73-23.45 17.73-23.45 17.86-26.95Q16.29-23.67 13.86-19.48L13.86-19.48 11.65-21.11 11.52-21.11 10.53-13.32 11.97-13.95ZM34.29-33.57L22.9-33.57 22.9-31.95 34.29-31.95 34.29-33.57ZM34.29-27.18L34.29-28.98Q26.64-28.98 22.9-28.93L22.9-28.93 22.9-27.18 34.29-27.18ZM30.6-21.69L30.6-22.81Q30.6-23.27 30.55-23.45L30.55-23.45 26.5-23.45 26.5-21.69 30.6-21.69ZM37.53-12.33L44.05-7.74 42.7-6.66 42.07-3.6 31.5-11.25 32.31-12.33 25.56-12.33Q21.91-8.28 18-4.68L18-4.68 16.29-7.15 15.25-7.51 17.46-3.19 13.32-1.21 9.86-8.19Q8.78-0.18 8.32 2.88L8.32 2.88 5.22 2.7 2.97 4.41Q5.04-10.48 6.21-19.93L6.21-19.93 4-19.08 0.94-27.58 4.72-28.98 6.71-23.67 8.37-37.08 13.68-37.08 12.01-24.79Q13.5-27.72 14.58-30.11L14.58-30.11 17.91-28.53 18.22-37.03 38.07-36.95Q39.1-36.9 39.42-36.59L39.42-36.59Q39.78-36.27 39.73-35.41L39.73-35.41Q39.55-29.74 39.42-23.45L39.42-23.45 35.59-23.45 35.59-21.69 41.67-21.69 41.17-17.95Q39.38-18 35.59-18L35.59-18 35.59-16.25 42.48-16.25 41.89-12.29 37.53-12.33ZM53.87-15.84L58.95-15.84 58.99-20.38Q56.61-20.47 54-20.38L54-20.38 53.87-15.84ZM59.04-25.56L59.09-30.55 54.36-30.55 54.18-25.56 59.04-25.56ZM59.13-36.18L63.77-36.18Q65.11-36.18 65.11-34.65L65.11-34.65Q65.07-25.43 64.8 3.87L64.8 3.87 57.02 1.08 58.81 0.04 58.91-10.44Q56.38-10.53 53.69-10.44L53.69-10.44 53.19 2.38 49.81 2.29 47.48 4.18Q47.88-6.88 48.87-36.18L48.87-36.18 59.13-36.13 59.13-36.18ZM88.92-20.2L88.16-13.99Q83.12-14.08 80.19-14.08L80.19-14.08 80.19 4 73.66 4 73.66-14.08 65.79-13.95 66.02-18.22 65.43-20.2 73.66-20.2 73.66-29.29 67.41-29.16 67.68-33.48 67.09-35.37 86.89-35.37 86.22-29.2Q82.44-29.29 80.19-29.29L80.19-29.29 80.19-20.2 88.92-20.2ZM104.44-15.07L111.6-15.07 108.31-24.84 104.44-15.07ZM116.69-0.09L113.76-8.78 101.97-8.78 98.55-0.09 92.92-1.17 90.5-0.09 105.08-35.95 110.79-35.95Q112.5-35.95 113-34.65L113-34.65Q116.01-25.96 125.1-0.09L125.1-0.09 116.69-0.09ZM140.04-30.51L140.04-6.48 144.63-6.48 144.18-0.09Q136.35-0.4 127.8 0L127.8 0 127.8-6.48 132.53-6.48 132.53-30.46Q130.23-30.42 128.2-30.33L128.2-30.33 128.2-36.67 144.63-36.67 144.31-30.38 140.04-30.51Z"
              transform="translate(-0.940000057220459, 37.08000183105469)"></path>
          </g>
          <!---->
          <!---->
          <!---->
          <!---->
          <!---->
          <!---->
          <!---->
        </g>
      </g>
      <g data-gra="path-slogan" fill-rule="" class="tp-slogan" fill="#feffff" transform="translate(0,47.4900016784668)">
        <!---->
        <!---->
        <g mask="url(#f774e665-5fde-4cd0-a80e-95c7daf43b30)">
          <g>
            <rect data-gra="graph-name-bg" stroke-width="2" class="i-icon-bg" x="0" y="0" width="155.11000061035156"
              height="12.579999923706055" fill-opacity="1"></rect>
            <!---->
            <!---->
          </g>
          <g transform="translate(5,2)">
            <g transform="scale(1, 1)" fill="#8B4500">
              <g transform="scale(1)">
                <path
                  d="M6.56 0L5.72-2.48L2.25-2.48L1.36 0L0.19 0L3.42-8.58L4.73-8.58L7.83 0L6.56 0ZM3.98-7.31L2.63-3.52L5.30-3.52L4.03-7.31L3.98-7.31ZM9.66-8.58L10.83-8.58L10.83 0L9.66 0L9.66-8.58ZM25.60-8.58L25.60 0L24.47 0L24.47-5.06Q24.47-5.77 24.47-7.22L24.47-7.22L22.04 0L20.86 0L18.47-7.22L18.43-7.22Q18.43-6.70 18.47-5.67L18.47-5.67Q18.47-5.16 18.47-5.06L18.47-5.06L18.47 0L17.30 0L17.30-8.58L18.99-8.58L21.47-1.31L23.91-8.58L25.60-8.58ZM33.57 0L32.73-2.48L29.26-2.48L28.37 0L27.19 0L30.43-8.58L31.74-8.58L34.83 0L33.57 0ZM30.99-7.31L29.63-3.52L32.30-3.52L31.04-7.31L30.99-7.31ZM39.01-4.31L37.65-3.05L37.65 0L36.48 0L36.48-8.58L37.65-8.58L37.65-4.41L41.82-8.58L43.46-8.58L39.85-5.11L43.55 0L42.01 0L39.01-4.31ZM46.37-1.03L51.53-1.03L51.53 0L45.20 0L45.20-8.58L51.43-8.58L51.43-7.59L46.37-7.59L46.37-4.92L51.06-4.92L51.06-3.89L46.37-3.89L46.37-1.03ZM57.58-8.58L58.75-8.58L58.75-1.03L63.11-1.03L63.11 0L57.58 0L57.58-8.58ZM65.03-8.58L66.20-8.58L66.20 0L65.03 0L65.03-8.58ZM74.31-3.89L70.09-3.89L70.09 0L68.92 0L68.92-8.58L74.88-8.58L74.88-7.59L70.09-7.59L70.09-4.92L74.31-4.92L74.31-3.89ZM77.97-1.03L83.13-1.03L83.13 0L76.80 0L76.80-8.58L83.03-8.58L83.03-7.59L77.97-7.59L77.97-4.92L82.66-4.92L82.66-3.89L77.97-3.89L77.97-1.03ZM92.41-7.64L90.35-7.64L90.35-4.97L92.41-4.97Q94.24-4.92 94.19-6.38L94.19-6.38Q94.19-7.64 92.41-7.64L92.41-7.64ZM92.88 0L89.18 0L89.18-8.58L92.97-8.58Q95.27-8.48 95.36-6.42L95.36-6.42Q95.36-5.16 94.24-4.64L94.24-4.64Q95.83-4.08 95.83-2.53L95.83-2.53Q95.69-0.09 92.88 0L92.88 0ZM92.60-3.98L90.35-3.98L90.35-0.98L92.83-0.98Q94.61-1.03 94.66-2.53L94.66-2.53Q94.66-3.98 92.60-3.98L92.60-3.98ZM99.07-1.03L104.23-1.03L104.23 0L97.90 0L97.90-8.58L104.13-8.58L104.13-7.59L99.07-7.59L99.07-4.92L103.76-4.92L103.76-3.89L99.07-3.89L99.07-1.03ZM108.54-7.59L105.63-7.59L105.63-8.58L112.57-8.58L112.57-7.59L109.66-7.59L109.66 0L108.54 0L108.54-7.59ZM116.42-7.59L113.51-7.59L113.51-8.58L120.45-8.58L120.45-7.59L117.54-7.59L117.54 0L116.42 0L116.42-7.59ZM123.40-1.03L128.56-1.03L128.56 0L122.23 0L122.23-8.58L128.46-8.58L128.46-7.59L123.40-7.59L123.40-4.92L128.09-4.92L128.09-3.89L123.40-3.89L123.40-1.03ZM134.79-3.70L131.98-3.70L131.98 0L130.81 0L130.81-8.58L134.79-8.58Q137.65-8.58 137.65-6.28L137.65-6.28Q137.65-4.88 136.43-4.22L136.43-4.22Q137.47-3.94 137.47-2.58L137.47-2.58L137.56-1.03Q137.51-0.38 137.98-0.19L137.98-0.19L137.98 0L136.53 0Q136.39-0.61 136.34-2.16L136.34-2.16Q136.39-3.70 134.79-3.70L134.79-3.70ZM134.89-7.64L131.98-7.64L131.98-4.69L134.70-4.69Q136.43-4.69 136.43-6.19L136.43-6.19Q136.43-7.64 134.89-7.64L134.89-7.64ZM144.83-3.89L144.83-3.89L145.30-3.23Q144.64-2.20 143.80-2.20L143.80-2.20Q143.28-2.20 142.58-2.58L142.58-2.58Q141.83-3.05 141.17-3.05L141.17-3.05Q140.56-3.05 140.14-2.16L140.14-2.16L139.72-2.81Q140.28-3.84 141.22-3.84L141.22-3.84Q141.64-3.84 142.58-3.47L142.58-3.47Q143.37-3.09 143.80-3.05L143.80-3.05Q144.31-3 144.83-3.89Z"
                  transform="translate(-0.1875, 8.578125)"></path>
              </g>
            </g>
          </g>
        </g>
      </g>
    </g>
  </g>
  <mask id="f774e665-5fde-4cd0-a80e-95c7daf43b30">
    <g fill="white">
      <rect data-gra="graph-name-bg" stroke-width="2" class="i-icon-bg" x="0" y="0" width="155.11000061035156"
        height="12.579999923706055" fill-opacity="1"></rect>
    </g>
    <g transform="translate(5,2)" fill="black">
      <g transform="scale(1, 1)">
        <g transform="scale(1)">
          <path
            d="M6.56 0L5.72-2.48L2.25-2.48L1.36 0L0.19 0L3.42-8.58L4.73-8.58L7.83 0L6.56 0ZM3.98-7.31L2.63-3.52L5.30-3.52L4.03-7.31L3.98-7.31ZM9.66-8.58L10.83-8.58L10.83 0L9.66 0L9.66-8.58ZM25.60-8.58L25.60 0L24.47 0L24.47-5.06Q24.47-5.77 24.47-7.22L24.47-7.22L22.04 0L20.86 0L18.47-7.22L18.43-7.22Q18.43-6.70 18.47-5.67L18.47-5.67Q18.47-5.16 18.47-5.06L18.47-5.06L18.47 0L17.30 0L17.30-8.58L18.99-8.58L21.47-1.31L23.91-8.58L25.60-8.58ZM33.57 0L32.73-2.48L29.26-2.48L28.37 0L27.19 0L30.43-8.58L31.74-8.58L34.83 0L33.57 0ZM30.99-7.31L29.63-3.52L32.30-3.52L31.04-7.31L30.99-7.31ZM39.01-4.31L37.65-3.05L37.65 0L36.48 0L36.48-8.58L37.65-8.58L37.65-4.41L41.82-8.58L43.46-8.58L39.85-5.11L43.55 0L42.01 0L39.01-4.31ZM46.37-1.03L51.53-1.03L51.53 0L45.20 0L45.20-8.58L51.43-8.58L51.43-7.59L46.37-7.59L46.37-4.92L51.06-4.92L51.06-3.89L46.37-3.89L46.37-1.03ZM57.58-8.58L58.75-8.58L58.75-1.03L63.11-1.03L63.11 0L57.58 0L57.58-8.58ZM65.03-8.58L66.20-8.58L66.20 0L65.03 0L65.03-8.58ZM74.31-3.89L70.09-3.89L70.09 0L68.92 0L68.92-8.58L74.88-8.58L74.88-7.59L70.09-7.59L70.09-4.92L74.31-4.92L74.31-3.89ZM77.97-1.03L83.13-1.03L83.13 0L76.80 0L76.80-8.58L83.03-8.58L83.03-7.59L77.97-7.59L77.97-4.92L82.66-4.92L82.66-3.89L77.97-3.89L77.97-1.03ZM92.41-7.64L90.35-7.64L90.35-4.97L92.41-4.97Q94.24-4.92 94.19-6.38L94.19-6.38Q94.19-7.64 92.41-7.64L92.41-7.64ZM92.88 0L89.18 0L89.18-8.58L92.97-8.58Q95.27-8.48 95.36-6.42L95.36-6.42Q95.36-5.16 94.24-4.64L94.24-4.64Q95.83-4.08 95.83-2.53L95.83-2.53Q95.69-0.09 92.88 0L92.88 0ZM92.60-3.98L90.35-3.98L90.35-0.98L92.83-0.98Q94.61-1.03 94.66-2.53L94.66-2.53Q94.66-3.98 92.60-3.98L92.60-3.98ZM99.07-1.03L104.23-1.03L104.23 0L97.90 0L97.90-8.58L104.13-8.58L104.13-7.59L99.07-7.59L99.07-4.92L103.76-4.92L103.76-3.89L99.07-3.89L99.07-1.03ZM108.54-7.59L105.63-7.59L105.63-8.58L112.57-8.58L112.57-7.59L109.66-7.59L109.66 0L108.54 0L108.54-7.59ZM116.42-7.59L113.51-7.59L113.51-8.58L120.45-8.58L120.45-7.59L117.54-7.59L117.54 0L116.42 0L116.42-7.59ZM123.40-1.03L128.56-1.03L128.56 0L122.23 0L122.23-8.58L128.46-8.58L128.46-7.59L123.40-7.59L123.40-4.92L128.09-4.92L128.09-3.89L123.40-3.89L123.40-1.03ZM134.79-3.70L131.98-3.70L131.98 0L130.81 0L130.81-8.58L134.79-8.58Q137.65-8.58 137.65-6.28L137.65-6.28Q137.65-4.88 136.43-4.22L136.43-4.22Q137.47-3.94 137.47-2.58L137.47-2.58L137.56-1.03Q137.51-0.38 137.98-0.19L137.98-0.19L137.98 0L136.53 0Q136.39-0.61 136.34-2.16L136.34-2.16Q136.39-3.70 134.79-3.70L134.79-3.70ZM134.89-7.64L131.98-7.64L131.98-4.69L134.70-4.69Q136.43-4.69 136.43-6.19L136.43-6.19Q136.43-7.64 134.89-7.64L134.89-7.64ZM144.83-3.89L144.83-3.89L145.30-3.23Q144.64-2.20 143.80-2.20L143.80-2.20Q143.28-2.20 142.58-2.58L142.58-2.58Q141.83-3.05 141.17-3.05L141.17-3.05Q140.56-3.05 140.14-2.16L140.14-2.16L139.72-2.81Q140.28-3.84 141.22-3.84L141.22-3.84Q141.64-3.84 142.58-3.47L142.58-3.47Q143.37-3.09 143.80-3.05L143.80-3.05Q144.31-3 144.83-3.89Z"
            transform="translate(-0.1875, 8.578125)"></path>
        </g>
      </g>
    </g>
  </mask>
  <defs v-gra="od"></defs>
</svg>
