<svg data-v-0dd9719b="" version="1.0" xmlns="http://www.w3.org/2000/svg" xmlns:xlink="http://www.w3.org/1999/xlink" preserveAspectRatio="xMidYMid meet"
  color-interpolation-filters="sRGB" style="margin: auto;">
  <g data-v-0dd9719b="" class="iconmbgsvg" >
    <g fill="#333" hollow-target="textRect">
      <g mask="url(#d9bda310-efd0-4795-a98a-dc0b1bb4ed7b)">
        <g>
          <rect fill="#333" fill-opacity="0" stroke-width="2" x="0" y="0" width="147.5" height="70.5316412115184"
            class="image-rect"></rect> <svg x="0" y="0" width="147.5" height="70.5316412115184"
            filtersec="colorsb5222214369" class="image-svg-svg primary" style="overflow: visible;"><svg
              xmlns="http://www.w3.org/2000/svg"
              viewBox="-0.013117790222167969 0.00208282470703125 200.77313232421875 96.00579071044922">
              <g>
                <g>
                  <path
                    d="M53.72 83.56l.79-1c-1.49-1-2.94-2-4.45-2.92a53.38 53.38 0 0 1-15.33-13.38C27 55.85 26.9 44.49 34.45 34A51 51 0 0 1 49.2 20.67c14-8.81 29.57-13.41 45.72-16.29 12.87-2.29 25.87-3.07 38.86-3.55C99.52-1.69 66.15.75 35.85 19.36a43.65 43.65 0 0 0-13.06 12.19c-6.31 9-7.34 18.54-1.59 28.09 7.51 12.46 19.69 18.72 32.52 23.92z"
                    fill="#fdfdfd"></path>
                  <path
                    d="M200.76 18.57c-1.47-.66-2.92-1.41-4.42-2-29.7-11.2-60.31-13-91.43-8.48-17.58 2.57-34.49 7.38-49.55 17.28-6.75 4.44-12.65 9.78-16.12 17.31-3.86 8.36-3 17.54 2.56 23.74-3.21-18.29 7.1-28.75 20.59-37.38a62.4 62.4 0 0 1 7-3.89c30.65-14.4 63-16.87 96.12-13.4 11.88 1.25 23.49 4.09 35.25 6.82z"
                    fill="#fdfdfd"></path>
                  <path
                    d="M22.11 24.4c-7.18 3.29-13.37 7.77-17.79 14.37-6 8.9-5.74 18.25.6 26.9 4.51 6.17 10.48 10.67 17.14 14.21C46.91 93 73.8 96.19 101.35 96c-14.47-1.71-28.95-3.47-43-7.69-14.9-4.51-29.23-10.2-40.25-21.82C7.39 55.18 7.38 42 17.72 30.33c1.61-1.81 3.95-3.02 4.39-5.93z"
                    fill="#fdfdfd"></path>
                  <path
                    d="M53.72 83.56c-12.83-5.2-25-11.46-32.52-23.92-5.75-9.55-4.72-19.08 1.59-28.09a43.65 43.65 0 0 1 13.06-12.19C66.15.75 99.52-1.69 133.78.83c-13 .48-26 1.26-38.86 3.55-16.15 2.88-31.7 7.48-45.72 16.29A51 51 0 0 0 34.45 34c-7.55 10.54-7.5 21.9.28 32.31a53.38 53.38 0 0 0 15.33 13.32c1.51.92 3 1.94 4.45 2.92z"
                    fill="#2c5da8"></path>
                  <path
                    d="M200.76 18.57c-11.76-2.73-23.37-5.57-35.29-6.8-33.14-3.47-65.47-1-96.12 13.4a62.4 62.4 0 0 0-7 3.89C48.9 37.69 38.59 48.15 41.8 66.44c-5.53-6.2-6.42-15.38-2.56-23.74 3.47-7.53 9.37-12.87 16.12-17.31 15.06-9.9 32-14.71 49.55-17.28 31.12-4.57 61.73-2.72 91.43 8.48 1.5.57 2.95 1.32 4.42 1.98z"
                    fill="#2c5da8"></path>
                  <path
                    d="M22.11 24.4c-.44 2.91-2.78 4.12-4.39 5.93C7.38 42 7.39 55.18 18.1 66.49c11 11.62 25.35 17.31 40.27 21.8 14 4.22 28.51 6 43 7.69-27.57.21-54.46-2.98-79.31-16.1-6.66-3.54-12.63-8-17.14-14.21-6.34-8.65-6.57-18-.6-26.9 4.42-6.6 10.61-11.08 17.79-14.37z"
                    fill="#2c5da8"></path>
                </g>
              </g>
            </svg></svg>
          <!---->
        </g>
        <rect v-gra="id" width="159.5" height="82.5316390991211" transform="translate(-6, -6)"
          style="pointer-events:none;" fill="url(#SBPhvoK5F5m185qAEgxLN)"></rect>
      </g>
      <g transform="translate(71.02999877929688,23.81917953491211)">
        <g data-gra="path-name" fill-rule="" class="tp-name" transform="translate(0,0)"
          fill="url(#d880dc02-c777-4fda-b515-74382af5d7c8)">
          <g transform="scale(1)">
            <g>
              <path
                d="M15.92-15.64L20.15-15.64 20.33-16.7 17.66-16.7 18.12-19.92 20.79-19.92 20.98-21.21 27.97-21.21 27.78-19.92 31.42-19.92 31.6-21.21 38.27-21.21 38.09-19.92 40.25-19.92 39.79-16.7 37.63-16.7 37.44-15.64 41.08-15.64 40.57-12.28 37.9-12.28 39.97-7.59 37.86-7.59 37.12-5.66 31.23-5.66 32.66-9.43 33.07-9.43 31.79-12.28 24.38-12.28 22.4-9.71 22.91-9.71 23.78-5.93 17.71-5.93 17.34-7.5 14.31-7.5 17.94-12.28 15.41-12.28 15.92-15.64ZM19.64-32.66L42.04-32.66 40.57-22.26 18.17-22.26 19.64-32.66ZM14.08-32.66L11.82-16.65 13.66 0.32 8.14 0.32 7.82-5.61 5.52 0.32 0.28 0.32 6.76-16.7 8.74-30.87 7.91-32.66 14.08-32.66ZM27.19 0.37L21.25 0.37 23.55-2.25 24.79-11.18 31.6-11.18 30.41-2.67Q30.22-1.33 29.28-0.48 28.34 0.37 27.19 0.37L27.19 0.37ZM15.46-15.41L12.33-15.41 14.72-29.39 17.89-29.39 15.46-15.41ZM2.94-15.41L4.65-29.39 7.64-29.39 6.03-15.41 2.94-15.41ZM19.87 0.14L14.4 0.14 17.53-4.83 22.95-4.83 19.87 0.14ZM38.73 0.37L33.26 0.37 31.46-4.55 36.98-4.55 38.73 0.37ZM26.27-29.99L26.08-28.61 34.91-28.61 35.1-29.99 26.27-29.99ZM25.58-24.93L34.41-24.93 34.55-26.17 25.71-26.17 25.58-24.93ZM27.32-16.7L27.14-15.64 30.77-15.64 30.96-16.7 27.32-16.7ZM56.63 0.37L51.06 0.37 53.54-2.16 54.74-10.9 51.06-10.9 48.99 0.37 42.5 0.37 47.98-30.36 46.97-31.88 64.35-31.88 60.26-2.67Q60.08-1.38 59-0.51 57.91 0.37 56.63 0.37L56.63 0.37ZM66.1-31.88L84.41-31.88 83.81-27.46 79.07-27.46 77.88-18.81 83.54-18.81 82.94-14.4 77.28-14.4 75.21 0.37 67.25 0.37 69.32-14.4 62.79-14.4 63.39-18.81 69.92-18.81 71.12-27.46 65.5-27.46 66.1-31.88ZM52.58-19.23L51.84-15.27 55.38-15.27 55.94-19.23 52.58-19.23ZM54.1-27.51L53.36-23.6 56.53-23.6 57.09-27.51 54.1-27.51ZM95.45-28.8L113.57-28.8 117.07-2.76 109.16-2.76 108.24-9.84 97.2-9.84 94.12-2.76 86.62-2.76 96.78-27.51 95.45-28.8ZM106.49-24.38L103.41-24.38 98.99-14.26 107.82-14.26 106.49-24.38ZM123.1-28.8L133.72-28.8 129.72-2.76 121.35-2.76 124.43-27.05 123.1-28.8Z"
                transform="translate(-0.2800000011920929, 32.65999984741211)"></path>
            </g>
            <!---->
            <!---->
            <!---->
            <!---->
            <!---->
            <!---->
            <!---->
          </g>
        </g>
        <g data-gra="path-slogan" fill-rule="" class="tp-slogan" fill="#1c085d"
          transform="translate(7.529998779296875,41.029998779296875)">
          <!---->
          <!---->
          <g transform="scale(1, 1)">
            <g transform="scale(1)">
              <path
                d="M6.02 0L5.24-2.28L2.06-2.28L1.25 0L0.17 0L3.14-7.86L4.34-7.86L7.18 0L6.02 0ZM3.65-6.70L2.41-3.22L4.86-3.22L3.70-6.70L3.65-6.70ZM8.29-7.86L9.37-7.86L9.37 0L8.29 0L8.29-7.86ZM21.79-7.86L21.79 0L20.75 0L20.75-4.64Q20.75-5.29 20.75-6.62L20.75-6.62L18.52 0L17.45 0L15.25-6.62L15.21-6.62Q15.21-6.14 15.25-5.20L15.25-5.20Q15.25-4.73 15.25-4.64L15.25-4.64L15.25 0L14.18 0L14.18-7.86L15.73-7.86L18.00-1.20L20.24-7.86L21.79-7.86ZM28.53 0L27.76-2.28L24.58-2.28L23.76 0L22.69 0L25.65-7.86L26.86-7.86L29.69 0L28.53 0ZM26.17-6.70L24.92-3.22L27.37-3.22L26.21-6.70L26.17-6.70ZM32.96-3.95L31.71-2.79L31.71 0L30.64 0L30.64-7.86L31.71-7.86L31.71-4.04L35.54-7.86L37.04-7.86L33.73-4.68L37.13 0L35.71 0L32.96-3.95ZM39.14-0.95L43.87-0.95L43.87 0L38.07 0L38.07-7.86L43.79-7.86L43.79-6.96L39.14-6.96L39.14-4.51L43.44-4.51L43.44-3.57L39.14-3.57L39.14-0.95ZM48.30-7.86L49.37-7.86L49.37-0.95L53.37-0.95L53.37 0L48.30 0L48.30-7.86ZM54.57-7.86L55.64-7.86L55.64 0L54.57 0L54.57-7.86ZM62.52-3.57L58.65-3.57L58.65 0L57.58 0L57.58-7.86L63.04-7.86L63.04-6.96L58.65-6.96L58.65-4.51L62.52-4.51L62.52-3.57ZM65.31-0.95L70.04-0.95L70.04 0L64.24 0L64.24-7.86L69.95-7.86L69.95-6.96L65.31-6.96L65.31-4.51L69.61-4.51L69.61-3.57L65.31-3.57L65.31-0.95ZM77.43-7.00L75.54-7.00L75.54-4.55L77.43-4.55Q79.11-4.51 79.06-5.84L79.06-5.84Q79.06-7.00 77.43-7.00L77.43-7.00ZM77.86 0L74.46 0L74.46-7.86L77.95-7.86Q80.05-7.78 80.14-5.89L80.14-5.89Q80.14-4.73 79.11-4.25L79.11-4.25Q80.57-3.74 80.57-2.32L80.57-2.32Q80.44-0.09 77.86 0L77.86 0ZM77.60-3.65L75.54-3.65L75.54-0.90L77.82-0.90Q79.45-0.95 79.49-2.32L79.49-2.32Q79.49-3.65 77.60-3.65L77.60-3.65ZM82.97-0.95L87.70-0.95L87.70 0L81.90 0L81.90-7.86L87.61-7.86L87.61-6.96L82.97-6.96L82.97-4.51L87.27-4.51L87.27-3.57L82.97-3.57L82.97-0.95ZM91.09-6.96L88.43-6.96L88.43-7.86L94.79-7.86L94.79-6.96L92.13-6.96L92.13 0L91.09 0L91.09-6.96ZM97.75-6.96L95.09-6.96L95.09-7.86L101.45-7.86L101.45-6.96L98.79-6.96L98.79 0L97.75 0L97.75-6.96ZM103.60-0.95L108.32-0.95L108.32 0L102.52 0L102.52-7.86L108.24-7.86L108.24-6.96L103.60-6.96L103.60-4.51L107.89-4.51L107.89-3.57L103.60-3.57L103.60-0.95ZM113.48-3.39L110.90-3.39L110.90 0L109.83 0L109.83-7.86L113.48-7.86Q116.10-7.86 116.10-5.76L116.10-5.76Q116.10-4.47 114.98-3.87L114.98-3.87Q115.93-3.61 115.93-2.36L115.93-2.36L116.02-0.95Q115.97-0.34 116.40-0.17L116.40-0.17L116.40 0L115.07 0Q114.94-0.56 114.90-1.98L114.90-1.98Q114.94-3.39 113.48-3.39L113.48-3.39ZM113.57-7.00L110.90-7.00L110.90-4.30L113.39-4.30Q114.98-4.30 114.98-5.67L114.98-5.67Q114.98-7.00 113.57-7.00L113.57-7.00ZM122.12-3.57L122.12-3.57L122.55-2.96Q121.95-2.02 121.17-2.02L121.17-2.02Q120.70-2.02 120.05-2.36L120.05-2.36Q119.37-2.79 118.77-2.79L118.77-2.79Q118.21-2.79 117.82-1.98L117.82-1.98L117.43-2.58Q117.95-3.52 118.81-3.52L118.81-3.52Q119.20-3.52 120.05-3.18L120.05-3.18Q120.79-2.84 121.17-2.79L121.17-2.79Q121.64-2.75 122.12-3.57Z"
                transform="translate(-0.171875, 7.86328125)"></path>
            </g>
          </g>
        </g>
      </g>
    </g>
  </g>
  <mask id="3b3405b4-db3d-4507-a70f-c1f6361179bc">
    <g fill="white">
      <g>
        <rect fill-opacity="1" stroke-width="2" x="0" y="0" width="147.5" height="70.5316412115184" class="image-rect">
        </rect> <svg x="0" y="0" width="147.5" height="70.5316412115184" filtersec="colorsb5222214369"
          class="image-svg-svg primary" style="overflow: visible;"><svg xmlns="http://www.w3.org/2000/svg"
            viewBox="-0.013117790222167969 0.00208282470703125 200.77313232421875 96.00579071044922">
            <g>
              <g>
                <path
                  d="M53.72 83.56l.79-1c-1.49-1-2.94-2-4.45-2.92a53.38 53.38 0 0 1-15.33-13.38C27 55.85 26.9 44.49 34.45 34A51 51 0 0 1 49.2 20.67c14-8.81 29.57-13.41 45.72-16.29 12.87-2.29 25.87-3.07 38.86-3.55C99.52-1.69 66.15.75 35.85 19.36a43.65 43.65 0 0 0-13.06 12.19c-6.31 9-7.34 18.54-1.59 28.09 7.51 12.46 19.69 18.72 32.52 23.92z">
                </path>
                <path
                  d="M200.76 18.57c-1.47-.66-2.92-1.41-4.42-2-29.7-11.2-60.31-13-91.43-8.48-17.58 2.57-34.49 7.38-49.55 17.28-6.75 4.44-12.65 9.78-16.12 17.31-3.86 8.36-3 17.54 2.56 23.74-3.21-18.29 7.1-28.75 20.59-37.38a62.4 62.4 0 0 1 7-3.89c30.65-14.4 63-16.87 96.12-13.4 11.88 1.25 23.49 4.09 35.25 6.82z">
                </path>
                <path
                  d="M22.11 24.4c-7.18 3.29-13.37 7.77-17.79 14.37-6 8.9-5.74 18.25.6 26.9 4.51 6.17 10.48 10.67 17.14 14.21C46.91 93 73.8 96.19 101.35 96c-14.47-1.71-28.95-3.47-43-7.69-14.9-4.51-29.23-10.2-40.25-21.82C7.39 55.18 7.38 42 17.72 30.33c1.61-1.81 3.95-3.02 4.39-5.93z">
                </path>
                <path
                  d="M53.72 83.56c-12.83-5.2-25-11.46-32.52-23.92-5.75-9.55-4.72-19.08 1.59-28.09a43.65 43.65 0 0 1 13.06-12.19C66.15.75 99.52-1.69 133.78.83c-13 .48-26 1.26-38.86 3.55-16.15 2.88-31.7 7.48-45.72 16.29A51 51 0 0 0 34.45 34c-7.55 10.54-7.5 21.9.28 32.31a53.38 53.38 0 0 0 15.33 13.32c1.51.92 3 1.94 4.45 2.92z">
                </path>
                <path
                  d="M200.76 18.57c-11.76-2.73-23.37-5.57-35.29-6.8-33.14-3.47-65.47-1-96.12 13.4a62.4 62.4 0 0 0-7 3.89C48.9 37.69 38.59 48.15 41.8 66.44c-5.53-6.2-6.42-15.38-2.56-23.74 3.47-7.53 9.37-12.87 16.12-17.31 15.06-9.9 32-14.71 49.55-17.28 31.12-4.57 61.73-2.72 91.43 8.48 1.5.57 2.95 1.32 4.42 1.98z">
                </path>
                <path
                  d="M22.11 24.4c-.44 2.91-2.78 4.12-4.39 5.93C7.38 42 7.39 55.18 18.1 66.49c11 11.62 25.35 17.31 40.27 21.8 14 4.22 28.51 6 43 7.69-27.57.21-54.46-2.98-79.31-16.1-6.66-3.54-12.63-8-17.14-14.21-6.34-8.65-6.57-18-.6-26.9 4.42-6.6 10.61-11.08 17.79-14.37z">
                </path>
              </g>
            </g>
          </svg></svg>
      </g>
    </g>
    <g transform="translate(71.02999877929688,23.81917953491211)">
      <rect fill="black" fill-opacity="1" x="-3.5" y="-3.5" width="140.44000244140625" height="40.029998779296875">
      </rect>
      <rect fill="black" fill-opacity="1" x="-3.5" y="-3.5" transform="translate(7.528123766183853,41.029998779296875)"
        width="129.3800048828125" height="14.860000133514404"></rect>
    </g>
    <g transform="translate(71.02999877929688,23.81917953491211)" fill="black">
      <g data-gra="path-name" fill-rule="" class="tp-name" transform="translate(0,0)">
        <g transform="scale(1)">
          <g>
            <path
              d="M15.92-15.64L20.15-15.64 20.33-16.7 17.66-16.7 18.12-19.92 20.79-19.92 20.98-21.21 27.97-21.21 27.78-19.92 31.42-19.92 31.6-21.21 38.27-21.21 38.09-19.92 40.25-19.92 39.79-16.7 37.63-16.7 37.44-15.64 41.08-15.64 40.57-12.28 37.9-12.28 39.97-7.59 37.86-7.59 37.12-5.66 31.23-5.66 32.66-9.43 33.07-9.43 31.79-12.28 24.38-12.28 22.4-9.71 22.91-9.71 23.78-5.93 17.71-5.93 17.34-7.5 14.31-7.5 17.94-12.28 15.41-12.28 15.92-15.64ZM19.64-32.66L42.04-32.66 40.57-22.26 18.17-22.26 19.64-32.66ZM14.08-32.66L11.82-16.65 13.66 0.32 8.14 0.32 7.82-5.61 5.52 0.32 0.28 0.32 6.76-16.7 8.74-30.87 7.91-32.66 14.08-32.66ZM27.19 0.37L21.25 0.37 23.55-2.25 24.79-11.18 31.6-11.18 30.41-2.67Q30.22-1.33 29.28-0.48 28.34 0.37 27.19 0.37L27.19 0.37ZM15.46-15.41L12.33-15.41 14.72-29.39 17.89-29.39 15.46-15.41ZM2.94-15.41L4.65-29.39 7.64-29.39 6.03-15.41 2.94-15.41ZM19.87 0.14L14.4 0.14 17.53-4.83 22.95-4.83 19.87 0.14ZM38.73 0.37L33.26 0.37 31.46-4.55 36.98-4.55 38.73 0.37ZM26.27-29.99L26.08-28.61 34.91-28.61 35.1-29.99 26.27-29.99ZM25.58-24.93L34.41-24.93 34.55-26.17 25.71-26.17 25.58-24.93ZM27.32-16.7L27.14-15.64 30.77-15.64 30.96-16.7 27.32-16.7ZM56.63 0.37L51.06 0.37 53.54-2.16 54.74-10.9 51.06-10.9 48.99 0.37 42.5 0.37 47.98-30.36 46.97-31.88 64.35-31.88 60.26-2.67Q60.08-1.38 59-0.51 57.91 0.37 56.63 0.37L56.63 0.37ZM66.1-31.88L84.41-31.88 83.81-27.46 79.07-27.46 77.88-18.81 83.54-18.81 82.94-14.4 77.28-14.4 75.21 0.37 67.25 0.37 69.32-14.4 62.79-14.4 63.39-18.81 69.92-18.81 71.12-27.46 65.5-27.46 66.1-31.88ZM52.58-19.23L51.84-15.27 55.38-15.27 55.94-19.23 52.58-19.23ZM54.1-27.51L53.36-23.6 56.53-23.6 57.09-27.51 54.1-27.51ZM95.45-28.8L113.57-28.8 117.07-2.76 109.16-2.76 108.24-9.84 97.2-9.84 94.12-2.76 86.62-2.76 96.78-27.51 95.45-28.8ZM106.49-24.38L103.41-24.38 98.99-14.26 107.82-14.26 106.49-24.38ZM123.1-28.8L133.72-28.8 129.72-2.76 121.35-2.76 124.43-27.05 123.1-28.8Z"
              transform="translate(-0.2800000011920929, 32.65999984741211)"></path>
          </g>
        </g>
      </g>
      <g data-gra="path-slogan" fill-rule="" class="tp-slogan"
        transform="translate(7.529998779296875,41.029998779296875)">
        <g transform="scale(1, 1)">
          <g transform="scale(1)">
            <path
              d="M6.02 0L5.24-2.28L2.06-2.28L1.25 0L0.17 0L3.14-7.86L4.34-7.86L7.18 0L6.02 0ZM3.65-6.70L2.41-3.22L4.86-3.22L3.70-6.70L3.65-6.70ZM8.29-7.86L9.37-7.86L9.37 0L8.29 0L8.29-7.86ZM21.79-7.86L21.79 0L20.75 0L20.75-4.64Q20.75-5.29 20.75-6.62L20.75-6.62L18.52 0L17.45 0L15.25-6.62L15.21-6.62Q15.21-6.14 15.25-5.20L15.25-5.20Q15.25-4.73 15.25-4.64L15.25-4.64L15.25 0L14.18 0L14.18-7.86L15.73-7.86L18.00-1.20L20.24-7.86L21.79-7.86ZM28.53 0L27.76-2.28L24.58-2.28L23.76 0L22.69 0L25.65-7.86L26.86-7.86L29.69 0L28.53 0ZM26.17-6.70L24.92-3.22L27.37-3.22L26.21-6.70L26.17-6.70ZM32.96-3.95L31.71-2.79L31.71 0L30.64 0L30.64-7.86L31.71-7.86L31.71-4.04L35.54-7.86L37.04-7.86L33.73-4.68L37.13 0L35.71 0L32.96-3.95ZM39.14-0.95L43.87-0.95L43.87 0L38.07 0L38.07-7.86L43.79-7.86L43.79-6.96L39.14-6.96L39.14-4.51L43.44-4.51L43.44-3.57L39.14-3.57L39.14-0.95ZM48.30-7.86L49.37-7.86L49.37-0.95L53.37-0.95L53.37 0L48.30 0L48.30-7.86ZM54.57-7.86L55.64-7.86L55.64 0L54.57 0L54.57-7.86ZM62.52-3.57L58.65-3.57L58.65 0L57.58 0L57.58-7.86L63.04-7.86L63.04-6.96L58.65-6.96L58.65-4.51L62.52-4.51L62.52-3.57ZM65.31-0.95L70.04-0.95L70.04 0L64.24 0L64.24-7.86L69.95-7.86L69.95-6.96L65.31-6.96L65.31-4.51L69.61-4.51L69.61-3.57L65.31-3.57L65.31-0.95ZM77.43-7.00L75.54-7.00L75.54-4.55L77.43-4.55Q79.11-4.51 79.06-5.84L79.06-5.84Q79.06-7.00 77.43-7.00L77.43-7.00ZM77.86 0L74.46 0L74.46-7.86L77.95-7.86Q80.05-7.78 80.14-5.89L80.14-5.89Q80.14-4.73 79.11-4.25L79.11-4.25Q80.57-3.74 80.57-2.32L80.57-2.32Q80.44-0.09 77.86 0L77.86 0ZM77.60-3.65L75.54-3.65L75.54-0.90L77.82-0.90Q79.45-0.95 79.49-2.32L79.49-2.32Q79.49-3.65 77.60-3.65L77.60-3.65ZM82.97-0.95L87.70-0.95L87.70 0L81.90 0L81.90-7.86L87.61-7.86L87.61-6.96L82.97-6.96L82.97-4.51L87.27-4.51L87.27-3.57L82.97-3.57L82.97-0.95ZM91.09-6.96L88.43-6.96L88.43-7.86L94.79-7.86L94.79-6.96L92.13-6.96L92.13 0L91.09 0L91.09-6.96ZM97.75-6.96L95.09-6.96L95.09-7.86L101.45-7.86L101.45-6.96L98.79-6.96L98.79 0L97.75 0L97.75-6.96ZM103.60-0.95L108.32-0.95L108.32 0L102.52 0L102.52-7.86L108.24-7.86L108.24-6.96L103.60-6.96L103.60-4.51L107.89-4.51L107.89-3.57L103.60-3.57L103.60-0.95ZM113.48-3.39L110.90-3.39L110.90 0L109.83 0L109.83-7.86L113.48-7.86Q116.10-7.86 116.10-5.76L116.10-5.76Q116.10-4.47 114.98-3.87L114.98-3.87Q115.93-3.61 115.93-2.36L115.93-2.36L116.02-0.95Q115.97-0.34 116.40-0.17L116.40-0.17L116.40 0L115.07 0Q114.94-0.56 114.90-1.98L114.90-1.98Q114.94-3.39 113.48-3.39L113.48-3.39ZM113.57-7.00L110.90-7.00L110.90-4.30L113.39-4.30Q114.98-4.30 114.98-5.67L114.98-5.67Q114.98-7.00 113.57-7.00L113.57-7.00ZM122.12-3.57L122.12-3.57L122.55-2.96Q121.95-2.02 121.17-2.02L121.17-2.02Q120.70-2.02 120.05-2.36L120.05-2.36Q119.37-2.79 118.77-2.79L118.77-2.79Q118.21-2.79 117.82-1.98L117.82-1.98L117.43-2.58Q117.95-3.52 118.81-3.52L118.81-3.52Q119.20-3.52 120.05-3.18L120.05-3.18Q120.79-2.84 121.17-2.79L121.17-2.79Q121.64-2.75 122.12-3.57Z"
              transform="translate(-0.171875, 7.86328125)"></path>
          </g>
        </g>
      </g>
    </g>
  </mask>
  <defs v-gra="od">
    <linearGradient x1="0" y1="1" x2="0" y2="0" id="d880dc02-c777-4fda-b515-74382af5d7c8">
      <stop offset="0%" stop-color="#6e45e2"></stop>
      <stop offset="100%" stop-color="#88d3ce"></stop>
    </linearGradient>
    <filter id="42443b3f1de60f6b6fd3b6a9844b4764" filterUnits="objectBoundingBox">
      <feColorMatrix type="matrix" values="0 0 0 0 0.99609375  0 0 0 0 0.99609375  0 0 0 0 0.99609375  0 0 0 1 0">
      </feColorMatrix>
    </filter>
  </defs>
  <defs v-gra="id">
    <filter id="9b8d60e2-8174-4daa-aa09-89be694d312e" filterUnits="userSpaceOnUse">
      <feColorMatrix type="matrix" values="0 0 0 0 0.99609375  0 0 0 0 0.99609375  0 0 0 0 0.99609375  0 0 0 1 0">
      </feColorMatrix>
    </filter>
    <linearGradient x1="0" y1="1" x2="0" y2="0" id="SBPhvoK5F5m185qAEgxLN">
      <stop offset="0%" stop-color="#6e45e2"></stop>
      <stop offset="100%" stop-color="#88d3ce"></stop>
    </linearGradient>
    <filter id="42443b3f1de60f6b6fd3b6a9844b4764" filterUnits="objectBoundingBox">
      <feColorMatrix type="matrix" values="0 0 0 0 0.99609375  0 0 0 0 0.99609375  0 0 0 0 0.99609375  0 0 0 1 0">
      </feColorMatrix>
    </filter>
  </defs>
  <mask v-gra="im" id="d9bda310-efd0-4795-a98a-dc0b1bb4ed7b">
    <g mask="url(#3b3405b4-db3d-4507-a70f-c1f6361179bc)" filter="url(#9b8d60e2-8174-4daa-aa09-89be694d312e)">
      <g>
        <rect fill="#333" fill-opacity="0" stroke-width="2" x="0" y="0" width="147.5" height="70.5316412115184"
          class="image-rect"></rect> <svg x="0" y="0" width="147.5" height="70.5316412115184"
          filtersec="colorsb5222214369" class="image-svg-svg primary" style="overflow: visible;"><svg
            xmlns="http://www.w3.org/2000/svg"
            viewBox="-0.013117790222167969 0.00208282470703125 200.77313232421875 96.00579071044922">
            <g>
              <g>
                <path
                  d="M53.72 83.56l.79-1c-1.49-1-2.94-2-4.45-2.92a53.38 53.38 0 0 1-15.33-13.38C27 55.85 26.9 44.49 34.45 34A51 51 0 0 1 49.2 20.67c14-8.81 29.57-13.41 45.72-16.29 12.87-2.29 25.87-3.07 38.86-3.55C99.52-1.69 66.15.75 35.85 19.36a43.65 43.65 0 0 0-13.06 12.19c-6.31 9-7.34 18.54-1.59 28.09 7.51 12.46 19.69 18.72 32.52 23.92z"
                  fill="#fdfdfd"></path>
                <path
                  d="M200.76 18.57c-1.47-.66-2.92-1.41-4.42-2-29.7-11.2-60.31-13-91.43-8.48-17.58 2.57-34.49 7.38-49.55 17.28-6.75 4.44-12.65 9.78-16.12 17.31-3.86 8.36-3 17.54 2.56 23.74-3.21-18.29 7.1-28.75 20.59-37.38a62.4 62.4 0 0 1 7-3.89c30.65-14.4 63-16.87 96.12-13.4 11.88 1.25 23.49 4.09 35.25 6.82z"
                  fill="#fdfdfd"></path>
                <path
                  d="M22.11 24.4c-7.18 3.29-13.37 7.77-17.79 14.37-6 8.9-5.74 18.25.6 26.9 4.51 6.17 10.48 10.67 17.14 14.21C46.91 93 73.8 96.19 101.35 96c-14.47-1.71-28.95-3.47-43-7.69-14.9-4.51-29.23-10.2-40.25-21.82C7.39 55.18 7.38 42 17.72 30.33c1.61-1.81 3.95-3.02 4.39-5.93z"
                  fill="#fdfdfd"></path>
                <path
                  d="M53.72 83.56c-12.83-5.2-25-11.46-32.52-23.92-5.75-9.55-4.72-19.08 1.59-28.09a43.65 43.65 0 0 1 13.06-12.19C66.15.75 99.52-1.69 133.78.83c-13 .48-26 1.26-38.86 3.55-16.15 2.88-31.7 7.48-45.72 16.29A51 51 0 0 0 34.45 34c-7.55 10.54-7.5 21.9.28 32.31a53.38 53.38 0 0 0 15.33 13.32c1.51.92 3 1.94 4.45 2.92z"
                  fill="#2c5da8"></path>
                <path
                  d="M200.76 18.57c-11.76-2.73-23.37-5.57-35.29-6.8-33.14-3.47-65.47-1-96.12 13.4a62.4 62.4 0 0 0-7 3.89C48.9 37.69 38.59 48.15 41.8 66.44c-5.53-6.2-6.42-15.38-2.56-23.74 3.47-7.53 9.37-12.87 16.12-17.31 15.06-9.9 32-14.71 49.55-17.28 31.12-4.57 61.73-2.72 91.43 8.48 1.5.57 2.95 1.32 4.42 1.98z"
                  fill="#2c5da8"></path>
                <path
                  d="M22.11 24.4c-.44 2.91-2.78 4.12-4.39 5.93C7.38 42 7.39 55.18 18.1 66.49c11 11.62 25.35 17.31 40.27 21.8 14 4.22 28.51 6 43 7.69-27.57.21-54.46-2.98-79.31-16.1-6.66-3.54-12.63-8-17.14-14.21-6.34-8.65-6.57-18-.6-26.9 4.42-6.6 10.61-11.08 17.79-14.37z"
                  fill="#2c5da8"></path>
              </g>
            </g>
          </svg></svg>
        <!---->
      </g>
    </g>
  </mask>
</svg>
