<svg data-v-0dd9719b="" version="1.0" xmlns="http://www.w3.org/2000/svg" xmlns:xlink="http://www.w3.org/1999/xlink"
   preserveAspectRatio="xMidYMid meet"
  color-interpolation-filters="sRGB" style="margin: auto;">
  <g data-v-0dd9719b="" fill="#ffe599" class="icon-text-wrapper icon-svg-group iconsvg"
    >
    <g class="iconsvg-imagesvg" transform="translate(0,0)">
      <g>
        <rect fill="#ffe599" fill-opacity="0" stroke-width="2" x="0" y="0" width="60.00000000000001"
          height="69.26806742091897" class="image-rect"></rect> <svg filter="url(#colors1490283704)" x="0" y="0"
          width="60.00000000000001" height="69.26806742091897" filtersec="colorsf863956420"
          class="image-svg-svg primary" style="overflow: visible;"><svg xmlns="http://www.w3.org/2000/svg"
            viewBox="0 0 86.62000274658203 99.99999237060547">
            <path fill="#333"
              d="M79.9 78.87l6.72-3.88V25L43.31 0 0 25v49.99l4.75 2.74 1.98 1.14 6.58 3.81 6.73 3.88v-50l23.27-13.44 23.27 13.44v42.25L60 82.62V40.37l-16.69-9.63-8.33 4.82h-.02l-8.34 4.81v49.99l1.72.99 5.01 2.9 6.6 3.81 2.16 1.24 1.2.7 3.36-1.94V47.24l-3.37-1.95-3.35 1.95v43.07l-6.6-3.81V44.24l4.98-2.88 4.97-2.88 9.97 5.76V94.25l2.91-1.68L60 90.36l6.58-3.8 3.37-1.94 3.36-1.94V32.69l-30-17.32-30 17.32v42.24l-6.58-3.8V28.86L43.31 7.75 79.9 28.86v50.01z">
            </path>
          </svg></svg>
        <defs>
          <filter id="colors1490283704">
            <feColorMatrix type="matrix" values="0 0 0 0 0.97265625  0 0 0 0 0.74609375  0 0 0 0 0.29296875  0 0 0 1 0"
              class="icon-fecolormatrix"></feColorMatrix>
          </filter>
          <filter id="colorsf863956420">
            <feColorMatrix type="matrix" values="0 0 0 0 0.99609375  0 0 0 0 0.99609375  0 0 0 0 0.99609375  0 0 0 1 0"
              class="icon-fecolormatrix"></feColorMatrix>
          </filter>
          <filter id="colorsb8362065433">
            <feColorMatrix type="matrix" values="0 0 0 0 0  0 0 0 0 0  0 0 0 0 0  0 0 0 1 0" class="icon-fecolormatrix">
            </feColorMatrix>
          </filter>
        </defs>
      </g>
    </g>
    <g transform="translate(67,8.804969787597656)">
      <g data-gra="path-name" fill-rule="" class="tp-name iconsvg-namesvg" transform="translate(0,0)">
        <g transform="scale(1)">
          <g>
            <path
              d="M15.48 2.16L15.48 2.16 13.09 2.16Q12.33 2.16 11.92 1.57L11.92 1.57 9.45-3.73 7.25 1.08Q6.75 2.11 5.98 2.11L5.98 2.11 3.38 2.11Q2.29 2.07 2.29 0.58L2.29 0.58 2.29-2.88Q2.29-4.23 2.65-5.08L2.65-5.08 6.79-11.97 6.79-32.76Q6.79-34.11 7.88-34.11L7.88-34.11 11.12-34.11Q12.24-34.11 12.24-32.89L12.24-32.89 12.24-11.97 16.11-5.63Q16.56-4.59 16.56-3.19L16.56-3.19 16.56 0.94Q16.56 2.11 15.48 2.16ZM23.31-25.2L36.09-25.2 36.09-26.23 23.31-26.23 23.31-25.2ZM26.19-15.75L33.3-15.75 33.3-16.65 26.19-16.65 26.19-15.75ZM23.31-29.29L36.05-29.29 36.05-30.29 23.31-30.29 23.31-29.29ZM32.31 2.48L32.31 2.48 26.95 2.43Q26.23 2.29 26.23 0.85L26.23 0.85 26.28-9.99Q26.28-11.38 27.09-11.38L27.09-11.38 32.53-11.38Q33.16-11.25 33.16-10.13L33.16-10.13 33.16 0.77Q33.12 2.38 32.31 2.48ZM41.89 2.02L41.89 2.02 37.44 2.02Q36.63 1.93 36.36 1.57L36.36 1.57 34.56-0.22Q34.34-0.58 34.34-1.13L34.34-1.13 34.34-2.83Q34.34-3.38 34.96-3.46L34.96-3.46 39.38-3.46Q39.96-3.46 40.32-3.19L40.32-3.19 42.39-1.03Q42.57-0.81 42.57-0.54L42.57-0.54 42.57 1.62Q42.43 2.02 41.89 2.02ZM26.19-20.52L33.21-20.52 33.21-21.33 33.25-21.64 25.92-21.6Q26.19-21.33 26.19-20.52L26.19-20.52ZM24.52-4.18L24.52-4.18 20.11-4.18Q19.44-4.18 19.21-4.54L19.21-4.54 17.32-6.57Q17.28-6.61 17.19-7.06L17.19-7.06Q16.7-7.15 16.7-7.83L16.7-7.83 16.7-9.49Q16.7-10.62 17.17-11.03 17.64-11.43 18.4-12.01L18.4-12.01 17.23-12.01Q16.61-12.11 16.61-12.6L16.61-12.6 16.61-15.03Q16.61-15.75 17.46-15.75L17.46-15.75 19.98-15.75 19.98-16.65 18.18-16.65Q17.23-16.65 17.23-17.32L17.23-17.32 17.23-19.71Q17.23-20.43 18.09-20.43L18.09-20.43 19.98-20.43Q19.98-21.24 20.2-21.6L20.2-21.6 18.68-21.6Q17.91-21.6 17.53-22.03 17.14-22.45 17.14-23.22L17.14-23.22 17.1-32.22Q17.1-34.06 18.63-34.06L18.63-34.06 40.95-34.02Q42.3-34.02 42.3-32.22L42.3-32.22 42.3-23.4Q42.3-21.64 40.81-21.64L40.81-21.64 39.28-21.64Q39.46-21.33 39.46-20.43L39.46-20.43 41.04-20.43Q41.98-20.43 41.98-19.75L41.98-19.75 41.98-17.32Q41.98-16.65 41.09-16.65L41.09-16.65 39.46-16.65 39.46-15.75 41.67-15.75Q42.66-15.75 42.66-15.07L42.66-15.07 42.66-12.64Q42.66-12.01 41.17-12.01L41.17-12.01Q41.49-11.74 41.78-11.52 42.07-11.29 42.28-11.07 42.48-10.84 42.59-10.53 42.7-10.21 42.7-9.67L42.7-9.67 42.7-8.05Q42.7-7.56 42.52-7.13 42.34-6.71 42.25-6.61L42.25-6.61 40.32-4.63Q40.18-4.27 39.51-4.27L39.51-4.27 34.96-4.27Q34.34-4.32 34.31-4.88 34.29-5.44 34.24-6.03L34.24-6.03Q34.24-6.39 34.42-6.52L34.42-6.52 36.45-8.55Q33.16-11.83 33.07-12.01L33.07-12.01 26.28-12.01 26.28-11.79 23.04-8.5 25.11-6.43Q25.2-6.25 25.2-4.81L25.2-4.81Q25.2-4.18 24.52-4.18ZM22.09 2.07L22.09 2.07 17.77 2.07Q17.14 2.07 17.1 1.75L17.1 1.75 17.1-0.45Q17.1-0.72 17.28-0.9L17.28-0.9 19.26-3.1Q19.57-3.38 20.2-3.38L20.2-3.38 24.52-3.38Q25.11-3.33 25.2-2.79L25.2-2.79 25.2-0.99Q25.2-0.45 24.93-0.14L24.93-0.14 23.18 1.71Q22.9 2.07 22.09 2.07ZM15.52-11.56L15.52-11.56 13.23-11.56Q12.73-11.56 12.69-13.9L12.69-13.9 13.05-29.83Q13.23-31.45 13.54-31.45L13.54-31.45 16.16-31.36Q16.34-31.36 16.43-30.2L16.43-30.2 16.43-23.04Q16.43-23.13 16.4-22.34 16.38-21.55 16.34-20.27 16.29-18.99 16.22-17.48 16.16-15.97 16.06-14.65 15.97-13.32 15.84-12.44 15.71-11.56 15.52-11.56ZM5.71-11.65L5.71-11.65 3.33-11.65Q2.92-11.65 2.83-14.04L2.83-14.04 2.38-21.06 2.38-30.29Q2.43-31.5 2.65-31.5L2.65-31.5 5.4-31.59Q5.71-31.59 5.94-29.97L5.94-29.97 6.12-20.65Q6.21-19.26 6.28-17.62 6.34-15.97 6.34-14.04L6.34-14.04Q6.34-11.65 5.71-11.65ZM80.64 2.61L80.64 2.61 73.13 2.56Q71.82 2.56 71.82 1.48L71.82 1.48 71.82-10.35 67.14-10.35Q65.92-10.35 65.92-11.52L65.92-11.52 65.92-18.18Q65.92-19.39 67.05-19.39L67.05-19.39 71.82-19.39 71.82-25.15 67.91-25.15Q66.64-25.15 66.64-26.28L66.64-26.28 66.64-33.03Q66.64-34.16 67.81-34.16L67.81-34.16 85.86-34.11Q87.12-34.11 87.12-33.03L87.12-33.03 87.16-26.28Q87.16-25.15 86.04-25.15L86.04-25.15 81.9-25.15 81.9-19.39 86.81-19.39Q87.66-19.39 87.8-18.4L87.8-18.4 87.8-11.7Q87.7-10.35 86.53-10.35L86.53-10.35 81.85-10.35 81.81 1.48Q81.81 2.52 80.64 2.61ZM54.99-22.77L57.69-22.77 57.69-26.55 54.99-26.55 54.99-22.77ZM64.03 2.29L64.03 2.29 58.55 2.29Q57.55 2.29 57.55 1.35L57.55 1.35 57.42-4.05 54.95-4.05 54.9 1.26Q54.9 2.29 53.5 2.29L53.5 2.29 48.6 2.29Q47.16 2.29 47.16 1.13L47.16 1.13 47.48-32.71Q47.52-34.11 49.09-34.2L49.09-34.2 63.41-34.24Q65.07-34.2 65.07-32.85L65.07-32.85 65.03 1.03Q65.03 2.25 64.03 2.29ZM54.9-11.97L57.6-11.97 57.6-15.79 54.9-15.79 54.9-11.97ZM120.69 1.84L120.69 1.84 114.84 1.84Q112.72 1.84 112.23-0.4L112.23-0.4 110.7-6.79 102.11-6.79 100.71-0.36Q100.35 1.84 98.23 1.84L98.23 1.84 92.39 1.84Q90.31 1.84 90.31-0.22L90.31-0.22Q90.31-0.63 97.38-30.82L97.38-30.82Q98.33-34.29 101.47-34.29L101.47-34.29 111.78-34.29Q115.42-34.11 115.88-31.18L115.88-31.18Q123.03-0.9 123.03-0.4L123.03-0.4Q123.03 1.84 120.69 1.84ZM103.68-16.56L109.17-16.56 107.86-23.45Q107.59-24.52 106.74-24.52L106.74-24.52 106.16-24.52Q105.3-24.52 105.08-23.45L105.08-23.45 103.68-16.56ZM139.23-31.95L139.23-1.21Q139.23 1.84 136.84 1.84L136.84 1.84 130.63 1.84Q128.66 1.84 128.66-0.85L128.66-0.85 128.66-31.86Q128.66-34.47 131.17-34.47L131.17-34.47 136.8-34.47Q139.23-34.47 139.23-31.95L139.23-31.95Z"
              transform="translate(-2.2899999618530273, 34.470001220703125)"></path>
          </g>
          <!---->
          <!---->
          <!---->
          <!---->
          <!---->
          <!---->
          <!---->
        </g>
      </g>
      <g data-gra="path-slogan" fill-rule="" class="tp-slogan iconsvg-slogansvg" fill="#ffe599"
        transform="translate(1.720001220703125,43.08000183105469)">
        <rect width="0"></rect>
        <rect x="136.5" width="0"></rect>
        <g transform="translate(0,0)">
          <g transform="scale(1)">
            <path
              d="M6.56 0L5.72-2.48L2.25-2.48L1.36 0L0.19 0L3.42-8.58L4.73-8.58L7.83 0L6.56 0ZM3.98-7.31L2.63-3.52L5.30-3.52L4.03-7.31L3.98-7.31ZM9.05-8.58L10.22-8.58L10.22 0L9.05 0L9.05-8.58ZM23.77-8.58L23.77 0L22.64 0L22.64-5.06Q22.64-5.77 22.64-7.22L22.64-7.22L20.20 0L19.03 0L16.64-7.22L16.59-7.22Q16.59-6.70 16.64-5.67L16.64-5.67Q16.64-5.16 16.64-5.06L16.64-5.06L16.64 0L15.47 0L15.47-8.58L17.16-8.58L19.64-1.31L22.08-8.58L23.77-8.58ZM31.13 0L30.28-2.48L26.81-2.48L25.92 0L24.75 0L27.98-8.58L29.30-8.58L32.39 0L31.13 0ZM28.55-7.31L27.19-3.52L29.86-3.52L28.59-7.31L28.55-7.31ZM35.95-4.31L34.59-3.05L34.59 0L33.42 0L33.42-8.58L34.59-8.58L34.59-4.41L38.77-8.58L40.41-8.58L36.80-5.11L40.50 0L38.95 0L35.95-4.31ZM42.70-1.03L47.86-1.03L47.86 0L41.53 0L41.53-8.58L47.77-8.58L47.77-7.59L42.70-7.59L42.70-4.92L47.39-4.92L47.39-3.89L42.70-3.89L42.70-1.03ZM52.69-8.58L53.86-8.58L53.86-1.03L58.22-1.03L58.22 0L52.69 0L52.69-8.58ZM59.53-8.58L60.70-8.58L60.70 0L59.53 0L59.53-8.58ZM68.20-3.89L63.98-3.89L63.98 0L62.81 0L62.81-8.58L68.77-8.58L68.77-7.59L63.98-7.59L63.98-4.92L68.20-4.92L68.20-3.89ZM71.25-1.03L76.41-1.03L76.41 0L70.08 0L70.08-8.58L76.31-8.58L76.31-7.59L71.25-7.59L71.25-4.92L75.94-4.92L75.94-3.89L71.25-3.89L71.25-1.03ZM84.47-7.64L82.41-7.64L82.41-4.97L84.47-4.97Q86.30-4.92 86.25-6.38L86.25-6.38Q86.25-7.64 84.47-7.64L84.47-7.64ZM84.94 0L81.23 0L81.23-8.58L85.03-8.58Q87.33-8.48 87.42-6.42L87.42-6.42Q87.42-5.16 86.30-4.64L86.30-4.64Q87.89-4.08 87.89-2.53L87.89-2.53Q87.75-0.09 84.94 0L84.94 0ZM84.66-3.98L82.41-3.98L82.41-0.98L84.89-0.98Q86.67-1.03 86.72-2.53L86.72-2.53Q86.72-3.98 84.66-3.98L84.66-3.98ZM90.52-1.03L95.67-1.03L95.67 0L89.34 0L89.34-8.58L95.58-8.58L95.58-7.59L90.52-7.59L90.52-4.92L95.20-4.92L95.20-3.89L90.52-3.89L90.52-1.03ZM99.38-7.59L96.47-7.59L96.47-8.58L103.41-8.58L103.41-7.59L100.50-7.59L100.50 0L99.38 0L99.38-7.59ZM106.64-7.59L103.73-7.59L103.73-8.58L110.67-8.58L110.67-7.59L107.77-7.59L107.77 0L106.64 0L106.64-7.59ZM113.02-1.03L118.17-1.03L118.17 0L111.84 0L111.84-8.58L118.08-8.58L118.08-7.59L113.02-7.59L113.02-4.92L117.70-4.92L117.70-3.89L113.02-3.89L113.02-1.03ZM123.80-3.70L120.98-3.70L120.98 0L119.81 0L119.81-8.58L123.80-8.58Q126.66-8.58 126.66-6.28L126.66-6.28Q126.66-4.88 125.44-4.22L125.44-4.22Q126.47-3.94 126.47-2.58L126.47-2.58L126.56-1.03Q126.52-0.38 126.98-0.19L126.98-0.19L126.98 0L125.53 0Q125.39-0.61 125.34-2.16L125.34-2.16Q125.39-3.70 123.80-3.70L123.80-3.70ZM123.89-7.64L120.98-7.64L120.98-4.69L123.70-4.69Q125.44-4.69 125.44-6.19L125.44-6.19Q125.44-7.64 123.89-7.64L123.89-7.64ZM133.22-3.89L133.22-3.89L133.69-3.23Q133.03-2.20 132.19-2.20L132.19-2.20Q131.67-2.20 130.97-2.58L130.97-2.58Q130.22-3.05 129.56-3.05L129.56-3.05Q128.95-3.05 128.53-2.16L128.53-2.16L128.11-2.81Q128.67-3.84 129.61-3.84L129.61-3.84Q130.03-3.84 130.97-3.47L130.97-3.47Q131.77-3.09 132.19-3.05L132.19-3.05Q132.70-3 133.22-3.89Z"
              transform="translate(-0.1875, 8.578125)"></path>
          </g>
        </g>
      </g>
    </g>
  </g>
  <defs v-gra="od"></defs>
</svg>
