<svg data-v-0dd9719b="" viewBox="0,0,200,200" version="1.0" xmlns="http://www.w3.org/2000/svg" xmlns:xlink="http://www.w3.org/1999/xlink"
 preserveAspectRatio="xMidYMid meet"
  color-interpolation-filters="sRGB" style="margin: auto;">
  <g data-v-0dd9719b="" fill="#000000" class="icon-text-wrapper icon-svg-group iconsvg">
    <g class="iconsvg-imagesvg" transform="translate(34.97704315185547,0)">
      <g>
        <rect fill="#000000" fill-opacity="0" stroke-width="2" x="0" y="0" width="60" height="54.857142857142854"
          class="image-rect"></rect> <svg x="0" y="0" width="60" height="54.857142857142854"
          filtersec="colorsb4483078894" class="image-svg-svg primary" style="overflow: visible;"><svg fill="#000000"
            xmlns="http://www.w3.org/2000/svg" xmlns:xlink="http://www.w3.org/1999/xlink" version="1.1" x="0px" y="0px"
            viewBox="11.899999618530273 13.199999809265137 80.5 73.5999984741211"
            style="enable-background:new 0 0 100 100;" xml:space="preserve">
            <g>
              <rect x="11.9" y="39.5" width="8" height="20.9"></rect>
            </g>
            <g>
              <rect x="30" y="25.6" width="8" height="48.9"></rect>
            </g>
            <g>
              <rect x="48.1" y="13.2" width="8" height="73.6"></rect>
            </g>
            <g>
              <rect x="84.4" y="39.5" width="8" height="20.9"></rect>
            </g>
            <g>
              <rect x="66.3" y="25.6" width="8" height="48.9"></rect>
            </g>
          </svg></svg>
        <!---->
      </g>
    </g>
    <g transform="translate(0,61.85714340209961)">
      <g data-gra="path-name" fill-rule="" class="tp-name iconsvg-namesvg" transform="translate(0,0)">
        <g transform="scale(1)">
          <g>
            <path
              d="M22.15-15.47L22.15-16.52 18.98-16.52Q16.88-15.82 16.88-16.88L16.88-16.88Q17.23-17.58 18.28-17.93L18.28-17.93 22.15-17.93 22.15-18.98Q21.8-18.98 21.09-18.98L21.09-18.98Q18.63-17.93 18.63-20.04 18.63-22.15 17.93-25.31L17.93-25.31Q17.93-28.13 21.45-27.07L21.45-27.07Q27.42-26.72 33.05-27.07L33.05-27.07Q36.91-28.13 36.21-24.61L36.21-24.61Q35.86-23.2 35.86-21.45L35.86-21.45Q36.21-18.28 32.34-19.34L32.34-19.34 32.34-18.28Q36.21-18.28 37.27-17.93L37.27-17.93Q38.32-17.23 37.27-16.88L37.27-16.88Q34.8-16.52 32.34-16.88L32.34-16.88Q31.99-16.17 32.34-15.47L32.34-15.47 38.67-15.12Q39.73-14.06 38.32-13.71L38.32-13.71Q35.86-13.71 35.51-13.71L35.51-13.71 32.7-14.06Q40.43-9.14 43.59-8.09L43.59-8.09Q40.43-3.52 37.27-6.33L37.27-6.33Q35.51-8.44 29.18-14.06L29.18-14.06Q26.72-14.06 24.96-13.71L24.96-13.71Q17.23-4.57 13.71-5.27L13.71-5.27Q10.9-5.63 11.6-7.03L11.6-7.03Q16.52-8.09 22.15-13.71L22.15-13.71Q18.98-13.36 17.23-13.01L17.23-13.01Q16.52-13.01 16.52-13.36L16.52-13.36Q16.52-14.41 17.58-15.12L17.58-15.12 22.15-15.47ZM25.66-15.47L25.66-15.47 29.18-15.47 29.18-16.52Q27.07-16.88 25.66-16.52L25.66-16.52Q25.31-16.17 25.66-15.47ZM32.7-9.84L32.7-9.84Q33.05-8.79 30.59-7.73L30.59-7.73Q29.88-7.73 29.88-8.09L29.88-8.09Q30.94-11.6 32.7-9.84ZM22.85-10.2L23.91-9.14Q24.61-7.38 22.85-8.09L22.85-8.09Q20.04-9.49 22.85-10.2L22.85-10.2ZM15.47-21.45L15.47-21.45Q15.12-20.04 14.06-18.98L14.06-18.98Q13.01-18.28 13.01-19.34L13.01-19.34Q13.36-21.8 13.36-23.2L13.36-23.2Q13.71-24.26 14.77-24.61L14.77-24.61Q16.52-23.55 15.47-21.45ZM4.92-16.88L4.92-16.88Q4.57-20.04 3.87-22.5L3.87-22.5Q3.87-24.96 6.33-23.91L6.33-23.91Q7.38-21.8 6.33-17.23L6.33-17.23Q5.63-15.82 4.92-16.88ZM11.6-24.26L11.6-24.26Q11.95-18.28 11.25-13.01L11.25-13.01Q12.3-14.41 15.47-10.2L15.47-10.2Q15.82-8.79 14.06-9.49L14.06-9.49Q12.3-10.55 10.9-11.25L10.9-11.25Q8.79-2.81 3.87-2.81L3.87-2.81Q0-3.16 1.05-5.27L1.05-5.27Q7.03-7.03 8.09-12.66L8.09-12.66Q9.49-18.63 7.73-25.66L7.73-25.66Q8.09-27.77 9.84-27.42L9.84-27.42Q11.25-27.07 11.6-24.26ZM27.77-13.01L27.77-13.01Q29.18-12.3 28.83-11.25L28.83-11.25 28.83-6.33Q29.88-8.44 33.05-5.98L33.05-5.98Q35.16-4.22 36.91-2.81L36.91-2.81Q37.27-1.76 36.21-2.11L36.21-2.11Q34.1-2.81 31.99-3.87L31.99-3.87Q29.53-4.92 28.83-5.63L28.83-5.63Q29.18-2.11 27.42-1.05L27.42-1.05Q24.26 0 21.8-3.52L21.8-3.52Q21.8-3.87 22.15-3.87L22.15-3.87Q22.85-3.52 23.91-3.16L23.91-3.16Q25.31-2.81 24.96-4.57L24.96-4.57 24.96-6.68Q20.74-3.52 18.98-3.16L18.98-3.16Q17.58-2.81 17.23-4.22L17.23-4.22Q17.23-5.27 18.28-5.63L18.28-5.63Q20.74-6.33 24.96-8.09L24.96-8.09 24.96-10.55Q24.96-14.06 27.77-13.01ZM29.18-17.93L29.18-19.34 25.66-19.34 25.66-17.93 29.18-17.93ZM21.45-22.5L21.45-22.5Q21.09-20.74 21.8-21.09L21.8-21.09Q27.42-20.74 32.34-21.09L32.34-21.09Q33.75-21.45 33.05-22.5L33.05-22.5Q27.07-22.85 21.45-22.5ZM32.7-25.31L32.7-25.31Q26.72-25.66 21.45-25.31L21.45-25.31Q20.74-23.91 21.8-23.91L21.8-23.91 32.7-23.91Q33.75-24.61 32.7-25.31ZM59.06-26.72L59.06-26.72Q60.47-27.42 61.17-27.07L61.17-27.07Q63.28-26.72 63.28-24.61L63.28-24.61Q62.58-23.2 62.58-20.39L62.58-20.39 62.58-15.82Q63.28-17.58 64.69-17.93L64.69-17.93Q66.09-17.58 71.72-17.58L71.72-17.58Q72.07-21.45 71.72-23.2L71.72-23.2Q67.85-23.2 65.74-22.5L65.74-22.5Q64.69-22.5 65.04-24.26L65.04-24.26Q65.74-26.37 67.5-26.37L67.5-26.37Q69.26-25.66 74.18-26.02L74.18-26.02Q77.34-26.02 80.86-25.66L80.86-25.66Q82.62-25.31 82.97-24.26L82.97-24.26Q82.97-23.2 81.91-23.2L81.91-23.2Q78.05-23.55 75.94-23.2L75.94-23.2Q75.23-22.5 75.23-17.58L75.23-17.58Q84.38-16.88 88.24-17.58L88.24-17.58Q86.48-11.95 82.97-13.36L82.97-13.36Q79.45-14.41 75.59-14.77L75.59-14.77Q75.59-8.79 76.29-2.81L76.29-2.81Q76.29-2.11 75.59-1.41L75.59-1.41Q74.53-0.35 72.77-0.7L72.77-0.7Q71.37-0.7 71.37-3.52L71.37-3.52Q71.72-4.92 71.72-6.68L71.72-6.68 71.72-15.12Q66.09-14.77 63.98-14.06L63.98-14.06Q62.93-14.06 62.58-15.12L62.58-15.12Q62.58-9.49 62.93-6.33L62.93-6.33Q62.93-4.57 62.93-3.16L62.93-3.16Q63.28-0.7 60.12-1.05L60.12-1.05Q59.06-1.41 59.06-2.81L59.06-2.81Q59.41-9.84 59.06-11.95L59.06-11.95Q56.6-11.95 54.49-11.6L54.49-11.6Q53.44-6.68 51.33-3.87L51.33-3.87Q48.87-2.11 46.05-3.52L46.05-3.52Q45.35-4.22 45.7-5.27L45.7-5.27Q46.41-5.98 47.46-7.03L47.46-7.03Q49.92-9.14 50.98-11.25L50.98-11.25Q52.03-14.06 52.03-16.17L52.03-16.17Q52.03-19.34 52.03-22.5L52.03-22.5Q51.68-23.55 51.33-24.96L51.33-24.96Q51.68-27.42 53.44-27.07L53.44-27.07Q54.49-26.72 56.25-26.37L56.25-26.37Q58.01-25.66 59.06-26.72ZM55.2-20.39L55.2-20.39Q56.95-19.69 59.06-20.39L59.06-20.39Q59.77-21.45 59.41-23.2L59.41-23.2Q59.06-24.26 55.55-23.55L55.55-23.55Q54.49-23.2 55.2-20.39ZM59.06-14.41L59.06-14.41Q60.12-16.17 59.06-17.58L59.06-17.58Q56.6-18.28 55.2-17.58L55.2-17.58Q55.2-16.17 54.84-14.41L54.84-14.41Q56.95-13.71 59.06-14.41ZM106-4.22L104.24-11.95 96.33-11.95 94.75-5.27Q94.39-3.69 94.75-2.72 95.1-1.76 96.33-1.76L96.33-1.76 96.86-1.76 96.86-0.7 90.35-0.7 90.35-1.76 90.88-1.76Q91.58-1.76 92.11-2.2 92.64-2.64 92.81-3.69L92.81-3.69 99.67-30.59 102.3-31.46 108.98-3.69Q109.34-2.64 109.86-2.2 110.39-1.76 111.09-1.76L111.09-1.76 111.62-1.76 111.62-0.7 104.06-0.7 104.06-1.76 104.77-1.76Q105.82-1.76 106.08-2.37 106.35-2.99 106-4.22L106-4.22ZM104.06-13.01L100.55-27.6 100.37-27.6 96.68-13.01 104.06-13.01ZM120.76-29.71L116.72-29.71 116.72-30.76 130.78-30.76 130.78-29.71 126.74-29.71Q126.04-29.71 125.6-29.36 125.16-29 125.16-28.3L125.16-28.3 125.16-3.16Q125.16-2.46 125.6-2.11 126.04-1.76 126.74-1.76L126.74-1.76 130.78-1.76 130.78-0.7 116.72-0.7 116.72-1.76 120.76-1.76Q121.64-1.76 121.99-2.11 122.34-2.46 122.34-3.16L122.34-3.16 122.34-28.3Q122.34-29 121.99-29.36 121.64-29.71 120.76-29.71L120.76-29.71Z"
              transform="translate(-0.8259148597717285, 31.459999084472656)"></path>
          </g>
          <!---->
          <!---->
          <!---->
          <!---->
          <!---->
          <!---->
          <!---->
        </g>
      </g>
      <g data-gra="path-slogan" fill-rule="" class="tp-slogan iconsvg-slogansvg" fill="#000000"
        transform="translate(-1.7729568481445312,36.84687805175781)">
        <rect width="0"></rect>
        <rect x="136.5" width="0"></rect>
        <g transform="translate(0,0)">
          <g transform="scale(1)">
            <path
              d="M6.56 0L5.72-2.48L2.25-2.48L1.36 0L0.19 0L3.42-8.58L4.73-8.58L7.83 0L6.56 0ZM3.98-7.31L2.63-3.52L5.30-3.52L4.03-7.31L3.98-7.31ZM9.05-8.58L10.22-8.58L10.22 0L9.05 0L9.05-8.58ZM23.77-8.58L23.77 0L22.64 0L22.64-5.06Q22.64-5.77 22.64-7.22L22.64-7.22L20.20 0L19.03 0L16.64-7.22L16.59-7.22Q16.59-6.70 16.64-5.67L16.64-5.67Q16.64-5.16 16.64-5.06L16.64-5.06L16.64 0L15.47 0L15.47-8.58L17.16-8.58L19.64-1.31L22.08-8.58L23.77-8.58ZM31.13 0L30.28-2.48L26.81-2.48L25.92 0L24.75 0L27.98-8.58L29.30-8.58L32.39 0L31.13 0ZM28.55-7.31L27.19-3.52L29.86-3.52L28.59-7.31L28.55-7.31ZM35.95-4.31L34.59-3.05L34.59 0L33.42 0L33.42-8.58L34.59-8.58L34.59-4.41L38.77-8.58L40.41-8.58L36.80-5.11L40.50 0L38.95 0L35.95-4.31ZM42.70-1.03L47.86-1.03L47.86 0L41.53 0L41.53-8.58L47.77-8.58L47.77-7.59L42.70-7.59L42.70-4.92L47.39-4.92L47.39-3.89L42.70-3.89L42.70-1.03ZM52.69-8.58L53.86-8.58L53.86-1.03L58.22-1.03L58.22 0L52.69 0L52.69-8.58ZM59.53-8.58L60.70-8.58L60.70 0L59.53 0L59.53-8.58ZM68.20-3.89L63.98-3.89L63.98 0L62.81 0L62.81-8.58L68.77-8.58L68.77-7.59L63.98-7.59L63.98-4.92L68.20-4.92L68.20-3.89ZM71.25-1.03L76.41-1.03L76.41 0L70.08 0L70.08-8.58L76.31-8.58L76.31-7.59L71.25-7.59L71.25-4.92L75.94-4.92L75.94-3.89L71.25-3.89L71.25-1.03ZM84.47-7.64L82.41-7.64L82.41-4.97L84.47-4.97Q86.30-4.92 86.25-6.38L86.25-6.38Q86.25-7.64 84.47-7.64L84.47-7.64ZM84.94 0L81.23 0L81.23-8.58L85.03-8.58Q87.33-8.48 87.42-6.42L87.42-6.42Q87.42-5.16 86.30-4.64L86.30-4.64Q87.89-4.08 87.89-2.53L87.89-2.53Q87.75-0.09 84.94 0L84.94 0ZM84.66-3.98L82.41-3.98L82.41-0.98L84.89-0.98Q86.67-1.03 86.72-2.53L86.72-2.53Q86.72-3.98 84.66-3.98L84.66-3.98ZM90.52-1.03L95.67-1.03L95.67 0L89.34 0L89.34-8.58L95.58-8.58L95.58-7.59L90.52-7.59L90.52-4.92L95.20-4.92L95.20-3.89L90.52-3.89L90.52-1.03ZM99.38-7.59L96.47-7.59L96.47-8.58L103.41-8.58L103.41-7.59L100.50-7.59L100.50 0L99.38 0L99.38-7.59ZM106.64-7.59L103.73-7.59L103.73-8.58L110.67-8.58L110.67-7.59L107.77-7.59L107.77 0L106.64 0L106.64-7.59ZM113.02-1.03L118.17-1.03L118.17 0L111.84 0L111.84-8.58L118.08-8.58L118.08-7.59L113.02-7.59L113.02-4.92L117.70-4.92L117.70-3.89L113.02-3.89L113.02-1.03ZM123.80-3.70L120.98-3.70L120.98 0L119.81 0L119.81-8.58L123.80-8.58Q126.66-8.58 126.66-6.28L126.66-6.28Q126.66-4.88 125.44-4.22L125.44-4.22Q126.47-3.94 126.47-2.58L126.47-2.58L126.56-1.03Q126.52-0.38 126.98-0.19L126.98-0.19L126.98 0L125.53 0Q125.39-0.61 125.34-2.16L125.34-2.16Q125.39-3.70 123.80-3.70L123.80-3.70ZM123.89-7.64L120.98-7.64L120.98-4.69L123.70-4.69Q125.44-4.69 125.44-6.19L125.44-6.19Q125.44-7.64 123.89-7.64L123.89-7.64ZM133.22-3.89L133.22-3.89L133.69-3.23Q133.03-2.20 132.19-2.20L132.19-2.20Q131.67-2.20 130.97-2.58L130.97-2.58Q130.22-3.05 129.56-3.05L129.56-3.05Q128.95-3.05 128.53-2.16L128.53-2.16L128.11-2.81Q128.67-3.84 129.61-3.84L129.61-3.84Q130.03-3.84 130.97-3.47L130.97-3.47Q131.77-3.09 132.19-3.05L132.19-3.05Q132.70-3 133.22-3.89Z"
              transform="translate(-0.1875, 8.578125)"></path>
          </g>
        </g>
      </g>
    </g>
  </g>
  <defs v-gra="od"></defs>
</svg>
